<svg id="next1_next_pixel_play_solid1_pixel_play_solid_PLay" viewBox="0 0 24 24" fill="#6b7280" width="32" height="32" xmlns="http://www.w3.org/2000/svg" xmlns:xlink="http://www.w3.org/1999/xlink"><polygon points="23.9 11.424125 23.9 12.575875 23.324125 12.575875 23.324125 13.151749 22.748251 13.151749 22.748251 13.727624 21.596501 13.727624 21.596501 14.303499 20.444752 14.303499 20.444752 14.879374 19.868877 14.879374 19.868877 15.455248 18.717128 15.455248 18.717128 16.031123 17.565378 16.031123 17.565378 16.606998 16.989504 16.606998 16.989504 17.182872 15.837754 17.182872 15.837754 17.758747 14.686005 17.758747 14.686005 18.334622 12.958381 18.334622 12.958381 17.758747 12.382506 17.758747 12.382506 6.241253 12.958381 6.241253 12.958381 5.665378 14.686005 5.665378 14.686005 6.241253 15.837754 6.241253 15.837754 6.817128 16.989504 6.817128 16.989504 7.393002 17.565378 7.393002 17.565378 7.968877 18.717128 7.968877 18.717128 8.544752 19.868877 8.544752 19.868877 9.120626 20.444752 9.120626 20.444752 9.696501 21.596501 9.696501 21.596501 10.272376 22.748251 10.272376 22.748251 10.848251 23.324125 10.848251 23.324125 11.424125 23.9 11.424125" /><polygon points="11.767494 11.424125 11.767494 12.575875 11.191619 12.575875 11.191619 13.151749 10.615745 13.151749 10.615745 13.727624 9.463995 13.727624 9.463995 14.303499 8.312246 14.303499 8.312246 14.879374 7.736371 14.879374 7.736371 15.455248 6.584622 15.455248 6.584622 16.031123 5.432872 16.031123 5.432872 16.606998 4.856998 16.606998 4.856998 17.182872 3.705248 17.182872 3.705248 17.758747 2.553499 17.758747 2.553499 18.334622 0.825875 18.334622 0.825875 17.758747 0.25 17.758747 0.25 6.241253 0.825875 6.241253 0.825875 5.665378 2.553499 5.665378 2.553499 6.241253 3.705248 6.241253 3.705248 6.817128 4.856998 6.817128 4.856998 7.393002 5.432872 7.393002 5.432872 7.968877 6.584622 7.968877 6.584622 8.544752 7.736371 8.544752 7.736371 9.120626 8.312246 9.120626 8.312246 9.696501 9.463995 9.696501 9.463995 10.272376 10.615745 10.272376 10.615745 10.848251 11.191619 10.848251 11.191619 11.424125 11.767494 11.424125" /></svg>