<svg id="Music" viewBox="0 0 24 24" fill="#fafafa" xmlns="http://www.w3.org/2000/svg" xmlns:xlink="http://www.w3.org/1999/xlink"><polygon points="23.95 0.05 23.95 18.518182 22.863636 18.518182 22.863636 19.604545 21.777273 19.604545 21.777273 20.690909 17.431818 20.690909 17.431818 19.604545 16.345455 19.604545 16.345455 18.518182 15.259091 18.518182 15.259091 15.259091 16.345455 15.259091 16.345455 14.172727 17.431818 14.172727 17.431818 13.086364 20.690909 13.086364 20.690909 7.654545 18.518182 7.654545 18.518182 8.740909 15.259091 8.740909 15.259091 9.827273 10.913636 9.827273 10.913636 10.913636 8.740909 10.913636 8.740909 21.777273 7.654545 21.777273 7.654545 22.863636 6.568182 22.863636 6.568182 23.95 2.222727 23.95 2.222727 22.863636 1.136364 22.863636 1.136364 21.777273 0.05 21.777273 0.05 18.518182 1.136364 18.518182 1.136364 17.431818 2.222727 17.431818 2.222727 16.345455 5.481818 16.345455 5.481818 5.481818 7.654545 5.481818 7.654545 4.395455 10.913636 4.395455 10.913636 3.309091 15.259091 3.309091 15.259091 2.222727 18.518182 2.222727 18.518182 1.136364 21.777273 1.136364 21.777273 0.05 23.95 0.05" /></svg>