<svg id="Sound_On" viewBox="0 0 24 24" fill="#fafafa" xmlns="http://www.w3.org/2000/svg" xmlns:xlink="http://www.w3.org/1999/xlink">
  <polygon points="14.163636 1.181818 14.163636 22.818182 10.918182 22.818182 10.918182 21.736364 9.836364 21.736364 9.836364 20.654545 8.754545 20.654545 8.754545 19.572727 7.672727 19.572727 7.672727 18.490909 6.590909 18.490909 6.590909 17.409091 5.509091 17.409091 5.509091 16.327273 0.1 16.327273 0.1 7.672727 5.509091 7.672727 5.509091 6.590909 6.590909 6.590909 6.590909 5.509091 7.672727 5.509091 7.672727 4.427273 8.754545 4.427273 8.754545 3.345455 9.836364 3.345455 9.836364 2.263636 10.918182 2.263636 10.918182 1.181818 14.163636 1.181818" />
  <polygon points="17.409091 15.245455 17.409091 14.163636 16.327273 14.163636 16.327273 13.081818 17.409091 13.081818 17.409091 10.918182 16.327273 10.918182 16.327273 9.836364 17.409091 9.836364 17.409091 8.754545 18.490909 8.754545 18.490909 9.836364 19.572727 9.836364 19.572727 14.163636 18.490909 14.163636 18.490909 15.245455 17.409091 15.245455" />
  <polygon points="23.9 9.836364 23.9 14.163636 22.818182 14.163636 22.818182 16.327273 21.736364 16.327273 21.736364 17.409091 20.654545 17.409091 20.654545 18.490909 19.572727 18.490909 19.572727 17.409091 18.490909 17.409091 18.490909 16.327273 19.572727 16.327273 19.572727 15.245455 20.654545 15.245455 20.654545 14.163636 21.736364 14.163636 21.736364 9.836364 20.654545 9.836364 20.654545 8.754545 19.572727 8.754545 19.572727 7.672727 18.490909 7.672727 18.490909 6.590909 19.572727 6.590909 19.572727 5.509091 20.654545 5.509091 20.654545 6.590909 21.736364 6.590909 21.736364 7.672727 22.818182 7.672727 22.818182 9.836364 23.9 9.836364" />
</svg>