<svg viewBox="0 0 512 512" fill="#2c5356" width="200" height="200" version="1.1" xmlns="http://www.w3.org/2000/svg" xmlns:xlink="http://www.w3.org/1999/xlink">
  <path fill="#272727" transform="translate(121 59)" d="M-35.6961-50.9739c23.6757 0 47.3513 0 71.7444 0 1.6615 1.6615 3.3229 3.3229 5.0347 5.0347 0 6.2305 0 12.4609 0 18.8802-1.2461 1.6614-2.4921 3.3229-3.776 5.0347-1.5397 0.1087-3.0795 0.2174-4.6659 0.3294-16.3844 1.3109-32.6771 3.7123-48.0067 9.9366-2.7091 1.062-2.7091 1.062-6.4851 1.062 0 54.4125 0 108.825 0 164.8864 2.9076 0 5.8151 0 8.8107 0-0.1038-1.6355-0.2076-3.271-0.3146-4.9561 0.0372-13.1638 4.0931-26.2911 8.6534-38.5469 7.2971-17.8127 18.747-33.2424 31.9388-47.1216 13.7693-14.1196 31.0085-24.8222 48.9488-32.8577 20.616-8.7414 42.2687-13.3503 64.6776-13.7664 23.2126-0.1868 45.4334 3.6067 67.1351 11.8769 15.7236 6.2984 30.3948 14.9103 43.2826 25.9365 1.0319 0.8794 2.0638 1.7588 3.127 2.6648 14.2504 12.48 26.082 26.7678 34.6529 43.7242 7.0533 14.8433 12.052 31.23 13.5897 47.6182 0.1015 1.8082 0.1913 3.6176 0.236 5.4281 2.4922 0.4153 4.9844 0.8307 7.5521 1.2586 0.8307 1.2461 1.6614 2.4922 2.5173 3.7761 0.6607 23.5253 1.3174 47.0507 1.9693 70.5762 0.3029 10.9259 0.6071 21.8518 0.9143 32.7777 0.2682 9.5348 0.5338 19.0697 0.7966 28.6048 0.1389 5.0378 0.279 10.0756 0.4221 15.1133 0.5851 20.6242 1.1318 41.2329 0.9324 61.8679-3.8761 4.001-7.5633 6.756-12.4048 9.5433-0.7169 0.4161-1.4337 0.8322-2.1723 1.2609-1.5427 0.8944-3.0874 1.7853-4.6339 2.673-4.1567 2.3866-8.2983 4.7994-12.4427 7.2074-0.8411 0.4876-1.6821 0.9752-2.5487 1.4777-7.6558 4.4426-15.2515 8.9816-22.8313 13.5526-8.8276 5.3175-17.6667 10.614-26.5305 15.8711-0.9053 0.537-1.8106 1.0739-2.7434 1.6272-4.4547 2.6413-8.9106 5.2805-13.3677 7.918-1.6393 0.971-3.2785 1.9422-4.9176 2.9137-0.7766 0.46-1.5532 0.9199-2.3533 1.3939-4.1415 2.4601-8.2438 4.9694-12.3083 7.5545-4.0956 2.5272-4.0956 2.5272-7.8716 3.7859-3.044 0.1141-6.0508 0.1587-9.0944 0.1428-1.3819 3e-4-1.3819 3e-4-2.7918 6e-4-3.0442-9e-4-6.0884-0.0107-9.1327-0.0205-2.1111-24e-4-4.2222-42e-4-6.3333-54e-4-5.5559-48e-4-11.1117-0.0172-16.6676-0.0311-5.6696-0.0129-11.3391-0.0186-17.0087-0.025-11.1241-0.0135-22.2481-0.035-33.3721-0.0614-4.8811-2.8526-9.7611-5.707-14.6401-8.563-1.6513-0.9662-3.3029-1.932-4.9548-2.8973-11.4975-6.7191-22.9253-13.5404-34.2921-20.4786-9.5113-5.8037-19.0371-11.5762-28.625-17.2527-0.9069-0.537-1.8137-1.074-2.7481-1.6273-4.4095-2.6092-8.8219-5.2135-13.2376-7.8121-22.4784-13.2568-22.4784-13.2568-27.3697-18.1482 0.1495-8.8194 0.3066-17.6387 0.4686-26.458 0.0541-2.993 0.1066-5.986 0.1573-8.9791 0.543-31.9061 0.543-31.9061 1.8914-46.3767-3.7382 0-7.4765 0-11.3281 0-1.246-0.8307-2.4921-1.6615-3.776-2.5174-0.2108-41.9854 0.1544-83.9374 2.5174-125.8674 1.2461-1.2461 1.2461-1.2461 2.5173-2.5174 0.4154-55.2432 0.8307-110.4864 1.2587-167.4037-1.6615-0.8307-3.3229-1.6614-5.0347-2.5173 0-10.7994 0-21.5989 0-32.7255 1.6615-1.2461 3.3229-2.4922 5.0347-3.7761zM-26.8854-35.8698c0 3.7383 0 7.4766 0 11.3281 6.1659-0.8601 11.8588-2.4832 17.7788-4.3267 8.6817-2.6401 17.2587-4.5788 26.2748-5.7427 0-0.4154 0-0.8307 0-1.2587-14.5377 0-29.0754 0-44.0536 0zM105.2754 35.8747c-1.5462 0.4283-3.0925 0.8567-4.6856 1.298-16.9563 5.1903-33.9321 13.2587-48.1787 23.8755-5.2615 4.3757-10.1783 9.0997-15.1041 13.8454-0.907 0.8129-1.814 1.6257-2.7484 2.4632-10.1449 9.3693-17.7621 21.4995-23.6684 33.9108-4.909 10.9353-8.1481 22.2875-10.0847 34.1117 0 2.9076 0 5.8151 0 8.8108 94.7026 0 189.4053 0 286.9777 0 0-7.3408-0.3043-12.943-2.124-19.8242-0.2276-0.8743-0.4551-1.7486-0.6896-2.6494-3.924-14.523-10.3582-27.8936-18.5838-40.4601-2.7375-3.3911-5.5676-6.5775-8.5895-9.7154-2.7386-2.8714-2.7386-2.8714-5.7181-6.5786-3.3906-4.1064-7.2173-7.356-11.4166-10.6102-0.7666-0.5958-1.5333-1.1915-2.3231-1.8054-15.5015-11.7834-32.9817-20.4463-51.7621-25.5944-25.6686-6.7844-55.5063-8.3389-81.301-1.0777zM-25.6267 168.0355c-1.8364 34.7747-2.8487 69.6463-2.5174 104.47 0.4154 0 0.8308 0 1.2587 0 1.1286-12.6896 1.6423-25.3459 1.9667-38.0749 0.04-1.4923 0.04-1.4923 0.0808-3.0147 0.5593-21.128 0.6072-42.2465 0.4699-63.3804-0.4154 0-0.8308 0-1.2587 0zM-9.2639 168.0355c-1.1367 5.6834-1.4217 10.8059-1.3816 16.5447 17e-4 0.9689 35e-4 1.9378 54e-4 2.9361 7e-3 3.0776 0.0228 6.1551 0.0388 9.2327 63e-4 2.0937 0.0121 4.1874 0.0172 6.2811 0.0139 5.1175 0.0356 10.2349 0.0615 15.3524 0.7216 0.1577 1.4432 0.3153 2.1867 0.4778 17.9509 3.9693 34.3354 8.1659 49.8418 18.4662 11.9468 8.7411 21.8419 19.0187 29.7853 31.4816 15.285 25.6718 23.5827 53.6498 28.3061 83.0467 3.8547 25.9228 4.8321 51.8202 5.6781 77.985 1.2461 0 2.4922 0 3.7761 0 0-66.0427 0-132.0853 0-200.1293-36.0501-5.0332-36.0501-5.0332-72.1378-9.7547-3.1065-0.3929-6.2128-0.7867-9.3191-1.181-1.8743-0.2377-3.7488-0.4746-5.6235-0.7103-5.3867-0.6805-10.7546-1.4313-16.1309-2.1994 0-10.7994 0-21.5988 0-32.7255 0.4153-0.4154 0.8307-0.8307 1.2586-1.2587 90.5491 0 181.0981 0 274.391 0 0.4154 0.4154 0.8308 0.8307 1.2587 1.2587 0 10.384 0 20.7681 0 31.4668-6.2544 1.787-11.4816 3.0286-17.819 3.8231-0.8526 0.1088-1.7051 0.2176-2.5835 0.3298-2.7876 0.3543-5.5763 0.6992-8.3651 1.0441-1.9508 0.2467-3.9015 0.494-5.8522 0.7421-5.1144 0.6488-10.2299 1.29-15.3456 1.929-8.2006 1.0253-16.3999 2.0608-24.5989 3.0992-2.8582 0.3607-5.717 0.7171-8.5759 1.073-1.7527 0.2206-3.5053 0.4414-5.258 0.6623-2.2912 0.2863-2.2912 0.2863-4.6287 0.5784-4.1113 0.5297-4.1113 0.5297-8.9257 1.8231 0 66.0427 0 132.0853 0 200.1293 0.4154 0 0.8307 0 1.2587 0 0.9882-6.8282 1.4368-13.5196 1.6237-20.4142 1.1301-41.1507 6.5138-82.7993 22.6844-120.9507 7.3299-16.4985 17.5143-30.2421 30.3655-42.908 8.9342-8.3898 18.2117-14.4028 29.5002-19.1604 11.0511-4.0994 22.574-5.8994 34.1416-8.024-0.4154-16.6145-0.8308-33.229-1.2587-50.347-101.7638 0-203.5277 0-308.3752 0zM18.4269 194.4677c0 3.3229 0 6.6458 0 10.0693 1.8324 0.2324 1.8324 0.2324 3.7018 0.4694 11.502 1.4589 23.0035 2.9219 34.5045 4.3888 5.913 0.754 11.8262 1.5066 17.7399 2.256 5.705 0.723 11.4095 1.4497 17.1138 2.179 2.1783 0.2779 4.3568 0.5544 6.5355 0.8295 3.0471 0.3851 6.0937 0.7748 9.1401 1.1658 0.9045 0.1131 1.8089 0.2263 2.7408 0.3429 3.6661 0.4747 6.9573 1.0411 10.4762 2.2141 0.6231 1.2461 0.6231 1.2461 1.2587 2.5173 0.134 2.7425 0.1846 5.4892 0.1991 8.2349 94e-4 1.2831 94e-4 1.2831 0.0189 2.592 0.0194 2.8797 0.0299 5.7593 0.0404 8.6389 0.0121 2.0589 0.0247 4.1178 0.0378 6.1766 0.0341 5.6013 0.0605 11.2026 0.0856 16.8039 0.0275 5.8493 0.062 11.6986 0.0957 17.5478 0.0629 11.0818 0.1194 22.1636 0.1737 33.2454 0.0621 12.614 0.1313 25.228 0.201 37.8419 0.1434 25.9528 0.2769 51.9057 0.4065 77.8586 14.1223 0 28.2446 0 42.7949 0 0.0315-6.3163 0.0631-12.6325 0.0956-19.1401 0.1048-20.8189 0.2164-41.6378 0.3315-62.4567 0.0697-12.6281 0.137-25.2563 0.1989-37.8845 0.0539-11.0034 0.1121-22.0068 0.1756-33.0101 0.0335-5.8292 0.0648-11.6584 0.0909-17.4876 0.0246-5.4816 0.055-10.9632 0.0899-16.4447 0.0118-2.0165 0.0214-4.0329 0.0288-6.0494 0.0104-2.7441 0.0284-5.488 0.0483-8.232 82e-4-1.5385 0.0163-3.0769 0.0246-4.662 0.0576-1.1791 0.1152-2.3581 0.1746-3.5729 0.4153-0.8307 0.8307-1.6614 1.2586-2.5173 11.4277-2.2568 22.9222-3.7805 34.471-5.2412 1.9556-0.2501 3.9112-0.5005 5.8668-0.7512 5.1001-0.6529 10.2007-1.3015 15.3015-1.9491 5.2237-0.664 10.4469-1.3322 15.6701-2.0001 10.2139-1.3054 20.4284-2.6061 30.6433-3.9039 0-3.3229 0-6.6458 0-10.0693-83.0725 0-166.145 0-251.7349 0zM-11.7813 232.2279c-0.4332 12.8747-0.8522 25.7499-1.2587 38.6256-0.0299 0.9468-0.0598 1.8936-0.0906 2.8691-0.9237 29.39-1.5262 58.7425-1.168 88.1487 7.4765 4.3614 7.4765 4.3614 15.1041 8.8108 0.8307-1.2461 1.6614-2.4922 2.5173-3.7761 0.185-2.1027 0.185-2.1027 0.3737-4.248 1.4874-15.6582 3.4428-31.3693 10.325-45.7056 2.3823-4.2967 4.6356-8.2769 8.1814-11.7214 3.2222-2.1411 6.4199-3.7495 10.0694-5.0347 4.4054-0.6293 4.4054-0.6293 8.8107 0 4.5944 1.5406 8.4063 3.8238 12.3114 6.667 5.8359 5.1462 9.5062 11.6462 13.0526 18.4776 11.1648 22.5208 15.4028 48.1469 17.431 73.032 0.5325 7.5466 0.9227 15.0985 1.2586 22.6561 2.0769 1.2461 4.1537 2.4922 6.2934 3.7761 1.2051-39.9676-3.6259-82.1432-16.9577-119.9625-5.6149-15.0438-13.0048-28.8371-23.3199-41.1479-0.8064-1.0432-1.6127-2.0865-2.4436-3.1614-5.5434-6.7005-12.3799-11.7234-19.947-15.9547-11.5193-6.1271-22.7174-10.1567-35.7321-11.7586-1.5876-0.1954-3.1753-0.3908-4.811-0.5921zM274.7196 237.3904c-12.8714 5.2022-23.8222 11.948-33.9302 21.5007-11.5051 12.1631-19.5345 27.2436-25.8175 42.6653-9.9094 25.6768-13.7013 53.2331-16.5546 80.4537-0.1671 1.5187-0.3342 3.0374-0.5064 4.6021-1.1933 12.6855-0.8696 25.4649-0.7522 38.1929 2.4921-1.2461 2.4921-1.2461 5.0347-2.5174 0.9643-4.3866 1.4974-8.6114 1.7552-13.0931 1.7832-28.2102 4.9558-56.59 17.0247-82.5397 2.2502-4.4198 4.8264-8.5429 7.6522-12.6132 0.4981-0.7788 0.9962-1.5576 1.5094-2.36 2.1337-2.9945 4.5829-5.0631 7.6603-7.0358 4.8783-2.6562 8.8973-4.3412 14.4305-5.0789 4.0907 0.6293 4.0907 0.6293 7.8667 1.888 5.2612 3.5074 9.0003 7.3793 12.5867 12.5867 6.3718 12.0222 9.4092 24.9323 10.8561 38.3798 0.6492 6.5005 1.2162 13.0067 1.7307 19.5192 2.2054-1.1749 4.4074-2.3561 6.608-3.54 1.2266-0.6571 2.4532-1.3142 3.717-1.9912 3.0654-1.7597 5.7579-3.6518 8.5551-5.7968-0.3033-12.4649-0.6096-24.9297-0.9195-37.3943-0.1439-5.7912-0.2868-11.5825-0.4274-17.3737-0.8935-36.8195-0.8935-36.8195-2.4291-73.6168-8.3197 0-17.7947 2.6014-25.6504 5.1625zM34.7897 306.4897c-2.9076 1.6614-5.8151 3.3229-8.8108 5.0347-6.6293 9.9881-10.9273 19.8311-13.4078 31.5799-1.8293 10.8024-2.4219 21.6845-2.9549 32.6125 13.5177 8.6487 27.272 16.8941 41.0642 25.0948 0.8955 0.5335 1.7909 1.0671 2.7134 1.6168 2.5978 1.5471 5.1977 3.0903 7.7985 4.6323 0.7783 0.4638 1.5565 0.9275 2.3584 1.4053 4.5888 2.7125 9.2393 5.1996 14.0339 7.5283 0.1883-10.0084-0.226-19.7285-1.4947-29.6575-0.1657-1.3009-0.3314-2.6019-0.5021-3.9422-2.6052-19.0838-7.2809-38.6556-16.3671-55.7563-4.594-7.6881-9.7568-13.4697-16.879-18.89-3.7383-0.623-3.7383-0.623-7.552-1.2586zM250.023 306.4897c-4.0331 1.782-7.3303 3.5875-10.6987 6.4507-8.6432 9.9396-14.1328 20.9115-18.6048 33.2368-7.3344 22.0197-11.1143 46.6195-9.7154 69.8171 10.3573-4.8785 20.0764-10.6875 29.8148-16.6774 1.5652-0.9576 3.1308-1.9146 4.6967-2.871 3.057-1.8674 6.1128-3.7367 9.1678-5.6072 5.2483-3.2059 10.515-6.38 15.793-9.5366 0.7637-0.4571 1.5274-0.9143 2.3143-1.3852 1.6405-0.9814 3.2817-1.9616 4.9231-2.9415 0.7027-17.879-1.2864-35.179-7.3357-52.1169-3.0426-6.7344-7.5577-11.9893-12.8031-17.1102-2.4921-0.4153-4.9843-0.8307-7.552-1.2586z" />
  <path d="M226.2754 94.8747c-1.5462 0.4283-3.0925 0.8567-4.6856 1.298-16.9563 5.1903-33.9321 13.2587-48.1787 23.8755-5.2615 4.3757-10.1783 9.0997-15.1041 13.8454-0.907 0.8129-1.814 1.6257-2.7484 2.4632-10.1449 9.3693-17.7621 21.4995-23.6684 33.9108-4.909 10.9353-8.1481 22.2875-10.0847 34.1117 0 2.9076 0 5.8151 0 8.8108 94.7026 0 189.4053 0 286.9777 0 0-7.3408-0.3043-12.943-2.124-19.8242-0.2276-0.8743-0.4551-1.7486-0.6896-2.6494-3.924-14.523-10.3582-27.8936-18.5838-40.4601-2.7375-3.3911-5.5676-6.5775-8.5895-9.7154-2.7386-2.8714-2.7386-2.8714-5.7181-6.5786-3.3906-4.1064-7.2173-7.356-11.4166-10.6102-0.7666-0.5958-1.5333-1.1915-2.3231-1.8054-15.5015-11.7834-32.9817-20.4463-51.7621-25.5944-25.6686-6.7844-55.5063-8.3389-81.301-1.0777z" />
  <path fill="#5b2119" d="M111.7361 227.0355c-1.1367 5.6834-1.4217 10.8059-1.3816 16.5447 17e-4 0.9689 35e-4 1.9378 54e-4 2.9361 7e-3 3.0776 0.0228 6.1551 0.0388 9.2327 63e-4 2.0937 0.0121 4.1874 0.0172 6.2811 0.0139 5.1175 0.0356 10.2349 0.0615 15.3524 0.7216 0.1577 1.4432 0.3153 2.1867 0.4778 17.9509 3.9693 34.3354 8.1659 49.8418 18.4662 11.9468 8.7411 21.8419 19.0187 29.7853 31.4816 15.285 25.6718 23.5827 53.6498 28.3061 83.0467 3.8547 25.9228 4.8321 51.8202 5.6781 77.985 1.2461 0 2.4922 0 3.7761 0 0-66.0427 0-132.0853 0-200.1293-36.0501-5.0332-36.0501-5.0332-72.1378-9.7547-3.1065-0.3929-6.2128-0.7867-9.3191-1.181-1.8743-0.2377-3.7488-0.4746-5.6235-0.7103-5.3867-0.6805-10.7546-1.4313-16.1309-2.1994 0-10.7994 0-21.5988 0-32.7255 0.4153-0.4154 0.8307-0.8307 1.2586-1.2587 90.5491 0 181.0981 0 274.391 0 0.4154 0.4154 0.8308 0.8307 1.2587 1.2587 0 10.384 0 20.7681 0 31.4668-6.2544 1.787-11.4816 3.0286-17.819 3.8231-0.8526 0.1088-1.7051 0.2176-2.5835 0.3298-2.7876 0.3543-5.5763 0.6992-8.3651 1.0441-1.9508 0.2467-3.9015 0.494-5.8522 0.7421-5.1144 0.6488-10.2299 1.29-15.3456 1.929-8.2006 1.0253-16.3999 2.0608-24.5989 3.0992-2.8582 0.3607-5.717 0.7171-8.5759 1.073-1.7527 0.2206-3.5053 0.4414-5.258 0.6623-2.2912 0.2863-2.2912 0.2863-4.6287 0.5784-4.1113 0.5297-4.1113 0.5297-8.9257 1.8231 0 66.0427 0 132.0853 0 200.1293 0.4154 0 0.8307 0 1.2587 0 0.9882-6.8282 1.4368-13.5196 1.6237-20.4142 1.1301-41.1507 6.5138-82.7993 22.6844-120.9507 7.3299-16.4985 17.5143-30.2421 30.3655-42.908 8.9342-8.3898 18.2117-14.4028 29.5002-19.1604 11.0511-4.0994 22.574-5.8994 34.1416-8.024-0.4154-16.6145-0.8308-33.229-1.2587-50.347-101.7638 0-203.5277 0-308.3752 0z" />
  <path fill="#0d181c" d="M109.2187 291.2279c-0.4332 12.8747-0.8522 25.7499-1.2587 38.6256-0.0299 0.9468-0.0598 1.8936-0.0906 2.8691-0.9237 29.39-1.5262 58.7425-1.168 88.1487 7.4765 4.3614 7.4765 4.3614 15.1041 8.8108 0.8307-1.2461 1.6614-2.4922 2.5173-3.7761 0.185-2.1027 0.185-2.1027 0.3737-4.248 1.4874-15.6582 3.4428-31.3693 10.325-45.7056 2.3823-4.2967 4.6356-8.2769 8.1814-11.7214 3.2222-2.1411 6.4199-3.7495 10.0694-5.0347 4.4054-0.6293 4.4054-0.6293 8.8107 0 4.5944 1.5406 8.4063 3.8238 12.3114 6.667 5.8359 5.1462 9.5062 11.6462 13.0526 18.4776 11.1648 22.5208 15.4028 48.1469 17.431 73.032 0.5325 7.5466 0.9227 15.0985 1.2586 22.6561 2.0769 1.2461 4.1537 2.4922 6.2934 3.7761 1.2051-39.9676-3.6259-82.1432-16.9577-119.9625-5.6149-15.0438-13.0048-28.8371-23.3199-41.1479-0.8064-1.0432-1.6127-2.0865-2.4436-3.1614-5.5434-6.7005-12.3799-11.7234-19.947-15.9547-11.5193-6.1271-22.7174-10.1567-35.7321-11.7586-1.5876-0.1954-3.1753-0.3908-4.811-0.5921z" />
  <path fill="#0d181c" d="M395.7196 296.3904c-12.8714 5.2022-23.8222 11.948-33.9302 21.5007-11.5051 12.1631-19.5345 27.2436-25.8175 42.6653-9.9094 25.6768-13.7013 53.2331-16.5546 80.4537-0.1671 1.5187-0.3342 3.0374-0.5064 4.6021-1.1933 12.6855-0.8696 25.4649-0.7522 38.1929 2.4921-1.2461 2.4921-1.2461 5.0347-2.5174 0.9643-4.3866 1.4974-8.6114 1.7552-13.0931 1.7832-28.2102 4.9558-56.59 17.0247-82.5397 2.2502-4.4198 4.8264-8.5429 7.6522-12.6132 0.4981-0.7788 0.9962-1.5576 1.5094-2.36 2.1337-2.9945 4.5829-5.0631 7.6603-7.0358 4.8783-2.6562 8.8973-4.3412 14.4305-5.0789 4.0907 0.6293 4.0907 0.6293 7.8667 1.888 5.2612 3.5074 9.0003 7.3793 12.5867 12.5867 6.3718 12.0222 9.4092 24.9323 10.8561 38.3798 0.6492 6.5005 1.2162 13.0067 1.7307 19.5192 2.2054-1.1749 4.4074-2.3561 6.608-3.54 1.2266-0.6571 2.4532-1.3142 3.717-1.9912 3.0654-1.7597 5.7579-3.6518 8.5551-5.7968-0.3033-12.4649-0.6096-24.9297-0.9195-37.3943-0.1439-5.7912-0.2868-11.5825-0.4274-17.3737-0.8935-36.8195-0.8935-36.8195-2.4291-73.6168-8.3197 0-17.7947 2.6014-25.6504 5.1625z" />
  <path d="M155.7897 365.4897c-2.9076 1.6614-5.8151 3.3229-8.8108 5.0347-6.6293 9.9881-10.9273 19.8311-13.4078 31.5799-1.8293 10.8024-2.4219 21.6845-2.9549 32.6125 13.5177 8.6487 27.272 16.8941 41.0642 25.0948 0.8955 0.5335 1.7909 1.0671 2.7134 1.6168 2.5978 1.5471 5.1977 3.0903 7.7985 4.6323 0.7783 0.4638 1.5565 0.9275 2.3584 1.4053 4.5888 2.7125 9.2393 5.1996 14.0339 7.5283 0.1883-10.0084-0.226-19.7285-1.4947-29.6575-0.1657-1.3009-0.3314-2.6019-0.5021-3.9422-2.6052-19.0838-7.2809-38.6556-16.3671-55.7563-4.594-7.6881-9.7568-13.4697-16.879-18.89-3.7383-0.623-3.7383-0.623-7.552-1.2586z" />
  <path d="M371.023 365.4897c-4.0331 1.782-7.3303 3.5875-10.6987 6.4507-8.6432 9.9396-14.1328 20.9115-18.6048 33.2368-7.3344 22.0197-11.1143 46.6195-9.7154 69.8171 10.3573-4.8785 20.0764-10.6875 29.8148-16.6774 1.5652-0.9576 3.1308-1.9146 4.6967-2.871 3.057-1.8674 6.1128-3.7367 9.1678-5.6072 5.2483-3.2059 10.515-6.38 15.793-9.5366 0.7637-0.4571 1.5274-0.9143 2.3143-1.3852 1.6405-0.9814 3.2817-1.9616 4.9231-2.9415 0.7027-17.879-1.2864-35.179-7.3357-52.1169-3.0426-6.7344-7.5577-11.9893-12.8031-17.1102-2.4921-0.4153-4.9843-0.8307-7.552-1.2586z" />
  <path fill="#000" d="M139.4269 253.4677c0 3.3229 0 6.6458 0 10.0693 1.8324 0.2324 1.8324 0.2324 3.7018 0.4694 11.502 1.4589 23.0035 2.9219 34.5045 4.3888 5.913 0.754 11.8262 1.5066 17.7399 2.256 5.705 0.723 11.4095 1.4497 17.1138 2.179 2.1783 0.2779 4.3568 0.5544 6.5355 0.8295 3.0471 0.3851 6.0937 0.7748 9.1401 1.1658 0.9045 0.1131 1.8089 0.2263 2.7408 0.3429 3.6661 0.4747 6.9573 1.0411 10.4762 2.2141 0.6231 1.2461 0.6231 1.2461 1.2587 2.5173 0.134 2.7425 0.1846 5.4892 0.1991 8.2349 94e-4 1.2831 94e-4 1.2831 0.0189 2.592 0.0194 2.8797 0.0299 5.7593 0.0404 8.6389 0.0121 2.0589 0.0247 4.1178 0.0378 6.1766 0.0341 5.6013 0.0605 11.2026 0.0856 16.8039 0.0275 5.8493 0.062 11.6986 0.0957 17.5478 0.0629 11.0818 0.1194 22.1636 0.1737 33.2454 0.0621 12.614 0.1313 25.228 0.201 37.8419 0.1434 25.9528 0.2769 51.9057 0.4065 77.8586 14.1223 0 28.2446 0 42.7949 0 0.0315-6.3163 0.0631-12.6325 0.0956-19.1401 0.1048-20.8189 0.2164-41.6378 0.3315-62.4567 0.0697-12.6281 0.137-25.2563 0.1989-37.8845 0.0539-11.0034 0.1121-22.0068 0.1756-33.0101 0.0335-5.8292 0.0648-11.6584 0.0909-17.4876 0.0246-5.4816 0.055-10.9632 0.0899-16.4447 0.0118-2.0165 0.0214-4.0329 0.0288-6.0494 0.0104-2.7441 0.0284-5.488 0.0483-8.232 82e-4-1.5385 0.0163-3.0769 0.0246-4.662 0.0576-1.1791 0.1152-2.3581 0.1746-3.5729 0.4153-0.8307 0.8307-1.6614 1.2586-2.5173 11.4277-2.2568 22.9222-3.7805 34.471-5.2412 1.9556-0.2501 3.9112-0.5005 5.8668-0.7512 5.1001-0.6529 10.2007-1.3015 15.3015-1.9491 5.2237-0.664 10.4469-1.3322 15.6701-2.0001 10.2139-1.3054 20.4284-2.6061 30.6433-3.9039 0-3.3229 0-6.6458 0-10.0693-83.0725 0-166.145 0-251.7349 0z" />
</svg>