<svg viewBox="0 0 225 225" fill="#161111" width="200" height="200" version="1.1" xmlns="http://www.w3.org/2000/svg" xmlns:xlink="http://www.w3.org/1999/xlink">
    <path fill="#0e0809" d="M0 0c74.25 0 148.5 0 225 0 0 74.25 0 148.5 0 225-74.25 0-148.5 0-225 0C0 150.75 0 76.5 0 0z" />
    <path fill="#f8f8f6" transform="translate(74 107)" d="M0 0c-2 5-2 5-4 9 0 1.65 0 3.3 0 5 2.31 1.98 4.62 3.96 7 6 2.97 0.99 5.94 1.98 9 3 6.6 0.33 13.2 0.66 20 1 0-1.98 0-3.96 0-6 2.64 0.33 5.28 0.66 8 1 0 0.66 0 1.32 0 2 2.64 1.32 5.28 2.64 8 4 0 0.99 0 1.98 0 3 1.98 0.66 3.96 1.32 6 2-0.66 1.65-1.32 3.3-2 5 3.2021 0.1213 3.2021 0.1213 7-1 0.66 0.66 1.32 1.32 2 2-0.66 0.99-1.32 1.98-2 3 0.66-0.33 1.32-0.66 2-1 13 0 13 0 23 1 1.98-0.99 1.98-0.99 4-2-0.66 1.32-1.32 2.64-2 4-0.33 0.33-0.66 0.66-1 1-2.97-0.33-5.94-0.66-9-1-13.3984-0.4903-13.3984-0.4903-20 1 4.1962 4.3169 4.1962 4.3169 10 9 1.98 3.3 3.96 6.6 6 10 1 4 1 4 1 12-2.6034-5.2068-4.761-10.6264-7-16-2.64-2.97-5.28-5.94-8-9-1.98-0.495-1.98-0.495-4-1 0 0.66 0 1.32 0 2 0.66 0 1.32 0 2 0 0 0.99 0 1.98 0 3-1.32 0.99-2.64 1.98-4 3 0.495 2.475 0.495 2.475 1 5 0.7013 0.8224 1.4025 1.6448 2.125 2.4922C60.8647 69.2401 66.517 76.0402 72 83c-0.33 0.66-0.66 1.32-1 2-1.65 0-3.3 0-5 0-0.66 0.66-1.32 1.32-2 2 0.495-1.98 0.495-1.98 1-4 0.66 0 1.32 0 2 0 0-0.66 0-1.32 0-2-0.99 0-1.98 0-3 0-0.33 2.31-0.66 4.62-1 7 1.98 0.495 1.98 0.495 4 1 0.33 0.99 0.66 1.98 1 3-12.21 0.33-24.42 0.66-37 1 0 0.33 0 0.66 0 1 11.22 0.33 22.44 0.66 34 1-0.495 1.485-0.495 1.485-1 3 1.98-0.99 3.96-1.98 6-3 1.98 0.33 3.96 0.66 6 1 1.98-1.485 1.98-1.485 4-3-0.495 1.98-0.495 1.98-1 4-1.2994 0.2166-1.2994 0.2166-2.625 0.4375C75.2613 97.6231 74.1475 97.8088 73 98c-2 0.3333-4 0.6667-6 1-2.97 1.65-5.94 3.3-9 5-0.66 0-1.32 0-2 0 0 0.66 0 1.32 0 2-6.93 3.465-6.93 3.465-14 7-1.65-0.33-3.3-0.66-5-1-4.95-3.3-9.9-6.6-15-10-1.32-0.33-2.64-0.66-4-1-0.99-0.99-1.98-1.98-3-3-3.9764-0.7953-7.9856-1.4265-12-2-4.7558-7.9263-8.2067-16.5705-12-25-0.33-0.33-0.66-0.66-1-1-16.5749-0.4046-16.5749-0.4046-33 1 3.2617-19.5703 12.2424-37.8989 20-56 2.97-4.455 2.97-4.455 6-9 2.31-1.65 4.62-3.3 7-5 4-1 4-1 10-1z" />
    <path fill="#0f0a0a" transform="translate(74 107)" d="M0 0c-2 5-2 5-4 9 0 1.65 0 3.3 0 5 2.31 1.98 4.62 3.96 7 6 2.97 0.99 5.94 1.98 9 3 7.59 0.33 15.18 0.66 23 1 0 0.99 0 1.98 0 3 1.485 0.495 1.485 0.495 3 1-0.66 0.33-1.32 0.66-2 1 0.495 1.98 0.495 1.98 1 4-1.65 1.32-3.3 2.64-5 4-0.66 0-1.32 0-2 0 0.99 1.98 0.99 1.98 2 4-0.99 0.99-0.99 0.99-2 2-2.64-1.32-5.28-2.64-8-4-4.29-0.66-8.58-1.32-13-2 0-0.33 0-0.66 0-1 2.64 0 5.28 0 8 0-0.33-0.99-0.66-1.98-1-3-2.31 0-4.62 0-7 0 0-0.66 0-1.32 0-2 6.27-0.33 12.54-0.66 19-1 0-0.66 0-1.32 0-2-5.94 0-11.88 0-18 0-4.29-0.99-8.58-1.98-13-3-0.66 0-1.32 0-2 0 4.29 1.65 8.58 3.3 13 5 0 0.66 0 1.32 0 2-1.98 0.66-3.96 1.32-6 2-0.495 0.99-0.495 0.99-1 2-2.97 0.495-2.97 0.495-6 1 1.32 1.32 2.64 2.64 4 4 3.63-0.66 7.26-1.32 11-2 2.64 0 5.28 0 8 0 2.64 0.99 5.28 1.98 8 3-0.33 0.99-0.66 1.98-1 3-2.64 2.31-5.28 4.62-8 7-4.8917 7.3012-4.8917 7.3012-7 13 0 1.98 0 3.96 0 6 1.32-3.96 2.64-7.92 4-12 6-8 6-8 12-13 3 1 3 1 8 4 0 1.65 0 3.3 0 5-0.5655 0.6861-0.5655 0.6861-1.1423 1.386C25.5568 65.2451 18.2601 74.1074 11 83c-0.99 0.33-1.98 0.66-3 1-0.3979-0.6548-0.7958-1.3097-1.2058-1.9844C4.9675 79.0101 3.14 76.005 1.3125 73c-0.6258-1.03-1.2517-2.0599-1.8965-3.1211C-4.0203 64.2296-7.4809 58.5982-11 53-5.6529 64.5176-0.108 75.8657 6 87c1.65 0.99 3.3 1.98 5 3-0.33 0.66-0.66 1.32-1 2-2.31-0.99-4.62-1.98-7-3-3.3333-6.6667-6.6667-13.3333-10-20-0.99-0.33-1.98-0.66-3-1-6.93 0-13.86 0-21 0-2.97 0.99-5.94 1.98-9 3-0.99 0-1.98 0-3 0 3.2617-19.5703 12.2424-37.8989 20-56 2.97-4.455 2.97-4.455 6-9 2.31-1.65 4.62-3.3 7-5 4-1 4-1 10-1z" />
    <path fill="#0f0909" transform="translate(158 108)" d="M0 0c2.31 0 4.62 0 7 0 2.31 1.32 4.62 2.64 7 4 1.98 2.31 3.96 4.62 6 7 9.0724 19.4408 16.781 40.124 22 61-11-3-11-3-14-4-6.93 0-13.86 0-21 0-0.99 0.99-1.98 1.98-3 3-4.455 9.405-4.455 9.405-9 19-1.65 0-3.3 0-5 0-1.485 0.99-1.485 0.99-3 2 0.33-1.32 0.66-2.64 1-4 1.98-0.495 1.98-0.495 4-1 1.9395-3.7351 3.8783-7.4704 5.8167-11.2061 0.6583-1.2686 1.3168-2.5371 1.9755-3.8056 0.9512-1.8318 1.9018-3.6639 2.8523-5.4961 0.5708-1.0997 1.1417-2.1995 1.7298-3.3325C5.9395 60.1177 7.4765 57.0631 9 54 2.1047 63.5213-4.5363 73.1807-11 83c-5-4-5-4-7.1953-6.8164C-23.0142 70.0165-27.8245 63.8749-33 58c0-1.65 0-3.3 0-5 2-1 2-1 5-2 0-0.99 0-1.98 0-3-1.98 0.495-1.98 0.495-4 1 0-1.32 0-2.64 0-4 1.98 0.33 3.96 0.66 6 1 2.31 2.31 4.62 4.62 7 7 6 12 6 12 7 15-0.33-2.64-0.66-5.28-1-8-1.98-3.3-3.96-6.6-6-10-4.455-3.465-4.455-3.465-9-7 0-0.66 0-1.32 0-2 1.65-0.66 3.3-1.32 5-2 15 0 15 0 24 1 0.495-0.99 0.495-0.99 1-2-3.465 0.495-3.465 0.495-7 1-1.65-0.33-3.3-0.66-5-1-4.95 0-9.9 0-15 0 0-1.32 0-2.64 0-4-1.98 0.66-3.96 1.32-6 2-0.66-0.66-1.32-1.32-2-2 0-0.66 0-1.32 0-2 0.66-0.33 1.32-0.66 2-1 0.33-1.32 0.66-2.64 1-4 7.92-0.33 15.84-0.66 24-1 0-0.66 0-1.32 0-2-1.98 0-3.96 0-6 0 0-0.66 0-1.32 0-2 3.96-1.65 7.92-3.3 12-5 0.99-0.99 1.98-1.98 3-3 0-1.98 0-3.96 0-6-0.99-1.98-1.98-3.96-3-6 0-0.66 0-1.32 0-2z" />
    <path fill="#0f0909" transform="translate(151 88)" d="M0 0c3.63 0 7.26 0 11 0 10 5 10 5 18 12 1.98-0.33 3.96-0.66 6-1 0.33-1.32 0.66-2.64 1-4 0.66 0 1.32 0 2 0 12.1717 22.3148 23.0538 44.6771 33 68 0 3.63 0 7.26 0 11-1.32 2.97-2.64 5.94-4 9-5 5-5 5-8 7-1.32 0-2.64 0-4 0-5.28-15.51-10.56-31.02-16-47-3.63-7.92-7.26-15.84-11-24-4.8941-5.5999-4.8941-5.5999-10-11 0.66 0 1.32 0 2 0 0-0.66 0-1.32 0-2 1.98 0.66 3.96 1.32 6 2 0-0.99 0-1.98 0-3-0.66 0-1.32 0-2 0 0.33-0.99 0.66-1.98 1-3 0 0.66 0 1.32 0 2 0.99-0.33 1.98-0.66 3-1 1.32 0.99 2.64 1.98 4 3-6.9019-7.3595-6.9019-7.3595-16-13-2.64-0.99-5.28-1.98-8-3C1.565 2.495 1.565 2.495-5 3c0.66-0.66 1.32-1.32 2-2 0.99-0.33 1.98-0.66 3-1z" />
    <path fill="#0e0808" transform="translate(70 87)" d="M0 0c2.64 0 5.28 0 8 0 3.3 0.99 6.6 1.98 10 3 0 0.66 0 1.32 0 2-2.64-0.66-5.28-1.32-8-2C6.7 3 3.4 3 0 3-3.96 4.98-7.92 6.96-12 9c-1.32 1.32-2.64 2.64-4 4 1.32 0.99 2.64 1.98 4 3 0.495 1.485 0.495 1.485 1 3 0.99 0.33 1.98 0.66 3 1-2.475 2.475-2.475 2.475-5 5-11.3124 16.1605-17.9909 34.2912-24.7852 52.6499C-40.706 85.7045-43.3597 93.85-46 102c-1.65-0.33-3.3-0.66-5-1-5-5-5-5-9-10-0.66-2.64-1.32-5.28-2-8 0.33-3.3 0.66-6.6 1-10 8.7699-20.6094 19.0544-40.4644 30-60 1.98 0 3.96 0 6 0 0.99-0.99 1.98-1.98 3-3 0.66 0.33 1.32 0.66 2 1-0.99 1.65-1.98 3.3-3 5 0.9694-0.8456 1.9387-1.6912 2.9375-2.5625C-15.8285 9.8021-11.4283 6.394-7 3c3.465-1.485 3.465-1.485 7-3z" />
    <path fill="#ccc9c8" transform="translate(182 67)" d="M0 0c0.66 0 1.32 0 2 0 1.32 6.6 2.64 13.2 4 20 1.32 2.31 2.64 4.62 4 7 0.99 0.99 0.99 0.99 2 2 11.0002 21.6929 21.7104 43.5133 31 66 0 3.63 0 7.26 0 11-1.32 2.97-2.64 5.94-4 9-3.465 3.96-3.465 3.96-7 8-1.98 0.99-3.96 1.98-6 3-1.65 0-3.3 0-5 0-1.32-3.3-2.64-6.6-4-10-9.0289-3.9636-9.0289-3.9636-15-5-5.94 0-11.88 0-18 0-3.9817 7.1671-7.5642 14.5557-11 22-0.66 0-1.32 0-2 0-0.33 0.99-0.66 1.98-1 3-1.32 0.33-2.64 0.66-4 1-1.32-0.33-2.64-0.66-4-1-2.97 0.99-2.97 0.99-6 2 0-0.66 0-1.32 0-2-15.51-0.33-31.02-0.66-47-1 0-0.33 0-0.66 0-1 4.29-0.33 8.58-0.66 13-1 0-0.33 0-0.66 0-1 12.54 0 25.08 0 38 0 0-0.66 0-1.32 0-2-0.99-0.33-1.98-0.66-3-1-0.66-0.33-1.32-0.66-2-1 0-2.31 0-4.62 0-7 0.66-0.33 1.32-0.66 2-1 0.99 0.495 0.99 0.495 2 1 0 1 0 2 0 3 2.97-0.495 2.97-0.495 6-1 0.4585-0.6904 0.917-1.3807 1.3894-2.092 1.723-2.5931 3.4471-5.1855 5.1719-7.7774 1.1047-1.6608 2.2082-3.3225 3.3117-4.9841C-21.5014 102.6998-17.849 97.2914-14 92c0.33 0.66 0.66 1.32 1 2-12.8819 24.9827-12.8819 24.9827-19 35-1.32 0-2.64 0-4 0 0 0.99 0 1.98 0 3 0.66-0.66 1.32-1.32 2-2 1.65 0.33 3.3 0.66 5 1 0.99-2.97 1.98-5.94 3-9 2.31-4.29 4.62-8.58 7-13 0.66-0.33 1.32-0.66 2-1 6.93 0 13.86 0 21 0 4.62 1.65 9.24 3.3 14 5-0.4383-1.1498-0.8766-2.2997-1.3281-3.4844-1.5828-4.2219-3.0184-8.4814-4.4219-12.7656C7.0083 80.8763 1.5156 66.0312-6 51c-1.65-1.98-3.3-3.96-5-6-1.98-0.99-3.96-1.98-6-3-2.31-0.33-4.62-0.66-7-1 1.32 2.64 2.64 5.28 4 8 0 1.98 0 3.96 0 6-1.98 1.65-3.96 3.3-6 5-10 4-10 4-15 5-5.28 0-10.56 0-16 0 0-2.31 0-4.62 0-7-1.32 0.66-2.64 1.32-4 2-1.485-0.495-1.485-0.495-3-1 0.8482-0.4731 1.6964-0.9462 2.5703-1.4336C-52.7433 52.6826-44.3294 47.4685-36 42c2.64-0.99 5.28-1.98 8-3 3.3 0 6.6 0 10 0 2.31 0.99 4.62 1.98 7 3 3.465 3.465 3.465 3.465 7 7 11.7006 23.4012 19.4332 45.9586 28 71 0 0.99 0 1.98 0 3 2.97-0.99 5.94-1.98 9-3 1.4507-2.9013 2.8173-5.7858 4.125-8.75 0.9281-2.1038 0.9281-2.1038 1.875-4.25 0-3.63 0-7.26 0-11C27.5991 70.1581 16.0225 44.036 1 20 0.34 13.73-0.32 7.46-1 1c0.33-0.33 0.66-0.66 1-1z" />
    <path fill="#c6c5c4" transform="translate(47 69)" d="M0 0c0.33 0 0.66 0 1 0 0 3.3 0 6.6 0 10 0.33 0 0.66 0 1 0-0.33 2.64-0.66 5.28-1 8-0.5827 0.972-1.1653 1.9439-1.7656 2.9453C-14.6672 44.2841-29.3696 69.1088-38 95c0.33 3.96 0.66 7.92 1 12 1.32 1.98 2.64 3.96 4 6 0.33 0.99 0.66 1.98 1 3 4.1107 2.1246 4.1107 2.1246 9 4 0.66-2.97 1.32-5.94 2-9C-4.4211 64.5789-4.4211 64.5789 7 45c8-7 8-7 10-8 4.62 0 9.24 0 14 0 10 4 10 4 28 16 2.31 1.32 4.62 2.64 7 4-1.485 0.495-1.485 0.495-3 1-1.32-0.66-2.64-1.32-4-2 0 1.98 0 3.96 0 6-6.6 0-13.2 0-20 0-3.63-1.32-7.26-2.64-11-4-1.98-1.98-3.96-3.96-6-6 0.33-2.31 0.66-4.62 1-7 1.32-2.31 2.64-4.62 4-7-3.96 0.99-7.92 1.98-12 3-1.98 1.65-3.96 3.3-6 5-9.2656 18.5312-16.6836 37.3053-23 57-0.664 2.0009-1.3296 4.0013-2 6 3.465-0.99 3.465-0.99 7-2 0.33 0.66 0.66 1.32 1 2-2.64 1.32-5.28 2.64-8 4-0.66 0-1.32 0-2 0-0.33 1.98-0.66 3.96-1 6-0.66 1.32-1.32 2.64-2 4-2.97-0.99-5.94-1.98-9-3-2.31-1.98-4.62-3.96-7-6-4-8-4-8-5-12 0-3.63 0-7.26 0-11 0.99-1.98 1.98-3.96 3-6 0-1.65 0-3.3 0-5 0.66 0 1.32 0 2 0 7.92-16.335 7.92-16.335 16-33 2.31-3.96 4.62-7.92 7-12 1.1583-2.0764 2.3086-4.1574 3.4375-6.25 0.4937-0.9127 0.9874-1.8253 1.4961-2.7656C-8.7145 25.3295-8.3626 24.6747-8 24c1.65-2.64 3.3-5.28 5-8 1.485-7.92 1.485-7.92 3-16z" />
    <path fill="#100a0a" transform="translate(106 125)" d="M0 0c2.64 0.33 5.28 0.66 8 1 0 0.66 0 1.32 0 2 2.64 1.32 5.28 2.64 8 4 0 0.99 0 1.98 0 3 1.98 0.66 3.96 1.32 6 2-0.66 1.65-1.32 3.3-2 5 3.2021 0.1213 3.2021 0.1213 7-1 0.99 0.99 0.99 0.99 2 2-0.99 1.485-0.99 1.485-2 3 0.99-0.495 0.99-0.495 2-1 13 0 13 0 23 1 1.32-0.66 2.64-1.32 4-2-0.66 1.32-1.32 2.64-2 4-0.495 0.495-0.495 0.495-1 1-2.97-0.33-5.94-0.66-9-1-13.3984-0.4903-13.3984-0.4903-20 1 4.1962 4.3169 4.1962 4.3169 10 9 1.98 3.3 3.96 6.6 6 10 1 4 1 4 1 12-2.6034-5.2068-4.761-10.6264-7-16-2.64-2.97-5.28-5.94-8-9-1.32-0.33-2.64-0.66-4-1 0 0.66 0 1.32 0 2 0.66 0 1.32 0 2 0 0 0.99 0 1.98 0 3-1.98 1.65-3.96 3.3-6 5-0.99-0.99-1.98-1.98-3-3-0.66-1.32-1.32-2.64-2-4-2.64 0-5.28 0-8 0-0.66 2.31-1.32 4.62-2 7 0.495 1.98 0.495 1.98 1 4 0.66 0.66 1.32 1.32 2 2-0.66 0.66-1.32 1.32-2 2 0.99 0.495 0.99 0.495 2 1-0.33 0.99-0.66 1.98-1 3-0.99-0.66-1.98-1.32-3-2-0.33 5.94-0.66 11.88-1 18-0.33 0.66-0.66 1.32-1 2-1.32 0-2.64 0-4 0-0.495-10.395-0.495-10.395-1-21-1.32 0.66-2.64 1.32-4 2 3.2672-4.3889 6.549-8.7526 10-13 0-1.65 0-3.3 0-5-0.66 0-1.32 0-2 0 0-0.66 0-1.32 0-2-1.65-0.33-3.3-0.66-5-1-3.96 3.465-3.96 3.465-8 7-5.1179 9.6464-5.1179 9.6464-8 19-0.33 0-0.66 0-1 0 0-2.64 0-5.28 0-8 1.98-3.96 3.96-7.92 6-12 2.64-2.64 5.28-5.28 8-8 0.66-0.33 1.32-0.66 2-1 0-0.66 0-1.32 0-2-2.31-0.66-4.62-1.32-7-2-8.5516-0.2385-8.5516-0.2385-19 2-1.65-1.98-3.3-3.96-5-6 2.31 0 4.62 0 7 0 0.33-0.99 0.66-1.98 1-3 1.98-0.33 3.96-0.66 6-1 0-0.66 0-1.32 0-2-2.97-0.495-2.97-0.495-6-1-3.3-1.65-6.6-3.3-10-5 0.99-0.33 1.98-0.66 3-1 2.97 0.99 5.94 1.98 9 3 7.9185 1.3198 15.9846 1.5547 24 2 0 0.66 0 1.32 0 2-4 1-4 1-19 1 0 0.66 0 1.32 0 2 3.465-0.495 3.465-0.495 7-1 0.66 0.66 1.32 1.32 2 2-0.33 0.66-0.66 1.32-1 2 3.96 1.65 7.92 3.3 12 5 0.66 0 1.32 0 2 0-0.495-1.98-0.495-1.98-1-4 0.66-1.32 1.32-2.64 2-4 1.32-0.33 2.64-0.66 4-1-0.495-3.96-0.495-3.96-1-8-0.99 0-1.98 0-3 0 0-1.98 0-3.96 0-6z" />
    <path fill="#c0bfbf" transform="translate(123 1)" d="M0 0c0.99 1.485 0.99 1.485 2 3 5.61 0.66 11.22 1.32 17 2 11 4 11 4 17 7 0 0.66 0 1.32 0 2 1.32 0.66 2.64 1.32 4 2 8 11 8 11 15 26 1.65 5.61 3.3 11.22 5 17 0 1.98 0 3.96 0 6-0.99 0.33-1.98 0.66-3 1-1.98-8.415-1.98-8.415-4-17-5.5032-14.824-5.5032-14.824-13-27-4.95-3.96-4.95-3.96-10-8C17.3873 9.3442 17.3873 9.3442 1 8c52e-4 1.2124 0.0105 2.4249 0.0159 3.6741C1.191 56.0294 1.191 56.0294 0 75c-0.33 0-0.66 0-1 0 0-22.77 0-45.54 0-69-3.96 0-7.92 0-12 0 0 21.45 0 42.9 0 65-0.33 0-0.66 0-1 0-1.1843-21.0003-1.1043-41.9747-1-63-14.3363 0.3958-14.3363 0.3958-25 4-7.6772 4.5834-7.6772 4.5834-13 9-9.4416 14.7123-9.4416 14.7123-15 31-0.66 2.31-1.32 4.62-2 7-0.99 0-1.98 0-3 0-0.33 2.64-0.66 5.28-1 8-0.33 0-0.66 0-1 0 1-10 1-10 7-28 1.32-2.97 2.64-5.94 4-9-0.33-0.66-0.66-1.32-1-2 0.99-0.33 1.98-0.66 3-1 1.98-2.97 3.96-5.94 6-9 2.97-2.64 5.94-5.28 9-8 9-4 9-4 20-6 3.63-0.33 7.26-0.66 11-1 0.66-0.33 1.32-0.66 2-1 4.62 0 9.24 0 14 0 0-0.66 0-1.32 0-2z" />
    <path fill="#f6f5f3" transform="translate(111 156)" d="M0 0c2.64 0 5.28 0 8 0 0.5311 0.7361 1.0622 1.4721 1.6094 2.2305 0.7064 0.9758 1.4128 1.9516 2.1406 2.957 0.6961 0.9629 1.3922 1.9259 2.1094 2.918C15.8457 10.7913 17.895 13.4067 20 16c2.5 5 2.5 5 5 10-0.99 0.495-0.99 0.495-2 1-0.66 2.64-1.32 5.28-2 8-0.99 0.33-1.98 0.66-3 1-0.66 0.66-1.32 1.32-2 2-0.33-7.26-0.66-14.52-1-22-0.99-0.99-1.98-1.98-3-3 0 3.3 0 6.6 0 10-0.66 0-1.32 0-2 0-0.33-0.99-0.66-1.98-1-3-0.66 1.32-1.32 2.64-2 4 0-4.95 0-9.9 0-15-1.65 0-3.3 0-5 0 0 9.57 0 19.14 0 29 1.65 0 3.3 0 5 0 0-3.3 0-6.6 0-10 0.66 0.66 1.32 1.32 2 2 0.66-0.66 1.32-1.32 2-2 0 2.97 0 5.94 0 9-0.33 0.99-0.66 1.98-1 3-10.56 0-21.12 0-32 0 0.66-0.66 1.32-1.32 2-2 1.65 0 3.3 0 5 0 0-3.63 0-7.26 0-11-0.99-0.66-1.98-1.32-3-2 0.66-1.32 1.32-2.64 2-4 3.465-2.475 3.465-2.475 7-5 0 7.26 0 14.52 0 22 1.32 0 2.64 0 4 0 0.33-7.26 0.66-14.52 1-22 0.33 0.66 0.66 1.32 1 2 0.99 0.33 1.98 0.66 3 1 0.33-0.66 0.66-1.32 1-2-0.99-0.33-1.98-0.66-3-1 0.66-0.66 1.32-1.32 2-2-0.66-0.66-1.32-1.32-2-2-0.33-1.65-0.66-3.3-1-5 0.66-1.98 1.32-3.96 2-6 0.33-0.33 0.66-0.66 1-1z" />
    <path fill="#f4f2f1" transform="translate(66 106)" d="M0 0c3.96 0 7.92 0 12 0 10 4 10 4 28 16 2.31 1.32 4.62 2.64 7 4-0.99 0.33-1.98 0.66-3 1-1.32-0.66-2.64-1.32-4-2 0 1.98 0 3.96 0 6-6.6 0-13.2 0-20 0-3.63-1.32-7.26-2.64-11-4-1.98-1.98-3.96-3.96-6-6 0.33-2.31 0.66-4.62 1-7 1.32-2.31 2.64-4.62 4-7-2.64 0-5.28 0-8 0 0-0.33 0-0.66 0-1z" />
    <path fill="#f4f3f1" transform="translate(150 107)" d="M0 0c2.31 0 4.62 0 7 0 0 0.99 0 1.98 0 3 0.66 0 1.32 0 2 0 0.99 1.98 1.98 3.96 3 6 0 1.98 0 3.96 0 6-1.98 1.65-3.96 3.3-6 5-10 4-10 4-15 5-5.28 0-10.56 0-16 0 0-2.31 0-4.62 0-7-1.98 0.99-1.98 0.99-4 2-0.99-0.33-1.98-0.66-3-1 0.8482-0.4731 1.6964-0.9462 2.5703-1.4336C-20.7433 12.6826-12.3294 7.4685-4 2c1.32-0.66 2.64-1.32 4-2z" />
    <path fill="#7a7977" transform="translate(113 165)" d="M0 0c1.65 0 3.3 0 5 0 0.33 3.63 0.66 7.26 1 11 0.99 0 1.98 0 3 0-0.33 0.99-0.66 1.98-1 3 0.66 0 1.32 0 2 0 0-3.3 0-6.6 0-10 0.99 0.33 1.98 0.66 3 1 0.495 0.99 0.495 0.99 1 2 0.33 6.6 0.66 13.2 1 20 1.32-0.33 2.64-0.66 4-1 0.33-2.64 0.66-5.28 1-8 0.66-0.66 1.32-1.32 2-2-1.32-1.98-2.64-3.96-4-6 0.33-0.66 0.66-1.32 1-2 4.62 5.61 9.24 11.22 14 17-0.33 0.66-0.66 1.32-1 2-1.65 0-3.3 0-5 0-0.66 0.66-1.32 1.32-2 2 0.33-1.32 0.66-2.64 1-4 0.66 0 1.32 0 2 0 0-0.66 0-1.32 0-2-0.99 0-1.98 0-3 0-0.33 2.31-0.66 4.62-1 7 1.32 0.33 2.64 0.66 4 1 0.495 1.485 0.495 1.485 1 3-17.49 0-34.98 0-53 0 0-0.66 0-1.32 0-2 12.375-0.495 12.375-0.495 25-1 1.98-0.33 3.96-0.66 6-1 1.0822-5.4794 1.0822-5.4794 1-9-0.66 0.33-1.32 0.66-2 1-0.33 2.31-0.66 4.62-1 7-1.65 0-3.3 0-5 0 0-9.57 0-19.14 0-29z" />
    <path fill="#f5f4f3" transform="translate(168 159)" d="M0 0c0.495 0.99 0.495 0.99 1 2-12.8819 24.9827-12.8819 24.9827-19 35-1.32 0-2.64 0-4 0 0 0.99 0 1.98 0 3 0.66-0.66 1.32-1.32 2-2 1.98 0 3.96 0 6 0-0.33 1.65-0.66 3.3-1 5-1.65 0.66-3.3 1.32-5 2-1.32-0.33-2.64-0.66-4-1-1.98 0.66-3.96 1.32-6 2 0-0.66 0-1.32 0-2-23.265-0.495-23.265-0.495-47-1 0-0.33 0-0.66 0-1 6.435-0.495 6.435-0.495 13-1 0-0.33 0-0.66 0-1 12.54 0 25.08 0 38 0 0-0.66 0-1.32 0-2-0.99-0.33-1.98-0.66-3-1-0.99-0.495-0.99-0.495-2-1 0-2.31 0-4.62 0-7 0.66-0.33 1.32-0.66 2-1 0.66 0.33 1.32 0.66 2 1 0 1 0 2 0 3 1.98-0.33 3.96-0.66 6-1 0.4585-0.6904 0.917-1.3807 1.3894-2.092 1.723-2.5931 3.4471-5.1855 5.1719-7.7774 1.1047-1.6608 2.2082-3.3225 3.3117-4.9841C-7.5014 10.6998-3.849 5.2914 0 0z" />
    <path fill="#0d0909" transform="translate(91 202)" d="M0 0c15.84 0 31.68 0 48 0-1.32 1.32-2.64 2.64-4 4-5.94 3.3-11.88 6.6-18 10-2.97-0.495-2.97-0.495-6-1C3 3 3 3 0 0z" />
    <path fill="#cbcbca" transform="translate(182 67)" d="M0 0c0.66 0 1.32 0 2 0 1.32 6.6 2.64 13.2 4 20 1.32 2.31 2.64 4.62 4 7 0.66 0.66 1.32 1.32 2 2 10.1714 20.0586 20.3076 40.2493 29 61 0.495 6.435 0.495 6.435 1 13-0.33 0-0.66 0-1 0-0.99-2.97-1.98-5.94-3-9C26.968 68.784 15.6332 43.4131 1 20 0.34 13.73-0.32 7.46-1 1c0.33-0.33 0.66-0.66 1-1z" />
    <path fill="#afacac" transform="translate(107 5)" d="M0 0c0 0.33 0 0.66 0 1-1.98 0.33-3.96 0.66-6 1 2.64 0.33 5.28 0.66 8 1 0 13.2 0 26.4 0 40-0.33 0-0.66 0-1 0 0-12.87 0-25.74 0-39-14.3363 0.3958-14.3363 0.3958-25 4-7.6772 4.5834-7.6772 4.5834-13 9-9.4416 14.7123-9.4416 14.7123-15 31-0.66 2.31-1.32 4.62-2 7-0.99 0-1.98 0-3 0-0.33 2.64-0.66 5.28-1 8-0.33 0-0.66 0-1 0 1-10 1-10 7-28 1.98-4.455 1.98-4.455 4-9-0.33-0.66-0.66-1.32-1-2 0.99-0.33 1.98-0.66 3-1 1.98-2.97 3.96-5.94 6-9 2.97-2.64 5.94-5.28 9-8 10.834-4.8151 19.1541-6 31-6z" />
    <path fill="#181212" transform="translate(66 130)" d="M0 0c9 2 9 2 18 4 5.94 0.33 11.88 0.66 18 1 0 0.66 0 1.32 0 2-4 1-4 1-19 1 0 0.66 0 1.32 0 2 3.465-0.495 3.465-0.495 7-1 0.66 0.66 1.32 1.32 2 2-0.33 0.66-0.66 1.32-1 2 3.96 1.65 7.92 3.3 12 5 0.66 0.99 1.32 1.98 2 3-3.3 2.31-6.6 4.62-10 7-1.98 2.64-3.96 5.28-6 8-1.65 4.62-3.3 9.24-5 14-0.33 0-0.66 0-1 0 0-2.64 0-5.28 0-8 1.98-3.96 3.96-7.92 6-12 2.64-2.64 5.28-5.28 8-8 0.66-0.33 1.32-0.66 2-1 0-0.66 0-1.32 0-2-2.31-0.66-4.62-1.32-7-2-8.5516-0.2385-8.5516-0.2385-19 2-1.65-1.98-3.3-3.96-5-6 2.31 0 4.62 0 7 0 0.33-0.99 0.66-1.98 1-3 1.98-0.33 3.96-0.66 6-1 0-0.66 0-1.32 0-2-2.97-0.495-2.97-0.495-6-1C6.7 4.35 3.4 2.7 0 1 0 0.67 0 0.34 0 0z" />
    <path fill="#494343" transform="translate(70 87)" d="M0 0c2.64 0 5.28 0 8 0 4.95 1.485 4.95 1.485 10 3 0 0.66 0 1.32 0 2-2.64-0.66-5.28-1.32-8-2C6.7 3 3.4 3 0 3-3.96 4.98-7.92 6.96-12 9c-1.32 1.32-2.64 2.64-4 4 1.32 0.99 2.64 1.98 4 3 0.33 0.99 0.66 1.98 1 3 0.99 0.33 1.98 0.66 3 1-1.65 1.65-3.3 3.3-5 5-3.96 0.495-3.96 0.495-8 1-0.33-0.66-0.66-1.32-1-2-0.66 0.33-1.32 0.66-2 1-0.99-0.66-1.98-1.32-3-2-0.66 0.33-1.32 0.66-2 1 0.66-1.32 1.32-2.64 2-4 0.66 0 1.32 0 2 0 0-0.66 0-1.32 0-2-0.66 0-1.32 0-2 0 0-0.66 0-1.32 0-2-1.65 0.33-3.3 0.66-5 1 0.66-1.32 1.32-2.64 2-4 1.65 0 3.3 0 5 0 0.99-0.99 1.98-1.98 3-3 0.66 0.33 1.32 0.66 2 1-1.485 2.475-1.485 2.475-3 5 0.9694-0.8456 1.9387-1.6912 2.9375-2.5625C-15.8285 9.8021-11.4283 6.394-7 3c2.31-0.99 4.62-1.98 7-3z" />
    <path fill="#dedada" transform="translate(124 5)" d="M0 0c0.33 1.32 0.66 2.64 1 4-0.9875 47.7839-0.9875 47.7839-2 67-0.33 0-0.66 0-1 0 0-22.77 0-45.54 0-69-3.96 0-7.92 0-12 0 0 21.45 0 42.9 0 65-0.33 0-0.66 0-1 0 0-21.12 0-42.24 0-64-5.28 0-10.56 0-16 0 0-0.33 0-0.66 0-1 14-2 14-2 31-2z" />
    <path fill="#dedcdb" transform="translate(47 69)" d="M0 0c0.33 0 0.66 0 1 0 0 3.3 0 6.6 0 10 0.33 0 0.66 0 1 0-0.33 2.64-0.66 5.28-1 8-0.5827 0.972-1.1653 1.9439-1.7656 2.9453C-10.7239 37.6606-19.8955 54.8086-29 72c-0.66 0-1.32 0-2 0 2.7829-8.3487 7.0644-16.1288 11-24 1.32-3.3 2.64-6.6 4-10 9-16 9-16 13-22 0.99-5.28 1.98-10.56 3-16z" />
    <path fill="#bcbbbb" transform="translate(153 200)" d="M0 0c0.495 1.485 0.495 1.485 1 3-0.99 0.66-1.98 1.32-3 2-2.64 0-5.28 0-8 0-3.63 1.98-7.26 3.96-11 6-0.66 0-1.32 0-2 0 0 0.66 0 1.32 0 2-4.62 2.31-9.24 4.62-14 7-1.65-0.33-3.3-0.66-5-1-4.95-3.3-9.9-6.6-15-10-1.32-0.33-2.64-0.66-4-1-0.99-1.32-1.98-2.64-3-4 1.32-0.33 2.64-0.66 4-1 5.28 3.3 10.56 6.6 16 10 1.32 0.66 2.64 1.32 4 2 1.98-0.33 3.96-0.66 6-1 8.415-4.95 8.415-4.95 17-10 1.98-0.33 3.96-0.66 6-1 1.32-0.33 2.64-0.66 4-1 1.32 0.33 2.64 0.66 4 1 0.99-0.99 1.98-1.98 3-3z" />
    <path fill="#120c0c" transform="translate(151 88)" d="M0 0c3.63 0 7.26 0 11 0 10 5 10 5 18 12 1.98-0.33 3.96-0.66 6-1 0.33-1.32 0.66-2.64 1-4 0.66 0 1.32 0 2 0 2.31 4.62 4.62 9.24 7 14-0.66 0.99-1.32 1.98-2 3-0.66 0-1.32 0-2 0 0-0.66 0-1.32 0-2-1.32 0.33-2.64 0.66-4 1-0.99 0-1.98 0-3 0-0.66-1.65-1.32-3.3-2-5-6.9019-7.3595-6.9019-7.3595-16-13-2.64-0.99-5.28-1.98-8-3C1.565 2.495 1.565 2.495-5 3c0.66-0.66 1.32-1.32 2-2 0.99-0.33 1.98-0.66 3-1z" />
    <path fill="#d1d0ce" transform="translate(108 161)" d="M0 0c0.33 1.32 0.66 2.64 1 4 0.33 0.99 0.66 1.98 1 3 0.66 0.66 1.32 1.32 2 2-0.66 0.66-1.32 1.32-2 2 0.66 0.33 1.32 0.66 2 1-0.33 0.99-0.66 1.98-1 3-0.99-0.66-1.98-1.32-3-2-0.33 5.94-0.66 11.88-1 18-0.33 0.66-0.66 1.32-1 2-1.32 0-2.64 0-4 0-0.33-6.93-0.66-13.86-1-21-1.98 0.99-1.98 0.99-4 2 3.5361-4.7878 7.1448-9.4645 11-14z" />
    <path fill="#d0cbcb" transform="translate(154 106)" d="M0 0c3.3 0 6.6 0 10 0 3.465 1.485 3.465 1.485 7 3 2.31 2.31 4.62 4.62 7 7 8.2197 16.4394 15.0848 32.6876 21 50 0 1.32 0 2.64 0 4-0.66 0-1.32 0-2 0-4.7488-11.8859-9.039-23.8272-13-36-6.6735-14.8739-6.6735-14.8739-13-22-1.98-0.99-3.96-1.98-6-3-2.31-0.33-4.62-0.66-7-1-0.33 0.66-0.66 1.32-1 2 0-0.99 0-1.98 0-3-0.99-0.33-1.98-0.66-3-1z" />
    <path fill="#c6c5c4" transform="translate(70 18)" d="M0 0c0.99 0.33 1.98 0.66 3 1-2.31 2.97-4.62 5.94-7 9-8.3602 15.6532-8.3602 15.6532-13 32-0.99 0-1.98 0-3 0-0.33 2.64-0.66 5.28-1 8-0.33 0-0.66 0-1 0 1-10 1-10 7-28 1.98-4.455 1.98-4.455 4-9-0.33-0.66-0.66-1.32-1-2 0.99-0.33 1.98-0.66 3-1 1.32-1.98 2.64-3.96 4-6 1.65-1.32 3.3-2.64 5-4z" />
    <path fill="#bebdbd" transform="translate(43 174)" d="M0 0c6.93 0 13.86 0 21 0 1.32 0.66 2.64 1.32 4 2 2.64 5.61 5.28 11.22 8 17 1.32 1.65 2.64 3.3 4 5 0.495 2.475 0.495 2.475 1 5 1.98-0.33 3.96-0.66 6-1 0.66 0.66 1.32 1.32 2 2-3.3 0-6.6 0-10 0-1.32-0.99-2.64-1.98-4-3-2.31-5.61-4.62-11.22-7-17-1.98-3.465-1.98-3.465-4-7C13.08 3 5.16 3-3 3c0-0.66 0-1.32 0-2 0.99-0.33 1.98-0.66 3-1z" />
    <path fill="#dbd6d6" transform="translate(161 144)" d="M0 0c0 0.99 0 1.98 0 3-0.66 0.66-1.32 1.32-2 2-2.97-0.33-5.94-0.66-9-1-13.3984-0.4903-13.3984-0.4903-20 1 4.1962 4.3169 4.1962 4.3169 10 9 1.98 3.3 3.96 6.6 6 10 1 4 1 4 1 12-2.6034-5.2068-4.761-10.6264-7-16-2.64-2.97-5.28-5.94-8-9-1.98-0.99-3.96-1.98-6-3 0.66-1.32 1.32-2.64 2-4 2.31-0.99 4.62-1.98 7-3 13 0 13 0 23 1 0.99-0.66 1.98-1.32 3-2z" />
    <path fill="#e3dede" transform="translate(68 143)" d="M0 0c1.98 0.99 1.98 0.99 4 2 1.32 0.33 2.64 0.66 4 1 0.66-0.33 1.32-0.66 2-1 5.94 0 11.88 0 18 0 2.64 1.32 5.28 2.64 8 4 0 0.99 0 1.98 0 3-2.97 1.98-5.94 3.96-9 6-1.98 2.64-3.96 5.28-6 8-1.65 4.62-3.3 9.24-5 14-0.33 0-0.66 0-1 0 0-2.64 0-5.28 0-8 1.98-3.96 3.96-7.92 6-12 2.64-2.64 5.28-5.28 8-8 0.66-0.33 1.32-0.66 2-1 0-0.66 0-1.32 0-2-2.31-0.66-4.62-1.32-7-2-8.5516-0.2385-8.5516-0.2385-19 2-1.65-1.98-3.3-3.96-5-6z" />
    <path fill="#0c0908" transform="translate(100 153)" d="M0 0c3 1 3 1 8 4 0 1.65 0 3.3 0 5-1.98 2.31-3.96 4.62-6 7-2.64-0.33-5.28-0.66-8-1-0.33-1.65-0.66-3.3-1-5-0.33 0.99-0.66 1.98-1 3 0-1.32 0-2.64 0-4 1.32-1.32 2.64-2.64 4-4 0.66 0 1.32 0 2 0 0.33-1.32 0.66-2.64 1-4 0.33-0.33 0.66-0.66 1-1z" />
    <path fill="#c0bfbe" transform="translate(165 175)" d="M0 0c6.93 0 13.86 0 21 0 3.96 1.32 7.92 2.64 12 4 0.495 1.485 0.495 1.485 1 3-3.3-0.99-6.6-1.98-10-3C16.4751 2.495 8.6739 3 1 3c-3.9817 7.1671-7.5642 14.5557-11 22-0.66-1.32-1.32-2.64-2-4 2.97-6.27 5.94-12.54 9-19 0.99-0.66 1.98-1.32 3-2z" />
    <path fill="#d5d0d0" transform="translate(64 106)" d="M0 0c1.32 0.66 2.64 1.32 4 2-3.465 1.485-3.465 1.485-7 3-1.65 1.32-3.3 2.64-5 4-4.5895 9.1789-8.628 17.575-12.3125 26.9375-0.6062 1.5324-0.6062 1.5324-1.2246 3.0957C-23.8716 44.9739-26.0424 50.9244-28 57c-0.66 0-1.32 0-2 0 1-8 1-8 9-28 8-16 8-16 14-24 2.31-1.65 4.62-3.3 7-5z" />
    <path fill="#201b1b" transform="translate(166 164)" d="M0 0c0.66 1.32 1.32 2.64 2 4-0.33 1.98-0.66 3.96-1 6 3.96 0 7.92 0 12 0 0 0.33 0 0.66 0 1-4.62 0.33-9.24 0.66-14 1-0.99 0.99-1.98 1.98-3 3-2.97 6.27-5.94 12.54-9 19-1.65 0-3.3 0-5 0-0.99 0.66-1.98 1.32-3 2 0.33-1.32 0.66-2.64 1-4 1.32-0.33 2.64-0.66 4-1 1.9576-3.7718 3.9148-7.5438 5.8716-11.3159 0.6652-1.2823 1.3306-2.5645 1.9961-3.8467 0.9584-1.8467 1.9165-3.6936 2.8745-5.5405 0.576-1.1102 1.1521-2.2204 1.7456-3.3643C-2.3246 4.6295-1.1509 2.3216 0 0z" />
    <path fill="#d5d3d1" transform="translate(33 160)" d="M0 0c0.66 0.99 1.32 1.98 2 3-1 7-1 7-4 15 2.31-0.66 4.62-1.32 7-2 0.33 0.66 0.66 1.32 1 2-3.96 1.98-3.96 1.98-8 4-0.66 0-1.32 0-2 0-0.33 1.98-0.66 3.96-1 6-0.66 1.32-1.32 2.64-2 4-1.65-0.33-3.3-0.66-5-1 0-0.66 0-1.32 0-2 0.99 0 1.98 0 3 0 0.66-2.97 1.32-5.94 2-9 2.31-6.6 4.62-13.2 7-20z" />
    <path fill="#0c0707" transform="translate(128 137)" d="M0 0c5.94 0.66 11.88 1.32 18 2 0 1.32 0 2.64 0 4 2.475 0.495 2.475 0.495 5 1 0 0.33 0 0.66 0 1-5.94 0.33-11.88 0.66-18 1 0-1.32 0-2.64 0-4-1.98 0.66-3.96 1.32-6 2-0.66-0.66-1.32-1.32-2-2 0-0.66 0-1.32 0-2 0.99-0.99 1.98-1.98 3-3z" />
    <path fill="#dbdad8" transform="translate(92 181)" d="M0 0c1.65 0.33 3.3 0.66 5 1-0.33 3.96-0.66 7.92-1 12-2.31 0.33-4.62 0.66-7 1 0.66-1.65 1.32-3.3 2-5-0.99 0-1.98 0-3 0-0.99-0.33-1.98-0.66-3-1 2.31-2.64 4.62-5.28 7-8zM-6 14c13.86 0.495 13.86 0.495 28 1 0 0.33 0 0.66 0 1-8.58 0.33-17.16 0.66-26 1-0.66-0.99-1.32-1.98-2-3z" />
    <path fill="#030200" transform="translate(113 165)" d="M0 0c1.32 0 2.64 0 4 0 0 9.57 0 19.14 0 29-1.32 0-2.64 0-4 0 0-9.57 0-19.14 0-29z" />
    <path fill="#221d1d" transform="translate(106 125)" d="M0 0c2.64 0.33 5.28 0.66 8 1 0 0.66 0 1.32 0 2 1.98 0.99 3.96 1.98 6 3 0.33 0.66 0.66 1.32 1 2-1.98 0.33-3.96 0.66-6 1 1.98 1.32 3.96 2.64 6 4-0.33 0.66-0.66 1.32-1 2-3.3-0.33-6.6-0.66-10-1-0.33-2.64-0.66-5.28-1-8-0.99 0-1.98 0-3 0 0-1.98 0-3.96 0-6z" />
    <path fill="#e2e1df" transform="translate(131 173)" d="M0 0c5.3437 5.3437 10.162 11.1944 15 17-0.33 0.66-0.66 1.32-1 2-1.65 0-3.3 0-5 0-0.66 0.66-1.32 1.32-2 2 0.33-1.32 0.66-2.64 1-4 0.66 0 1.32 0 2 0 0-0.66 0-1.32 0-2-0.99 0-1.98 0-3 0-0.33 1.98-0.66 3.96-1 6-1.32 0-2.64 0-4 0 0-3.63 0-7.26 0-11 0.66-0.66 1.32-1.32 2-2-1.32-1.98-2.64-3.96-4-6 0-0.66 0-1.32 0-2z" />
    <path fill="#f7f6f4" transform="translate(129 171)" d="M0 0c0.66 0.33 1.32 0.66 2 1 1.6667 3.3333 3.3333 6.6667 5 10-0.99 0.495-0.99 0.495-2 1-0.66 2.64-1.32 5.28-2 8-0.99 0.33-1.98 0.66-3 1-0.66 0.66-1.32 1.32-2 2 0-6.6 0-13.2 0-20 0.66 0 1.32 0 2 0 0-0.99 0-1.98 0-3z" />
    <path fill="#e5e3e1" transform="translate(104 199)" d="M0 0c11.55 0 23.1 0 35 0-0.66 0.66-1.32 1.32-2 2-1.32-0.33-2.64-0.66-4-1 0 0.66 0 1.32 0 2C15.14 3 1.28 3-13 3c0-0.33 0-0.66 0-1 6.435-0.495 6.435-0.495 13-1 0-0.33 0-0.66 0-1z" />
    <path fill="#e4dfdf" transform="translate(66 130)" d="M0 0c9 2 9 2 18 4 5.94 0.33 11.88 0.66 18 1 0 0.66 0 1.32 0 2-6.4757 1.6189-13.325 1-20 1-4.29-1.65-8.58-3.3-13-5-0.99-0.99-1.98-1.98-3-3z" />
    <path fill="#292827" transform="translate(123 169)" d="M0 0c0.99 0.33 1.98 0.66 3 1 0.33 0.66 0.66 1.32 1 2 0 7.26 0 14.52 0 22-1.32 0-2.64 0-4 0 0-8.25 0-16.5 0-25z" />
    <path fill="#dbd7d7" transform="translate(162 131)" d="M0 0c0.66 0.33 1.32 0.66 2 1C-8 6-8 6-12 7-30 7-30 7-34 6c0-0.66 0-1.32 0-2 7.26-0.33 14.52-0.66 22-1 3.96-0.99 7.92-1.98 12-3z" />
    <path fill="#c5c1c2" transform="translate(91 203)" d="M0 0c7.0643 2.8257 13.4758 7.0855 20 11 1.98 0.99 3.96 1.98 6 3-0.33 0.99-0.66 1.98-1 3-1.65-0.33-3.3-0.66-5-1-4.95-3.3-9.9-6.6-15-10-1.32-0.33-2.64-0.66-4-1-0.99-1.32-1.98-2.64-3-4 0.66-0.33 1.32-0.66 2-1z" />
    <path fill="#dedddb" transform="translate(168 159)" d="M0 0c0.33 0.66 0.66 1.32 1 2-3.96 7.59-7.92 15.18-12 23-0.66 0.66-1.32 1.32-2 2 0-0.66 0-1.32 0-2-0.66 0-1.32 0-2 0 0 0.66 0 1.32 0 2-0.66 0-1.32 0-2 0-0.33 0.99-0.66 1.98-1 3-0.66-0.33-1.32-0.66-2-1 2.3945-3.5217 4.7909-7.0422 7.1875-10.5625 1.0103-1.486 1.0103-1.486 2.041-3.002C-7.238 10.2473-3.6756 5.0887 0 0z" />
    <path fill="#1b1616" transform="translate(162 118)" d="M0 0c0.33 0.99 0.66 1.98 1 3 0.66 0 1.32 0 2 0-0.33 0.66-0.66 1.32-1 2-1.32 1.32-2.64 2.64-4 4 0.66 1.32 1.32 2.64 2 4-1.98 0.99-1.98 0.99-4 2-1.98 0.33-3.96 0.66-6 1 0-0.66 0-1.32 0-2-1.98 0-3.96 0-6 0 0-0.66 0-1.32 0-2 3.96-1.65 7.92-3.3 12-5 0.99-0.99 1.98-1.98 3-3 0.33-1.32 0.66-2.64 1-4z" />
    <path fill="#f8f7f5" transform="translate(79 197)" d="M0 0c2.97 0.495 2.97 0.495 6 1 1.32 0 2.64 0 4 0 4.95 0.33 9.9 0.66 15 1 0.33 0.66 0.66 1.32 1 2-4.62 0-9.24 0-14 0 0 0.99 0 1.98 0 3C8.7 6.67 5.4 6.34 2 6 1.34 4.02 0.68 2.04 0 0z" />
    <path fill="#b7b4b4" transform="translate(223 160)" d="M0 0c0.66 0.66 1.32 1.32 2 2 0 3.63 0 7.26 0 11-1.32 2.97-2.64 5.94-4 9-2.31 2.64-4.62 5.28-7 8-0.99 0.66-1.98 1.32-3 2-1.65-0.33-3.3-0.66-5-1 4-2 4-2 9-4 1.4665-2.8802 2.8205-5.7931 4.125-8.75 0.3532-0.7992 0.7064-1.5984 1.0703-2.4219C-2.5391 15.2248-2.2736 14.6216-2 14c0.33-2.97 0.66-5.94 1-9 0.33-0.66 0.66-1.32 1-2 0-0.99 0-1.98 0-3z" />
    <path fill="#191717" transform="translate(67 173)" d="M0 0c0.99 0.33 1.98 0.66 3 1 3.3333 6.6667 6.6667 13.3333 10 20 1.65 0.99 3.3 1.98 5 3-0.33 0.66-0.66 1.32-1 2-2.31-0.99-4.62-1.98-7-3C6.6667 16.3333 3.3333 9.6667 0 3-0.99 2.34-1.98 1.68-3 1c0.99-0.33 1.98-0.66 3-1z" />
    <path fill="#262121" transform="translate(81 130)" d="M0 0c8.25 0.33 16.5 0.66 25 1 0 0.33 0 0.66 0 1-3.3 0-6.6 0-10 0 0 0.99 0 1.98 0 3-3.96 0-7.92 0-12 0-2.31-0.66-4.62-1.32-7-2 1.32-0.99 2.64-1.98 4-3z" />
    <path fill="#1a1615" transform="translate(156 136)" d="M0 0c0 0.66 0 1.32 0 2-0.66 0-1.32 0-2 0 0.33 1.32 0.66 2.64 1 4 0 1.65 0 3.3 0 5-2.31-0.33-4.62-0.66-7-1 0-0.66 0-1.32 0-2-0.66-0.33-1.32-0.66-2-1 0-1.32 0-2.64 0-4-3.3 0-6.6 0-10 0 0-0.33 0-0.66 0-1 4.62-0.33 9.24-0.66 14-1 4-1 4-1 6-1z" />
    <path fill="#181313" transform="translate(58 112)" d="M0 0c0.66 0.99 1.32 1.98 2 3 0.66 0.33 1.32 0.66 2 1-0.99 1.485-0.99 1.485-2 3-1.32 0.33-2.64 0.66-4 1-1.0707 6.3165-1.0707 6.3165-1 10-1.65-0.33-3.3-0.66-5-1-0.66 0.33-1.32 0.66-2 1 2-6 2-6 8-16 0.66-0.66 1.32-1.32 2-2z" />
    <path fill="#d5d4d4" transform="translate(173 39)" d="M0 0c0.66 0 1.32 0 2 0 1.32 3.63 2.64 7.26 4 11 0 0.99 0 1.98 0 3 0.66 0 1.32 0 2 0 0.66 2.31 1.32 4.62 2 7 0 1.98 0 3.96 0 6-0.99 0.33-1.98 0.66-3 1-1.32-5.61-2.64-11.22-4-17-0.99-2.64-1.98-5.28-3-8 0-0.99 0-1.98 0-3z" />
    <path fill="#020100" transform="translate(105 169)" d="M0 0c0.33 0 0.66 0 1 0 0 8.25 0 16.5 0 25-0.99 0-1.98 0-3 0 0-7.59 0-15.18 0-23 0.66-0.66 1.32-1.32 2-2z" />
    <path fill="#181212" transform="translate(116 121)" d="M0 0c3.6667 0 7.3333 0 11 0-1.65 1.32-3.3 2.64-5 4 0.99 0 1.98 0 3 0 0 2.64 0 5.28 0 8-0.66-0.33-1.32-0.66-2-1-1.32-0.33-2.64-0.66-4-1 0-0.99 0-1.98 0-3-0.66 0-1.32 0-2 0-0.66-1.32-1.32-2.64-2-4 0.33-0.99 0.66-1.98 1-3z" />
    <path fill="#140f0f" transform="translate(135 147)" d="M0 0c2.97 0 5.94 0 9 0-0.66 0.66-1.32 1.32-2 2 0.33 0.66 0.66 1.32 1 2-0.99 0.66-1.98 1.32-3 2-0.66 1.32-1.32 2.64-2 4-2.64-1.98-5.28-3.96-8-6 0-0.66 0-1.32 0-2 1.65-0.66 3.3-1.32 5-2z" />
    <path fill="#f4f2f2" transform="translate(29 114)" d="M0 0c0.66 0 1.32 0 2 0-3.0185 9.0554-7.7313 17.4625-12 26-0.99 0.33-1.98 0.66-3 1 3.0185-9.0554 7.7313-17.4625 12-26 0.33-0.33 0.66-0.66 1-1z" />
    <path fill="#f3f1f2" transform="translate(127 7)" d="M0 0c4.29 0 8.58 0 13 0 3.3 0.99 6.6 1.98 10 3 0 0.66 0 1.32 0 2 1.32 0 2.64 0 4 0 0.33 0.99 0.66 1.98 1 3-3.3-0.99-6.6-1.98-10-3C12.39 4.01 6.78 3.02 1 2 0.67 1.34 0.34 0.68 0 0z" />
    <path fill="#e7e6e4" transform="translate(117 165)" d="M0 0c0.33 0 0.66 0 1 0 0.33 3.63 0.66 7.26 1 11 0.99 0 1.98 0 3 0-0.33 0.99-0.66 1.98-1 3 0.66 0 1.32 0 2 0 0 1.65 0 3.3 0 5-0.66 0-1.32 0-2 0-0.33 0.99-0.66 1.98-1 3-0.33 0-0.66 0-1 0-0.33 2.31-0.66 4.62-1 7-0.33 0-0.66 0-1 0 0-9.57 0-19.14 0-29z" />
    <path fill="#f9f8f6" transform="translate(119 161)" d="M0 0c0.33 0.66 0.66 1.32 1 2-0.33 0.66-0.66 1.32-1 2 0.99 0 1.98 0 3 0 0.33 0.99 0.66 1.98 1 3 0 3.63 0 7.26 0 11-0.66 0-1.32 0-2 0-0.33-0.99-0.66-1.98-1-3-0.66 1.32-1.32 2.64-2 4-0.33-5.28-0.66-10.56-1-16 0.66-0.99 1.32-1.98 2-3z" />
    <path fill="#1d1817" transform="translate(70 123)" d="M0 0c4 2 8 4 12 6 0 0.99 0 1.98 0 3-2.31 0.33-4.62 0.66-7 1-1.98-0.66-3.96-1.32-6-2 0.33-1.65 0.66-3.3 1-5 0-0.99 0-1.98 0-3z" />
    <path fill="#beb9b9" transform="translate(151 88)" d="M0 0c3.63 0 7.26 0 11 0 3.3 1.65 6.6 3.3 10 5 3.3 2.97 6.6 5.94 10 9 0 0.99 0 1.98 0 3-3.63-3.3-7.26-6.6-11-10-3.96-1.65-7.92-3.3-12-5C1.565 2.495 1.565 2.495-5 3c0.66-0.66 1.32-1.32 2-2 0.99-0.33 1.98-0.66 3-1z" />
    <path fill="#c4c4c4" transform="translate(47 69)" d="M0 0c0.33 0 0.66 0 1 0 0 3.3 0 6.6 0 10 0.33 0 0.66 0 1 0-0.33 2.64-0.66 5.28-1 8-1.32 1.65-2.64 3.3-4 5-0.66 0-1.32 0-2 0-0.99 0.99-1.98 1.98-3 3 2-5 2-5 5-10 0.99-5.28 1.98-10.56 3-16z" />
    <path fill="#ded9d9" transform="translate(68 143)" d="M0 0c1.98 0.99 1.98 0.99 4 2 1.32 0.33 2.64 0.66 4 1 0.66-0.33 1.32-0.66 2-1 5.94 0 11.88 0 18 0 3.465 1.485 3.465 1.485 7 3-0.66 0.33-1.32 0.66-2 1-0.33 0.66-0.66 1.32-1 2-0.33-0.66-0.66-1.32-1-2-2.31-0.66-4.62-1.32-7-2-8.5516-0.2385-8.5516-0.2385-19 2-1.65-1.98-3.3-3.96-5-6z" />
    <path fill="#bfbdbc" transform="translate(56 38)" d="M0 0c0.33 1.32 0.66 2.64 1 4-1.32 2.97-2.64 5.94-4 9 0.66 0 1.32 0 2 0-0.66 2.97-1.32 5.94-2 9-0.99 0-1.98 0-3 0-0.33 2.64-0.66 5.28-1 8-0.33 0-0.66 0-1 0 1-10 1-10 7-28 0.33-0.66 0.66-1.32 1-2z" />
    <path fill="#c5c3c3" transform="translate(182 67)" d="M0 0c0.66 0 1.32 0 2 0 0.99 5.61 1.98 11.22 3 17-0.33 0.99-0.66 1.98-1 3-0.33-0.66-0.66-1.32-1-2-0.66 0.66-1.32 1.32-2 2C0.34 13.73-0.32 7.46-1 1c0.33-0.33 0.66-0.66 1-1z" />
    <path fill="#e2dddd" transform="translate(42 139)" d="M0 0c0.33 1.32 0.66 2.64 1 4-2.31 6.6-4.62 13.2-7 20-0.66 0-1.32 0-2 0 1-8 1-8 7-23 0.33-0.33 0.66-0.66 1-1z" />
    <path fill="#efeaea" transform="translate(104 122)" d="M0 0c2.475 0.99 2.475 0.99 5 2 1.32 0.99 2.64 1.98 4 3-1.65-0.33-3.3-0.66-5-1-0.66-0.33-1.32-0.66-2-1 0 1.98 0 3.96 0 6-2.64-0.33-5.28-0.66-8-1-0.33-1.32-0.66-2.64-1-4 0.99 0.495 0.99 0.495 2 1 0.66-0.66 1.32-1.32 2-2 0.66 0.33 1.32 0.66 2 1 0.33-1.32 0.66-2.64 1-4z" />
    <path fill="#080303" transform="translate(83 138)" d="M0 0c4.95 0 9.9 0 15 0-0.66 0.66-1.32 1.32-2 2 0.66 0.66 1.32 1.32 2 2-0.99 0.495-0.99 0.495-2 1 0 0.66 0 1.32 0 2C8.71 6.67 4.42 6.34 0 6 0 5.67 0 5.34 0 5 2.64 5 5.28 5 8 5 7.67 4.01 7.34 3.02 7 2 4.69 2 2.38 2 0 2 0 1.34 0 0.68 0 0z" />
    <path fill="#e8e8e6" transform="translate(133 124)" d="M0 0c0.99 0.33 1.98 0.66 3 1-0.33 0.99-0.66 1.98-1 3-0.66-0.33-1.32-0.66-2-1 0-0.99 0-1.98 0-3zM-4 4C0.0144 4.5735 4.0236 5.2047 8 6 8 6.66 8 7.32 8 8 2.72 8-2.56 8-8 8c0-0.66 0-1.32 0-2 1.32-0.66 2.64-1.32 4-2z" />
    <path transform="translate(44 138)" d="M0 0c0.66 0 1.32 0 2 0 0.66 1.98 1.32 3.96 2 6-0.99 0-1.98 0-3 0-0.33 1.98-0.66 3.96-1 6 0.66 0.33 1.32 0.66 2 1-2.31 0.66-4.62 1.32-7 2 1.5145-5.0482 3.0426-10.1065 5-15z" />
    <path fill="#b9b4b4" transform="translate(43 174)" d="M0 0c6.93 0 13.86 0 21 0 0 0.66 0 1.32 0 2C13.08 2.33 5.16 2.66-3 3c0-0.66 0-1.32 0-2 0.99-0.33 1.98-0.66 3-1z" />
    <path fill="#d1cecd" transform="translate(161 144)" d="M0 0c0 0.99 0 1.98 0 3-0.66 0.66-1.32 1.32-2 2-1.2375-0.1444-2.475-0.2888-3.75-0.4375C-11.49 3.9217-17.2429 3.4578-23 3c-0.99-0.66-1.98-1.32-3-2 13 0 13 0 23 1 0.99-0.66 1.98-1.32 3-2z" />
    <path fill="#110e0e" transform="translate(183 101)" d="M0 0c0.66 0 1.32 0 2 0 0 0.66 0 1.32 0 2 0.66 0 1.32 0 2 0 0.66 1.32 1.32 2.64 2 4 1.98-0.33 3.96-0.66 6-1 0.33 0.99 0.66 1.98 1 3-0.99 1.485-0.99 1.485-2 3-0.66 0-1.32 0-2 0 0-0.66 0-1.32 0-2-1.32 0.33-2.64 0.66-4 1-0.99 0-1.98 0-3 0-0.66-1.65-1.32-3.3-2-5 0-1.65 0-3.3 0-5z" />
    <path fill="#e1dede" transform="translate(50 60)" d="M0 0c0.66 0 1.32 0 2 0-0.33 3.96-0.66 7.92-1 12-0.99 2.64-1.98 5.28-3 8-0.33 0-0.66 0-1 0 0-4.29 0-8.58 0-13 0.66-0.99 1.32-1.98 2-3 0.33-1.32 0.66-2.64 1-4z" />
    <path fill="#b4b3b2" transform="translate(178 175)" d="M0 0c2.64 0 5.28 0 8 0 3.96 1.32 7.92 2.64 12 4 0.33 0.99 0.66 1.98 1 3-3.3-0.99-6.6-1.98-10-3C7.37 3.34 3.74 2.68 0 2 0 1.34 0 0.68 0 0z" />
    <path fill="#080403" transform="translate(124 146)" d="M0 0c0.99 1.32 1.98 2.64 3 4-0.33 0.66-0.66 1.32-1 2 0.66 0.33 1.32 0.66 2 1-0.33 0.33-0.66 0.66-1 1 0.33 0.66 0.66 1.32 1 2 0.66 0 1.32 0 2 0 0 0.99 0 1.98 0 3-2.97 2.475-2.97 2.475-6 5 0-1.32 0-2.64 0-4 0.66 0 1.32 0 2 0-0.33-1.32-0.66-2.64-1-4-0.99 0-1.98 0-3 0 0-0.66 0-1.32 0-2 0.66 0 1.32 0 2 0 0-2.64 0-5.28 0-8z" />
    <path fill="#d4d0d0" transform="translate(62 159)" d="M0 0c4 4 4 4 13 19-0.33 0.66-0.66 1.32-1 2-0.99-0.33-1.98-0.66-3-1C1 3 1 3 0 0z" />
    <path fill="#191213" transform="translate(48 97)" d="M0 0c0.66 0.33 1.32 0.66 2 1-1.485 2.475-1.485 2.475-3 5 0 1.32 0 2.64 0 4-0.66 0-1.32 0-2 0 0-0.66 0-1.32 0-2-0.66 0-1.32 0-2 0 0-0.66 0-1.32 0-2-1.65 0.33-3.3 0.66-5 1 0.66-1.32 1.32-2.64 2-4 1.65 0 3.3 0 5 0 0.99-0.99 1.98-1.98 3-3z" />
    <path fill="#cac6c6" transform="translate(156 14)" d="M0 0c1.98 0.66 3.96 1.32 6 2 0.99 0.99 1.98 1.98 3 3 0.66 1.98 1.32 3.96 2 6-0.99 0-1.98 0-3 0-1.32-1.65-2.64-3.3-4-5-1.32-0.99-2.64-1.98-4-3 0-0.99 0-1.98 0-3z" />
    <path fill="#cac9c9" transform="translate(75 195)" d="M0 0c1.65 0.99 3.3 1.98 5 3 0.33 1.65 0.66 3.3 1 5 1.98-0.33 3.96-0.66 6-1 0.66 0.66 1.32 1.32 2 2-3.3 0-6.6 0-10 0-1.32-0.99-2.64-1.98-4-3 0-1.98 0-3.96 0-6z" />
    <path fill="#d1cbcb" transform="translate(88 135)" d="M0 0c4.62 0 9.24 0 14 0 0 0.66 0 1.32 0 2C7.5243 3.6189 0.675 3-6 3c0-0.33 0-0.66 0-1 1.98 0 3.96 0 6 0 0-0.66 0-1.32 0-2z" />
    <path fill="#f2eeef" transform="translate(60 32)" d="M0 0c0.66 0 1.32 0 2 0-1 5-1 5-6 18-0.99 0.33-1.98 0.66-3 1 2.1344-6.4031 4.4933-12.7333 7-19z" />
    <path fill="#bebcbc" transform="translate(80 9)" d="M0 0c0.99 0.33 1.98 0.66 3 1-1.98 0.99-3.96 1.98-6 3-0.66 1.65-1.32 3.3-2 5-1.98 0.66-3.96 1.32-6 2-0.99 0.66-1.98 1.32-3 2 0.66-1.32 1.32-2.64 2-4 8-7 8-7 12-9z" />
    <path fill="#e5e4e4" transform="translate(74 179)" d="M0 0c1.65 1.65 3.3 3.3 5 5 0.99 1.98 1.98 3.96 3 6-0.99 0-1.98 0-3 0-0.99-0.33-1.98-0.66-3-1-0.99-2.97-1.98-5.94-3-9 0.33-0.33 0.66-0.66 1-1z" />
    <path fill="#201a1a" transform="translate(104 151)" d="M0 0c1.32 0.33 2.64 0.66 4 1 0 0.99 0 1.98 0 3 2.64 0 5.28 0 8 0 0 0.33 0 0.66 0 1-1.98 0.66-3.96 1.32-6 2-0.99 1.485-0.99 1.485-2 3-1-2-2-4-3-6-1.32-0.33-2.64-0.66-4-1 0.99-0.99 1.98-1.98 3-3z" />
    <path fill="#0e0b0a" transform="translate(141 131)" d="M0 0c3.63 0.33 7.26 0.66 11 1 0 0.66 0 1.32 0 2-0.99 0.495-0.99 0.495-2 1C0 4 0 4-5 3c0-0.33 0-0.66 0-1 1.65 0 3.3 0 5 0 0-0.66 0-1.32 0-2z" />
    <path fill="#060201" transform="translate(105 9)" d="M0 0c0.99 0 1.98 0 3 0 0 8.58 0 17.16 0 26-0.33 0-0.66 0-1 0C1 13 1 13 2 5 0.35 5-1.3 5-3 5c0.99-0.99 1.98-1.98 3-3 0-0.66 0-1.32 0-2z" />
    <path fill="#eae9e7" transform="translate(112 171)" d="M0 0c0.33 0 0.66 0 1 0 0 7.59 0 15.18 0 23 1.32 0.33 2.64 0.66 4 1-2.97 0-5.94 0-9 0 0.99-1.485 0.99-1.485 2-3 0.66 0 1.32 0 2 0-0.33-6.6-0.66-13.2-1-20 0.33-0.33 0.66-0.66 1-1z" />
    <path fill="#080202" transform="translate(118 139)" d="M0 0c0 0.33 0 0.66 0 1-1.98 0.66-3.96 1.32-6 2-0.99 1.485-0.99 1.485-2 3 0.33 0.66 0.66 1.32 1 2-0.66 0-1.32 0-2 0 0 0.66 0 1.32 0 2-0.66 0-1.32 0-2 0 0.33-1.65 0.66-3.3 1-5-0.99-0.33-1.98-0.66-3-1 0.33-0.99 0.66-1.98 1-3 5-1 5-1 12-1zM-14 5c2 1 2 1 2 1z" />
    <path fill="#211c1d" transform="translate(34 109)" d="M0 0c0.33 1.32 0.66 2.64 1 4-0.33 0.66-0.66 1.32-1 2-0.33 1.32-0.66 2.64-1 4-0.66 0-1.32 0-2 0-0.66 1.98-1.32 3.96-2 6-0.66 0-1.32 0-2 0 0 0.66 0 1.32 0 2-0.66-0.33-1.32-0.66-2-1 2.97-5.61 5.94-11.22 9-17z" />
    <path fill="#161312" transform="translate(169 34)" d="M0 0c0.99 0.99 1.98 1.98 3 3 0.99 2.97 1.98 5.94 3 9-0.99 0.33-1.98 0.66-3 1-1.32-2.97-2.64-5.94-4-9 0.33-1.32 0.66-2.64 1-4z" />
    <path fill="#13100f" transform="translate(157 171)" d="M0 0c0.99 0.33 1.98 0.66 3 1-1.98 2.97-3.96 5.94-6 9-1.32 0.33-2.64 0.66-4 1 0-0.66 0-1.32 0-2 0.66 0 1.32 0 2 0 0-0.66 0-1.32 0-2-0.99 0.33-1.98 0.66-3 1 0-0.66 0-1.32 0-2 1.98-0.66 3.96-1.32 6-2 0.66-1.32 1.32-2.64 2-4z" />
    <path fill="#ebe9e7" transform="translate(130 119)" d="M0 0c0.99 0.33 1.98 0.66 3 1-0.33 0.99-0.66 1.98-1 3-1.32 0.33-2.64 0.66-4 1 0 0.66 0 1.32 0 2-0.66 0-1.32 0-2 0-0.33 0.66-0.66 1.32-1 2 0-0.99 0-1.98 0-3-1.98 0.99-1.98 0.99-4 2-0.99-0.33-1.98-0.66-3-1 3.96-2.31 7.92-4.62 12-7z" />
    <path fill="#bfbfbd" transform="translate(197 105)" d="M0 0c0.99 0.99 1.98 1.98 3 3 1.65 3.3 3.3 6.6 5 10-0.33 0.66-0.66 1.32-1 2-0.99 0-1.98 0-3 0-0.99-1.98-1.98-3.96-3-6 0.33-0.99 0.66-1.98 1-3-0.66-1.98-1.32-3.96-2-6z" />
    <path fill="#e8e6e4" transform="translate(122 163)" d="M0 0c0.99 0.33 1.98 0.66 3 1 2.475 3.465 2.475 3.465 5 7-0.33 0.99-0.66 1.98-1 3-0.66 0-1.32 0-2 0-0.66-1.32-1.32-2.64-2-4-0.99-0.66-1.98-1.32-3-2 0-1.65 0-3.3 0-5z" />
    <path fill="#1f1e1c" transform="translate(113 165)" d="M0 0c1.32 0.33 2.64 0.66 4 1-0.99 0-1.98 0-3 0 0.66 0.33 1.32 0.66 2 1 0 3.96 0 7.92 0 12-0.99 0.66-1.98 1.32-3 2 0-5.28 0-10.56 0-16z" />
    <path fill="#121110" transform="translate(137 111)" d="M0 0c0.66 0.99 1.32 1.98 2 3-3.63 2.31-7.26 4.62-11 7 0.33-2.64 0.66-5.28 1-8 1.98 0.495 1.98 0.495 4 1 1.32-0.99 2.64-1.98 4-3z" />
    <path fill="#2a2929" transform="translate(153 189)" d="M0 0c0.99 0.33 1.98 0.66 3 1-2 6-2 6-3 8-1.65 0-3.3 0-5 0-0.99 0.66-1.98 1.32-3 2 0.33-1.32 0.66-2.64 1-4 1.32-0.33 2.64-0.66 4-1 0.99-1.98 1.98-3.96 3-6z" />
    <path fill="#eaeae8" transform="translate(153 184)" d="M0 0c0.66 0 1.32 0 2 0-0.33 1.65-0.66 3.3-1 5-1.32 2.31-2.64 4.62-4 7-0.66-0.33-1.32-0.66-2-1 0.33-0.99 0.66-1.98 1-3-0.33-0.99-0.66-1.98-1-3 0.99-0.99 1.98-1.98 3-3 0.66 0 1.32 0 2 0 0-0.66 0-1.32 0-2z" />
    <path fill="#0c0b09" transform="translate(114 184)" d="M0 0c0.66 0 1.32 0 2 0 0.33 0.99 0.66 1.98 1 3 0 2.31 0 4.62 0 7-1.32 0-2.64 0-4 0 0-2.64 0-5.28 0-8 0.33-0.66 0.66-1.32 1-2z" />
    <path fill="#dad5d5" transform="translate(168 159)" d="M0 0c0.33 0.66 0.66 1.32 1 2-2.31 4.29-4.62 8.58-7 13-1.32-0.33-2.64-0.66-4-1 3.3-4.62 6.6-9.24 10-14z" />
    <path fill="#171212" transform="translate(35 170)" d="M0 0c0.33 0.66 0.66 1.32 1 2 0.66 0 1.32 0 2 0-0.33 1.65-0.66 3.3-1 5-1.98 0.33-3.96 0.66-6 1 0.33-1.98 0.66-3.96 1-6 0.99-0.66 1.98-1.32 3-2z" />
    <path fill="#f0eeed" transform="translate(217 151)" d="M0 0c0.66 0 1.32 0 2 0 1.65 3.96 3.3 7.92 5 12 0 2.31 0 4.62 0 7-0.33 0-0.66 0-1 0-0.99-2.97-1.98-5.94-3-9-0.99-2.31-1.98-4.62-3-7 0-0.99 0-1.98 0-3z" />
    <path fill="#080303" transform="translate(144 147)" d="M0 0c0.66 0 1.32 0 2 0 0.33 1.32 0.66 2.64 1 4-1.98 0.99-1.98 0.99-4 2-0.66 1.32-1.32 2.64-2 4-0.99 0.495-0.99 0.495-2 1 0.33-1.65 0.66-3.3 1-5-0.99-0.33-1.98-0.66-3-1 0.99-0.66 1.98-1.32 3-2 1.32-0.99 2.64-1.98 4-3z" />
    <path fill="#0a0506" transform="translate(116 208)" d="M0 0c0 1.98 0 3.96 0 6-0.33-0.66-0.66-1.32-1-2-1.32 0.33-2.64 0.66-4 1-1.98-0.66-3.96-1.32-6-2 0.66-0.66 1.32-1.32 2-2 7-1 7-1 9-1z" />
    <path fill="#1d1717" transform="translate(171 106)" d="M0 0c1.98 0.66 3.96 1.32 6 2 0.33 0.99 0.66 1.98 1 3-0.99 0.99-1.98 1.98-3 3-1.98-1.65-3.96-3.3-6-5 0.66-0.33 1.32-0.66 2-1 0-0.66 0-1.32 0-2z" />
    <path fill="#d5d0cf" transform="translate(143 164)" d="M0 0c0.99 1.32 1.98 2.64 3 4 1 4 1 4 1 12-2.4083-4.8166-4.1597-9.9391-6-15 0.66-0.33 1.32-0.66 2-1z" />
    <path fill="#090303" transform="translate(67 137)" d="M0 0c0.33 0.66 0.66 1.32 1 2 0.66 0 1.32 0 2 0 0-0.66 0-1.32 0-2 0.66 0.33 1.32 0.66 2 1-0.33 0.66-0.66 1.32-1 2 1.32 0.33 2.64 0.66 4 1 0 0.66 0 1.32 0 2-1.65 0.33-3.3 0.66-5 1 0-0.66 0-1.32 0-2-2.97-0.495-2.97-0.495-6-1 0-0.66 0-1.32 0-2 0.99 0 1.98 0 3 0 0-0.66 0-1.32 0-2z" />
    <path fill="#d1cfd0" transform="translate(108 214)" d="M0 0c2.475 0.495 2.475 0.495 5 1 1.32 0.99 2.64 1.98 4 3-0.33 0.66-0.66 1.32-1 2-1.65-0.33-3.3-0.66-5-1-0.99-0.66-1.98-1.32-3-2 0-0.99 0-1.98 0-3z" />
    <path fill="#cbc5c5" transform="translate(68 143)" d="M0 0c1.98 0.99 1.98 0.99 4 2 1.32 0.33 2.64 0.66 4 1 1.98-0.33 3.96-0.66 6-1 0.66 0.66 1.32 1.32 2 2-3.63 0.66-7.26 1.32-11 2-1.65-1.98-3.3-3.96-5-6z" />
    <path fill="#171112" transform="translate(27 126)" d="M0 0c0.66 0.33 1.32 0.66 2 1 0 0.99 0 1.98 0 3-0.66 0-1.32 0-2 0 0 0.99 0 1.98 0 3-1.65 0.33-3.3 0.66-5 1 0.66-1.98 1.32-3.96 2-6 0.99-0.66 1.98-1.32 3-2z" />
    <path fill="#1f1c1b" transform="translate(72 19)" d="M0 0c0.99 0 1.98 0 3 0 0 0.66 0 1.32 0 2-0.66 0-1.32 0-2 0 0 0.66 0 1.32 0 2-0.99 0.495-0.99 0.495-2 1 0 1.32 0 2.64 0 4-1.98 0.33-3.96 0.66-6 1 6-9 6-9 7-10z" />
    <path fill="#ececec" transform="translate(148 197)" d="M0 0c1.98 0 3.96 0 6 0-0.33 1.65-0.66 3.3-1 5-1.65 0.66-3.3 1.32-5 2 0-2.31 0-4.62 0-7z" />
    <path fill="#fbfaf8" transform="translate(138 187)" d="M0 0c0.99 0.33 1.98 0.66 3 1 0 1 0 2 0 3 0.66 1.98 1.32 3.96 2 6-4-1-4-1-6-2 0-2.31 0-4.62 0-7 0.33-0.33 0.66-0.66 1-1z" />
    <path fill="#191817" transform="translate(133 183)" d="M0 0c0.99 0.99 1.98 1.98 3 3 0 2.64 0 5.28 0 8-0.99 0-1.98 0-3 0 0-3.63 0-7.26 0-11z" />
    <path fill="#cbc9ca" transform="translate(64 175)" d="M0 0c1.32 0.33 2.64 0.66 4 1 0.99 1.98 1.98 3.96 3 6-0.33 0.99-0.66 1.98-1 3-3-3-3-3-6-8 0-0.66 0-1.32 0-2z" />
    <path fill="#c5c0c0" transform="translate(33 160)" d="M0 0c0.66 0.99 1.32 1.98 2 3-0.33 2.31-0.66 4.62-1 7-0.66 0.66-1.32 1.32-2 2 0-0.66 0-1.32 0-2-0.66 0-1.32 0-2 0 0.99-3.3 1.98-6.6 3-10z" />
    <path fill="#181514" transform="translate(217 154)" d="M0 0c0.99 1.32 1.98 2.64 3 4 0.66 2.31 1.32 4.62 2 7-0.99 0-1.98 0-3 0-0.66-0.99-1.32-1.98-2-3-0.33-1.98-0.66-3.96-1-6 0.33-0.66 0.66-1.32 1-2z" />
    <path fill="#d7d2d2" transform="translate(191 149)" d="M0 0c0.66 0 1.32 0 2 0 0.66 1.65 1.32 3.3 2 5 0 1.65 0 3.3 0 5-0.66 0-1.32 0-2 0-0.99-2.97-1.98-5.94-3-9 0.33-0.33 0.66-0.66 1-1z" />
    <path fill="#d6d0d0" transform="translate(112 136)" d="M0 0c1.98 0 3.96 0 6 0 0.99 0.66 1.98 1.32 3 2-0.33 0.66-0.66 1.32-1 2C4.7 3.67 1.4 3.34-2 3c0.66-0.99 1.32-1.98 2-3z" />
    <path fill="#150f0f" transform="translate(177 127)" d="M0 0c1.32 0.99 2.64 1.98 4 3 0.66-0.33 1.32-0.66 2-1 0.33 1.32 0.66 2.64 1 4-0.33 0.99-0.66 1.98-1 3-0.66-0.33-1.32-0.66-2-1-0.99 0-1.98 0-3 0-0.33-0.99-0.66-1.98-1-3 0.66-0.33 1.32-0.66 2-1-0.66-1.32-1.32-2.64-2-4z" />
    <path fill="#afaeae" transform="translate(47 69)" d="M0 0c0.33 0 0.66 0 1 0 0 3.3 0 6.6 0 10 0.33 0 0.66 0 1 0 0 1.65 0 3.3 0 5-0.66-0.33-1.32-0.66-2-1-0.66 0.66-1.32 1.32-2 2C-1 4-1 4 0 0z" />
    <path fill="#cdcccb" transform="translate(91 203)" d="M0 0c2.475 0.99 2.475 0.99 5 2 1.32 1.32 2.64 2.64 4 4-2.64-0.33-5.28-0.66-8-1-0.99-1.32-1.98-2.64-3-4 0.66-0.33 1.32-0.66 2-1z" />
    <path fill="#d5d6d4" transform="translate(25 183)" d="M0 0c0.99 0.33 1.98 0.66 3 1-0.66 2.64-1.32 5.28-2 8-1.65-0.33-3.3-0.66-5-1 0-0.66 0-1.32 0-2 0.99 0 1.98 0 3 0 0.33-1.98 0.66-3.96 1-6z" />
    <path fill="#a8a6a7" transform="translate(216 184)" d="M0 0c0.66 0.66 1.32 1.32 2 2-3.465 2.97-3.465 2.97-7 6-1.65-0.33-3.3-0.66-5-1 4-2 4-2 9-4 0.33-0.99 0.66-1.98 1-3z" />
    <path fill="#0b0a09" transform="translate(95 184)" d="M0 0c0.33 0 0.66 0 1 0 0 3.3 0 6.6 0 10-0.99 0-1.98 0-3 0 0-2.31 0-4.62 0-7 0.66-0.99 1.32-1.98 2-3z" />
    <path fill="#e3e2e0" transform="translate(92 181)" d="M0 0c1.65 0.33 3.3 0.66 5 1-1.32 1.65-2.64 3.3-4 5-1.65-0.33-3.3-0.66-5-1 1.32-1.65 2.64-3.3 4-5z" />
    <path fill="#050100" transform="translate(142 141)" d="M0 0c0.66 0 1.32 0 2 0 0.33 0.66 0.66 1.32 1 2 2.97 0.495 2.97 0.495 6 1 0 0.33 0 0.66 0 1C3.72 4-1.56 4-7 4c3-2 3-2 7-4z" />
    <path fill="#171313" transform="translate(189 98)" d="M0 0c1.32 1.32 2.64 2.64 4 4 0.33 1.32 0.66 2.64 1 4-1.65 0-3.3 0-5 0 0-2.6667 0-5.3333 0-8z" />
    <path fill="#070202" transform="translate(185 101)" d="M0 0c1.65 0 3.3 0 5 0-0.33 1.32-0.66 2.64-1 4 1.65 0.33 3.3 0.66 5 1-0.33 0.66-0.66 1.32-1 2-1.65-0.33-3.3-0.66-5-1-0.99-0.66-1.98-1.32-3-2 0.66 0 1.32 0 2 0 0-0.66 0-1.32 0-2-0.66 0-1.32 0-2 0 0-0.66 0-1.32 0-2z" />
    <path fill="#140e0e" transform="translate(171 96)" d="M0 0c2.475 0.99 2.475 0.99 5 2 0 0.99 0 1.98 0 3-1.98 0.99-1.98 0.99-4 2-0.33-1.32-0.66-2.64-1-4-0.66-0.33-1.32-0.66-2-1 0.66 0 1.32 0 2 0 0-0.66 0-1.32 0-2z" />
    <path fill="#1a1515" transform="translate(152 14)" d="M0 0c4.455 2.97 4.455 2.97 9 6 0 0.99 0 1.98 0 3-0.66 0-1.32 0-2 0 0-0.66 0-1.32 0-2-0.66 0-1.32 0-2 0 0-0.66 0-1.32 0-2-1.32-0.33-2.64-0.66-4-1-0.33-1.32-0.66-2.64-1-4z" />
    <path fill="#151412" transform="translate(146 183)" d="M0 0c0.66 0 1.32 0 2 0 0.66 1.32 1.32 2.64 2 4-1.32 1.32-2.64 2.64-4 4-0.66-0.66-1.32-1.32-2-2 0.33-1.32 0.66-2.64 1-4 0.66 0.33 1.32 0.66 2 1-0.33-0.99-0.66-1.98-1-3z" />
    <path fill="#0b0606" transform="translate(123 129)" d="M0 0c0.66 0.99 1.32 1.98 2 3 0.99 0.33 1.98 0.66 3 1-0.33 1.32-0.66 2.64-1 4-2.475-0.99-2.475-0.99-5-2-0.33-1.32-0.66-2.64-1-4 0.66 0 1.32 0 2 0 0-0.66 0-1.32 0-2z" />
    <path fill="#110b0b" transform="translate(75 127)" d="M0 0c2.31 0.66 4.62 1.32 7 2 0 0.99 0 1.98 0 3-2.64-0.33-5.28-0.66-8-1 0.33-1.32 0.66-2.64 1-4z" />
    <path fill="#e1e1e1" transform="translate(194 102)" d="M0 0c0.99 0.33 1.98 0.66 3 1 0.99 2.97 1.98 5.94 3 9-0.99 0-1.98 0-3 0-0.99-1.98-1.98-3.96-3-6 0-1.32 0-2.64 0-4z" />
    <path fill="#070202" transform="translate(184 95)" d="M0 0c0.66 1.32 1.32 2.64 2 4-1.98 0.66-3.96 1.32-6 2-1.32-1.65-2.64-3.3-4-5 2.475 0.99 2.475 0.99 5 2 0.66 0 1.32 0 2 0 0.33-0.99 0.66-1.98 1-3z" />
    <path fill="#dbd6d6" transform="translate(36 152)" d="M0 0c0.66 0.66 1.32 1.32 2 2-0.66 2.97-1.32 5.94-2 9-0.66 0-1.32 0-2 0 1-8 1-8 2-11z" />
    <path fill="#161010" transform="translate(191 141)" d="M0 0c0.66 1.32 1.32 2.64 2 4 1.32 1.65 2.64 3.3 4 5-0.33 0.99-0.66 1.98-1 3-0.33-0.66-0.66-1.32-1-2-0.99 0.495-0.99 0.495-2 1-0.66-1.98-1.32-3.96-2-6 0-1.65 0-3.3 0-5z" />
    <path fill="#201d1c" transform="translate(20 136)" d="M0 0c0.33 1.32 0.66 2.64 1 4-0.33 1.65-0.66 3.3-1 5-1.32 0.33-2.64 0.66-4 1 2-6 2-6 4-10z" />
    <path fill="#bbb9b9" transform="translate(33 104)" d="M0 0c0.33 0.66 0.66 1.32 1 2-0.66 1.32-1.32 2.64-2 4 0.33 0.99 0.66 1.98 1 3-0.66 0.66-1.32 1.32-2 2-0.99 0-1.98 0-3 0 2-6 2-6 5-11z" />
    <path fill="#fcfbf9" transform="translate(153 107)" d="M0 0c1.32 0 2.64 0 4 0 0.33 1.65 0.66 3.3 1 5-1.98 0.99-1.98 0.99-4 2-0.33-0.66-0.66-1.32-1-2 0-1.6667 0-3.3333 0-5z" />
    <path fill="#ebe8e7" transform="translate(66 106)" d="M0 0c3.96 0 7.92 0 12 0-0.99 0.33-1.98 0.66-3 1-0.33 1.65-0.66 3.3-1 5-0.99 0.66-1.98 1.32-3 2 2-5 2-5 3-7-2.64 0-5.28 0-8 0 0-0.33 0-0.66 0-1z" />
    <path fill="#070303" transform="translate(176 100)" d="M0 0c1.32 0.66 2.64 1.32 4 2 1.32 1.32 2.64 2.64 4 4-0.33 0.66-0.66 1.32-1 2-1.65-1.32-3.3-2.64-5-4-1.65-0.33-3.3-0.66-5-1 0.99-0.99 1.98-1.98 3-3z" />
    <path fill="#c3c1c2" transform="translate(165 21)" d="M0 0c1.65 1.65 3.3 3.3 5 5 0.33 1.32 0.66 2.64 1 4-0.99 0.33-1.98 0.66-3 1-0.66-0.99-1.32-1.98-2-3-0.33-2.31-0.66-4.62-1-7z" />
    <path fill="#040302" transform="translate(95 202)" d="M0 0c5.61 0 11.22 0 17 0 0 0.33 0 0.66 0 1-3.3 0.33-6.6 0.66-10 1-1.32 0.33-2.64 0.66-4 1 0-0.66 0-1.32 0-2-0.99-0.33-1.98-0.66-3-1z" />
    <path fill="#e9e7e5" transform="translate(158 174)" d="M0 0c0.99 0 1.98 0 3 0-0.66 1.98-1.32 3.96-2 6-1.32 0-2.64 0-4 0 0.66-1.65 1.32-3.3 2-5 0.33-0.33 0.66-0.66 1-1z" />
    <path fill="#0c0b0a" transform="translate(105 169)" d="M0 0c0.33 0 0.66 0 1 0-0.33 4.62-0.66 9.24-1 14-0.33 0-0.66 0-1 0-0.33-3.96-0.66-7.92-1-12 0.66-0.66 1.32-1.32 2-2z" />
    <path fill="#191313" transform="translate(67 161)" d="M0 0c0.99 0.33 1.98 0.66 3 1 0 2.6667 0 5.3333 0 8-1.32-1.65-2.64-3.3-4-5 0.33-1.32 0.66-2.64 1-4z" />
    <path fill="#c6c6c6" transform="translate(15 142)" d="M0 0c0.66 0 1.32 0 2 0-0.33 1.65-0.66 3.3-1 5-0.99 0.33-1.98 0.66-3 1-0.99 1.32-1.98 2.64-3 4 0.33-1.65 0.66-3.3 1-5 0.66-1.32 1.32-2.64 2-4 0.66-0.33 1.32-0.66 2-1z" />
    <path fill="#150f0f" transform="translate(70 134)" d="M0 0c2.97 0.495 2.97 0.495 6 1 0 0.99 0 1.98 0 3-1.65 0.66-3.3 1.32-5 2-0.33-1.98-0.66-3.96-1-6z" />
    <path fill="#130e0e" transform="translate(169 89)" d="M0 0c2.97 0.495 2.97 0.495 6 1 0.33 1.65 0.66 3.3 1 5-1.32-0.33-2.64-0.66-4-1-0.99-0.66-1.98-1.32-3-2 0-0.99 0-1.98 0-3z" />
    <path fill="#151111" transform="translate(102 207)" d="M0 0c2.97 0 5.94 0 9 0-0.33 0.66-0.66 1.32-1 2-0.66 0-1.32 0-2 0-0.33 0.66-0.66 1.32-1 2-1.65-0.33-3.3-0.66-5-1 0-0.99 0-1.98 0-3z" />
    <path fill="#131112" transform="translate(78 175)" d="M0 0c0.66 0.33 1.32 0.66 2 1-0.33 1.65-0.66 3.3-1 5-0.66 0.66-1.32 1.32-2 2-0.99-1.98-1.98-3.96-3-6 1.32 0 2.64 0 4 0 0-0.66 0-1.32 0-2z" />
    <path fill="#1b1515" transform="translate(67 145)" d="M0 0c1.98 0.495 1.98 0.495 4 1 0.66 0.99 1.32 1.98 2 3-1.32 0.33-2.64 0.66-4 1-0.66 0.66-1.32 1.32-2 2-0.33-0.99-0.66-1.98-1-3 0.33-1.32 0.66-2.64 1-4z" />
    <path fill="#1a1414" transform="translate(185 142)" d="M0 0c0.99 0 1.98 0 3 0 0.66 2.64 1.32 5.28 2 8-1.32 0.33-2.64 0.66-4 1 0-1.98 0-3.96 0-6-0.33-0.99-0.66-1.98-1-3z" />
    <path transform="translate(186 128)" d="M0 0c1.32 1.32 2.64 2.64 4 4-0.66 1.32-1.32 2.64-2 4-0.99-1.32-1.98-2.64-3-4 0.33-1.32 0.66-2.64 1-4z" />
    <path fill="#1e1a1a" transform="translate(92 113)" d="M0 0c2.31 0 4.62 0 7 0 0.66 0.33 1.32 0.66 2 1 0 0.66 0 1.32 0 2-0.66 0-1.32 0-2 0-0.33 0.66-0.66 1.32-1 2-1.98-1.32-3.96-2.64-6-4 0-0.33 0-0.66 0-1z" />
    <path fill="#f5f3f1" transform="translate(70 18)" d="M0 0c0.99 0.33 1.98 0.66 3 1-1.98 2.31-3.96 4.62-6 7-0.66-0.66-1.32-1.32-2-2 1.65-1.98 3.3-3.96 5-6z" />
    <path fill="#171614" transform="translate(91 202)" d="M0 0c2.31 0.33 4.62 0.66 7 1 0 0.66 0 1.32 0 2 0.66 0 1.32 0 2 0-0.33 0.99-0.66 1.98-1 3-2.64-1.65-5.28-3.3-8-5 0-0.33 0-0.66 0-1z" />
    <path fill="#efeeed" transform="translate(78 189)" d="M0 0c2.31 0.33 4.62 0.66 7 1-0.33 0.99-0.66 1.98-1 3-1.98 0.99-1.98 0.99-4 2-0.66-0.99-1.32-1.98-2-3 0-0.99 0-1.98 0-3z" />
    <path fill="#c3bfbe" transform="translate(84 169)" d="M0 0c0.66 0.66 1.32 1.32 2 2-0.33 2.31-0.66 4.62-1 7-0.66 0.66-1.32 1.32-2 2 0-2.64 0-5.28 0-8 0.33-0.99 0.66-1.98 1-3z" />
    <path fill="#1c1717" transform="translate(8 164)" d="M0 0c0.99 0.495 0.99 0.495 2 1 0 0.66 0 1.32 0 2 0.99-0.33 1.98-0.66 3-1 0 1.65 0 3.3 0 5-1.65-0.33-3.3-0.66-5-1 0-1.98 0-3.96 0-6z" />
    <path fill="#f3eeee" transform="translate(95 154)" d="M0 0c0.99 0.33 1.98 0.66 3 1-2.31 2.31-4.62 4.62-7 7-0.33-0.99-0.66-1.98-1-3 1.65-1.65 3.3-3.3 5-5z" />
    <path fill="#e6e1e1" transform="translate(112 130)" d="M0 0c2.31 0 4.62 0 7 0 0.66 0.99 1.32 1.98 2 3C5.37 3 1.74 3-2 3c0.66-0.99 1.32-1.98 2-3z" />
    <path fill="#d9d8d7" transform="translate(136 204)" d="M0 0c0.99 0.33 1.98 0.66 3 1 0 0.66 0 1.32 0 2-1.98 0.66-3.96 1.32-6 2-1.32-0.33-2.64-0.66-4-1 2.31-1.32 4.62-2.64 7-4z" />
    <path fill="#d1cbcb" transform="translate(199 169)" d="M0 0c0.66 0.99 1.32 1.98 2 3-0.33 1.98-0.66 3.96-1 6-0.66-0.66-1.32-1.32-2-2-0.33-1.98-0.66-3.96-1-6 0.66-0.33 1.32-0.66 2-1z" />
    <path fill="#e1e0de" transform="translate(103 167)" d="M0 0c0.66 0.99 1.32 1.98 2 3-0.99 0.99-1.98 1.98-3 3-1.65 0.66-3.3 1.32-5 2 1.98-2.64 3.96-5.28 6-8z" />
    <path fill="#e9e9e7" transform="translate(141 112)" d="M0 0c0.66 0.66 1.32 1.32 2 2-1.32 0.99-2.64 1.98-4 3 0.66 0.33 1.32 0.66 2 1-0.66 0.66-1.32 1.32-2 2-0.99-1.65-1.98-3.3-3-5 1.65-0.99 3.3-1.98 5-3z" />
    <path fill="#efeeec" transform="translate(184 82)" d="M0 0c2 3 2 3 5 10-0.99 0-1.98 0-3 0-0.66-1.32-1.32-2.64-2-4 0-1.98 0-3.96 0-6z" />
    <path fill="#f3f0ef" transform="translate(50 60)" d="M0 0c0.66 0 1.32 0 2 0-0.33 2.97-0.66 5.94-1 9-0.99 0.495-0.99 0.495-2 1 0.33-3.3 0.66-6.6 1-10z" />
    <path fill="#bdbdbd" transform="translate(150 10)" d="M0 0c2.475 0.495 2.475 0.495 5 1 1.32 0.66 2.64 1.32 4 2-0.33 0.66-0.66 1.32-1 2-0.66-0.33-1.32-0.66-2-1 0 0.66 0 1.32 0 2-0.66-0.33-1.32-0.66-2-1 0-0.99 0-1.98 0-3-1.32 0-2.64 0-4 0 0-0.66 0-1.32 0-2z" />
    <path fill="#e6e6e6" transform="translate(147 9)" d="M0 0c0.99 0.33 1.98 0.66 3 1 0 0.66 0 1.32 0 2 1.32 0 2.64 0 4 0 0.33 0.99 0.66 1.98 1 3C4.7 5.01 1.4 4.02-2 3c0.66-0.33 1.32-0.66 2-1 0-0.66 0-1.32 0-2z" />
    <path fill="#b8b5b6" transform="translate(119 214)" d="M0 0c1.32 0.66 2.64 1.32 4 2-2.475 1.485-2.475 1.485-5 3-1.32-0.66-2.64-1.32-4-2 3-2 3-2 5-3z" />
    <path fill="#222121" transform="translate(9 174)" d="M0 0c2.475 0.99 2.475 0.99 5 2-0.33 1.65-0.66 3.3-1 5-0.99-0.99-1.98-1.98-3-3-0.33-1.32-0.66-2.64-1-4z" />
    <path fill="#faf7f6" transform="translate(129 171)" d="M0 0c0.66 0.33 1.32 0.66 2 1 0.33 1.65 0.66 3.3 1 5-1.32 0.33-2.64 0.66-4 1-0.33-1.32-0.66-2.64-1-4 0.66 0 1.32 0 2 0 0-0.99 0-1.98 0-3z" />
    <path fill="#d4cfcf" transform="translate(125 122)" d="M0 0c0.66 0 1.32 0 2 0-0.33 1.98-0.66 3.96-1 6-0.33-0.99-0.66-1.98-1-3-1.98 0.99-1.98 0.99-4 2-0.99-0.33-1.98-0.66-3-1 2.31-1.32 4.62-2.64 7-4z" />
    <path fill="#f3f0f1" transform="translate(160 18)" d="M0 0c1.98 0.99 1.98 0.99 4 2 0.99 1.65 1.98 3.3 3 5-0.99 0-1.98 0-3 0-1.32-1.65-2.64-3.3-4-5 0-0.66 0-1.32 0-2z" />
    <path fill="#242321" transform="translate(132 202)" d="M0 0c2.31 0 4.62 0 7 0-1.32 1.32-2.64 2.64-4 4-0.99-0.33-1.98-0.66-3-1 0-0.99 0-1.98 0-3z" />
    <path fill="#2f2e2d" transform="translate(78 192)" d="M0 0c2.31 1.65 4.62 3.3 7 5-0.33 0.66-0.66 1.32-1 2-1.98-0.66-3.96-1.32-6-2 0-1.65 0-3.3 0-5z" />
    <path fill="#b7b5b4" transform="translate(13 185)" d="M0 0c2.475 0.495 2.475 0.495 5 1 0.99 0.66 1.98 1.32 3 2 0 0.66 0 1.32 0 2-1.98-0.66-3.96-1.32-6-2-0.66-0.99-1.32-1.98-2-3z" />
    <path fill="#eeecea" transform="translate(120 158)" d="M0 0c0.99 1.32 1.98 2.64 3 4-0.33 0.99-0.66 1.98-1 3-0.99 0-1.98 0-3 0 0.33-1.32 0.66-2.64 1-4-0.66 0-1.32 0-2 0 0-0.66 0-1.32 0-2 0.66-0.33 1.32-0.66 2-1z" />
    <path transform="translate(126 153)" d="M0 0c2.97 0.495 2.97 0.495 6 1 0 1.65 0 3.3 0 5-0.66 0-1.32 0-2 0 0-0.99 0-1.98 0-3-1.32 0.33-2.64 0.66-4 1 0-1.32 0-2.64 0-4z" />
    <path fill="#080303" transform="translate(193 144)" d="M0 0c1.485 0.99 1.485 0.99 3 2 0.66-0.33 1.32-0.66 2-1 0.33 1.98 0.66 3.96 1 6-0.99 0.495-0.99 0.495-2 1-1.32-1.98-2.64-3.96-4-6 0-0.66 0-1.32 0-2z" />
    <path fill="#090404" transform="translate(108 131)" d="M0 0c0.33 0.99 0.66 1.98 1 3 0.99 0.33 1.98 0.66 3 1-0.99 0.495-0.99 0.495-2 1-0.33 0.99-0.66 1.98-1 3-0.66 0-1.32 0-2 0-0.33-1.65-0.66-3.3-1-5 0.66 0 1.32 0 2 0 0-0.99 0-1.98 0-3z" />
    <path fill="#2c2626" transform="translate(183 101)" d="M0 0c0.66 0 1.32 0 2 0 0 0.66 0 1.32 0 2 0.66 0 1.32 0 2 0 0 0.66 0 1.32 0 2-0.66 0-1.32 0-2 0 0.33 1.32 0.66 2.64 1 4-0.99-0.99-1.98-1.98-3-3 0-1.65 0-3.3 0-5z" />
    <path fill="#181212" transform="translate(60 88)" d="M0 0c0.66 1.32 1.32 2.64 2 4-0.99 0.66-1.98 1.32-3 2-0.99 0-1.98 0-3 0 0.66-1.32 1.32-2.64 2-4 0.66-0.66 1.32-1.32 2-2z" />
    <path fill="#dcdbdc" transform="translate(47 81)" d="M0 0c0.33 0 0.66 0 1 0 0 1.98 0 3.96 0 6-1.65 0.33-3.3 0.66-5 1 0.33-0.99 0.66-1.98 1-3 0.66 0 1.32 0 2 0 0.33-1.32 0.66-2.64 1-4z" />
    <path fill="#f5f5f5" transform="translate(70 12)" d="M0 0c1.65 0 3.3 0 5 0-1.65 1.65-3.3 3.3-5 5-0.99-0.66-1.98-1.32-3-2 0.99-0.99 1.98-1.98 3-3z" />
    <path fill="#f0eceb" transform="translate(203 185)" d="M0 0c1.485 0.99 1.485 0.99 3 2 0 1.32 0 2.64 0 4 0.66 0.33 1.32 0.66 2 1-1.32 0-2.64 0-4 0-0.33-2.31-0.66-4.62-1-7z" />
    <path fill="#080705" transform="translate(104 186)" d="M0 0c0.66 0.33 1.32 0.66 2 1 0 2.31 0 4.62 0 7-0.99 0-1.98 0-3 0 0.33-2.64 0.66-5.28 1-8z" />
    <path fill="#0e0d0b" transform="translate(157 183)" d="M0 0c0.66 0 1.32 0 2 0-0.66 1.98-1.32 3.96-2 6-0.99 0.33-1.98 0.66-3 1 0.66-1.98 1.32-3.96 2-6 0.33-0.33 0.66-0.66 1-1z" />
    <path fill="#171514" transform="translate(16 184)" d="M0 0c2.31 0.66 4.62 1.32 7 2 0.33 0.99 0.66 1.98 1 3-1.65-0.33-3.3-0.66-5-1-0.99-1.32-1.98-2.64-3-4z" />
    <path fill="#adadad" transform="translate(37 176)" d="M0 0c0.66 0.66 1.32 1.32 2 2-1.98 0.99-1.98 0.99-4 2-1.65-0.33-3.3-0.66-5-1 0.33-0.66 0.66-1.32 1-2 1.98-0.33 3.96-0.66 6-1z" />
    <path fill="#1a1515" transform="translate(164 160)" d="M0 0c0.66 0.33 1.32 0.66 2 1-0.66 1.65-1.32 3.3-2 5-0.99 0-1.98 0-3 0 0.66-1.65 1.32-3.3 2-5 0.33-0.33 0.66-0.66 1-1z" />
    <path fill="#e3dede" transform="translate(138 159)" d="M0 0c1.98 0.99 1.98 0.99 4 2 0.33 1.32 0.66 2.64 1 4-1.32-0.66-2.64-1.32-4-2-0.33-1.32-0.66-2.64-1-4z" />
    <path fill="#262121" transform="translate(97 155)" d="M0 0c0.33 0.99 0.66 1.98 1 3-2.97 2.475-2.97 2.475-6 5 0-0.99 0-1.98 0-3 1.65-1.65 3.3-3.3 5-5z" />
    <path fill="#bcb9b8" transform="translate(161 144)" d="M0 0c0 0.99 0 1.98 0 3-0.66 0.66-1.32 1.32-2 2-1.98 0-3.96 0-6 0 0.66-0.66 1.32-1.32 2-2 1.98-0.99 3.96-1.98 6-3z" />
</svg>