<svg viewBox="0 0 512 512" fill="#3a4153" width="200" height="200" version="1.1" xmlns="http://www.w3.org/2000/svg" xmlns:xlink="http://www.w3.org/1999/xlink">  <path fill="#878f9c" d="M29.4925 273.7494c0 8.8608 0.0271 16.766 1.4009 25.3642 0.1553 0.9955 0.3106 1.9911 0.4706 3.0167 1.1946 7.2765 2.712 14.4498 4.4695 21.6102 0.2178 0.895 0.4355 1.7899 0.6599 2.712 2.2313 8.6627 5.2893 16.6296 8.3356 25.1592 43.6029 0 87.2058 0 132.13 0 1.1679 5.8397 1.1679 5.8397 2.3594 11.7973-32.1182 0.584-32.1182 0.584-64.8852 1.1797 1.9501 5.9587 1.9501 5.9587 4.53 11.4333 0.4022 0.749 0.8044 1.4979 1.2189 2.2696 0.4144 0.7581 0.8288 1.5162 1.2557 2.2972 0.4099 0.7627 0.8197 1.5254 1.242 2.3111 2.2662 4.1953 4.6326 8.2664 7.0899 12.3619-4.6718 0-9.3435 0-14.1568 0-5.66-10.0777-10.4159-20.1289-15.3365-30.6731-15.9618 0-31.9236 0-48.369 0 8.0328 24.0984 25.596 45.2383 43.1201 63.1802 24.2025 24.3141 53.6541 42.8995 85.9401 54.5448 33.1664 11.4454 69.147 15.2482 104.0235 11.138 33.4455-4.7798 66.7615-16.4639 94.9785-35.2448 3.9998-2.7696 7.8587-5.6932 11.7006-8.6775 1.0189-0.771 2.0378-1.542 3.0875-2.3364 26.4336-20.4797 47.7188-45.7668 62.9775-75.5259 0.6082-1.173 0.6082-1.173 1.2287-2.3698 7.9675-15.5462 14.7671-32.2589 17.647-49.5384-21.0229 0-42.0457 0-63.7056 0 1.7519-11.6793 1.7519-11.6793 3.5392-23.5946 1.3559-11.5821 1.3559-11.5821 1.1798-22.4149-51.3892 0-102.7783 0-155.7246 0 0 15.1831 0 30.3663 0 46.0095-4.2825 0-8.5649 0-12.9771 0 0-15.1831 0-30.3663 0-46.0095-27.2518 0-54.5036 0-82.5812 0-0.4069 20.3168-0.4069 20.3168 3.5392 46.0095-27.2518-0.3893-54.5036-0.7786-82.5813-1.1797-1.1679-5.8397-1.1679-5.8397-2.3594-11.7973 22.9694 0 45.9387 0 69.6042 0 1.0765-17.0949 1.0765-17.0949-2.3595-33.0325-40.4884 0-80.9768 0-122.6921 0z" />  <path fill="#878f9c" d="M149.8251 43.7016c-31.3939 16.8222-58.2602 40.7349-79.1849 69.4982-14.3951 20.2178-26.0771 43.4517-32.8896 67.3507 0 1.5573 0 3.1145 0 4.7189 21.0228 0 42.0457 0 63.7055 0-1.1679 4.2825-2.3358 8.5649-3.5392 12.9771-0.4453 2.5368-0.8328 5.0857-1.1198 7.6452-0.1483 1.2995-0.2965 2.599-0.4493 3.9378-0.1392 1.3117-0.2783 2.6233-0.4217 3.9747-0.1528 1.3253-0.3056 2.6507-0.4631 4.0162-0.7732 6.9666-1.0853 13.47-1.0853 20.537 19.4656 0 38.9312 0 58.9866 0 0.3893-5.2801 0.7787-10.5601 1.1798-16.0001 0.1231-1.6494 0.2463-3.2987 0.3732-4.9981 0.1438-1.981 0.1438-1.981 0.2904-4.002 0.1482-2.0109 0.1482-2.0109 0.2995-4.0625 0.2228-4.0841 0.253-8.1386 0.2166-12.2279 4.2824 0 8.5649 0 12.977 0-0.1703 1.3002-0.3406 2.6004-0.5161 3.9401-0.2218 1.8079-0.443 3.6159-0.6636 5.424-0.1125 0.8448-0.2251 1.6895-0.341 2.5599-1.1838 9.9353-0.8387 19.1132-0.8387 29.3666 104.7248 0 209.4496 0 317.3479 0-0.9625-16.2037-0.9625-16.2037-3.1706-32.1477-0.2006-1.1345-0.4013-2.269-0.608-3.4378-2.7227-14.6042-6.889-28.63-12.7377-42.2768-16.3511 0-32.7021 0-49.5487 0 1.7455 7.8549 3.5284 15.6919 5.3825 23.5209 0.2608 1.1139 0.5216 2.2279 0.7903 3.3756 0.2517 1.0622 0.5034 2.1245 0.7627 3.2189 0.2259 0.958 0.4519 1.9159 0.6846 2.903 0.5689 2.4317 0.5689 2.4317 1.8177 4.733-27.6411 0-55.2822 0-83.7609 0-0.7787-4.2824-1.5573-8.5649-2.3595-12.9771 22.9694 0 45.9388 0 69.6042 0-3.7601-15.5666-3.7601-15.5666-8.9955-30.4518-0.3984-0.9755-0.7968-1.9511-1.2073-2.9562-8.7841-20.9895-20.3934-39.7711-34.392-57.6525-2.0759-2.6548-4.1117-5.3409-6.1337-8.0369 5.0611 0 10.1221 0 15.3365 0 15.4025 19.1384 26.219 39.048 36.5717 61.346 15.9618 0 31.9236 0 48.369 0-8.0327-24.0983-25.5959-45.2383-43.1201-63.1802-24.3758-24.4882-53.7737-42.9747-86.2823-54.7158-59.8503-20.509-124.9291-15.0762-180.8671 14.0796z" />  <path transform="translate(331.126709 56.622559)" d="M13.5037-35.7811C39.7283-25.0607 63.0464-10.4939 84.1381 8.3142c0.6144 0.5416 1.2288 1.0832 1.8618 1.6412 27.4308 24.2311 47.7556 54.3198 61.8437 88.0185 10.4334 26.1746 16.8455 54.413 16.59 82.6549-53e-4 1.1337-0.0106 2.2675-0.0161 3.4355-0.0138 2.7628-0.0349 5.5254-0.0576 8.2881-4.2825 0-8.5649 0-12.9771 0 0 3.5038 0 7.0076 0 10.6176 4.2825 0 8.5649 0 12.9771 0 0.9173 37.034-5.2992 71.7326-20.2456 105.7548-15.2033 33.1443-37.8272 63.1493-65.8749 86.5415-13.6896 11.0411-27.9888 20.3414-43.65 28.3136-0.7984 0.4159-1.5968 0.8318-2.4194 1.2603-21.3617 11.0542-44.6453 18.468-68.3645 22.3343-0.8089 0.1365-1.6177 0.273-2.4511 0.4136-34.8791 5.6173-71.1681 2.4587-104.957-7.3555-36.1826-10.9982-67.6382-28.8286-95.5058-54.4042-10.9551-10.1906-20.6145-20.9977-29.4933-33.0325-1.0995-1.4622-1.0995-1.4622-2.2212-2.9539-10.4817-14.4061-19.152-30.206-26.0924-46.5948-0.9056-2.1306-0.9056-2.1306-1.8295-4.3042-12.3134-30.2603-16.714-62.3352-15.8665-94.7933 4.2824 0 8.5649 0 12.9771 0 0-3.5038 0-7.0076 0-10.6176-4.2825 0-8.5649 0-12.9771 0-0.9448-36.1825 5.3141-70.6182 20.0555-103.8164 10.5657-22.9068 23.7849-44.2744 41.2906-62.5258 1.284-1.5188 2.5621-3.0425 3.8341-4.5714 21.2298-24.2626 50.099-42.8776 79.4366-55.7533 58.1759-24.3167 124.611-25.5553 183.4982-2.6463zM-181.3016-12.9209c-31.3939 16.8221-58.2603 40.7348-79.1849 69.4981-14.3951 20.2179-26.0771 43.4517-32.8896 67.3508 0 1.5572 0 3.1145 0 4.7189 21.0228 0 42.0456 0 63.7055 0-1.1679 4.2824-2.3358 8.5648-3.5392 12.977-0.4453 2.5368-0.8328 5.0857-1.1198 7.6453-0.1483 1.2994-0.2965 2.5989-0.4493 3.9378-0.1392 1.3116-0.2783 2.6233-0.4217 3.9747-0.1528 1.3253-0.3056 2.6506-0.4631 4.0161-0.7732 6.9666-1.0853 13.4701-1.0853 20.537 19.4656 0 38.9312 0 58.9866 0 0.3893-5.28 0.7786-10.5601 1.1798-16.0001 0.1231-1.6493 0.2463-3.2987 0.3732-4.998 0.1437-1.981 0.1437-1.981 0.2904-4.0021 0.1482-2.0109 0.1482-2.0109 0.2995-4.0625 0.2228-4.0841 0.253-8.1386 0.2166-12.2279 4.2824 0 8.5648 0 12.977 0-0.1703 1.3002-0.3406 2.6005-0.5161 3.9401-0.2218 1.8079-0.443 3.616-0.6636 5.424-0.1125 0.8448-0.2251 1.6896-0.341 2.56-1.1838 9.9353-0.8387 19.1131-0.8387 29.3665 104.7248 0 209.4496 0 317.3479 0-0.9625-16.2037-0.9625-16.2037-3.1706-32.1477-0.2006-1.1345-0.4013-2.2689-0.608-3.4378-2.7227-14.6041-6.889-28.6299-12.7377-42.2768-16.3511 0-32.7022 0-49.5487 0 1.7455 7.8549 3.5284 15.692 5.3825 23.5209 0.2608 1.114 0.5216 2.2279 0.7903 3.3756 0.2517 1.0623 0.5034 2.1245 0.7627 3.2189 0.2259 0.958 0.4519 1.916 0.6846 2.903 0.5689 2.4318 0.5689 2.4318 1.8177 4.733-27.6411 0-55.2822 0-83.7609 0-0.7787-4.2824-1.5573-8.5648-2.3595-12.977 22.9694 0 45.9388 0 69.6042 0-3.7601-15.5666-3.7601-15.5666-8.9955-30.4518-0.3984-0.9756-0.7968-1.9512-1.2074-2.9563-8.784-20.9895-20.3934-39.7711-34.3919-57.6525-2.0759-2.6547-4.1117-5.3409-6.1337-8.0369 5.0611 0 10.1221 0 15.3365 0 15.4025 19.1384 26.219 39.048 36.5717 61.3461 15.9618 0 31.9236 0 48.369 0-8.0328-24.0984-25.596-45.2383-43.1201-63.1802C61.472 3.227 32.0741-15.2594-0.4345-27.0005-60.2848-47.5096-125.3636-42.0767-181.3016-12.9209zM-296.9153 141.6239c-1.9135 7.3539-1.9135 7.3539-3.106 14.673-0.0989 0.885-0.1977 1.7701-0.2996 2.682-0.0927 0.8912-0.1855 1.7823-0.2811 2.7005-0.1019 0.8911-0.2037 1.7823-0.3087 2.7005-0.6376 5.8897-0.7235 11.3377-0.7235 17.3549 17.1297 0 34.2594 0 51.9082 0 0.9393-3.7572 1.4767-7.0025 1.8111-10.8249 0.1026-1.1718 0.2053-2.3435 0.311-3.5508 0.1027-1.2173 0.2053-2.4347 0.3111-3.6889 0.1072-1.2037 0.2144-2.4074 0.3249-3.6475 0.5329-6.1989 0.7811-12.148 0.7811-18.3988-16.7404 0-33.4808 0-50.7285 0zM-288.6572 194.7119c0 3.5038 0 7.0076 0 10.6176 140.9308 0 281.8616 0 427.063 0 0-3.5038 0-7.0076 0-10.6176-140.9308 0-281.8616 0-427.063 0zM-301.6342 217.1268c0 8.8608 0.0271 16.766 1.4009 25.3642 0.1553 0.9955 0.3106 1.9911 0.4706 3.0167 1.1946 7.2765 2.712 14.4498 4.4695 21.6102 0.2178 0.895 0.4355 1.7899 0.6599 2.712 2.2313 8.6627 5.2893 16.6296 8.3356 25.1592 43.6029 0 87.2058 0 132.13 0 1.1679 5.8397 1.1679 5.8397 2.3594 11.7973-32.1182 0.584-32.1182 0.584-64.8852 1.1797 1.9501 5.9587 1.9501 5.9587 4.53 11.4333 0.4022 0.749 0.8044 1.4979 1.2189 2.2696 0.4144 0.7581 0.8288 1.5162 1.2557 2.2972 0.4099 0.7627 0.8197 1.5254 1.242 2.3111 2.2662 4.1953 4.6326 8.2664 7.0899 12.3619-4.6718 0-9.3435 0-14.1568 0-5.66-10.0777-10.4159-20.1289-15.3365-30.6731-15.9618 0-31.9236 0-48.369 0 8.0328 24.0984 25.596 45.2383 43.1201 63.1802 24.2025 24.3141 53.6541 42.8995 85.9401 54.5448 33.1664 11.4454 69.147 15.2482 104.0235 11.138 33.4455-4.7798 66.7615-16.4639 94.9785-35.2448 3.9998-2.7696 7.8587-5.6932 11.7006-8.6775 1.0189-0.771 2.0378-1.542 3.0875-2.3364 26.4336-20.4797 47.7188-45.7668 62.9775-75.5259 0.6082-1.173 0.6082-1.173 1.2287-2.3698 7.9675-15.5462 14.7671-32.2589 17.647-49.5384-21.0229 0-42.0457 0-63.7056 0 1.7519-11.6793 1.7519-11.6793 3.5392-23.5946 1.3559-11.5821 1.3559-11.5821 1.1798-22.4149-51.3892 0-102.7783 0-155.7246 0 0 15.1831 0 30.3663 0 46.0095-4.2825 0-8.5649 0-12.9771 0 0-15.1831 0-30.3663 0-46.0095-27.2518 0-54.5036 0-82.5812 0-0.4069 20.3168-0.4069 20.3168 3.5392 46.0095-27.2518-0.3893-54.5036-0.7786-82.5813-1.1797-1.1679-5.8397-1.1679-5.8397-2.3594-11.7973 22.9694 0 45.9387 0 69.6042 0 1.0765-17.0949 1.0765-17.0949-2.3595-33.0325-40.4884 0-80.9768 0-122.6921 0zM99.4746 217.1268c-0.9852 3.9409-1.4903 7.3534-1.8111 11.3733-0.0928 1.1379-0.1857 2.2758-0.2813 3.4482-0.1125 1.4352-0.2249 2.8704-0.3408 4.3491-0.365 4.5744-0.7299 9.1488-1.106 13.8619 17.1297 0 34.2594 0 51.9082 0 2.8294-14.0769 2.8294-14.0769 3.5392-33.0325-17.1297 0-34.2594 0-51.9082 0z" />  <path transform="translate(279.75 89.75)" d="M4.2696-29.8271c11.0421 4.3974 21.1568 11.0087 29.7883 19.1707 9.1993 10.3932 17.1829 22.8591 21.4287 36.1523 3.226 13.6727 2.7833 26.0643-0.2304 39.7376-3.2216 12.2107-8.6561 21.6204-16.4794 31.4657-0.7406 0.9885-1.4812 1.9769-2.2443 2.9954-7.208 8.4563-17.3485 14.4618-27.3043 19.166-12.9399 5.3232-26.1433 6.9411-40.0556 6.1521-13.5878-1.4689-24.975-5.9033-36.5717-12.977-11.0214-7.4582-19.394-16.8741-26.378-28.1523-5.5396-10.591-8.5113-22.0164-9.295-33.9265-0.2694-13.8513 1.8898-26.4237 7.212-39.3044 4.9194-10.1089 11.6483-19.5663 20.4241-26.6177 1.8772-1.3972 3.77-2.7736 5.6775-4.1291 0.8729-0.6235 1.7458-1.247 2.6451-1.8894 9.7442-6.3977 21.4667-10.3184 33.0233-11.825 12.9258-1.2872 26.0014-0.2195 38.3597 3.9816zM-16.6706-20.0943c-1.5344 15.3168-1.2974 30.635-1.1797 46.0096 1.5572 0.3893 3.1145 0.7786 4.7189 1.1797C-3.0093 16.9729 7.1128 6.8508 17.5416-3.578c-0.7786-1.5573-1.5572-3.1145-2.3594-4.719-15.13-8.193-15.13-8.193-31.8528-11.7973zM-50.081-14.8684c-5.3191 2.6268-10.2978 5.2375-14.9586 8.9309 1.8691 4.611 5.0331 7.6962 8.5254 11.1153 0.8984 0.8934 0.8984 0.8934 1.8149 1.8048 1.9057 1.8925 3.8195 3.7767 5.7335 5.6607 1.2971 1.2852 2.5935 2.5709 3.8895 3.8571 3.1705 3.1446 6.3482 6.2817 9.53 9.4149 2.9198-0.584 2.9198-0.584 5.8986-1.1798 0-14.7938 0-29.5876 0-44.8298-6.9378 0-14.1357 2.5142-20.4333 5.2259zM26.9795 3.5004C16.8574 13.6225 6.7353 23.7446-3.6935 34.1734c0.3893 1.5572 0.7786 3.1145 1.1797 4.7189 14.7938 0 29.5877 0 44.8298 0-1.8683-12.3927-1.8683-12.3927-6.3411-23.0048-1.0356-2.0256-1.0356-2.0256-2.0921-4.0922-2.2703-4.0314-2.2703-4.0314-6.9033-8.2949zM-75.6572 4.6801c-6.4497 7.3363-10.3046 15.3941-12.977 24.7744-0.3894 3.5038-0.7787 7.0076-1.1798 10.6175 14.4045 0 28.8091 0 43.6501 0 0.3893-1.9465 0.7786-3.8931 1.1797-5.8986-9.7328-9.7328-19.4655-19.4656-29.4933-29.4933-0.3893 0-0.7786 0-1.1797 0zM-26.1085 36.5328c-2.9198 1.752-2.9198 1.752-5.8986 3.5392-1.491 2.5575-1.491 2.5575-1.2535 6.636 0.0244 1.314 0.0487 2.6279 0.0738 3.9816 1.5572 1.5573 3.1144 3.1145 4.7189 4.719 1.9465 0.3893 3.8931 0.7786 5.8986 1.1797 2.3359-1.1679 4.6718-2.3359 7.0784-3.5392 1.491-2.5575 1.491-2.5575 1.2535-6.636-0.0243-1.3139-0.0487-2.6278-0.0737-3.9816-1.5573-1.5572-3.1145-3.1145-4.719-4.7189-3.5038-0.584-3.5038-0.584-7.0784-1.1798zM-89.814 53.0491c1.8683 12.3927 1.8683 12.3927 6.3411 23.0048 0.6904 1.3504 1.3808 2.7008 2.0922 4.0922 2.2703 4.0314 2.2703 4.0314 6.9032 8.295 10.1221-10.1221 20.2442-20.2442 30.6731-30.6731-0.584-2.3358-0.584-2.3358-1.1798-4.7189-14.7938 0-29.5876 0-44.8298 0zM-2.5138 53.0491c-0.3893 1.5572-0.7786 3.1145-1.1797 4.7189 0.5457 0.51 1.0915 1.0201 1.6538 1.5455 10.2204 9.5603 20.4101 19.1223 30.1989 29.1276 4.1084-3.6921 6.4871-7.481 8.9955-12.3872 0.6965-1.3261 1.393-2.6522 2.1106-4.0185 2.5932-6.2085 2.5932-6.2085 4.2304-18.9863-15.1831 0-30.3663 0-46.0095 0zM-35.5463 66.0261c-10.1221 10.1221-20.2442 20.2442-30.673 30.6731 4.5829 4.5829 6.9446 6.8491 12.3871 9.5853 1.6242 0.844 1.6242 0.844 3.2812 1.7051 6.3484 2.4406 13.0964 3.6965 19.7236 5.2258 0-15.1831 0-30.3663 0-46.0095-1.5572-0.3893-3.1145-0.7786-4.7189-1.1798zM-15.4909 67.2059c-0.3893 0.3893-0.7786 0.7786-1.1797 1.1797 0 14.7938 0 29.5877 0 44.8298 10.3704-1.2963 19.0828-3.7387 28.12-9.0415 2.4752-1.6475 4.8765-3.3556 7.272-5.1153-6.022-7.2923-12.6031-13.9187-19.3182-20.5715-1.0934-1.0881-2.1868-2.1762-3.3133-3.2973-2.6779-2.664-5.3584-5.3252-8.0416-7.9839-1.1679 0-2.3358 0-3.5392 0z" />  <path transform="translate(381 337)" d="M22.4675 14.6116c4.2824 0 8.5649 0 12.977 0-1.0321 7.4372-3.7115 13.5918-6.7097 20.4242-0.747 1.7598-0.747 1.7598-1.5092 3.5553-0.7562 1.7371-0.7562 1.7371-1.5277 3.5092-0.4496 1.0361-0.8993 2.0722-1.3626 3.1397-2.5858 4.9614-5.8428 9.5463-8.9462 14.2015-20.6335 0.3893-41.267 0.7786-62.5258 1.1797-4.2824 8.9542-8.5648 17.9083-12.977 27.1338 17.9083 0.3893 35.8166 0.7786 54.2676 1.1798-3.5392 5.8986-3.5392 5.8986-9.4378 12.977-22.5801 0-45.1602 0-68.4245 0 2.3359-4.2824 4.6718-8.5649 7.0784-12.977 2.4378-4.6678 4.7959-9.3737 7.1521-14.0831 0.8908-1.7599 0.8908-1.7599 1.7996-3.5553 0.5878-1.1733 1.1755-2.3465 1.7811-3.5553 0.5172-1.0295 1.0343-2.0589 1.5671-3.1196 2.771-5.9696 5.2243-12.082 7.7556-18.1571 21.4121 0 42.8242 0 64.8852 0 0.7786-2.3359 1.5573-4.6717 2.3595-7.0784 1.3178-2.9723 2.6592-5.9135 4.0553-8.848 0.3536-0.7527 0.7072-1.5055 1.0714-2.2811 2.1595-4.5813 4.3887-9.1233 6.6706-13.6453z" />  <path transform="translate(155 111)" d="M-18.1519-26.0078c5.4503 0 10.9007 0 16.5162 0-1.7725 3.5451-3.2159 6.0093-5.6129 9.0277-0.9542 1.216-0.9542 1.216-1.9277 2.4566-0.6748 0.8576-1.3495 1.7152-2.0447 2.5988-10.8931 14.0819-19.2486 28.907-26.9864 44.9035-0.3893 0.7787-0.7786 1.5573-1.1797 2.3595 17.519 0.3893 35.038 0.7786 53.0879 1.1797-0.7786 3.8931-1.5572 7.7863-2.3594 11.7973-0.3893 0.3894-0.7786 0.7787-1.1797 1.1798-22.9694 0-45.9388 0-69.6042 0 3.9913-13.3046 3.9913-13.3046 6.3088-18.2214 0.7698-1.6344 0.7698-1.6344 1.5553-3.3018 0.5436-1.1216 1.0873-2.2431 1.6475-3.3987 0.5725-1.1854 1.1451-2.3708 1.735-3.5922 8.3102-16.9121 18.7061-31.9866 30.044-46.9888z" />  <path transform="translate(250 364)" d="M-1.0774 19.4644c4.2824 0 8.5649 0 12.9771 0 0 18.2976 0 36.5953 0 55.4474-20.6335 0-41.2671 0-62.5258 0-2.9199-4.6717-2.9199-4.6717-5.8987-9.4379 0-1.1679 0-2.3358 0-3.5391 18.2977 0 36.5953 0 55.4474 0 0-14.0153 0-28.0305 0-42.4704z" />  <path transform="translate(330 299)" d="M13.3012 7.7818c4.2824 0 8.5648 0 12.977 0-1.8056 15.6488-3.9226 30.8464-8.2581 46.0096-4.2824 0-8.5649 0-12.9771 0 0.8258-7.3037 2.0595-14.4648 3.4655-21.6776 0.2-1.0402 0.4-2.0804 0.606-3.1521 1.3626-7.0666 2.7692-14.1241 4.1867-21.1799z" />  <path fill="#878f9c" d="M34.2114 198.2465c-1.9135 7.3539-1.9135 7.3539-3.106 14.673-0.0989 0.885-0.1977 1.7701-0.2996 2.682-0.0927 0.8912-0.1855 1.7823-0.2811 2.7005-0.1019 0.8911-0.2037 1.7823-0.3087 2.7005-0.6376 5.8897-0.7235 11.3377-0.7235 17.3549 17.1297 0 34.2594 0 51.9082 0 0.9393-3.7572 1.4767-7.0025 1.8111-10.8249 0.1026-1.1718 0.2053-2.3435 0.311-3.5508 0.1027-1.2173 0.2053-2.4347 0.3111-3.6889 0.1072-1.2037 0.2144-2.4074 0.3249-3.6475 0.5329-6.1989 0.7811-12.148 0.7811-18.3988-16.7404 0-33.4808 0-50.7285 0z" />  <path fill="#878f9c" d="M430.6013 273.7494c-0.9852 3.9409-1.4903 7.3534-1.8111 11.3733-0.0928 1.1379-0.1857 2.2758-0.2813 3.4482-0.1125 1.4352-0.2249 2.8704-0.3408 4.3491-0.365 4.5744-0.7299 9.1488-1.106 13.8619 17.1297 0 34.2594 0 51.9082 0 2.8294-14.0769 2.8294-14.0769 3.5392-33.0325-17.1297 0-34.2594 0-51.9082 0z" />  <path fill="#878f9c" d="M42.4695 251.3345c0 3.5038 0 7.0076 0 10.6176 140.9308 0 281.8616 0 427.063 0 0-3.5038 0-7.0076 0-10.6176-140.9308 0-281.8616 0-427.063 0z" /></svg>