<svg viewBox="0 0 512 512" fill="#fbfbfb" width="200" height="200" version="1.1" xmlns="http://www.w3.org/2000/svg" xmlns:xlink="http://www.w3.org/1999/xlink">
    <path d="M82.6165 212.6116c-0.1213 0.8028-0.2426 1.6055-0.3676 2.4326-0.4142 2.7173-0.8361 5.4335-1.2622 8.1489-0.6407 4.1091-1.2297 8.2237-1.8087 12.3419-5.3236 36.7571-16.4869 70.1785-32.4201 103.6169-5.2755 10.7046-5.2755 10.7046-7.6505 22.2959-0.0649 2.9848-0.0401 5.9537 0.0224 8.9384 0.0112 1.0238 0.0223 2.0476 0.0339 3.1024 0.0289 2.4996 0.0733 4.9991 0.1209 7.4984 12.2236 24.9647 28.1159 49.648 48.9031 68.4025 2.928 2.4914 5.7465 4.3582 9.2854 5.8808 5.1772 0.6838 8.9541 0.2398 14.0249-1.0398 18.4774-5.7404 34.1856-15.6478 50.3926-26.0039 49.9774-31.8685 49.9774-31.8685 76.7981-37.103 12.4653-2.19 24.013-2.1297 36.47 0.2445 25.8076 5.6392 48.8031 20.0045 70.7091 34.1611 4.9865 3.2161 9.9271 6.1651 15.3109 8.6942 0.5538-0.5075 1.1076-1.015 1.6782-1.5379 3.2076-2.8588 6.2554-5.4771 10.006-7.5928 3.4672-0.8456 6.7757-1.2579 10.3493-1.1897 5.0724 0.7735 9.3071 3.0867 13.8701 5.3682 2.0428 3.2684 4.0856 6.5369 6.1903 9.9044 0.4085 4.9027 0.8171 9.8054 1.238 14.8567 0.4086 0.4085 0.8172 0.8171 1.2381 1.238 2.8599 0 5.7198 0 8.6664 0 13.2281-8.1888 22.3067-18.5303 31.5704-30.8921 10.1047-13.7953 18.9552-28.1104 26.6181-43.3912 0.1363-3.406 0.2331-6.8064 0.3096-10.2139 0.0622-1.4076 0.0622-1.4076 0.1257-2.8437 0.1224-7.3446-1.4081-13.4693-3.8919-20.365-2.3666-5.8851-5.1404-11.5225-7.9954-17.1828-15.2734-31.2932-24.7001-64.4937-29.0616-99.0414-0.5311-4.0883-1.1736-8.1559-1.8123-12.2288-0.2945-1.9055-0.2945-1.9055-0.5949-3.8496-0.1356-0.8745-0.2713-1.7491-0.4111-2.6502-0.4085 0-0.8171 0-1.238 0-0.2713 1.3039-0.5426 2.6078-0.8222 3.9512-2.7125 12.5184-6.4473 23.918-11.5584 35.6666-0.6957 1.6213-1.3905 3.243-2.0843 4.8651-0.5379 1.2544-1.0757 2.5088-1.6298 3.8012 0.4085 2.86 0.8171 5.7199 1.238 8.6664 0.5742 0.4422 1.1483 0.8844 1.7398 1.3399 2.6306 2.0401 5.2427 4.1026 7.8551 6.1658 1.355 1.0426 1.355 1.0426 2.7373 2.1062 4.3266 3.4416 7.8278 6.5169 10.5912 11.3528 1.8377 3.7964 1.8377 3.7964 2.0118 6.2532 0.2539 6.4186-0.1073 12.0519-2.0312 18.2033-8.46 22.845-21.8839 42.7038-37.7606 61.0515-0.9305 1.0821-1.8609 2.1641-2.8195 3.2789-6.6424 7.5621-13.4161 14.5256-21.7869 20.1668-4.5624 1.5512-8.3532 1.9171-13.1543 1.7313-2.9625-0.3981-5.1815-0.9643-7.8926-2.1956-8.8618-5.0739-16.7623-11.7963-24.7708-18.0969-25.4205-20.0107-25.4205-20.0107-54.6194-33.3597-7.0489-1.9625-13.6588-2.7017-20.9696-2.3214-12.1703 1.3922-22.8953 5.8511-33.6055 11.6349-14.4771 8.1494-27.5781 18.3766-40.4226 28.8512-14.963 12.1074-14.963 12.1074-23.8556 15.0716-2.1393 0.0842-4.2816 0.1052-6.4224 0.0774-1.1155-0.0112-2.2311-0.0224-3.3804-0.0339-1.276-0.0215-1.276-0.0215-2.5777-0.0435-10.3771-5.3348-18.3113-12.3214-25.9992-21.0469-4.768-5.6043-9.243-11.4191-13.6186-17.3328-0.4947-0.6671-0.9894-1.3342-1.4992-2.0215-10.8792-14.8221-20.5215-30.4704-25.9894-48.11-1.3794-6.0717-1.565-11.7789-0.9866-17.9615 1.4662-3.2815 2.8088-5.8015 4.9522-8.6664 4.3398-3.9793 8.9497-7.5597 13.6186-11.1425 2.0665-1.6469 4.1309-3.2964 6.1903-4.9522 0.4085-2.8599 0.8171-5.7198 1.238-8.6664-0.4111-0.9327-0.4111-0.9327-0.8306-1.8842-6.6359-15.1466-12.7307-29.9453-15.2641-46.3999-0.4085 0-0.8171 0-1.238 0z" />
    <path fill="#151515" transform="translate(255.6875 55.6875)" d="M-0.1303-47.7418c1.2893 34e-4 1.2893 34e-4 2.6047 69e-4 14.3775 0.0632 28.2815 1.0105 42.3522 4.0942 0.9663 0.2059 1.9326 0.4117 2.9283 0.6239 24.567 5.3971 48.4864 15.5815 69.3259 29.7232C135.3883-0.4441 151.83 15.702 164.148 34.3891c9.6227 15.183 16.9816 31.8644 20.3354 49.5648 2.4222 13.8016 3.2357 27.2578 3.315 41.254 0.3181 46.1095 7.5922 89.2212 25.2101 131.989 3.0846 7.2972 6.4811 14.4467 10.0269 21.5305 4.5542 9.251 7.8478 18.9204 8.7374 29.2394 0.7989 12.6466-0.7273 24.9919-4.4614 37.0854-10.0872 29.4361-27.7912 59.0913-47.7207 82.9575-6.3659 7.0106-12.8523 11.9369-21.3709 16.0899-7.6179 3.0678-14.966 4.5915-23.1709 4.7451-14.195-0.4518-27.9576-6.4956-41.2771-11.0547-35.0292-11.9364-72.6558-15.9336-109.5325-14.452-34.0709 1.9508-67.2942 9.7394-99.2282 21.5789-8.1773 2.9676-15.9946 3.4653-24.6692 3.2886-7.5492-0.5176-14.1139-2.251-21.0324-5.2908-8.0959-4.3916-14.5766-10.2474-20.5488-17.2167-19.2455-24.7845-38.0464-54.8849-47.0025-85.1549-3.0115-13.8724-3.4226-28.7589-1.3699-42.8102 2.452-12.0416 8.5796-22.8404 13.9822-33.7512 11.7276-24.2351 19.5083-50.8428 23.9877-77.3443 0.1925-1.104 0.385-2.2079 0.5833-3.3454 3.4446-20.6677 3.6773-41.42 3.7922-62.3231 0.1592-18.057 1.4769-36.0867 7.5407-53.2621 0.3115-0.9027 0.623-1.8054 0.944-2.7354 6.7784-18.7826 17.2593-35.0012 30.4565-49.9173 16.8119-18.59 35.932-32.2054 58.2472-43.4368 28.0458-13.5154 58.9518-19.5297 89.9476-19.3591zM-40.5992-30.0221c-0.9639 0.1993-1.9279 0.3986-2.921 0.6039-22.2071 4.7843-43.2403 13.5323-62.1494 26.14-5.81 4.0002-11.321 8.2401-16.6412 12.8738-1.1938 1.015-2.3875 2.0301-3.6174 3.0758-14.3691 12.4767-24.8454 27.099-33.5242 43.9703-7.1876 14.475-12.1389 30.3624-13.5171 46.548-0.2452 7.1804-0.1867 14.3621-0.1015 21.545 1.5528-0.2107 3.1056-0.4213 4.7055-0.6384 7.9186-1.0618 15.8434-2.0733 23.7697-3.0758 2.3383-0.298 2.3383-0.298 4.7237-0.6021 12.8528-1.6173 25.7191-3.0541 38.6082-4.3501 0.9556-0.097 1.9112-0.1941 2.8958-0.2941 82.8022-8.2943 166.9752-4.5501 249.3289 6.1221 4.7329 0.6093 9.4683 1.1991 14.2037 1.789 0.8536 0.1064 1.7072 0.2129 2.5867 0.3226 1.9443 0.2425 3.8887 0.4847 5.833 0.7268 0.419-18.549-1.1081-36.8685-7.4283-54.4744-7.6637-19.385-18.3292-35.9244-32.5104-51.1402C117.7417 2.7 97.8598-9.5052 77.1713-18.9751 55.9391-28.1938 32.2236-33.3882 9.0922-33.9878c-16.9111-0.2053-33.1186 0.5004-49.6914 3.9657zM-173.071 138.3533c0.4085 1.6342 0.8171 3.2685 1.238 4.9522 1.2034-0.1991 2.4067-0.3982 3.6465-0.6033 101.5334-16.6841 205.0043-19.7539 329.1559-1.2649 4.1989 0.6701 8.4042 1.2771 12.6148 1.8682 0-1.6342 0-3.2684 0-4.9522-106.126-16.4836-216.1193-20.7114-346.6552 0zM-144.5958 151.9719c2.2052 14.7965 2.2052 14.7965 7.2978 28.7654 2.0884 3.3356 4.5672 5.8448 7.5589 8.3762 1.2257 0.8172 2.4513 1.6343 3.7141 2.4761 4.9118 0.3169 9.2512 0.4943 14.0297-0.7544 12.0106-4.5413 23.0016-11.6317 33.782-18.5255 18.9668-12.0951 38.374-22.3181 59.8991-29.0042 0-0.4085 0-0.8171 0-1.238-41.3289-1.1341-85.7418 1.3237-126.2816 9.9044zM18.8274 142.0675c3.2704 1.6905 6.5294 3.1308 9.9818 4.4057 22.74 8.5977 42.9538 20.1205 63.0142 33.8171 7.0622 4.755 14.0824 8.969 22.3342 11.2993 3.8267 0.3504 7.29 0.2486 11.1425 0 4.6081-2.7862 8.8036-5.5873 12.1774-9.8754 3.2891-5.7172 4.9425-12.2057 6.3934-18.5998 0.5049-3.7068 0.9002-7.417 1.2381-11.1425-25.1163-3.9219-50.187-6.681-75.5213-8.6664-1.738-0.1364-1.738-0.1364-3.5111-0.2756-15.7373-1.1816-31.4756-1.0995-47.2492-0.9624zM-173.071 156.9241c-0.1213 0.8028-0.2426 1.6055-0.3676 2.4326-0.4142 2.7173-0.8361 5.4335-1.2622 8.1489-0.6407 4.1091-1.2297 8.2237-1.8087 12.3419-5.3236 36.7571-16.4869 70.1785-32.4201 103.6169-5.2755 10.7046-5.2755 10.7046-7.6505 22.2959-0.0649 2.9848-0.0401 5.9537 0.0224 8.9384 0.0112 1.0238 0.0223 2.0476 0.0339 3.1024 0.0289 2.4996 0.0733 4.9991 0.1209 7.4984 12.2236 24.9647 28.1159 49.648 48.9031 68.4025 2.928 2.4914 5.7465 4.3582 9.2854 5.8808 5.1772 0.6838 8.9541 0.2398 14.0249-1.0398 18.4774-5.7404 34.1856-15.6478 50.3926-26.0039 49.9774-31.8685 49.9774-31.8685 76.7981-37.103 12.4653-2.19 24.013-2.1297 36.47 0.2445 25.8076 5.6392 48.8031 20.0045 70.7091 34.1611 4.9865 3.2161 9.9271 6.1651 15.3109 8.6942 0.5538-0.5075 1.1076-1.015 1.6782-1.5379 3.2076-2.8588 6.2554-5.4771 10.006-7.5928 3.4672-0.8456 6.7757-1.2579 10.3493-1.1897 5.0724 0.7735 9.3071 3.0867 13.8701 5.3682 2.0428 3.2684 4.0856 6.5369 6.1903 9.9044 0.4085 4.9027 0.8171 9.8054 1.238 14.8567 0.4086 0.4085 0.8172 0.8171 1.2381 1.238 2.8599 0 5.7198 0 8.6664 0 13.2281-8.1888 22.3067-18.5303 31.5704-30.8921 10.1047-13.7953 18.9552-28.1104 26.6181-43.3912 0.1363-3.406 0.2331-6.8064 0.3096-10.2139 0.0622-1.4076 0.0622-1.4076 0.1257-2.8437 0.1224-7.3446-1.4081-13.4693-3.8919-20.365-2.3666-5.8851-5.1404-11.5225-7.9954-17.1828-15.2734-31.2932-24.7001-64.4937-29.0616-99.0414-0.5311-4.0883-1.1736-8.1559-1.8123-12.2288-0.2945-1.9055-0.2945-1.9055-0.5949-3.8496-0.1356-0.8745-0.2713-1.7491-0.4111-2.6502-0.4085 0-0.8171 0-1.238 0-0.2713 1.3039-0.5426 2.6078-0.8222 3.9512-2.7125 12.5184-6.4473 23.918-11.5584 35.6666-0.6957 1.6213-1.3905 3.243-2.0843 4.8651-0.5379 1.2544-1.0757 2.5088-1.6298 3.8012 0.4085 2.86 0.8171 5.7199 1.238 8.6664 0.5742 0.4422 1.1483 0.8844 1.7398 1.3399 2.6306 2.0401 5.2427 4.1026 7.8551 6.1658 1.355 1.0426 1.355 1.0426 2.7373 2.1062 4.3266 3.4416 7.8278 6.5169 10.5912 11.3528 1.8377 3.7964 1.8377 3.7964 2.0118 6.2532 0.2539 6.4186-0.1073 12.0519-2.0312 18.2033-8.46 22.845-21.8839 42.7038-37.7606 61.0515-0.9305 1.0821-1.8609 2.1641-2.8195 3.2789-6.6424 7.5621-13.4161 14.5256-21.7869 20.1668-4.5624 1.5512-8.3532 1.9171-13.1543 1.7313-2.9625-0.3981-5.1815-0.9643-7.8926-2.1956-8.8618-5.0739-16.7623-11.7963-24.7708-18.0969-25.4205-20.0107-25.4205-20.0107-54.6194-33.3597-7.0489-1.9625-13.6588-2.7017-20.9696-2.3214-12.1703 1.3922-22.8953 5.8511-33.6055 11.6349-14.4771 8.1494-27.5781 18.3766-40.4226 28.8512-14.963 12.1074-14.963 12.1074-23.8556 15.0716-2.1393 0.0842-4.2816 0.1052-6.4224 0.0774-1.1155-0.0112-2.2311-0.0224-3.3804-0.0339-1.276-0.0215-1.276-0.0215-2.5777-0.0435-10.3771-5.3348-18.3113-12.3214-25.9992-21.0469-4.768-5.6043-9.243-11.4191-13.6186-17.3328-0.4947-0.6671-0.9894-1.3342-1.4992-2.0215-10.8792-14.8221-20.5215-30.4704-25.9894-48.11-1.3794-6.0717-1.565-11.7789-0.9866-17.9615 1.4662-3.2815 2.8088-5.8015 4.9522-8.6664 4.3398-3.9793 8.9497-7.5597 13.6186-11.1425 2.0665-1.6469 4.1309-3.2964 6.1903-4.9522 0.4085-2.8599 0.8171-5.7198 1.238-8.6664-0.4111-0.9327-0.4111-0.9327-0.8306-1.8842-6.6359-15.1466-12.7307-29.9453-15.2641-46.3999-0.4085 0-0.8171 0-1.238 0zM-158.2144 158.1622c1.2381 3.7141 1.2381 3.7141 1.2381 3.7141zM-25.0413 165.2278c-16.221 9.0257-30.8615 21.1147-45.2083 32.8084-11.2492 9.016-23.3992 15.6578-36.2718 22.0511-14.8912 7.0906-14.8912 7.0906-27.904 17.019-1.8921 2.1997-1.8921 2.1997-3.9801 5.2436 0.4098 8.1959 2.2303 14.7268 5.5616 22.2269 6.1039 12.3345 14.1707 22.7649 24.2242 32.1508 4.0332 3.5225 4.0332 3.5225 8.5939 6.287 2.4756 0.0495 4.9528 0.0538 7.4283 0 8.822-5.5546 16.7523-11.9155 24.7611-18.5709 16.1651-13.4016 32.3292-25.5822 51.9983-33.4274 8.6177-2.4622 18.3627-2.1085 27.2372-1.2381 12.6684 3.0214 24.1396 10.0638 34.7042 17.4972 7.2094 5.3327 14.1661 10.9537 21.0808 16.6605 4.2526 3.4846 8.5399 6.9214 12.8496 10.3349 0.7324 0.5855 1.4647 1.171 2.2192 1.7743 5.0916 4.0514 5.0916 4.0514 10.8578 6.9695 3.9209 0.207 3.9209 0.207 7.4283 0 9.5876-6.4266 17.1807-14.2043 23.7358-23.7069 8.8306-13.7764 8.8306-13.7764 14.0539-29.1378 0.2998-2.5968 0.4616-5.2091 0.59-7.82-2.0556-2.9793-4.1274-5.5681-7.0312-7.7584-2.5488-1.6558-5.1327-3.2283-7.7481-4.7769-0.9726-0.5883-1.9452-1.1766-2.9473-1.7827-6.31-3.7606-12.7387-7.1855-19.2981-10.4878-12.6954-6.3973-23.674-13.7024-34.7021-22.6483-24.8066-20.2613-24.8066-20.2613-53.1765-34.7266-5.1796-1.5223-10.3072-2.4575-15.7271-2.3359-8.2973 0.9145-15.8863 3.694-23.3296 7.3945zM157.4895 158.1622c1.2381 3.7141 1.2381 3.7141 1.2381 3.7141zM156.2515 165.5905c1.238 2.4761 1.238 2.4761 1.238 2.4761zM-145.8338 192.8277c0.4085 1.3533 0.8171 2.7067 1.238 4.1011 1.6465 6.4581 1.4571 12.8014 1.2381 19.4219-6.4705 10.0863-15.277 16.4555-24.7611 23.5231-0.4086 2.4513-0.8171 4.9027-1.2381 7.4283 5.593 20.2988 16.6001 37.983 29.1832 54.6811 3.2672 4.1933 6.7633 8.1358 10.4104 11.9997 2.4389 2.5852 4.7106 5.2623 6.9882 7.9894 3.8405 4.4341 7.9413 7.5532 12.8448 10.7556 3.2847-0.0734 3.2847-0.0734 7.4284-1.2381 6.5806-3.3811 12.1945-8.2562 17.8626-12.9512 18.2587-15.1199 38.6162-30.3206 61.1697-38.3555 11.2912-3.3968 21.9666-4.1236 33.6306-3.1677 12.8159 1.6752 24.6584 7.4745 35.9036 13.6186 13.1723 7.6825 25.1389 17.2391 37.1586 26.5728 3.6599 2.8313 7.3489 5.6228 11.0482 8.4022 1.1602 0.8746 2.3204 1.7492 3.5158 2.6503 2.6191 2.0098 2.6191 2.0098 5.2279 3.2305 2.8884 0.0498 5.7781 0.0535 8.6664 0 16.0878-11.3858 27.9773-26.8968 38.7061-43.2388 7.4638-11.6852 14.3935-23.9508 18.7861-37.1574 0.7621-4.1493 0.2415-7.1095-0.5417-11.2198-0.8612-0.673-0.8612-0.673-1.7398-1.3596-2.6273-2.0634-5.2412-4.1432-7.8551-6.2235-1.355-1.0581-1.355-1.0581-2.7373-2.1376-5.2345-4.1876-9.0697-7.9857-12.4289-13.8024-0.0337-2.347-0.0575-4.6942-0.0774-7.0414-0.0143-1.3071-0.0287-2.6141-0.0435-3.9608 0.1102-3.5128 0.555-6.6325 1.359-10.0447-0.8507 0.5219-1.7013 1.0437-2.5777 1.5814-1.1155 0.6783-2.2311 1.3566-3.3805 2.0554-1.1059 0.6751-2.2119 1.3502-3.3514 2.0457-3.071 1.7458-3.071 1.7458-6.7851 2.9839-8.3226 0.3824-16.5614 0.2875-24.7611-1.2381 3.3362 2.6101 6.6662 4.7449 10.417 6.7078 24.3849 12.9509 24.3849 12.9509 31.6768 20.5294 2.0561 2.8503 3.4803 5.4549 4.9523 8.6664 0.5692 7.0045 0.055 13.2647-1.8571 20.041-4.2184 12.5662-10.3474 24.0928-18.6482 34.4334-1.8067 2.0851-3.6361 4.1507-5.4939 6.1903-0.7533 0.8394-1.5066 1.6789-2.2827 2.5438-4.796 5.0794-9.9318 9.3326-16.2881 12.3128-3.6824 1.1013-7.3461 1.8874-11.1425 2.4762-5.7362-1.1041-10.7939-2.7228-15.7707-5.8324-5.6273-4.1874-11.0109-8.6384-16.3945-13.1302-15.7239-13.1171-31.7076-26.315-50.7845-34.2738-5.4728-1.7513-10.9987-1.7162-16.704-1.6588-5.7975 0.5617-10.3861 2.2485-15.6305 4.7201-12.7212 6.7398-23.4544 15.4687-34.4998 24.5997-25.5767 21.0249-25.5767 21.0249-33.7769 24.1777-3.6996 1.013-7.015 1.4792-10.8475 1.2429-4.7789-0.9085-8.6901-2.8717-12.811-5.4165-9.6731-6.9141-17.5325-15.1967-23.9873-25.148-5.91-9.4319-11.2748-19.4487-14.3924-30.1776-0.9439-5.7577-0.9883-11.2826-0.7738-17.1006 2.3992-4.8982 4.8712-8.9798 8.8212-12.7674 11.1429-9.2928 25.2854-15.5019 38.2249-21.8981-1.2257-0.4086-2.4513-0.8171-3.7141-1.2381-0.6608 0.1947-1.3215 0.3894-2.0022 0.59-6.3014 1.3843-12.6508 1.3088-19.0448 0.6481-4.539-1.511-8.4246-3.51-12.3805-6.1903-3.2499-2.863-3.2499-2.863-4.9522-4.9522zM145.109 192.8277c1.238 2.4761 1.238 2.4761 1.238 2.4761zM-47.8111 353.6787c-14.4758 7.1729-28.1689 15.2895-41.6139 24.2382-16.3084 10.8288-33.6649 22.0606-52.7527 27.2323-6.1865 1.0557-12.265 1.0291-18.5128 0.6239-10.3755-5.613-17.7933-12.0117-25.3753-20.9938-2.7131-3.2972-5.3968-6.6138-8.0522-9.9576-0.4085 0.8171-0.8171 1.6342-1.238 2.4761 13.9631 26.2547 13.9631 26.2547 33.4275 48.2842 5.9337 3.5662 12.003 6.4771 18.5708 8.6663 6.5584 0.7107 12.7456 0.5122 19.1675-1.0458 3.8392-1.2096 7.6485-2.4763 11.4423-3.8217 4.199-1.483 8.4267-2.8789 12.6544-4.2776 0.8469-0.2812 1.6937-0.5625 2.5663-0.8522 39.2101-12.8928 81.0011-16.9899 122.1048-14.3817 32.1701 2.5164 63.912 10.0069 94.123 21.2343 7.1472 2.5415 13.3439 3.7077 20.9478 3.4246 6.0717-0.5694 11.1579-2.5759 16.6031-5.2321 5.8704-3.3545 10.2944-7.6046 14.6245-12.7674 9.3996-12.2604 17.7907-25.571 24.9932-39.2309-0.4085-0.8171-0.8171-1.6342-1.238-2.4761-1.6775 1.8563-3.3538 3.7136-5.0296 5.5713-1.5345 1.6948-1.5345 1.6948-3.1 3.424-1.7981 2.0203-3.5715 4.0637-5.2908 6.1515-5.1065 6.2-10.612 10.494-17.531 14.5665-0.8171 0.4086-1.6342 0.8171-2.4761 1.2381-2.9392 0.0881-5.8808 0.1041-8.8212 0.0774-1.5863-0.0112-3.1727-0.0224-4.8071-0.0339-1.8337-0.0215-1.8337-0.0215-3.7045-0.0435-0.8682 0.9703-1.7363 1.9406-2.6308 2.9404-3.5594 3.2499-3.5594 3.2499-7.0415 4.8748-4.734 1.0211-9.0615 1.57-13.8507 0.8512-3.6547-1.189-6.7615-2.7408-9.9044-4.9523-2.3731-2.3558-4.2131-4.7096-6.1903-7.4283-0.8171-5.3112-1.6343-10.6225-2.4761-16.0947-25.8872-18.9839-54.7399-35.961-85.9481-44.1154-22.7913-3.246-43.19 1.9664-63.6401 11.8299zM-199.0702 368.6314c1.2381 2.4762 1.2381 2.4762 1.2381 2.4762zM198.3453 368.6314c1.2381 2.4762 1.2381 2.4762 1.2381 2.4762zM-197.8321 371.1076c0.4085 1.2256 0.8171 2.4513 1.238 3.7141 0-1.2257 0-2.4513 0-3.7141-0.4085 0-0.8171 0-1.238 0zM197.1073 371.1076c0 3.7141 0 3.7141 0 3.7141zM119.1098 376.2919c-3.8392 2.0754-3.8392 2.0754-6.5771 5.4165-2.0783 2.85-2.0783 2.85-3.3273 5.4939-0.0498 2.8883-0.0535 5.778 0 8.6663 2.3246 3.736 4.3414 6.9194 7.7378 9.7497 0.715 0.4596 1.43 0.9193 2.1666 1.3928 2.8599 0.4086 5.7198 0.8171 8.6664 1.2381 3.2685-1.6342 6.5369-3.2685 9.9045-4.9522 1.2256-2.0428 2.4513-4.0856 3.7141-6.1903 0-3.677 0-7.354 0-11.1425-1.2257-2.0428-2.4513-4.0856-3.7141-6.1903-1.5409-0.8377-3.0902-1.6601-4.6428-2.4761-1.2927-0.6894-1.2927-0.6894-2.6115-1.3928-0.8745-0.3575-1.7491-0.715-2.6502-1.0833-4.8505-0.3038-4.8505-0.3038-8.6664 1.4702z" />
    <path fill="#161616" transform="translate(406 315)" d="M35.6523 13.9887c4.7668 0.7473 8.4943 2.1886 12.7674 4.4106 1.0932 0.5634 2.1864 1.1267 3.3128 1.7072 1.2328 0.6487 1.2328 0.6487 2.4906 1.3106-0.4086 2.0428-0.8171 4.0856-1.2381 6.1902-4.1614-0.3467-7.5918-0.7802-11.4471-2.4229-2.4021-1.2117-4.7748-2.4556-7.1237-3.7673-0.4085-1.6343-0.8171-3.2685-1.238-4.9522 0.8171-0.8172 1.6342-1.6343 2.4761-2.4762z" />
    <path fill="#161616" transform="translate(103 315)" d="M-36.4782 13.9887c1.6342 0.4086 3.2684 0.8172 4.9522 1.2381 0.4085 1.6342 0.8171 3.2685 1.238 4.9522-4.4334 2.7383-8.8407 5.338-13.6186 7.4283-3.5594 0.2322-3.5594 0.2322-6.1902 0-0.4086-2.0427-0.8172-4.0855-1.2381-6.1902 4.9027-2.4514 9.8054-4.9027 14.8567-7.4284z" />
    <path fill="#161616" transform="translate(128 349)" d="M-30.5269 22.0826c1.6343 0.4086 3.2685 0.8171 4.9522 1.2381 0 2.0427 0 4.0855 0 6.1902-4.0551 2.244-8.1118 4.3799-12.3805 6.1903-4.488 0.3869-4.488 0.3869-7.4283 0 0-2.0428 0-4.0856 0-6.1903 4.9027-2.4513 9.8054-4.9027 14.8566-7.4283z" />
    <path fill="#161616" transform="translate(119 338)" d="M-32.6694 19.464c2.0428 0.4086 4.0856 0.8171 6.1903 1.2381-0.4086 2.0427-0.8171 4.0855-1.238 6.1902-6.1284 3.0642-6.1284 3.0642-12.3806 6.1903-2.0428-0.4086-4.0856-0.8171-6.1903-1.2381 0-1.6342 0-3.2684 0-4.9522 4.4292-2.7357 8.9412-5.144 13.6186-7.4283z" />
    <path fill="#161616" transform="translate(397 327)" d="M33.5098 16.8454c4.4214 0.2822 7.7013 0.7769 11.7228 2.6986 2.7283 1.5282 5.4219 3.0926 8.0861 4.7297-0.4086 1.6343-0.8172 3.2685-1.2381 4.9522-1.6342 0.4086-3.2685 0.8172-4.9522 1.2381-4.9027-2.4513-9.8054-4.9027-14.8567-7.4283 0.4086-2.0428 0.8171-4.0856 1.2381-6.1903z" />
    <path fill="#161616" transform="translate(110 327)" d="M-34.8119 16.8454c2.0428 0 4.0856 0 6.1903 0 0.4086 2.0428 0.8171 4.0856 1.2381 6.1903-4.9027 2.4513-9.8054 4.9027-14.8567 7.4283-1.6342-0.4086-3.2684-0.8171-4.9522-1.2381-0.4086-1.6342-0.8171-3.2684-1.2381-4.9522 4.4942-2.4513 8.9883-4.9027 13.6186-7.4283z" />
    <path fill="#161616" transform="translate(381 349)" d="M29.7009 22.0826c4.7668 0.7472 8.4943 2.1885 12.7675 4.4106 1.0932 0.5633 2.1864 1.1267 3.3127 1.7071 0.8219 0.4325 1.6438 0.865 2.4906 1.3106-0.4085 2.0428-0.8171 4.0856-1.238 6.1903-4.1615-0.3468-7.5919-0.7802-11.4472-2.4229-2.4021-1.2118-4.7748-2.4557-7.1236-3.7674 0-2.0428 0-4.0856 0-6.1902 0.4085-0.4086 0.8171-0.8172 1.238-1.2381z" />
    <path fill="#161616" transform="translate(389 338)" d="M31.6054 19.464c4.8028 0.4803 8.5711 1.6395 12.8448 3.7915 1.5011 0.79 2.9989 1.5863 4.4879 2.3988 0.4086 2.0428 0.8171 4.0856 1.2381 6.1902-2.0428 0.4086-4.0856 0.8172-6.1903 1.2381-4.4941-2.4513-8.9883-4.9027-13.6186-7.4283 0.4086-2.0428 0.8171-4.0856 1.2381-6.1903z" />
    <path d="M215.0883 25.6654c-0.9639 0.1993-1.9279 0.3986-2.921 0.6039-22.2071 4.7843-43.2403 13.5323-62.1494 26.14-5.81 4.0002-11.321 8.2401-16.6412 12.8738-1.1938 1.015-2.3875 2.0301-3.6174 3.0758-14.3691 12.4767-24.8454 27.099-33.5242 43.9703-7.1876 14.475-12.1389 30.3624-13.5171 46.548-0.2452 7.1804-0.1867 14.3621-0.1015 21.545 1.5528-0.2107 3.1056-0.4213 4.7055-0.6384 7.9186-1.0618 15.8434-2.0733 23.7697-3.0758 2.3383-0.298 2.3383-0.298 4.7237-0.6021 12.8528-1.6173 25.7191-3.0541 38.6082-4.3501 0.9556-0.097 1.9112-0.1941 2.8958-0.2941 82.8022-8.2943 166.9752-4.5501 249.3289 6.1221 4.7329 0.6093 9.4683 1.1991 14.2037 1.789 0.8536 0.1064 1.7072 0.2129 2.5867 0.3226 1.9443 0.2425 3.8887 0.4847 5.833 0.7268 0.419-18.549-1.1081-36.8685-7.4283-54.4744-7.6637-19.385-18.3292-35.9244-32.5104-51.1402-15.9038-16.4201-35.7857-28.6253-56.4742-38.0952-21.2322-9.2187-44.9477-14.4131-68.0791-15.0127-16.9111-0.2053-33.1186 0.5004-49.6914 3.9657z" />
    <path d="M82.6165 194.0408c0.4085 1.6342 0.8171 3.2685 1.238 4.9522 1.2034-0.1991 2.4067-0.3982 3.6465-0.6033 101.5334-16.6841 205.0043-19.7539 329.1559-1.2649 4.1989 0.6701 8.4042 1.2771 12.6148 1.8682 0-1.6342 0-3.2684 0-4.9522-106.126-16.4836-216.1193-20.7114-346.6552 0z" />
    <path d="M111.0917 207.6594c2.2052 14.7965 2.2052 14.7965 7.2978 28.7654 2.0884 3.3356 4.5672 5.8448 7.5589 8.3762 1.2257 0.8172 2.4513 1.6343 3.7141 2.4761 4.9118 0.3169 9.2512 0.4943 14.0297-0.7544 12.0106-4.5413 23.0016-11.6317 33.782-18.5255 18.9668-12.0951 38.374-22.3181 59.8991-29.0042 0-0.4085 0-0.8171 0-1.238-41.3289-1.1341-85.7418 1.3237-126.2816 9.9044z" />
    <path d="M274.5149 197.755c3.2704 1.6905 6.5294 3.1308 9.9818 4.4057 22.74 8.5977 42.9538 20.1205 63.0142 33.8171 7.0622 4.755 14.0824 8.969 22.3342 11.2993 3.8267 0.3504 7.29 0.2486 11.1425 0 4.6081-2.7862 8.8036-5.5873 12.1774-9.8754 3.2891-5.7172 4.9425-12.2057 6.3934-18.5998 0.5049-3.7068 0.9002-7.417 1.2381-11.1425-25.1163-3.9219-50.187-6.681-75.5213-8.6664-1.738-0.1364-1.738-0.1364-3.5111-0.2756-15.7373-1.1816-31.4756-1.0995-47.2492-0.9624z" />
    <path d="M230.6462 220.9153c-16.221 9.0257-30.8615 21.1147-45.2083 32.8084-11.2492 9.016-23.3992 15.6578-36.2718 22.0511-14.8912 7.0906-14.8912 7.0906-27.904 17.019-1.8921 2.1997-1.8921 2.1997-3.9801 5.2436 0.4098 8.1959 2.2303 14.7268 5.5616 22.2269 6.1039 12.3345 14.1707 22.7649 24.2242 32.1508 4.0332 3.5225 4.0332 3.5225 8.5939 6.287 2.4756 0.0495 4.9528 0.0538 7.4283 0 8.822-5.5546 16.7523-11.9155 24.7611-18.5709 16.1651-13.4016 32.3292-25.5822 51.9983-33.4274 8.6177-2.4622 18.3627-2.1085 27.2372-1.2381 12.6684 3.0214 24.1396 10.0638 34.7042 17.4972 7.2094 5.3327 14.1661 10.9537 21.0808 16.6605 4.2526 3.4846 8.5399 6.9214 12.8496 10.3349 0.7324 0.5855 1.4647 1.171 2.2192 1.7743 5.0916 4.0514 5.0916 4.0514 10.8578 6.9695 3.9209 0.207 3.9209 0.207 7.4283 0 9.5876-6.4266 17.1807-14.2043 23.7358-23.7069 8.8306-13.7764 8.8306-13.7764 14.0539-29.1378 0.2998-2.5968 0.4616-5.2091 0.59-7.82-2.0556-2.9793-4.1274-5.5681-7.0312-7.7584-2.5488-1.6558-5.1327-3.2283-7.7481-4.7769-0.9726-0.5883-1.9452-1.1766-2.9473-1.7827-6.31-3.7606-12.7387-7.1855-19.2981-10.4878-12.6954-6.3973-23.674-13.7024-34.7021-22.6483-24.8066-20.2613-24.8066-20.2613-53.1765-34.7266-5.1796-1.5223-10.3072-2.4575-15.7271-2.3359-8.2973 0.9145-15.8863 3.694-23.3296 7.3945z" />
    <path d="M109.8537 248.5152c0.4085 1.3533 0.8171 2.7067 1.238 4.1011 1.6465 6.4581 1.4571 12.8014 1.2381 19.4219-6.4705 10.0863-15.277 16.4555-24.7611 23.5231-0.4086 2.4513-0.8171 4.9027-1.2381 7.4283 5.593 20.2988 16.6001 37.983 29.1832 54.6811 3.2672 4.1933 6.7633 8.1358 10.4104 11.9997 2.4389 2.5852 4.7106 5.2623 6.9882 7.9894 3.8405 4.4341 7.9413 7.5532 12.8448 10.7556 3.2847-0.0734 3.2847-0.0734 7.4284-1.2381 6.5806-3.3811 12.1945-8.2562 17.8626-12.9512 18.2587-15.1199 38.6162-30.3206 61.1697-38.3555 11.2912-3.3968 21.9666-4.1236 33.6306-3.1677 12.8159 1.6752 24.6584 7.4745 35.9036 13.6186 13.1723 7.6825 25.1389 17.2391 37.1586 26.5728 3.6599 2.8313 7.3489 5.6228 11.0482 8.4022 1.1602 0.8746 2.3204 1.7492 3.5158 2.6503 2.6191 2.0098 2.6191 2.0098 5.2279 3.2305 2.8884 0.0498 5.7781 0.0535 8.6664 0 16.0878-11.3858 27.9773-26.8968 38.7061-43.2388 7.4638-11.6852 14.3935-23.9508 18.7861-37.1574 0.7621-4.1493 0.2415-7.1095-0.5417-11.2198-0.8612-0.673-0.8612-0.673-1.7398-1.3596-2.6273-2.0634-5.2412-4.1432-7.8551-6.2235-1.355-1.0581-1.355-1.0581-2.7373-2.1376-5.2345-4.1876-9.0697-7.9857-12.4289-13.8024-0.0337-2.347-0.0575-4.6942-0.0774-7.0414-0.0143-1.3071-0.0287-2.6141-0.0435-3.9608 0.1102-3.5128 0.555-6.6325 1.359-10.0447-0.8507 0.5219-1.7013 1.0437-2.5777 1.5814-1.1155 0.6783-2.2311 1.3566-3.3805 2.0554-1.1059 0.6751-2.2119 1.3502-3.3514 2.0457-3.071 1.7458-3.071 1.7458-6.7851 2.9839-8.3226 0.3824-16.5614 0.2875-24.7611-1.2381 3.3362 2.6101 6.6662 4.7449 10.417 6.7078 24.3849 12.9509 24.3849 12.9509 31.6768 20.5294 2.0561 2.8503 3.4803 5.4549 4.9523 8.6664 0.5692 7.0045 0.055 13.2647-1.8571 20.041-4.2184 12.5662-10.3474 24.0928-18.6482 34.4334-1.8067 2.0851-3.6361 4.1507-5.4939 6.1903-0.7533 0.8394-1.5066 1.6789-2.2827 2.5438-4.796 5.0794-9.9318 9.3326-16.2881 12.3128-3.6824 1.1013-7.3461 1.8874-11.1425 2.4762-5.7362-1.1041-10.7939-2.7228-15.7707-5.8324-5.6273-4.1874-11.0109-8.6384-16.3945-13.1302-15.7239-13.1171-31.7076-26.315-50.7845-34.2738-5.4728-1.7513-10.9987-1.7162-16.704-1.6588-5.7975 0.5617-10.3861 2.2485-15.6305 4.7201-12.7212 6.7398-23.4544 15.4687-34.4998 24.5997-25.5767 21.0249-25.5767 21.0249-33.7769 24.1777-3.6996 1.013-7.015 1.4792-10.8475 1.2429-4.7789-0.9085-8.6901-2.8717-12.811-5.4165-9.6731-6.9141-17.5325-15.1967-23.9873-25.148-5.91-9.4319-11.2748-19.4487-14.3924-30.1776-0.9439-5.7577-0.9883-11.2826-0.7738-17.1006 2.3992-4.8982 4.8712-8.9798 8.8212-12.7674 11.1429-9.2928 25.2854-15.5019 38.2249-21.8981-1.2257-0.4086-2.4513-0.8171-3.7141-1.2381-0.6608 0.1947-1.3215 0.3894-2.0022 0.59-6.3014 1.3843-12.6508 1.3088-19.0448 0.6481-4.539-1.511-8.4246-3.51-12.3805-6.1903-3.2499-2.863-3.2499-2.863-4.9522-4.9522z" />
    <path d="M374.7973 431.9794c-3.8392 2.0754-3.8392 2.0754-6.5771 5.4165-2.0783 2.85-2.0783 2.85-3.3273 5.4939-0.0498 2.8883-0.0535 5.778 0 8.6663 2.3246 3.736 4.3414 6.9194 7.7378 9.7497 0.715 0.4596 1.43 0.9193 2.1666 1.3928 2.8599 0.4086 5.7198 0.8171 8.6664 1.2381 3.2685-1.6342 6.5369-3.2685 9.9045-4.9522 1.2256-2.0428 2.4513-4.0856 3.7141-6.1903 0-3.677 0-7.354 0-11.1425-1.2257-2.0428-2.4513-4.0856-3.7141-6.1903-1.5409-0.8377-3.0902-1.6601-4.6428-2.4761-1.2927-0.6894-1.2927-0.6894-2.6115-1.3928-0.8745-0.3575-1.7491-0.715-2.6502-1.0833-4.8505-0.3038-4.8505-0.3038-8.6664 1.4702z" />
    <path d="M207.8764 409.3662c-14.4758 7.1729-28.1689 15.2895-41.6139 24.2382-16.3084 10.8288-33.6649 22.0606-52.7527 27.2323-6.1865 1.0557-12.265 1.0291-18.5128 0.6239-10.3755-5.613-17.7933-12.0117-25.3753-20.9938-2.7131-3.2972-5.3968-6.6138-8.0522-9.9576-0.4085 0.8171-0.8171 1.6342-1.238 2.4761C74.2946 459.24 74.2946 459.24 93.759 481.2695c5.9337 3.5662 12.003 6.4771 18.5708 8.6663 6.5584 0.7107 12.7456 0.5122 19.1675-1.0458 3.8392-1.2096 7.6485-2.4763 11.4423-3.8217 4.199-1.483 8.4267-2.8789 12.6544-4.2776 0.8469-0.2812 1.6937-0.5625 2.5663-0.8522 39.2101-12.8928 81.0011-16.9899 122.1048-14.3817 32.1701 2.5164 63.912 10.0069 94.123 21.2343 7.1472 2.5415 13.3439 3.7077 20.9478 3.4246 6.0717-0.5694 11.1579-2.5759 16.6031-5.2321 5.8704-3.3545 10.2944-7.6046 14.6245-12.7674 9.3996-12.2604 17.7907-25.571 24.9932-39.2309-0.4085-0.8171-0.8171-1.6342-1.238-2.4761-1.6775 1.8563-3.3538 3.7136-5.0296 5.5713-1.5345 1.6948-1.5345 1.6948-3.1 3.424-1.7981 2.0203-3.5715 4.0637-5.2908 6.1515-5.1065 6.2-10.612 10.494-17.531 14.5665-0.8171 0.4086-1.6342 0.8171-2.4761 1.2381-2.9392 0.0881-5.8808 0.1041-8.8212 0.0774-1.5863-0.0112-3.1727-0.0224-4.8071-0.0339-1.8337-0.0215-1.8337-0.0215-3.7045-0.0435-0.8682 0.9703-1.7363 1.9406-2.6308 2.9404-3.5594 3.2499-3.5594 3.2499-7.0415 4.8748-4.734 1.0211-9.0615 1.57-13.8507 0.8512-3.6547-1.189-6.7615-2.7408-9.9044-4.9523-2.3731-2.3558-4.2131-4.7096-6.1903-7.4283-0.8171-5.3112-1.6343-10.6225-2.4761-16.0947-25.8872-18.9839-54.7399-35.961-85.9481-44.1154-22.7913-3.246-43.19 1.9664-63.6401 11.8299z" />
</svg>