<svg viewBox="0 0 512 512" fill="#161616" width="200" height="200" version="1.1" xmlns="http://www.w3.org/2000/svg" xmlns:xlink="http://www.w3.org/1999/xlink">    <path fill="#fbfbfb" paint-order="stroke" d="M224 27c22e-4 0.7384 44e-4 1.4767 67e-4 2.2375 0.0201 6.9735 0.0353 13.9471 0.0451 20.9207 52e-4 3.5848 0.0123 7.1696 0.0236 10.7544 0.0109 3.4624 0.0169 6.9248 0.0195 10.3872 27e-4 1.9575 0.0105 3.915 0.0184 5.8725 1e-4 1.2008 1e-4 2.4016 2e-4 3.6387 22e-4 1.0526 45e-4 2.1052 68e-4 3.1896C223.997 87.0746 223.5697 89.9795 223 93c-0.33 0-0.66 0-1 0-2.31-15.51-4.62-31.02-7-47-12.5895 1.0491-21.1612 3.5516-31.8477 9.832-2.2166 1.2029-4.4082 2.0583-6.7773 2.918-16.7065 6.4536-30.5763 18.4542-42.6763 31.3604C128.9588 95.383 124.8665 101.0664 121 107c-0.5682 0.8585-0.5682 0.8585-1.1479 1.7344C112.6168 119.9557 109.1945 132.9119 107 146c-0.1598 2.3847-0.1343 4.6096 0 7 0.6755 0.7876 1.3509 1.5752 2.0469 2.3867 5.4374 6.5568 9.1189 12.2649 11.332 20.6406 1.2472 5.9692 1.8694 11.7699 2.1836 17.8477 0.0432 0.7837 0.0864 1.5675 0.1309 2.375 0.1051 1.9165 0.2063 3.8332 0.3066 5.75 23.9237 14.2283 54.683 14.6306 81.7158 17.0034 4.7584 0.3867 9.5188 0.7097 14.2842 0.9966 0.9157 0.0564 1.8314 0.1128 2.7749 0.1709 6.0728 0.3621 12.1446 0.6364 18.2251 0.8291 0.6888 0.0234 1.3777 0.0467 2.0874 0.0708 24.9775 0.7305 50.1252-1.8057 74.9126-4.5708 1.4534-0.1613 1.4534-0.1613 2.9362-0.3258 13.6923-1.5326 26.8477-3.1307 39.9388-7.6117 0.9101-0.2997 1.8202-0.5994 2.7578-0.9082 4.4393-1.496 8.4682-2.987 12.3672-5.6543 0.049-1.1112 0.098-2.2223 0.1484-3.3672 0.5648-11.6987 1.2494-23.0765 6.8516-33.6328 2.8397-4.1394 5.8535-8.0871 9-12-1.1054-14.1571-4.1767-28.1634-11-40.707-6.8252-11.2376-14.8919-20.8456-24-30.293-0.5904-0.6652-1.1808-1.3303-1.7891-2.0156-8.5768-9.4125-20.9466-15.7785-32.3086-21.0928-2.0992-0.9839-4.1882-1.9878-6.2773-2.9932-1.4996-0.717-2.9996-1.4331-4.5-2.1484-0.6895-0.3295-1.379-0.659-2.0894-0.9985-6.7537-3.1793-12.987-6.0101-20.5356-6.439-1.0416-0.0657-2.0831-0.1315-3.1563-0.1992C284.5703 46.0759 283.7969 46.0385 283 46c-2.542 15.6371-4.7903 31.3128-7 47-0.33 0-0.66 0-1 0-0.878-3.8006-1.1498-7.3619-1.2053-11.259-0.02-1.2409-0.0399-2.4819-0.0605-3.7604-0.0169-1.3438-0.0338-2.6876-0.0506-4.0314-0.0206-1.3829-0.0416-2.7658-0.063-4.1487-0.055-3.6282-0.1045-7.2564-0.1528-10.8847-0.0504-3.707-0.106-7.4139-0.1612-11.1209C273.1993 40.53 273.0978 33.265 273 26c-2.7225-0.9075-4.3319-1.1306-7.1326-1.1453-0.8277-63e-4-1.6554-0.0127-2.5083-0.0193-1.336-17e-4-1.336-17e-4-2.6989-34e-4-0.9185-33e-4-1.837-66e-4-2.7834-0.0101-1.9426-5e-3-3.8851-74e-4-5.8277-72e-4-2.9716-22e-4-5.9428-0.0204-8.9143-0.0393-1.8874-29e-4-3.7748-49e-4-5.6621-59e-4-0.8887-72e-4-1.7773-0.0143-2.6929-0.0217-1.2463 46e-4-1.2463 46e-4-2.5178 93e-4-1.0923-22e-4-1.0923-22e-4-2.2067-43e-4C227.6895 25.0373 226.0596 25.83 224 27z" />    <path fill="#fbfbfb" paint-order="stroke" d="M92 200c-5.4767 3.8745-9.0917 8.2328-12.375 14-0.3332 0.5809-0.6664 1.1618-1.0098 1.7603-2.6156 4.7841-4.312 9.5147-4.916 14.9428-0.0347 7.5518 0.9811 14.2335 4.1475 21.145 4.0011 8.2204 8.1488 16.2414 15.4658 22.0269 1.3303 1.0519 1.3303 1.0519 2.6875 2.125 0.2561 7.1872-0.7355 14.028-1.8125 21.125-1.6021 10.6231-1.6021 10.6231-2.9102 21.2852-0.1117 0.9801-0.2234 1.9603-0.3386 2.9702-0.2019 1.8068-0.3858 3.6158-0.5473 5.4267-0.4119 3.533-0.9563 6.3823-2.6497 9.5371C86.232 338.6245 84.6435 340.8146 83 343c-0.8844 1.2765-1.7624 2.5576-2.6328 3.8438-0.4119 0.6019-0.8237 1.2038-1.2481 1.8239C75.1306 354.5418 71.3302 360.2398 69 367c-0.4125 1.1963-0.825 2.3925-1.25 3.625-1.6212 7.4811-1.708 15.4138 0.0898 22.8477C70.5831 401.2221 74.5302 407.8675 80 414c6.8448 6.6658 14.3046 11.1303 23 15 0.3171 0.9204 0.6342 1.8408 0.9609 2.7891 5.1381 14.2188 13.155 24.985 23.9422 35.5061 8.8668 8.3977 17.6467 12.4679 29.1999 16.1223 13.5481 4.1603 29.2091 5.0456 43.2642 3.1216 7.1691-1.5828 13.5419-4.4403 19.6328-8.5391 2.9283-2.8551 4.9097-6.0184 6.4727-9.8203 1.1201-4.6301 0.7369-9.4523 0.5273-14.1797 0.5827 0.0707 1.1653 0.1415 1.7656 0.2144 6.763 0.7563 13.4332 0.9365 20.2344 0.9106 1.0158 39e-4 2.0316 77e-4 3.0781 0.0117 6.3668-81e-4 12.6014-0.3694 18.9219-1.1367-0.0464 0.7618-0.0928 1.5237-0.1406 2.3086-0.177 5.0636-0.25 9.7226 1.5781 14.5039 1.7139 3.2965 3.7445 5.5861 6.5625 8 5.8793 4.1953 12.4399 6.055 19.375 7.7773 14.5457 2.2728 30.7363 0.3648 44.7373-3.8264 9.0983-2.9258 16.7824-6.1937 23.8877-12.7634 0.772-0.7002 0.772-0.7002 1.5596-1.4146 9.7345-8.9162 18.0908-18.5005 23.1906-30.8359 1.1415-2.8978 2.2138-5.8123 3.2498-8.7495 0.8224-0.4125 1.6448-0.825 2.4922-1.25 9.3515-4.8378 17.7307-9.7684 24.2004-18.3372C426.179 403.1034 429.5509 396.661 431 389c0.7508-7.6911 0.4018-15.3427-1.6992-22.8008-4.0979-10.0785-11.0012-19.1934-17.7071-27.6719-3.4619-5.4898-4.0632-11.9539-4.8476-18.2773-0.1058-0.8169-0.2116-1.6339-0.3205-2.4756-0.3344-2.5908-0.6615-5.1826-0.9881-7.7744-0.3319-2.5916-0.6653-5.183-0.9988-7.7744-0.206-1.606-0.4109-3.2121-0.6144-4.8184-0.4362-3.439-0.8914-6.8709-1.3883-10.302-0.5293-3.7695-0.5027-7.3053-0.436-11.1052 1.4541-1.0519 1.4541-1.0519 2.9375-2.125 7.3172-6.2931 12.2818-15.6116 16.0625-24.375 2.4805-6.1325 3.3721-12.2068 3.2734-18.7969-0.7264-7.1817-3.9085-13.4031-7.5859-19.5156-3.0541-4.6143-6.2836-7.8621-10.6875-11.1875-1.65 0-3.3 0-5 0-0.5943 0.7361-1.1885 1.4721-1.8008 2.2305-7.6225 8.9739-7.6225 8.9739-13.2617 11.707-13.5296 5.0427-28.0323 7.0392-42.25 9.125-1.737 0.2595-3.4739 0.5196-5.2107 0.7803-3.357 0.503-6.7146 1.0025-10.0725 1.4995-4.2938 0.6377-8.5817 1.3082-12.8662 2.0061-20.5322 3.1708-40.9429 4.0038-61.6931 3.9673-2.8391-46e-4-5.6777 22e-4-8.5166 0.0205-29.3007 0.1866-57.6489-2.5359-86.5154-7.6746-3.9754-0.6898-7.956-1.3294-11.9419-1.9546-1.3522-0.2147-2.7043-0.4297-4.0564-0.645-2.5388-0.4024-5.0786-0.7984-7.6196-1.1865-9.8103-1.582-19.9156-3.7009-28.3045-9.3052C103.1528 207.4657 100.071 203.7489 97 200c-1.65 0-3.3 0-5 0z" />    <path fill="currentColor" transform="translate(218 11)" d="M0 0c20.46 0 40.92 0 62 0 8.1053 9.2632 8.1053 9.2632 10 14 0.3543 1.6623 0.691 3.3286 1 5 1.1537 0.2823 2.3074 0.5646 3.4961 0.8555 23.5308 6.1911 46.4454 18.9048 65.1645 34.5307C145.21 57.4852 148.6089 60.7296 152 64c0.8018 0.7386 1.6036 1.4773 2.4297 2.2383C160.7015 72.1738 165.2818 78.81 170 86c0.9958 1.4328 0.9958 1.4328 2.0117 2.8945 12.2022 19.0584 16.6526 44.1924 19.2998 66.323 0.2448 2.1774 0.479 4.3559 0.7012 6.5357 0.5198 5.007 1.0928 9.5306 2.9873 14.2468 0.7593 0.5427 1.5185 1.0854 2.3008 1.6445 0.9938 0.7155 1.9877 1.4309 3.0117 2.168 1.4792 1.0615 1.4792 1.0615 2.9883 2.1445 5.1493 3.8974 8.492 8.4535 11.6992 14.043 4.0142 9.0416 6.409 18.1365 6.1875 28.0469-0.7312 11.5157-3.1992 21.9217-8.875 32.0156-3.6969 5.915-8.3913 11.0163-13.3125 15.9375 0.6146 23.2234 0.6146 23.2234 6.0376 45.4282 2.154 3.6793 4.8793 6.777 7.6885 9.9644 3.6862 4.6512 5.9748 10.3835 8.4131 15.7568 0.7679 1.651 1.6123 3.2659 2.4663 4.874 3.5458 7.4095 3.8981 14.3421 3.957 22.4766-0.0998 9.1156-0.7012 17.1296-4.5625 25.5-0.3506 0.7979-0.7012 1.5959-1.0625 2.418-4.5783 9.2361-12.2312 16.4607-20.2969 22.6875-4.4186 3.1701-8.9959 6.0688-13.6406 8.8945-0.2939 0.874-0.2939 0.874-0.5937 1.7656-5.0409 13.819-14.7312 25.7834-25.2149 35.961-10.1925 8.9339-21.8503 15.8298-34.9336 19.5195-1.0751 0.2488-2.1501 0.4976-3.2578 0.7539-0.6607 0.1737-1.3215 0.3474-2.0022 0.5264-7.5686 1.7978-15.1478 1.8459-22.8818 1.8442-2.2823 44e-4-4.5626 0.0407-6.8445 0.0786-12.453 0.0956-23.1723-2.0509-34.6465-7.1367-5.1677-2.7235-8.9562-6.1636-12.8828-10.457C43.1243 470.918 43.1243 470.918 41 470c-0.99-3.96-1.98-7.92-3-12-4.62 0-9.24 0-14 0-0.99 3.96-1.98 7.92-3 12-2.6456 2.3621-5.3089 4.6907-8 7-0.9011 0.8044-0.9011 0.8044-1.8203 1.625-7.3821 6.1358-16.8489 8.6805-26.0386 10.9454-5.4858 1.1006-11.1878 0.8014-16.7644 0.8002-2.278 43e-4-4.5541 0.0406-6.8318 0.0786-12.939 0.0979-25.9543-1.8386-37.9043-7.082-16.2728-8.4253-28.6829-18.9749-39.6845-33.5845-4.6974-6.465-7.8937-13.433-10.9561-20.7827-0.7992-0.4499-1.5984-0.8998-2.4219-1.3633-10.5658-6.1882-20.3664-13.5498-27.4101-23.7539-4.592-7.4025-7.5634-15.1847-8.489-23.9084-0.1508-3.1232-0.1982-6.2227-0.179-9.3494 64e-4-1.1027 0.0129-2.2054 0.0195-3.3416 0.16-7.1186 0.7795-12.7915 3.875-19.26 0.7947-1.4966 0.7947-1.4966 1.6055-3.0234 0.5935-1.2758 1.1803-2.5546 1.7617-3.8359 2.8932-6.2291 5.8604-11.8696 10.2161-17.201 2.8882-3.5717 5.4183-6.8979 6.7229-11.3591 1.0869-5.3024 1.6224-10.6479 2.0713-16.0371 0.3422-3.8527 0.8893-7.6733 1.4155-11.5044 0.5688-4.3981 0.9005-8.627 0.8125-13.0625-0.4241-0.3893-0.8482-0.7786-1.2852-1.1797-7.4095-7.0675-12.9184-14.9154-16.6484-24.4805-3.0678-9.6079-5.2821-20.2626-4.0664-30.3398 1.676-9.029 3.8782-17.2589 9-25 0.5569-1.0313 1.1137-2.0625 1.6875-3.125 4.2864-5.329 10.2152-8.8876 16.3125-11.875 0.12-0.9952 0.2401-1.9903 0.3638-3.0156 2.3979-19.6661 5.0241-38.9295 10.6362-57.9844 0.2277-0.8194 0.4554-1.6387 0.6899-2.4829C-117.0175 100.7247-112.0794 90.977-105 81c0.9378-1.3322 0.9378-1.3322 1.8945-2.6914C-86.7865 56.7277-64.8156 42.1024-41 30c1.1163-0.5711 2.2327-1.1421 3.3828-1.7305C-29.0387 24.0878-20.1801 21.4847-11 19c0.1702-0.5801 0.3403-1.1602 0.5156-1.7578C-8.9344 12.2461-7.2228 8.1995-4 4c1.32-1.32 2.64-2.64 4-4zM6 16c22e-4 0.7384 44e-4 1.4767 67e-4 2.2375 0.0201 6.9735 0.0353 13.9471 0.0451 20.9207 52e-4 3.5848 0.0123 7.1696 0.0236 10.7544 0.0109 3.4624 0.0169 6.9248 0.0195 10.3872 27e-4 1.9575 0.0105 3.915 0.0184 5.8725 1e-4 1.2008 1e-4 2.4016 2e-4 3.6387 22e-4 1.0526 45e-4 2.1052 68e-4 3.1896C5.997 76.0746 5.5697 78.9795 5 82c-0.33 0-0.66 0-1 0-2.31-15.51-4.62-31.02-7-47-12.5895 1.0491-21.1612 3.5516-31.8477 9.832-2.2166 1.2029-4.4082 2.0583-6.7773 2.918-16.7065 6.4536-30.5763 18.4542-42.6763 31.3604C-89.0412 84.383-93.1335 90.0664-97 96c-0.5682 0.8585-0.5682 0.8585-1.1479 1.7344C-105.3832 108.9557-108.8055 121.9119-111 135c-0.1598 2.3847-0.1343 4.6096 0 7 0.6755 0.7876 1.3509 1.5752 2.0469 2.3867 5.4374 6.5568 9.1189 12.2649 11.332 20.6406 1.2472 5.9692 1.8694 11.7699 2.1836 17.8477 0.0432 0.7837 0.0864 1.5675 0.1309 2.375 0.1051 1.9165 0.2063 3.8332 0.3066 5.75 23.9237 14.2283 54.683 14.6306 81.7158 17.0034C-8.5258 208.3901-3.7654 208.7131 1 209c0.9157 0.0564 1.8314 0.1128 2.7749 0.1709C9.8477 209.533 15.9195 209.8073 22 210c0.6888 0.0234 1.3777 0.0467 2.0874 0.0708C49.0649 210.8013 74.2126 208.2651 99 205.5c1.4534-0.1613 1.4534-0.1613 2.9362-0.3258 13.6923-1.5326 26.8477-3.1307 39.9388-7.6117 0.9101-0.2997 1.8202-0.5994 2.7578-0.9082 4.4393-1.496 8.4682-2.987 12.3672-5.6543 0.049-1.1112 0.098-2.2223 0.1484-3.3672 0.5648-11.6987 1.2494-23.0765 6.8516-33.6328 2.8397-4.1394 5.8535-8.0871 9-12-1.1054-14.1571-4.1767-28.1634-11-40.707-6.8252-11.2376-14.8919-20.8456-24-30.293-0.5904-0.6652-1.1808-1.3303-1.7891-2.0156-8.5768-9.4125-20.9466-15.7785-32.3086-21.0928-2.0992-0.9839-4.1882-1.9878-6.2773-2.9932-1.4996-0.717-2.9996-1.4331-4.5-2.1484-0.6895-0.3295-1.379-0.659-2.0894-0.9985-6.7537-3.1793-12.987-6.0101-20.5356-6.439-1.0416-0.0657-2.0831-0.1315-3.1563-0.1992C66.5703 35.0759 65.7969 35.0385 65 35c-2.542 15.6371-4.7903 31.3128-7 47-0.33 0-0.66 0-1 0-0.878-3.8006-1.1498-7.3619-1.2053-11.259-0.02-1.2409-0.0399-2.4819-0.0605-3.7604-0.0169-1.3438-0.0338-2.6876-0.0506-4.0314-0.0206-1.3829-0.0416-2.7658-0.063-4.1487-0.055-3.6282-0.1045-7.2564-0.1528-10.8847-0.0504-3.707-0.106-7.4139-0.1612-11.1209C55.1993 29.53 55.0978 22.265 55 15c-2.7225-0.9075-4.3319-1.1306-7.1326-1.1453-0.8277-63e-4-1.6554-0.0127-2.5083-0.0193-1.336-17e-4-1.336-17e-4-2.6989-34e-4-0.9185-33e-4-1.837-66e-4-2.7834-0.0101-1.9426-5e-3-3.8851-74e-4-5.8277-72e-4-2.9716-22e-4-5.9428-0.0204-8.9143-0.0393-1.8874-29e-4-3.7748-49e-4-5.6621-59e-4-0.8887-72e-4-1.7773-0.0143-2.6929-0.0217-1.2463 46e-4-1.2463 46e-4-2.5178 93e-4-1.0923-22e-4-1.0923-22e-4-2.2067-43e-4C9.6895 14.0373 8.0596 14.83 6 16zM-126 189c-5.4767 3.8745-9.0917 8.2328-12.375 14-0.3332 0.5809-0.6664 1.1618-1.0098 1.7603-2.6156 4.7841-4.312 9.5147-4.916 14.9428-0.0347 7.5518 0.9811 14.2335 4.1475 21.145 4.0011 8.2204 8.1488 16.2414 15.4658 22.0269 1.3303 1.0519 1.3303 1.0519 2.6875 2.125 0.2561 7.1872-0.7355 14.028-1.8125 21.125-1.6021 10.6231-1.6021 10.6231-2.9102 21.2852-0.1117 0.9801-0.2234 1.9603-0.3386 2.9702-0.2019 1.8068-0.3858 3.6158-0.5473 5.4267-0.4119 3.533-0.9563 6.3823-2.6497 9.5371-1.5097 2.2803-3.0982 4.4704-4.7417 6.6558-0.8844 1.2765-1.7624 2.5576-2.6328 3.8438-0.4119 0.6019-0.8237 1.2038-1.2481 1.8239-3.9885 5.8741-7.7889 11.5721-10.1191 18.3323-0.4125 1.1963-0.825 2.3925-1.25 3.625-1.6212 7.4811-1.708 15.4138 0.0898 22.8477 2.7433 7.7494 6.6904 14.3948 12.1602 20.5273 6.8448 6.6658 14.3046 11.1303 23 15 0.3171 0.9204 0.6342 1.8408 0.9609 2.7891 5.1381 14.2188 13.155 24.985 23.9422 35.5061 8.8668 8.3977 17.6467 12.4679 29.1999 16.1223 13.5481 4.1603 29.2091 5.0456 43.2642 3.1216C-10.4637 473.9563-4.0909 471.0988 2 467c2.9283-2.8551 4.9097-6.0184 6.4727-9.8203C9.5928 452.5496 9.2096 447.7274 9 443c0.5827 0.0707 1.1653 0.1415 1.7656 0.2144 6.763 0.7563 13.4332 0.9365 20.2344 0.9106 1.0158 39e-4 2.0316 77e-4 3.0781 0.0117C40.4449 444.1286 46.6795 443.7673 53 443c-0.0464 0.7618-0.0928 1.5237-0.1406 2.3086-0.177 5.0636-0.25 9.7226 1.5781 14.5039 1.7139 3.2965 3.7445 5.5861 6.5625 8 5.8793 4.1953 12.4399 6.055 19.375 7.7773 14.5457 2.2728 30.7363 0.3648 44.7373-3.8264 9.0983-2.9258 16.7824-6.1937 23.8877-12.7634 0.772-0.7002 0.772-0.7002 1.5596-1.4146 9.7345-8.9162 18.0908-18.5005 23.1906-30.8359 1.1415-2.8978 2.2138-5.8123 3.2498-8.7495 0.8224-0.4125 1.6448-0.825 2.4922-1.25 9.3515-4.8378 17.7307-9.7684 24.2004-18.3372C208.179 392.1034 211.5509 385.661 213 378c0.7508-7.6911 0.4018-15.3427-1.6992-22.8008-4.0979-10.0785-11.0012-19.1934-17.7071-27.6719-3.4619-5.4898-4.0632-11.9539-4.8476-18.2773-0.1058-0.8169-0.2116-1.6339-0.3205-2.4756-0.3344-2.5908-0.6615-5.1826-0.9881-7.7744-0.3319-2.5916-0.6653-5.183-0.9988-7.7744-0.206-1.606-0.4109-3.2121-0.6144-4.8184-0.4362-3.439-0.8914-6.8709-1.3883-10.302-0.5293-3.7695-0.5027-7.3053-0.436-11.1052 1.4541-1.0519 1.4541-1.0519 2.9375-2.125 7.3172-6.2931 12.2818-15.6116 16.0625-24.375 2.4805-6.1325 3.3721-12.2068 3.2734-18.7969-0.7264-7.1817-3.9085-13.4031-7.5859-19.5156-3.0541-4.6143-6.2836-7.8621-10.6875-11.1875-1.65 0-3.3 0-5 0-0.5943 0.7361-1.1885 1.4721-1.8008 2.2305-7.6225 8.9739-7.6225 8.9739-13.2617 11.707-13.5296 5.0427-28.0323 7.0392-42.25 9.125-1.737 0.2595-3.4739 0.5196-5.2107 0.7803-3.357 0.503-6.7146 1.0025-10.0725 1.4995-4.2938 0.6377-8.5817 1.3082-12.8662 2.0061-20.5322 3.1708-40.9429 4.0038-61.6931 3.9673-2.8391-46e-4-5.6777 22e-4-8.5166 0.0205-29.3007 0.1866-57.6489-2.5359-86.5154-7.6746-3.9754-0.6898-7.956-1.3294-11.9419-1.9546-1.3522-0.2147-2.7043-0.4297-4.0564-0.645-2.5388-0.4024-5.0786-0.7984-7.6196-1.1865-9.8103-1.582-19.9156-3.7009-28.3045-9.3052-3.7378-3.1046-6.8196-6.8214-9.8906-10.5703-1.65 0-3.3 0-5 0z" />    <path transform="translate(126 228)" d="M0 0c8.1694 0.4547 16.2615 1.3409 24.375 2.375 0.9192 0.1138 1.8384 0.2277 2.7854 0.345 5.2499 0.686 10.3686 1.6026 15.5388 2.7448 10.8037 2.2035 21.7574 2.9091 32.7383 3.7227 1.1462 0.0859 2.2924 0.1718 3.4734 0.2603 30.6234 2.254 60.4755 2.0864 91.0891-0.2603 1.0853-0.0825 2.1706-0.165 3.2888-0.25 11.1483-0.8689 22.0863-1.9716 33.0466-4.2083 6.2038-1.2345 12.4614-2.0642 18.7271-2.9167 1.2523-0.1772 2.5046-0.3545 3.7949-0.5371 1.2137-0.1669 2.4273-0.3339 3.6778-0.5059 1.0764-0.1485 2.1529-0.2969 3.2619-0.4499C239.2178-0.0217 242.5646-0.0534 246 0c4.0653 9.2709 3.2666 20.0591 3 30-0.3293 6.908-1.0817 13.3499-3 20-3.0532 0.6514-3.0532 0.6514-7 1-3.4976-0.9404-3.4976-0.9404-7.1484-2.4219-0.6569-0.2606-1.3137-0.5213-1.9904-0.7898-2.0852-0.831-4.1606-1.6837-6.2362-2.5383-2.7351-1.1038-5.4732-2.1999-8.2109-3.2969-0.9904-0.3985-0.9904-0.3985-2.0008-0.8051-18.371-7.3673-38.3226-13.4083-58.2414-12.3941C153.6018 28.8757 153.6018 28.8757 152 29c-2.7693 2.5011-4.8032 4.6085-6.4875 7.9597-3.2325 9.2252-4.9252 18.1927-6.2 27.8528-0.3941 2.8615-0.7963 5.7218-1.1992 8.582-0.0934 0.6764-0.1868 1.3527-0.283 2.0495-0.5086 3.6072-1.1272 7.1444-1.967 10.6888-0.7748 3.4706-1.0778 6.3933-0.9883 9.9297 0.018 0.9397 0.0361 1.8795 0.0547 2.8477 0.0232 0.6896 0.0464 1.3793 0.0703 2.0898 2.1033 1.2098 4.2077 2.4178 6.3125 3.625 0.5756 0.3313 1.1511 0.6626 1.7441 1.0039 8.424 4.8267 16.9891 9.4001 25.531 14.0134C201.6996 137.5366 201.6996 137.5366 211 144c1.6576 1.0149 3.3192 2.024 5 3 0 0.66 0 1.32 0 2-5.6474 0.2072-10.3757-0.3513-15.7852-2.0625-0.7264-0.2219-1.4529-0.4438-2.2014-0.6724-9.7638-3.0389-19.3392-6.6339-28.9267-10.1811-8.8805-3.2774-17.7515-6.4093-26.8719-8.959-1.0864-0.3048-1.0864-0.3048-2.1949-0.6157-9.5327-2.5766-18.1295-3.1688-27.8207-1.3101-8.1954 1.6362-15.9952 4.1476-23.8867 6.8633-1.4279 0.4835-2.8559 0.9664-4.2842 1.4487-10.8162 3.6677-21.5804 7.4849-32.3083 11.4031-1.0781 0.3918-2.1561 0.7836-3.2669 1.1873-0.9368 0.3437-1.8736 0.6874-2.8388 1.0415-4.0037 1.3123-7.7184 1.9907-11.9268 1.9194C31.8622 149.0316 31.8622 149.0316 30 149c0.66-1.32 1.32-2.64 2-4 1.8229-0.8789 3.6458-1.7578 5.4688-2.6367 2.0555-1.1071 3.9784-2.2706 5.9414-3.5274 5.3982-3.4082 11.0145-6.423 16.6158-9.4799 8.8383-4.8248 17.654-9.6688 26.2865-14.856 6.7236-4.039 13.6322-7.5823 20.6875-11.0039 2.8158-1.2062 2.8158-1.2062 4-2.4961 0.3573-7.6582-0.996-14.9106-2.3125-22.4375-0.2328-1.3513-0.4651-2.7027-0.697-4.0542-0.4552-2.6474-0.9142-5.294-1.3753-7.9404-0.5106-2.9615-1.0016-5.9244-1.4746-8.8921-1.9995-13.6644-1.9995-13.6644-7.7656-26C96.9213 31.1228 96.4675 30.5698 96 30c-6.585-2.195-14.1541-1.6556-21-1-17.6274 2.851-34.6271 8.7495-51.1055 15.4805-1.033 0.4179-2.066 0.8358-3.1303 1.2663-2.0032 0.8159-4.0001 1.6474-5.9893 2.4966-6.7036 2.7453-6.7036 2.7453-9.9951 2.78C2.832 50.75 2.832 50.75 0 50c-2.6611-8.693-3.1819-16.7449-3.1875-25.8125-0.0122-1.0293-0.0245-2.0586-0.0371-3.1191C-3.2371 14.5101-2.7169 8.3482-1 2c0.33-0.66 0.66-1.32 1-2z" />    <path transform="translate(321.8125 433.75)" d="M0 0c1.5633-0.0309 1.5633-0.0309 3.1582-0.0625C9.636-0.095 15.2752 0.4593 21.1875 3.25c2.9571 1.9011 5.3228 4.0004 7.3125 6.9375 1.9468 5.8403 2.1967 11.9618 1.6875 18.0625-0.6036 2.9413-1.4743 5.4109-3 8-3.0138 3.229-5.7203 5.0886-9.8125 6.6875-11.1294 3.2976-24.6856 4.453-36.1875 3.3125-5.064-1.2234-9.4318-3.0454-13.875-5.75-3.6717-3.8877-6.2433-7.8684-8.1055-12.8984-1.7708-5.936-2.3233-11.1749-2.0195-17.3516 5.3427-3.0692 10.7398-4.9628 16.625-6.6875 1.0924-0.3213 1.0924-0.3213 2.2068-0.6492C-15.9128 0.6091-8.3758 0.041 0 0z" />    <path transform="translate(172.9375 433.5625)" d="M0 0c1.0027 68e-4 2.0055 0.0137 3.0386 0.0208 14.1774 0.3005 27.049 3.8233 40.0239 9.4167 0.4382 7.657 0.2944 14.343-2.6758 21.4922-2.1866 4.141-4.7658 7.4598-8.3242 10.5078-3.7632 2.4197-7.5982 4.1516-12 5-13.0684 0.7687-27.589 0.1311-39.8242-4.8633-3.0414-1.5889-5.0804-3.4329-7.1758-6.1367-1.1016-1.6328-1.1016-1.6328-2-4-0.2188-2.8362-0.3247-5.5414-0.3125-8.375-0.0161-0.7425-0.0322-1.485-0.0488-2.25-33e-4-3.7387 0.3005-6.2238 1.7168-9.7461 1.6554-2.6463 3.3824-4.6382 5.8694-6.5395C-14.995 0.4044-7.6942-0.0815 0 0z" />    <path transform="translate(112 276)" d="M0 0c2.4818 1.0293 4.0415 2.0421 5.9419 3.9697 0.6817 0.7989 1.3635 1.5978 2.0659 2.4209 3.4464 3.927 7.002 7.6896 10.7344 11.3438 0.496 0.4867 0.9919 0.9735 1.5029 1.475 1.0213 1.0017 2.0429 2.003 3.0648 3.004C47.3875 45.8525 47.3875 45.8525 53.25 58.75c1.289 5.5858 1.2747 10.5806 0.168 16.2109-1.629 5.7868-3.8326 9.9977-7.793 14.5391C42.3296 92.888 39.1132 95.6797 35 98c-4.3319-0.304-7.3644-0.7002-11.3125-2.5625C22.4447 94.6461 21.2169 93.8308 20 93c-1.1486-0.7502-1.1486-0.7502-2.3203-1.5156-6.1757-4.2401-11.728-9.051-17.2422-14.1094-0.7031-0.6333-1.4062-1.2667-2.1306-1.9192-3.109-2.9092-5.0904-4.9444-6.7717-8.9167C-8.6414 65.7012-8.818 64.8633-9 64c1.98 0 3.96 0 6 0 0.5453 0.7373 1.0905 1.4747 1.6523 2.2344 2.4303 2.8629 4.8586 4.84 7.9102 7.0156 0.95 0.6858 1.9001 1.3716 2.8789 2.0781C11.9579 77.1272 11.9579 77.1272 15 78c0.593 0.6136 1.1859 1.2272 1.7969 1.8594 2.6042 2.5303 5.1844 3.8273 8.4531 5.3906 1.0777 0.5208 2.1553 1.0416 3.2656 1.5781C29.3355 87.2148 30.1553 87.6016 31 88c2.475-0.495 2.475-0.495 5-1 4.5175-7.5892 4.5175-7.5892 7-16 0.0642-5.3394-0.3958-10.3164-2.6875-15.1875C37.9488 51.6437 35.2854 47.4989 32 44c-2.0895-1.2231-2.0895-1.2231-4-2-0.3313-0.6497-0.6626-1.2994-1.0039-1.9687-2.8354-4.3059-6.3622-7.8288-9.9336-11.5313C6.2283 17.2074 6.2283 17.2074 2.25 10.6875 1.822 9.9901 1.3941 9.2927 0.9531 8.5742 0.6386 8.0547 0.3241 7.5352 0 7 0 4.69 0 2.38 0 0z" />    <path transform="translate(384 276)" d="M0 0c0.66 0 1.32 0 2 0 0 2.31 0 4.62 0 7-4.3289 7.0281-9.3789 12.9773-15 19-1.0244 1.115-2.0478 2.2309-3.0703 3.3477-8.1656 8.902-8.1656 8.902-11.5313 12.207C-32.5583 46.6083-37.237 52.5597-40 59.125c-1.3417 4.3232-1.6543 8.3955-1 12.875 1.4008 5.2226 3.124 9.759 6.25 14.1875 0.5775 0.5981 1.155 1.1963 1.75 1.8125 2.6148-0.0594 4.4984-0.2699 7-1 4.1248-2.1369 8.0688-4.5276 12-7 0.33-0.66 0.66-1.32 1-2 0.5569-0.2797 1.1137-0.5595 1.6875-0.8477C-5.5413 74.1205-0.5924 70.651 4 66c0.33-0.66 0.66-1.32 1-2 1.65 0 3.3 0 5 0-0.3778 2.7005-0.7761 4.657-2.2773 6.957-4.1362 4.6228-8.5623 8.5103-13.4883 12.2813-2.1726 1.6397-2.1726 1.6397-3.6992 3.2383-2.1183 2.102-4.4498 3.8116-6.8477 5.5859-0.9243 0.6922-1.8485 1.3845-2.8008 2.0977C-22.0613 96.0391-24.6286 97.1099-28 98c-3.375 0-3.375 0-7-1-4.7143-2.5631-8.1983-5.9025-11.3125-10.25-3.3607-5.4669-5.2113-10.9288-6.0039-17.2891-0.2037-4.2456 0.1961-7.87 1.7539-11.8359 6.6504-13.2311 17.8778-23.9927 28.2734-34.3203 0.5122-0.5094 1.0245-1.0188 1.5522-1.5437 2.6092-2.5928 5.2251-5.1782 7.8526-7.7525 0.9824-0.9701 1.9647-1.9404 2.9468-2.9108 0.8779-0.8611 1.7557-1.7221 2.6602-2.6092C-5.1058 6.1156-3.5374 3.8149-2 1c0.66-0.33 1.32-0.66 2-1z" />    <path transform="translate(260.511719 422.730469)" d="M0 0c3.7724 1.1368 7.1597 2.278 10.3359 4.6484 1.4024 1.3711 1.4024 1.3711 3.1524 3.6211 0 2.64 0 5.28 0 8-2.1189 2.529-3.9313 4.4512-6.8789 5.9649-7.5688 2.8017-15.5587 3.3666-23.5625 2.7851-6.615-0.8585-11.8429-2.299-17.5586-5.75-0.66-0.66-1.32-1.32-2-2 0-2.97 0-5.94 0-9 2.2368-2.8758 4.1693-4.584 7.4414-6.2226C-19.605-1.5461-9.874-2.0539 0 0z" />    <path transform="translate(404 343)" d="M0 0c1.98 0 3.96 0 6 0 1.1484 1.2894 2.2937 2.5816 3.4375 3.875 0.9571 1.0789 0.9571 1.0789 1.9336 2.1797C13 8 13 8 14 10c0.0402 2.333 0.0432 4.6671 0 7C8.7809 23.4381 3.5143 29.812-2 36c-5.1903-1.6175-9.0677-4.8551-13.3125-8.125-0.7406-0.5633-1.4811-1.1266-2.2441-1.707C-19.375 24.7837-21.1892 23.3943-23 22c3.9256-4.7689 8.0505-9.103 12.625-13.25 0.5595-0.5156 1.1189-1.0312 1.6953-1.5625C-5.8872 4.6321-3.0884 2.1996 0 0z" />    <path transform="translate(88 343)" d="M0 0c1.98 0 3.96 0 6 0 2.64 2.31 5.28 4.62 8 7 0 0.66 0 1.32 0 2 0.8276 0.3519 0.8276 0.3519 1.6719 0.7109 2.9214 1.6176 5.1238 3.6536 7.5781 5.9141 0.892 0.8173 1.7841 1.6345 2.7031 2.4766C26.9663 19.0413 26.9663 19.0413 28 20c-0.33 1.32-0.66 2.64-1 4-2.2246 1.6316-4.4543 3.2553-6.6875 4.875-0.6258 0.4602-1.2517 0.9204-1.8965 1.3945C15.0532 32.6992 11.9786 34.6763 8 36-3.7062 23.5148-3.7062 23.5148-8 17c0-2.31 0-4.62 0-7 2.3818-3.7428 4.7448-6.9773 8-10z" />    <path transform="translate(246.382813 32.902344)" d="M0 0c0.9049 0.0116 1.8098 0.0232 2.7422 0.0352 0.9101 9e-3 1.8201 0.018 2.7578 0.0273 0.6987 0.0116 1.3973 0.0232 2.1172 0.0352 4.875 3.75 4.875 3.75 6 6 0.0699 1.707 0.0844 3.4166 0.0625 5.125-9e-3 0.91-0.0181 1.8201-0.0274 2.7578-0.0116 0.6986-0.0232 1.3973-0.0351 2.1172-1.32 1.65-2.64 3.3-4 5-2.64 0.66-5.28 1.32-8 2-5.1758-1.9532-5.1758-1.9532-7-3-0.99-1.32-1.98-2.64-3-4 0-3.3 0-6.6 0-10C-3.8125 0.1563-3.8125 0.1563 0 0z" />    <path fill="#272727" paint-order="stroke" transform="translate(218 11)" d="M0 0c20.46 0 40.92 0 62 0 8.1053 9.2632 8.1053 9.2632 10 14 0.3543 1.6623 0.691 3.3286 1 5 1.1537 0.2823 2.3074 0.5646 3.4961 0.8555 23.5308 6.1911 46.4454 18.9048 65.1645 34.5307C145.21 57.4852 148.6089 60.7296 152 64c0.8018 0.7386 1.6036 1.4773 2.4297 2.2383C160.7015 72.1738 165.2818 78.81 170 86c0.9958 1.4328 0.9958 1.4328 2.0117 2.8945 12.2022 19.0584 16.6526 44.1924 19.2998 66.323 0.2448 2.1774 0.479 4.3559 0.7012 6.5357 0.5198 5.007 1.0928 9.5306 2.9873 14.2468 0.7593 0.5427 1.5185 1.0854 2.3008 1.6445 0.9938 0.7155 1.9877 1.4309 3.0117 2.168 1.4792 1.0615 1.4792 1.0615 2.9883 2.1445 5.1493 3.8974 8.492 8.4535 11.6992 14.043 4.0142 9.0416 6.409 18.1365 6.1875 28.0469-0.7312 11.5157-3.1992 21.9217-8.875 32.0156-3.6969 5.915-8.3913 11.0163-13.3125 15.9375 0.6146 23.2234 0.6146 23.2234 6.0376 45.4282 2.154 3.6793 4.8793 6.777 7.6885 9.9644 3.6862 4.6512 5.9748 10.3835 8.4131 15.7568 0.7679 1.651 1.6123 3.2659 2.4663 4.874 3.5458 7.4095 3.8981 14.3421 3.957 22.4766-0.0998 9.1156-0.7012 17.1296-4.5625 25.5-0.3506 0.7979-0.7012 1.5959-1.0625 2.418-4.5783 9.2361-12.2312 16.4607-20.2969 22.6875-4.4186 3.1701-8.9959 6.0688-13.6406 8.8945-0.2939 0.874-0.2939 0.874-0.5937 1.7656-5.0409 13.819-14.7312 25.7834-25.2149 35.961-10.1925 8.9339-21.8503 15.8298-34.9336 19.5195-1.0751 0.2488-2.1501 0.4976-3.2578 0.7539-0.6607 0.1737-1.3215 0.3474-2.0022 0.5264-7.5686 1.7978-15.1478 1.8459-22.8818 1.8442-2.2823 44e-4-4.5626 0.0407-6.8445 0.0786-12.453 0.0956-23.1723-2.0509-34.6465-7.1367-5.1677-2.7235-8.9562-6.1636-12.8828-10.457C43.1243 470.918 43.1243 470.918 41 470c-0.99-3.96-1.98-7.92-3-12-4.62 0-9.24 0-14 0-0.99 3.96-1.98 7.92-3 12-2.6456 2.3621-5.3089 4.6907-8 7-0.9011 0.8044-0.9011 0.8044-1.8203 1.625-7.3821 6.1358-16.8489 8.6805-26.0386 10.9454-5.4858 1.1006-11.1878 0.8014-16.7644 0.8002-2.278 43e-4-4.5541 0.0406-6.8318 0.0786-12.939 0.0979-25.9543-1.8386-37.9043-7.082-16.2728-8.4253-28.6829-18.9749-39.6845-33.5845-4.6974-6.465-7.8937-13.433-10.9561-20.7827-0.7992-0.4499-1.5984-0.8998-2.4219-1.3633-10.5658-6.1882-20.3664-13.5498-27.4101-23.7539-4.592-7.4025-7.5634-15.1847-8.489-23.9084-0.1508-3.1232-0.1982-6.2227-0.179-9.3494 64e-4-1.1027 0.0129-2.2054 0.0195-3.3416 0.16-7.1186 0.7795-12.7915 3.875-19.26 0.7947-1.4966 0.7947-1.4966 1.6055-3.0234 0.5935-1.2758 1.1803-2.5546 1.7617-3.8359 2.8932-6.2291 5.8604-11.8696 10.2161-17.201 2.8882-3.5717 5.4183-6.8979 6.7229-11.3591 1.0869-5.3024 1.6224-10.6479 2.0713-16.0371 0.3422-3.8527 0.8893-7.6733 1.4155-11.5044 0.5688-4.3981 0.9005-8.627 0.8125-13.0625-0.4241-0.3893-0.8482-0.7786-1.2852-1.1797-7.4095-7.0675-12.9184-14.9154-16.6484-24.4805-3.0678-9.6079-5.2821-20.2626-4.0664-30.3398 1.676-9.029 3.8782-17.2589 9-25 0.5569-1.0313 1.1137-2.0625 1.6875-3.125 4.2864-5.329 10.2152-8.8876 16.3125-11.875 0.12-0.9952 0.2401-1.9903 0.3638-3.0156 2.3979-19.6661 5.0241-38.9295 10.6362-57.9844 0.2277-0.8194 0.4554-1.6387 0.6899-2.4829C-117.0175 100.7247-112.0794 90.977-105 81c0.9378-1.3322 0.9378-1.3322 1.8945-2.6914C-86.7865 56.7277-64.8156 42.1024-41 30c1.1163-0.5711 2.2327-1.1421 3.3828-1.7305C-29.0387 24.0878-20.1801 21.4847-11 19c0.1702-0.5801 0.3403-1.1602 0.5156-1.7578C-8.9344 12.2461-7.2228 8.1995-4 4c1.32-1.32 2.64-2.64 4-4zM6 16c22e-4 0.7384 44e-4 1.4767 67e-4 2.2375 0.0201 6.9735 0.0353 13.9471 0.0451 20.9207 52e-4 3.5848 0.0123 7.1696 0.0236 10.7544 0.0109 3.4624 0.0169 6.9248 0.0195 10.3872 27e-4 1.9575 0.0105 3.915 0.0184 5.8725 1e-4 1.2008 1e-4 2.4016 2e-4 3.6387 22e-4 1.0526 45e-4 2.1052 68e-4 3.1896C5.997 76.0746 5.5697 78.9795 5 82c-0.33 0-0.66 0-1 0-2.31-15.51-4.62-31.02-7-47-12.5895 1.0491-21.1612 3.5516-31.8477 9.832-2.2166 1.2029-4.4082 2.0583-6.7773 2.918-16.7065 6.4536-30.5763 18.4542-42.6763 31.3604C-89.0412 84.383-93.1335 90.0664-97 96c-0.5682 0.8585-0.5682 0.8585-1.1479 1.7344C-105.3832 108.9557-108.8055 121.9119-111 135c-0.1598 2.3847-0.1343 4.6096 0 7 0.6755 0.7876 1.3509 1.5752 2.0469 2.3867 5.4374 6.5568 9.1189 12.2649 11.332 20.6406 1.2472 5.9692 1.8694 11.7699 2.1836 17.8477 0.0432 0.7837 0.0864 1.5675 0.1309 2.375 0.1051 1.9165 0.2063 3.8332 0.3066 5.75 23.9237 14.2283 54.683 14.6306 81.7158 17.0034C-8.5258 208.3901-3.7654 208.7131 1 209c0.9157 0.0564 1.8314 0.1128 2.7749 0.1709C9.8477 209.533 15.9195 209.8073 22 210c0.6888 0.0234 1.3777 0.0467 2.0874 0.0708C49.0649 210.8013 74.2126 208.2651 99 205.5c1.4534-0.1613 1.4534-0.1613 2.9362-0.3258 13.6923-1.5326 26.8477-3.1307 39.9388-7.6117 0.9101-0.2997 1.8202-0.5994 2.7578-0.9082 4.4393-1.496 8.4682-2.987 12.3672-5.6543 0.049-1.1112 0.098-2.2223 0.1484-3.3672 0.5648-11.6987 1.2494-23.0765 6.8516-33.6328 2.8397-4.1394 5.8535-8.0871 9-12-1.1054-14.1571-4.1767-28.1634-11-40.707-6.8252-11.2376-14.8919-20.8456-24-30.293-0.5904-0.6652-1.1808-1.3303-1.7891-2.0156-8.5768-9.4125-20.9466-15.7785-32.3086-21.0928-2.0992-0.9839-4.1882-1.9878-6.2773-2.9932-1.4996-0.717-2.9996-1.4331-4.5-2.1484-0.6895-0.3295-1.379-0.659-2.0894-0.9985-6.7537-3.1793-12.987-6.0101-20.5356-6.439-1.0416-0.0657-2.0831-0.1315-3.1563-0.1992C66.5703 35.0759 65.7969 35.0385 65 35c-2.542 15.6371-4.7903 31.3128-7 47-0.33 0-0.66 0-1 0-0.878-3.8006-1.1498-7.3619-1.2053-11.259-0.02-1.2409-0.0399-2.4819-0.0605-3.7604-0.0169-1.3438-0.0338-2.6876-0.0506-4.0314-0.0206-1.3829-0.0416-2.7658-0.063-4.1487-0.055-3.6282-0.1045-7.2564-0.1528-10.8847-0.0504-3.707-0.106-7.4139-0.1612-11.1209C55.1993 29.53 55.0978 22.265 55 15c-2.7225-0.9075-4.3319-1.1306-7.1326-1.1453-0.8277-63e-4-1.6554-0.0127-2.5083-0.0193-1.336-17e-4-1.336-17e-4-2.6989-34e-4-0.9185-33e-4-1.837-66e-4-2.7834-0.0101-1.9426-5e-3-3.8851-74e-4-5.8277-72e-4-2.9716-22e-4-5.9428-0.0204-8.9143-0.0393-1.8874-29e-4-3.7748-49e-4-5.6621-59e-4-0.8887-72e-4-1.7773-0.0143-2.6929-0.0217-1.2463 46e-4-1.2463 46e-4-2.5178 93e-4-1.0923-22e-4-1.0923-22e-4-2.2067-43e-4C9.6895 14.0373 8.0596 14.83 6 16zM-126 189c-5.4767 3.8745-9.0917 8.2328-12.375 14-0.3332 0.5809-0.6664 1.1618-1.0098 1.7603-2.6156 4.7841-4.312 9.5147-4.916 14.9428-0.0347 7.5518 0.9811 14.2335 4.1475 21.145 4.0011 8.2204 8.1488 16.2414 15.4658 22.0269 1.3303 1.0519 1.3303 1.0519 2.6875 2.125 0.2561 7.1872-0.7355 14.028-1.8125 21.125-1.6021 10.6231-1.6021 10.6231-2.9102 21.2852-0.1117 0.9801-0.2234 1.9603-0.3386 2.9702-0.2019 1.8068-0.3858 3.6158-0.5473 5.4267-0.4119 3.533-0.9563 6.3823-2.6497 9.5371-1.5097 2.2803-3.0982 4.4704-4.7417 6.6558-0.8844 1.2765-1.7624 2.5576-2.6328 3.8438-0.4119 0.6019-0.8237 1.2038-1.2481 1.8239-3.9885 5.8741-7.7889 11.5721-10.1191 18.3323-0.4125 1.1963-0.825 2.3925-1.25 3.625-1.6212 7.4811-1.708 15.4138 0.0898 22.8477 2.7433 7.7494 6.6904 14.3948 12.1602 20.5273 6.8448 6.6658 14.3046 11.1303 23 15 0.3171 0.9204 0.6342 1.8408 0.9609 2.7891 5.1381 14.2188 13.155 24.985 23.9422 35.5061 8.8668 8.3977 17.6467 12.4679 29.1999 16.1223 13.5481 4.1603 29.2091 5.0456 43.2642 3.1216C-10.4637 473.9563-4.0909 471.0988 2 467c2.9283-2.8551 4.9097-6.0184 6.4727-9.8203C9.5928 452.5496 9.2096 447.7274 9 443c0.5827 0.0707 1.1653 0.1415 1.7656 0.2144 6.763 0.7563 13.4332 0.9365 20.2344 0.9106 1.0158 39e-4 2.0316 77e-4 3.0781 0.0117C40.4449 444.1286 46.6795 443.7673 53 443c-0.0464 0.7618-0.0928 1.5237-0.1406 2.3086-0.177 5.0636-0.25 9.7226 1.5781 14.5039 1.7139 3.2965 3.7445 5.5861 6.5625 8 5.8793 4.1953 12.4399 6.055 19.375 7.7773 14.5457 2.2728 30.7363 0.3648 44.7373-3.8264 9.0983-2.9258 16.7824-6.1937 23.8877-12.7634 0.772-0.7002 0.772-0.7002 1.5596-1.4146 9.7345-8.9162 18.0908-18.5005 23.1906-30.8359 1.1415-2.8978 2.2138-5.8123 3.2498-8.7495 0.8224-0.4125 1.6448-0.825 2.4922-1.25 9.3515-4.8378 17.7307-9.7684 24.2004-18.3372C208.179 392.1034 211.5509 385.661 213 378c0.7508-7.6911 0.4018-15.3427-1.6992-22.8008-4.0979-10.0785-11.0012-19.1934-17.7071-27.6719-3.4619-5.4898-4.0632-11.9539-4.8476-18.2773-0.1058-0.8169-0.2116-1.6339-0.3205-2.4756-0.3344-2.5908-0.6615-5.1826-0.9881-7.7744-0.3319-2.5916-0.6653-5.183-0.9988-7.7744-0.206-1.606-0.4109-3.2121-0.6144-4.8184-0.4362-3.439-0.8914-6.8709-1.3883-10.302-0.5293-3.7695-0.5027-7.3053-0.436-11.1052 1.4541-1.0519 1.4541-1.0519 2.9375-2.125 7.3172-6.2931 12.2818-15.6116 16.0625-24.375 2.4805-6.1325 3.3721-12.2068 3.2734-18.7969-0.7264-7.1817-3.9085-13.4031-7.5859-19.5156-3.0541-4.6143-6.2836-7.8621-10.6875-11.1875-1.65 0-3.3 0-5 0-0.5943 0.7361-1.1885 1.4721-1.8008 2.2305-7.6225 8.9739-7.6225 8.9739-13.2617 11.707-13.5296 5.0427-28.0323 7.0392-42.25 9.125-1.737 0.2595-3.4739 0.5196-5.2107 0.7803-3.357 0.503-6.7146 1.0025-10.0725 1.4995-4.2938 0.6377-8.5817 1.3082-12.8662 2.0061-20.5322 3.1708-40.9429 4.0038-61.6931 3.9673-2.8391-46e-4-5.6777 22e-4-8.5166 0.0205-29.3007 0.1866-57.6489-2.5359-86.5154-7.6746-3.9754-0.6898-7.956-1.3294-11.9419-1.9546-1.3522-0.2147-2.7043-0.4297-4.0564-0.645-2.5388-0.4024-5.0786-0.7984-7.6196-1.1865-9.8103-1.582-19.9156-3.7009-28.3045-9.3052-3.7378-3.1046-6.8196-6.8214-9.8906-10.5703-1.65 0-3.3 0-5 0z" /></svg>