<svg viewBox="0 0 512 512" fill="#a9675c" width="200" height="200" version="1.1" xmlns="http://www.w3.org/2000/svg" xmlns:xlink="http://www.w3.org/1999/xlink">  <path fill="#eff1e5" d="M165.0288 35.567c3.4188-0.033 6.8374-0.0573 10.2563-0.0766 0.9724-0.0102 1.9449-0.0205 2.9468-0.0311 2.5388-0.0107 5.0777 0.0443 7.6157 0.1077 1.2124 0.6062 1.2124 0.6062 2.4493 1.2246 0 3.6372 0 7.2743 0 11.0217 35.5634 0 71.1268 0 107.7679 0 0.4042-2.8289 0.8083-5.6578 1.2247-8.5724 1.6165-0.4042 3.233-0.8083 4.8985-1.2247 1.2124 1.2124 1.2124 1.2124 2.4493 2.4493 0 2.4248 0 4.8496 0 7.3478 12.528 0 25.056 0 37.9637 0 0.4041 2.0207 0.8083 4.0413 1.2246 6.1232-0.4041 0.4041-0.8082 0.8083-1.2246 1.2246-12.528 0-25.056 0-37.9637 0 0 2.4248 0 4.8496 0 7.3479-0.4041 0.8082-0.8083 1.6165-1.2246 2.4492-2.0207 0-4.0413 0-6.1232 0-0.4042-0.8082-0.8083-1.6165-1.2247-2.4492 0-2.4248 0-4.8496 0-7.3479-35.5634 0-71.1268 0-107.7679 0 0 3.6372 0 7.2744 0 11.0218-0.4042 0.4041-0.8083 0.8082-1.2247 1.2246-7.2743 0-14.5486 0-22.0434 0-1.2124-2.4248-1.2124-2.4248-2.4493-4.8985-0.8083 0-1.6165 0-2.4493 0 0 35.9675 0 71.9351 0 108.9926 3.6372 0 7.2744 0 11.0218 0 0.4041 0.4041 0.8082 0.8082 1.2246 1.2246 0 14.5487 0 29.0974 0 44.0869-0.4041 0.4041-0.8083 0.8083-1.2246 1.2246 32.425 1.9192 64.8501 3.8354 97.2755 5.7483 15.0556 0.8882 30.1111 1.7773 45.1664 2.6687 13.1219 0.7769 26.2438 1.5521 39.3659 2.3251 6.9483 0.4093 13.8967 0.8196 20.8448 1.232 6.5405 0.3882 13.081 0.7739 19.6217 1.1579 2.3998 0.1413 4.7995 0.2835 7.1992 0.4266 3.2788 0.1954 6.5579 0.3877 9.837 0.5792 0.9471 0.0571 1.8942 0.1143 2.87 0.1732 5.4167 0.3125 10.7918 0.4368 16.2177 0.3847 1.8186-1.2124 1.8186-1.2124 3.6739-2.4493 13.8761 0.6876 27.6672 1.7772 41.4794 3.2754 3.0424 0.3276 6.0861 0.6395 9.1301 0.951 1.9543 0.2088 3.9084 0.4184 5.8625 0.6291 1.3508 0.136 1.3508 0.136 2.7289 0.2747 3.5693 0.3994 6.6666 0.8807 9.9823 2.2968 0.6091 0.378 1.2182 0.756 1.8457 1.1455 0.4041 0.8082 0.8082 1.6165 1.2246 2.4492 0.1037 2.2208 0.1313 4.4454 0.1196 6.6686-39e-4 1.3181-79e-4 2.6363-0.012 3.9944-0.0102 1.3813-0.0205 2.7626-0.0311 4.1857-55e-4 1.3908-0.011 2.7816-0.0167 4.2145-0.0145 3.4428-0.0346 6.8854-0.0598 10.3281-0.8083 1.2124-1.6165 2.4248-2.4493 3.6739-11.6794 2.1773-23.4072 3.5057-35.2157 4.7269-3.1468 0.3264-6.2924 0.6624-9.438 0.9992-2.0259 0.2127-4.0518 0.4248-6.0778 0.6363-0.9276 0.0994-1.8551 0.1989-2.8108 0.3014-5.4536 0.5565-10.7799 0.777-16.2619 0.684-1.2124-0.8082-2.4248-1.6165-3.6739-2.4493-26.2294 0.9194-52.4171 2.5125-78.6146 4.069-6.3397 0.3762-12.6795 0.7493-19.0194 1.1229-11.9567 0.7049-23.9132 1.4123-35.8697 2.1207-13.6327 0.8076-27.2656 1.6123-40.8985 2.4168-27.9989 1.6522-55.9975 3.308-83.996 4.9663 0.4041 0.4041 0.8082 0.8082 1.2246 1.2246 0 14.5487 0 29.0974 0 44.0869-0.4041 0.4041-0.8083 0.8083-1.2246 1.2246-3.6372 0-7.2744 0-11.0218 0 0 35.9676 0 71.9352 0 108.9927 0.8083 0 1.6166 0 2.4493 0 0.8083-1.6166 1.6165-3.2331 2.4493-4.8986 7.2743 0 14.5487 0 22.0434 0 0.4042 0.4041 0.8083 0.8083 1.2247 1.2246 0 3.6372 0 7.2744 0 11.0218 35.5634 0 71.1268 0 107.7679 0 0-2.4248 0-4.8496 0-7.3478 0.4042-0.8083 0.8083-1.6166 1.2247-2.4493 2.0206 0 4.0413 0 6.1232 0 0.4041 0.8082 0.8082 1.6165 1.2246 2.4493 0 2.4247 0 4.8495 0 7.3478 12.528 0 25.056 0 37.9637 0 0.4041 2.0206 0.8083 4.0413 1.2246 6.1232-0.4041 0.4041-0.8082 0.8082-1.2246 1.2246-12.528 0-25.056 0-37.9637 0 0 2.4248 0 4.8495 0 7.3478-0.8083 0.8083-1.6165 1.6165-2.4493 2.4493-1.6165-0.4042-3.233-0.8083-4.8985-1.2247-0.4042-2.8289-0.8083-5.6578-1.2247-8.5724-35.5634 0-71.1268 0-107.7679 0 0 3.6372 0 7.2743 0 11.0217-0.8083 0.4041-1.6166 0.8083-2.4493 1.2246-3.5315 0.0882-7.0324 0.1138-10.5625 0.0766-0.9819-55e-4-1.9638-0.0111-2.9755-0.0168-2.427-0.0144-4.8539-0.0364-7.2808-0.0598-0.8083-1.6165-1.6165-3.233-2.4493-4.8985-0.8998 27e-4-1.7995 54e-4-2.7265 82e-4-8.4696 0.0246-16.9391 0.0432-25.4087 0.0553-4.3545 64e-4-8.709 0.015-13.0635 0.0289-5.0034 0.0158-10.0068 0.0218-15.0102 0.0272-2.3517 95e-4-2.3517 95e-4-4.7509 0.0192-1.4464 0-2.8928 1e-4-4.383 2e-4-1.2782 28e-4-2.5563 55e-4-3.8732 83e-4-1.5036-0.0729-1.5036-0.0729-3.0375-0.1473-0.8083-0.4041-1.6165-0.8083-2.4493-1.2246 0-2.0207 0-4.0413 0-6.1232-2.0206 0-4.0413 0-6.1232 0-0.4041 2.0206-0.8082 4.0413-1.2246 6.1232-2.0207 0-4.0413 0-6.1232 0 0-6.4661 0-12.9322 0-19.5942 1.6165-0.4041 3.2331-0.8083 4.8986-1.2246 0.8082 0.8082 1.6165 1.6165 2.4492 2.4492 0 1.6165 0 3.2331 0 4.8986 2.0207 0 4.0413 0 6.1232 0-2.449-12.4017-5.5938-24.4998-9.0519-36.6501-0.896-3.1501-1.7843-6.3022-2.6707-9.455-2.5175-8.9493-5.0474-17.8952-7.5842-26.8391-1.5607-5.5043-3.1121-11.0112-4.6579-16.5198-0.5876-2.0868-1.1789-4.1726-1.7739-6.2573-0.8295-2.9066-1.6472-5.8162-2.4624-8.7268-0.2462-0.8513-0.4923-1.7026-0.7459-2.5797-1.3457-4.8588-1.9155-9.1742-1.669-14.2112 0.8083-0.8083 1.6165-1.6165 2.4493-2.4493-16.1652-0.4041-32.3304-0.8082-48.9855-1.2246-0.4041-0.4041-0.8082-0.8083-1.2246-1.2246 0-8.8909 0-17.7818 0-26.942 0.4041-0.4042 0.8083-0.8083 1.2246-1.2247 13.3363-0.4041 26.6726-0.8082 40.413-1.2246-4.0413-5.2537-8.0826-10.5074-12.2463-15.9203 0-19.3982 0-38.7964 0-58.7825 4.0413-5.2537 8.0826-10.5074 12.2463-15.9203-13.3363-0.4041-26.6725-0.8082-40.413-1.2246-0.4041-0.4041-0.8082-0.8083-1.2246-1.2246 0-8.8909 0-17.7818 0-26.942 0.6062-0.6062 0.6062-0.6062 1.2246-1.2247 16.1652-0.4041 32.3304-0.8082 48.9855-1.2246-1.2124-1.2124-1.2124-1.2124-2.4493-2.4493 0.716-9.9493 3.2443-19.1661 5.951-28.7359 0.4785-1.7159 0.9563-3.432 1.4334-5.1483 1.2544-4.5054 2.519-9.0078 3.7859-13.5096 1.2673-4.5097 2.5251-9.0221 3.7837-13.5342 7.1962-25.7802 7.1962-25.7802 10.3448-36.8378 0.2879-1.0176 0.5758-2.0353 0.8725-3.0839 0.4994-1.7639 1.0029-3.5267 1.5121-5.2879 1.4194-5.0304 2.2925-9.9277 2.9325-15.1014-2.0206 0-4.0413 0-6.1232 0-0.6062 3.031-0.6062 3.031-1.2246 6.1232-1.6165 0.4042-3.233 0.8083-4.8986 1.2247-0.4041-0.4042-0.8082-0.8083-1.2246-1.2247 0-6.4661 0-12.9321 0-19.5942 2.0207 0 4.0413 0 6.1232 0 0.6062 3.031 0.6062 3.031 1.2246 6.1232 2.0207 0 4.0413 0 6.1232 0 0-2.0206 0-4.0413 0-6.1232 0.8083-0.4041 1.6165-0.8082 2.4493-1.2246 2.3013-0.1116 4.6067-0.1439 6.9107-0.139 1.4464 1e-4 2.8928 2e-4 4.383 3e-4 1.5678 63e-4 3.1356 0.0126 4.7509 0.0191 1.6003 18e-4 3.2006 35e-4 4.8493 53e-4 4.2561 46e-4 8.5122 0.0167 12.7682 0.0302 4.3424 0.0125 8.6848 0.0181 13.0271 0.0243 8.5215 0.0132 17.0429 0.0341 25.5643 0.0598 0.8083-1.6165 1.6165-3.233 2.4493-4.8985zM169.9273 42.9148c0 5.6578 0 11.3156 0 17.1449 3.6372 0 7.2744 0 11.0217 0 0-5.6578 0-11.3156 0-17.1449-3.6371 0-7.2743 0-11.0217 0zM95.2245 49.038c0 2.0206 0 4.0413 0 6.1231 22.2272 0 44.4543 0 67.355 0 0-2.0206 0-4.0413 0-6.1231-22.2271 0-44.4543 0-67.355 0zM74.4057 175.1755M100.1231 178.8494c0 10.5074 0 21.0147 0 31.8405 1.2124 0 2.4247 0 3.6739 0 0-10.5074 0-21.0147 0-31.8405-1.2124 0-2.4248 0-3.6739 0zM111.1448 178.8494c0 10.5074 0 21.0147 0 31.8405 12.9321 0 25.8643 0 39.1883 0 0-10.5074 0-21.0147 0-31.8405-12.9321 0-25.8643 0-39.1883 0zM157.681 178.8494c0 10.5074 0 21.0147 0 31.8405 2.4247 0 4.8495 0 7.3478 0 0-10.5074 0-21.0147 0-31.8405-2.4248 0-4.8496 0-7.3478 0zM16.8478 187.4218c0 4.8496 0 9.6992 0 14.6957 2.4248 0 4.8496 0 7.3478 0 0-4.8496 0-9.6991 0-14.6957-2.4247 0-4.8495 0-7.3478 0zM32.7681 187.4218c0 4.8496 0 9.6992 0 14.6957 19.8024 0 39.6047 0 60.0072 0 0-4.8496 0-9.6991 0-14.6957-19.8024 0-39.6048 0-60.0072 0zM69.5072 209.4653c-5.6579 7.6785-11.3157 15.3569-17.1449 23.2681 0 0.8082 0 1.6165 0 2.4492 42.4336 0.4042 84.8672 0.8083 128.5867 1.2247 0.6062 2.4248 0.6062 2.4248 1.2247 4.8985 2.4248 1.2124 4.8495 2.4248 7.3478 3.6739 1.2124 2.4248 2.4248 4.8496 3.6739 7.3478-0.4041 3.6372-0.8083 7.2744-1.2246 11.0218-1.9867 2.094-4.0341 4.1313-6.1232 6.1232-1.8186 0.6061-1.8186 0.6061-3.6739 1.2246-0.4041 1.6165-0.8083 3.233-1.2247 4.8985-42.4336 0.4042-84.8672 0.8083-128.5867 1.2247 1.8519 4.6298 3.03 7.2479 5.9031 11.0073 0.6551 0.8643 1.3103 1.7286 1.9852 2.6191 0.6804 0.8833 1.3608 1.7665 2.0618 2.6765 0.6899 0.907 1.3798 1.8139 2.0905 2.7483 1.6952 2.2268 3.3989 4.4471 5.1043 6.6661 7.6784 0 15.3569 0 23.2681 0 0.4041-2.4248 0.8082-4.8495 1.2246-7.3478 17.3776-0.4041 34.7552-0.8082 52.6593-1.2246 0.4042-3.2331 0.8083-6.4661 1.2247-9.7971 1.2124-1.2124 1.2124-1.2124 2.4492-2.4493 1.6117-0.1049 3.2234-0.2097 4.8839-0.3178 6.0187-0.3923 12.0372-0.788 18.0556-1.1846 2.5976-0.1707 5.1951-0.3405 7.7928-0.5094 3.7485-0.244 7.4968-0.4911 11.245-0.7388 1.7228-0.1111 1.7228-0.1111 3.4805-0.2244 6.9189-0.461 13.7861-1.1092 20.6726-1.9235-3.9865-3.3031-7.759-5.8801-12.2464-8.5725 0-8.0826 0-16.1652 0-24.4927 4.0413-2.4248 8.0826-4.8496 12.2464-7.3478 0-0.4041 0-0.8083 0-1.2247-22.0373-1.7228-44.0804-3.3467-66.1304-4.8985-1.2123-1.2124-1.2123-1.2124-2.4492-2.4493-0.6062-4.8495-0.6062-4.8495-1.2247-9.7971-17.3775-0.4041-34.7551-0.8082-52.6593-1.2246-0.6062-3.6372-0.6062-3.6372-1.2246-7.3478-7.6785 0-15.357 0-23.2681 0zM242.1809 236.4073c0 0.4041 0 0.8082 0 1.2246 2.0206 0 4.0412 0 6.1231 0 0-0.4041 0-0.8082 0-1.2246-2.0206 0-4.0413 0-6.1231 0zM255.6518 237.6319c0 0.4041 0 0.8083 0 1.2247 4.4455 0 8.8909 0 13.471 0 0-0.4042 0-0.8083 0-1.2247-4.4454 0-8.8908 0-13.471 0zM270.3475 238.8566c0 0.4041 0 0.8082 0 1.2246 9.6991 0.8082 19.3982 1.6165 29.3912 2.4493 0 8.8908 0 17.7817 0 26.942-14.5486 1.2123-14.5486 1.2123-29.3912 2.4492 0 0.4042 0 0.8083 0 1.2247 16.3511 0.2761 32.5771-0.5945 48.8945-1.5643 2.7952-0.1623 5.5904-0.3241 8.3857-0.4854 5.8226-0.3374 11.6449-0.6784 17.4671-1.0224 7.433-0.4391 14.8664-0.8713 22.2999-1.3011 5.7587-0.3332 11.5171-0.6689 17.2755-1.0055 2.7404-0.1601 5.4808-0.3197 8.2213-0.4789 3.8343-0.2233 7.6684-0.4496 11.5025-0.6767 1.1117-0.0643 2.2234-0.1286 3.3688-0.1949 7.6867-0.4597 15.347-1.1075 23.012-1.8433 1.2124-1.2124 2.4248-2.4248 3.6739-3.6739 0-3.233 0-6.4661 0-9.7971-1.2124-1.2124-2.4248-2.4248-3.6739-3.6739-36.1777-2.3329-72.3562-4.6654-108.5461-6.802-2.6639-0.1579-5.3278-0.3177-7.9915-0.4796-14.6515-0.8882-29.2085-1.5308-43.8897-1.2908zM52.3623 242.5305c0 8.8908 0 17.7817 0 26.942 38.7964 0 77.5929 0 117.565 0-1.6165-2.4248-3.233-4.8496-4.8985-7.3479-0.9185-4.1331-0.9185-4.1331-1.2247-7.3478 1.8399-4.4324 3.4553-8.2444 6.1232-12.2463-38.7964 0-77.5929 0-117.565 0zM218.9128 242.5305c-2.8289 1.6165-5.6579 3.233-8.5725 4.8985 0 5.6578 0 11.3156 0 17.1449 4.2434 2.4248 4.2434 2.4248 8.5725 4.8986 16.1957-0.8096 32.309-2.2073 48.4496-3.7505 2.4421-0.2307 4.8842-0.4612 7.3263-0.6912 5.9011-0.5567 11.8018-1.1178 17.7022-1.6815 0-4.8496 0-9.6991 0-14.6957-9.283-0.8763-18.5664-1.7482-27.8503-2.6161-3.1574-0.2957-6.3146-0.5927-9.4718-0.8909-4.5412-0.4288-9.0829-0.8532-13.6246-1.2767-1.4086-0.1339-2.8172-0.2679-4.2685-0.4059-1.3234-0.1226-2.6469-0.2451-4.0104-0.3714-1.1585-0.1088-2.317-0.2176-3.5105-0.3297-3.5909-0.2459-7.1439-0.2714-10.742-0.2324zM439.3473 244.9797c0.4041 0.8083 0.8082 1.6166 1.2246 2.4493 0.119 2.8555 0.1589 5.7145 0.1531 8.5725 31e-4 1.5407 63e-4 3.0814 95e-4 4.6689-0.0536 1.2881-0.1073 2.5763-0.1626 3.9035-0.4041 0.8083-0.8083 1.6165-1.2246 2.4493 10.9534 0.4024 21.6845-1.1104 32.5294-2.4493 1.9556-0.2366 3.9114-0.4726 5.8672-0.708 4.7551-0.5736 9.5091-1.1552 14.2627-1.7413 0-4.0413 0-8.0826 0-12.2463-5.727-0.7061-11.455-1.4034-17.1841-2.0929-1.9444-0.2352-3.8886-0.4728-5.8325-0.7128-14.7727-1.84-14.7727-1.84-29.6427-2.0929zM177.2751 247.429c-2.0206 1.6165-4.0413 3.233-6.1231 4.8985 0 2.4248 0 4.8496 0 7.3479 1.2123 1.2124 2.4247 2.4247 3.6739 3.6739 1.6165 0.4041 3.233 0.8082 4.8985 1.2246 1.6165-0.8082 3.2331-1.6165 4.8986-2.4493 0.8082-2.4247 1.6165-4.8495 2.4492-7.3478-0.8082-1.6165-1.6165-3.233-2.4492-4.8985-2.4248-0.8083-4.8496-1.6165-7.3479-2.4493zM255.6518 273.1464c0 0.4041 0 0.8082 0 1.2246 4.4455 0 8.8909 0 13.471 0 0-0.4041 0-0.8083 0-1.2246-4.4454 0-8.8908 0-13.471 0zM242.1809 274.371c0 0.4041 0 0.8083 0 1.2246 2.0206 0 4.0412 0 6.1231 0 0-0.4041 0-0.8082 0-1.2246-2.0206 0-4.0413 0-6.1231 0zM100.1231 301.313c0 10.5074 0 21.0147 0 31.8405 1.2124 0 2.4247 0 3.6739 0 0-10.5073 0-21.0147 0-31.8405-1.2124 0-2.4248 0-3.6739 0zM111.1448 301.313c0 10.5074 0 21.0147 0 31.8405 12.9321 0 25.8643 0 39.1883 0 0-10.5073 0-21.0147 0-31.8405-12.9321 0-25.8643 0-39.1883 0zM157.681 301.313c0 10.5074 0 21.0147 0 31.8405 2.4247 0 4.8495 0 7.3478 0 0-10.5073 0-21.0147 0-31.8405-2.4248 0-4.8496 0-7.3478 0zM16.8478 309.8854c0 4.8496 0 9.6992 0 14.6957 2.4248 0 4.8496 0 7.3478 0 0-4.8496 0-9.6991 0-14.6957-2.4247 0-4.8495 0-7.3478 0zM32.7681 309.8854c0 4.8496 0 9.6992 0 14.6957 19.8024 0 39.6047 0 60.0072 0 0-4.8496 0-9.6991 0-14.6957-19.8024 0-39.6048 0-60.0072 0zM79.3043 331.9289c-2.4248 2.8289-4.8496 5.6578-7.3479 8.5724 3.1976 14.0765 6.7847 27.9893 10.7347 41.8721 0.5426 1.9195 1.0847 3.8392 1.6264 5.759 1.4053 4.9757 2.8159 9.9498 4.2277 14.9236 1.4485 5.1064 2.8916 10.2144 4.3353 15.3222 2.8173 9.9651 5.6404 19.9286 8.4672 29.8911 0.6062 0.6062 0.6062 0.6062 1.2246 1.2247 14.5487 0 29.0974 0 44.0869 0 0-35.9676 0-71.9352 0-108.9927-17.3775-0.4041-34.7551-0.8082-52.6593-1.2246-0.4041-2.4248-0.8083-4.8495-1.2246-7.3478-4.4455 0-8.8909 0-13.471 0zM169.9273 451.9432c0 5.6578 0 11.3157 0 17.1449 3.6372 0 7.2744 0 11.0217 0 0-5.6578 0-11.3156 0-17.1449-3.6371 0-7.2743 0-11.0217 0zM95.2245 456.8418c0 2.0206 0 4.0413 0 6.1232 22.2272 0 44.4543 0 67.355 0 0-2.0207 0-4.0413 0-6.1232-22.2271 0-44.4543 0-67.355 0z" />  <path fill="#eff1e5" d="M79.3043 331.9289c-2.4248 2.8289-4.8496 5.6578-7.3479 8.5724 3.1976 14.0765 6.7847 27.9893 10.7347 41.8721 0.5426 1.9195 1.0847 3.8392 1.6264 5.759 1.4053 4.9757 2.8159 9.9498 4.2277 14.9236 1.4485 5.1064 2.8916 10.2144 4.3353 15.3222 2.8173 9.9651 5.6404 19.9286 8.4672 29.8911 0.6062 0.6062 0.6062 0.6062 1.2246 1.2247 14.5487 0 29.0974 0 44.0869 0 0-35.9676 0-71.9352 0-108.9927-17.3775-0.4041-34.7551-0.8082-52.6593-1.2246-0.4041-2.4248-0.8083-4.8495-1.2246-7.3478-4.4455 0-8.8909 0-13.471 0z" />  <path fill="#272727" transform="translate(182 76)" d="M-16.9712-40.433c3.4188-0.033 6.8374-0.0573 10.2563-0.0766 0.9724-0.0102 1.9449-0.0205 2.9468-0.0311 2.5388-0.0107 5.0777 0.0443 7.6157 0.1077 1.2124 0.6062 1.2124 0.6062 2.4493 1.2246 0 3.6372 0 7.2743 0 11.0217 35.5634 0 71.1268 0 107.7679 0 0.4042-2.8289 0.8083-5.6578 1.2247-8.5724 1.6165-0.4042 3.233-0.8083 4.8985-1.2247 1.2124 1.2124 1.2124 1.2124 2.4493 2.4493 0 2.4248 0 4.8496 0 7.3478 12.528 0 25.056 0 37.9637 0 0.4041 2.0207 0.8083 4.0413 1.2246 6.1232-0.4041 0.4041-0.8082 0.8083-1.2246 1.2246-12.528 0-25.056 0-37.9637 0 0 2.4248 0 4.8496 0 7.3479-0.4041 0.8082-0.8083 1.6165-1.2246 2.4492-2.0207 0-4.0413 0-6.1232 0-0.4042-0.8082-0.8083-1.6165-1.2247-2.4492 0-2.4248 0-4.8496 0-7.3479-35.5634 0-71.1268 0-107.7679 0 0 3.6372 0 7.2744 0 11.0218C5.8927-9.413 5.4886-9.0089 5.0722-8.5925c-7.2743 0-14.5486 0-22.0434 0-1.2124-2.4248-1.2124-2.4248-2.4493-4.8985-0.8083 0-1.6165 0-2.4493 0 0 35.9675 0 71.9351 0 108.9926 3.6372 0 7.2744 0 11.0218 0 0.4041 0.4041 0.8082 0.8082 1.2246 1.2246 0 14.5487 0 29.0974 0 44.0869-0.4041 0.4041-0.8083 0.8083-1.2246 1.2246 32.425 1.9192 64.8501 3.8354 97.2755 5.7483 15.0556 0.8882 30.1111 1.7773 45.1664 2.6687 13.1219 0.7769 26.2438 1.5521 39.3659 2.3251 6.9483 0.4093 13.8967 0.8196 20.8448 1.232 6.5405 0.3882 13.081 0.7739 19.6217 1.1579 2.3998 0.1413 4.7995 0.2835 7.1992 0.4266 3.2788 0.1954 6.5579 0.3877 9.837 0.5792 0.9471 0.0571 1.8942 0.1143 2.87 0.1732 5.4167 0.3125 10.7918 0.4368 16.2177 0.3847 1.8186-1.2124 1.8186-1.2124 3.6739-2.4493 13.8761 0.6876 27.6672 1.7772 41.4794 3.2754 3.0424 0.3276 6.0861 0.6395 9.1301 0.951 1.9543 0.2088 3.9084 0.4184 5.8625 0.6291 1.3508 0.136 1.3508 0.136 2.7289 0.2747 3.5693 0.3994 6.6666 0.8807 9.9823 2.2968 0.6091 0.378 1.2182 0.756 1.8457 1.1455 0.4041 0.8082 0.8082 1.6165 1.2246 2.4492 0.1037 2.2208 0.1313 4.4454 0.1196 6.6686-39e-4 1.3181-79e-4 2.6363-0.012 3.9944-0.0102 1.3813-0.0205 2.7626-0.0311 4.1857-55e-4 1.3908-0.011 2.7816-0.0167 4.2145-0.0145 3.4428-0.0346 6.8854-0.0598 10.3281-0.8083 1.2124-1.6165 2.4248-2.4493 3.6739-11.6794 2.1773-23.4072 3.5057-35.2157 4.7269-3.1468 0.3264-6.2924 0.6624-9.438 0.9992-2.0259 0.2127-4.0518 0.4248-6.0778 0.6363-0.9276 0.0994-1.8551 0.1989-2.8108 0.3014-5.4536 0.5565-10.7799 0.777-16.2619 0.684-1.2124-0.8082-2.4248-1.6165-3.6739-2.4493-26.2294 0.9194-52.4171 2.5125-78.6146 4.069-6.3397 0.3762-12.6795 0.7493-19.0194 1.1229-11.9567 0.7049-23.9132 1.4123-35.8697 2.1207-13.6327 0.8076-27.2656 1.6123-40.8985 2.4168-27.9989 1.6522-55.9975 3.308-83.996 4.9663 0.4041 0.4041 0.8082 0.8082 1.2246 1.2246 0 14.5487 0 29.0974 0 44.0869-0.4041 0.4041-0.8083 0.8083-1.2246 1.2246-3.6372 0-7.2744 0-11.0218 0 0 35.9676 0 71.9352 0 108.9927 0.8083 0 1.6166 0 2.4493 0 0.8083-1.6166 1.6165-3.2331 2.4493-4.8986 7.2743 0 14.5487 0 22.0434 0 0.4042 0.4041 0.8083 0.8083 1.2247 1.2246 0 3.6372 0 7.2744 0 11.0218 35.5634 0 71.1268 0 107.7679 0 0-2.4248 0-4.8496 0-7.3478 0.4042-0.8083 0.8083-1.6166 1.2247-2.4493 2.0206 0 4.0413 0 6.1232 0 0.4041 0.8082 0.8082 1.6165 1.2246 2.4493 0 2.4247 0 4.8495 0 7.3478 12.528 0 25.056 0 37.9637 0 0.4041 2.0206 0.8083 4.0413 1.2246 6.1232-0.4041 0.4041-0.8082 0.8082-1.2246 1.2246-12.528 0-25.056 0-37.9637 0 0 2.4248 0 4.8495 0 7.3478-0.8083 0.8083-1.6165 1.6165-2.4493 2.4493-1.6165-0.4042-3.233-0.8083-4.8985-1.2247-0.4042-2.8289-0.8083-5.6578-1.2247-8.5724-35.5634 0-71.1268 0-107.7679 0 0 3.6372 0 7.2743 0 11.0217-0.8083 0.4041-1.6166 0.8083-2.4493 1.2246-3.5315 0.0882-7.0324 0.1138-10.5625 0.0766-0.9819-55e-4-1.9638-0.0111-2.9755-0.0168-2.427-0.0144-4.8539-0.0364-7.2808-0.0598-0.8083-1.6165-1.6165-3.233-2.4493-4.8985-0.8998 27e-4-1.7995 54e-4-2.7265 82e-4-8.4696 0.0246-16.9391 0.0432-25.4087 0.0553-4.3545 64e-4-8.709 0.015-13.0635 0.0289-5.0034 0.0158-10.0068 0.0218-15.0102 0.0272-2.3517 95e-4-2.3517 95e-4-4.7509 0.0192-1.4464 0-2.8928 1e-4-4.383 2e-4-1.2782 28e-4-2.5563 55e-4-3.8732 83e-4-1.5036-0.0729-1.5036-0.0729-3.0375-0.1473-0.8083-0.4041-1.6165-0.8083-2.4493-1.2246 0-2.0207 0-4.0413 0-6.1232-2.0206 0-4.0413 0-6.1232 0-0.4041 2.0206-0.8082 4.0413-1.2246 6.1232-2.0207 0-4.0413 0-6.1232 0 0-6.4661 0-12.9322 0-19.5942 1.6165-0.4041 3.2331-0.8083 4.8986-1.2246 0.8082 0.8082 1.6165 1.6165 2.4492 2.4492 0 1.6165 0 3.2331 0 4.8986 2.0207 0 4.0413 0 6.1232 0-2.449-12.4017-5.5938-24.4998-9.0519-36.6501-0.896-3.1501-1.7843-6.3022-2.6707-9.455-2.5175-8.9493-5.0474-17.8952-7.5842-26.8391-1.5607-5.5043-3.1121-11.0112-4.6579-16.5198-0.5876-2.0868-1.1789-4.1726-1.7739-6.2573-0.8295-2.9066-1.6472-5.8162-2.4624-8.7268-0.2462-0.8513-0.4923-1.7026-0.7459-2.5797-1.3457-4.8588-1.9155-9.1742-1.669-14.2112 0.8083-0.8083 1.6165-1.6165 2.4493-2.4493-16.1652-0.4041-32.3304-0.8082-48.9855-1.2246-0.4041-0.4041-0.8082-0.8083-1.2246-1.2246 0-8.8909 0-17.7818 0-26.942 0.4041-0.4042 0.8083-0.8083 1.2246-1.2247 13.3363-0.4041 26.6726-0.8082 40.413-1.2246-4.0413-5.2537-8.0826-10.5074-12.2463-15.9203 0-19.3982 0-38.7964 0-58.7825 4.0413-5.2537 8.0826-10.5074 12.2463-15.9203-13.3363-0.4041-26.6725-0.8082-40.413-1.2246-0.4041-0.4041-0.8082-0.8083-1.2246-1.2246 0-8.8909 0-17.7818 0-26.942 0.6062-0.6062 0.6062-0.6062 1.2246-1.2247 16.1652-0.4041 32.3304-0.8082 48.9855-1.2246-1.2124-1.2124-1.2124-1.2124-2.4493-2.4493 0.716-9.9493 3.2443-19.1661 5.951-28.7359 0.4785-1.7159 0.9563-3.432 1.4334-5.1483 1.2544-4.5054 2.519-9.0078 3.7859-13.5096 1.2673-4.5097 2.5251-9.0221 3.7837-13.5342 7.1962-25.7802 7.1962-25.7802 10.3448-36.8378 0.2879-1.0176 0.5758-2.0353 0.8725-3.0839 0.4994-1.7639 1.0029-3.5267 1.5121-5.2879 1.4194-5.0304 2.2925-9.9277 2.9325-15.1014-2.0206 0-4.0413 0-6.1232 0-0.6062 3.031-0.6062 3.031-1.2246 6.1232-1.6165 0.4042-3.233 0.8083-4.8986 1.2247-0.4041-0.4042-0.8082-0.8083-1.2246-1.2247 0-6.4661 0-12.9321 0-19.5942 2.0207 0 4.0413 0 6.1232 0 0.6062 3.031 0.6062 3.031 1.2246 6.1232 2.0207 0 4.0413 0 6.1232 0 0-2.0206 0-4.0413 0-6.1232 0.8083-0.4041 1.6165-0.8082 2.4493-1.2246 2.3013-0.1116 4.6067-0.1439 6.9107-0.139 1.4464 1e-4 2.8928 2e-4 4.383 3e-4 1.5678 63e-4 3.1356 0.0126 4.7509 0.0191 1.6003 18e-4 3.2006 35e-4 4.8493 53e-4 4.2561 46e-4 8.5122 0.0167 12.7682 0.0302 4.3424 0.0125 8.6848 0.0181 13.0271 0.0243 8.5215 0.0132 17.0429 0.0341 25.5643 0.0598 0.8083-1.6165 1.6165-3.233 2.4493-4.8985zM-12.0727-33.0852c0 5.6578 0 11.3156 0 17.1449 3.6372 0 7.2744 0 11.0217 0 0-5.6578 0-11.3156 0-17.1449-3.6371 0-7.2743 0-11.0217 0zM-86.7755-26.962c0 2.0206 0 4.0413 0 6.1231 22.2272 0 44.4543 0 67.355 0 0-2.0206 0-4.0413 0-6.1231-22.2271 0-44.4543 0-67.355 0zM-79.4277-13.491c-2.4789 6.6104-4.7046 13.0177-6.5641 19.7903-0.2634 0.945-0.5267 1.8901-0.798 2.8638-0.8589 3.0865-1.7115 6.1747-2.5641 9.2629-0.5984 2.1552-1.1972 4.3103-1.7964 6.4653-1.5682 5.644-3.1311 11.2895-4.6928 16.9353-1.5977 5.7722-3.2005 11.5429-4.8028 17.3138-3.1375 11.3026-6.2693 22.6068-9.3977 33.9119 0.7595 2.0629 1.5837 4.1025 2.4493 6.1232 2.4743 2.7822 2.4743 2.7822 4.8986 4.8985 4.4454 0 8.8908 0 13.471 0 0.4041-2.4248 0.8082-4.8495 1.2246-7.3478 17.3776-0.4041 34.7552-0.8083 52.6593-1.2246 0-35.9676 0-71.9352 0-108.9926-14.5486 0-29.0973 0-44.0869 0zM-81.8769 102.8494c0 10.5074 0 21.0147 0 31.8405 1.2124 0 2.4247 0 3.6739 0 0-10.5074 0-21.0147 0-31.8405-1.2124 0-2.4248 0-3.6739 0zM-70.8552 102.8494c0 10.5074 0 21.0147 0 31.8405 12.9321 0 25.8643 0 39.1883 0 0-10.5074 0-21.0147 0-31.8405-12.9321 0-25.8643 0-39.1883 0zM-24.319 102.8494c0 10.5074 0 21.0147 0 31.8405 2.4247 0 4.8495 0 7.3478 0 0-10.5074 0-21.0147 0-31.8405-2.4248 0-4.8496 0-7.3478 0zM-165.1522 111.4218c0 4.8496 0 9.6992 0 14.6957 2.4248 0 4.8496 0 7.3478 0 0-4.8496 0-9.6991 0-14.6957-2.4247 0-4.8495 0-7.3478 0zM-149.2319 111.4218c0 4.8496 0 9.6992 0 14.6957 19.8024 0 39.6047 0 60.0072 0 0-4.8496 0-9.6991 0-14.6957-19.8024 0-39.6048 0-60.0072 0zM-112.4928 133.4653c-5.6579 7.6785-11.3157 15.3569-17.1449 23.2681 0 0.8082 0 1.6165 0 2.4492 42.4336 0.4042 84.8672 0.8083 128.5867 1.2247 0.6062 2.4248 0.6062 2.4248 1.2247 4.8985 2.4248 1.2124 4.8495 2.4248 7.3478 3.6739 1.2124 2.4248 2.4248 4.8496 3.6739 7.3478-0.4041 3.6372-0.8083 7.2744-1.2246 11.0218-1.9867 2.094-4.0341 4.1313-6.1232 6.1232-1.8186 0.6061-1.8186 0.6061-3.6739 1.2246-0.4041 1.6165-0.8083 3.233-1.2247 4.8985-42.4336 0.4042-84.8672 0.8083-128.5867 1.2247 1.8519 4.6298 3.03 7.2479 5.9031 11.0073 0.6551 0.8643 1.3103 1.7286 1.9852 2.6191 0.6804 0.8833 1.3608 1.7665 2.0618 2.6765 0.6899 0.907 1.3798 1.8139 2.0905 2.7483 1.6952 2.2268 3.3989 4.4471 5.1043 6.6661 7.6784 0 15.3569 0 23.2681 0 0.4041-2.4248 0.8082-4.8495 1.2246-7.3478 17.3776-0.4041 34.7552-0.8082 52.6593-1.2246 0.4042-3.2331 0.8083-6.4661 1.2247-9.7971 1.2124-1.2124 1.2124-1.2124 2.4492-2.4493 1.6117-0.1049 3.2234-0.2097 4.8839-0.3178 6.0187-0.3923 12.0372-0.788 18.0556-1.1846 2.5976-0.1707 5.1951-0.3405 7.7928-0.5094 3.7485-0.244 7.4968-0.4911 11.245-0.7388 1.7228-0.1111 1.7228-0.1111 3.4805-0.2244 6.9189-0.461 13.7861-1.1092 20.6726-1.9235-3.9865-3.3031-7.759-5.8801-12.2464-8.5725 0-8.0826 0-16.1652 0-24.4927 4.0413-2.4248 8.0826-4.8496 12.2464-7.3478 0-0.4041 0-0.8083 0-1.2247-22.0373-1.7228-44.0804-3.3467-66.1304-4.8985-1.2123-1.2124-1.2123-1.2124-2.4492-2.4493-0.6062-4.8495-0.6062-4.8495-1.2247-9.7971-17.3775-0.4041-34.7551-0.8082-52.6593-1.2246-0.6062-3.6372-0.6062-3.6372-1.2246-7.3478-7.6785 0-15.357 0-23.2681 0zM60.1809 160.4073c0 0.4041 0 0.8082 0 1.2246 2.0206 0 4.0412 0 6.1231 0 0-0.4041 0-0.8082 0-1.2246-2.0206 0-4.0413 0-6.1231 0zM73.6518 161.6319c0 0.4041 0 0.8083 0 1.2247 4.4455 0 8.8909 0 13.471 0 0-0.4042 0-0.8083 0-1.2247-4.4454 0-8.8908 0-13.471 0zM88.3475 162.8566c0 0.4041 0 0.8082 0 1.2246 9.6991 0.8082 19.3982 1.6165 29.3912 2.4493 0 8.8908 0 17.7817 0 26.942-14.5486 1.2123-14.5486 1.2123-29.3912 2.4492 0 0.4042 0 0.8083 0 1.2247 16.3511 0.2761 32.5771-0.5945 48.8945-1.5643 2.7952-0.1623 5.5904-0.3241 8.3857-0.4854 5.8226-0.3374 11.6449-0.6784 17.4671-1.0224 7.433-0.4391 14.8664-0.8713 22.2999-1.3011 5.7587-0.3332 11.5171-0.6689 17.2755-1.0055 2.7404-0.1601 5.4808-0.3197 8.2213-0.4789 3.8343-0.2233 7.6684-0.4496 11.5025-0.6767 1.1117-0.0643 2.2234-0.1286 3.3688-0.1949 7.6867-0.4597 15.347-1.1075 23.012-1.8433 1.2124-1.2124 2.4248-2.4248 3.6739-3.6739 0-3.233 0-6.4661 0-9.7971-1.2124-1.2124-2.4248-2.4248-3.6739-3.6739-36.1777-2.3329-72.3562-4.6654-108.5461-6.802-2.6639-0.1579-5.3278-0.3177-7.9915-0.4796-14.6515-0.8882-29.2085-1.5308-43.8897-1.2908zM-129.6377 166.5305c0 8.8908 0 17.7817 0 26.942 38.7964 0 77.5929 0 117.565 0-1.6165-2.4248-3.233-4.8496-4.8985-7.3479-0.9185-4.1331-0.9185-4.1331-1.2247-7.3478 1.8399-4.4324 3.4553-8.2444 6.1232-12.2463-38.7964 0-77.5929 0-117.565 0zM36.9128 166.5305c-2.8289 1.6165-5.6579 3.233-8.5725 4.8985 0 5.6578 0 11.3156 0 17.1449 4.2434 2.4248 4.2434 2.4248 8.5725 4.8986 16.1957-0.8096 32.309-2.2073 48.4496-3.7505 2.4421-0.2307 4.8842-0.4612 7.3263-0.6912 5.9011-0.5567 11.8018-1.1178 17.7022-1.6815 0-4.8496 0-9.6991 0-14.6957-9.283-0.8763-18.5664-1.7482-27.8503-2.6161-3.1574-0.2957-6.3146-0.5927-9.4718-0.8909-4.5412-0.4288-9.0829-0.8532-13.6246-1.2767-1.4086-0.1339-2.8172-0.2679-4.2685-0.4059-1.3234-0.1226-2.6469-0.2451-4.0104-0.3714-1.1585-0.1088-2.317-0.2176-3.5105-0.3297-3.5909-0.2459-7.1439-0.2714-10.742-0.2324zM257.3473 168.9797c0.4041 0.8083 0.8082 1.6166 1.2246 2.4493 0.119 2.8555 0.1589 5.7145 0.1531 8.5725 31e-4 1.5407 63e-4 3.0814 95e-4 4.6689-0.0536 1.2881-0.1073 2.5763-0.1626 3.9035-0.4041 0.8083-0.8083 1.6165-1.2246 2.4493 10.9534 0.4024 21.6845-1.1104 32.5294-2.4493 1.9556-0.2366 3.9114-0.4726 5.8672-0.708 4.7551-0.5736 9.5091-1.1552 14.2627-1.7413 0-4.0413 0-8.0826 0-12.2463-5.727-0.7061-11.455-1.4034-17.1841-2.0929-1.9444-0.2352-3.8886-0.4728-5.8325-0.7128-14.7727-1.84-14.7727-1.84-29.6427-2.0929zM-4.7249 171.429c-2.0206 1.6165-4.0413 3.233-6.1231 4.8985 0 2.4248 0 4.8496 0 7.3479 1.2123 1.2124 2.4247 2.4247 3.6739 3.6739 1.6165 0.4041 3.233 0.8082 4.8985 1.2246 1.6165-0.8082 3.2331-1.6165 4.8986-2.4493 0.8082-2.4247 1.6165-4.8495 2.4492-7.3478-0.8082-1.6165-1.6165-3.233-2.4492-4.8985-2.4248-0.8083-4.8496-1.6165-7.3479-2.4493zM73.6518 197.1464c0 0.4041 0 0.8082 0 1.2246 4.4455 0 8.8909 0 13.471 0 0-0.4041 0-0.8083 0-1.2246-4.4454 0-8.8908 0-13.471 0zM60.1809 198.371c0 0.4041 0 0.8083 0 1.2246 2.0206 0 4.0412 0 6.1231 0 0-0.4041 0-0.8082 0-1.2246-2.0206 0-4.0413 0-6.1231 0zM-81.8769 225.313c0 10.5074 0 21.0147 0 31.8405 1.2124 0 2.4247 0 3.6739 0 0-10.5073 0-21.0147 0-31.8405-1.2124 0-2.4248 0-3.6739 0zM-70.8552 225.313c0 10.5074 0 21.0147 0 31.8405 12.9321 0 25.8643 0 39.1883 0 0-10.5073 0-21.0147 0-31.8405-12.9321 0-25.8643 0-39.1883 0zM-24.319 225.313c0 10.5074 0 21.0147 0 31.8405 2.4247 0 4.8495 0 7.3478 0 0-10.5073 0-21.0147 0-31.8405-2.4248 0-4.8496 0-7.3478 0zM-165.1522 233.8854c0 4.8496 0 9.6992 0 14.6957 2.4248 0 4.8496 0 7.3478 0 0-4.8496 0-9.6991 0-14.6957-2.4247 0-4.8495 0-7.3478 0zM-149.2319 233.8854c0 4.8496 0 9.6992 0 14.6957 19.8024 0 39.6047 0 60.0072 0 0-4.8496 0-9.6991 0-14.6957-19.8024 0-39.6048 0-60.0072 0zM-102.6957 255.9289c-2.4248 2.8289-4.8496 5.6578-7.3479 8.5724 3.1976 14.0765 6.7847 27.9893 10.7347 41.8721 0.5426 1.9195 1.0847 3.8392 1.6264 5.759 1.4053 4.9757 2.8159 9.9498 4.2277 14.9236 1.4485 5.1064 2.8916 10.2144 4.3353 15.3222 2.8173 9.9651 5.6404 19.9286 8.4672 29.8911 0.6062 0.6062 0.6062 0.6062 1.2246 1.2247 14.5487 0 29.0974 0 44.0869 0 0-35.9676 0-71.9352 0-108.9927-17.3775-0.4041-34.7551-0.8082-52.6593-1.2246-0.4041-2.4248-0.8083-4.8495-1.2246-7.3478-4.4455 0-8.8909 0-13.471 0zM-12.0727 375.9432c0 5.6578 0 11.3157 0 17.1449 3.6372 0 7.2744 0 11.0217 0 0-5.6578 0-11.3156 0-17.1449-3.6371 0-7.2743 0-11.0217 0zM-86.7755 380.8418c0 2.0206 0 4.0413 0 6.1232 22.2272 0 44.4543 0 67.355 0 0-2.0207 0-4.0413 0-6.1232-22.2271 0-44.4543 0-67.355 0z" />  <path fill="currentColor" transform="translate(192 252)" d="M-14.7249-0.8971c1.6166 0.4041 3.2331 0.8083 4.8986 1.2246 0.4041 1.6166 0.8082 3.2331 1.2246 4.8986-1.2124 1.2124-2.4248 2.4248-3.6739 3.6739-1.6165-0.4041-3.233-0.8083-4.8985-1.2246 0-2.4248 0-4.8496 0-7.3479 0.8082-0.4041 1.6165-0.8082 2.4492-1.2246z" />  <path fill="#a89d8e" d="M439.3473 244.9797c0.4041 0.8083 0.8082 1.6166 1.2246 2.4493 0.119 2.8555 0.1589 5.7145 0.1531 8.5725 31e-4 1.5407 63e-4 3.0814 95e-4 4.6689-0.0536 1.2881-0.1073 2.5763-0.1626 3.9035-0.4041 0.8083-0.8083 1.6165-1.2246 2.4493 10.9534 0.4024 21.6845-1.1104 32.5294-2.4493 1.9556-0.2366 3.9114-0.4726 5.8672-0.708 4.7551-0.5736 9.5091-1.1552 14.2627-1.7413 0-4.0413 0-8.0826 0-12.2463-5.727-0.7061-11.455-1.4034-17.1841-2.0929-1.9444-0.2352-3.8886-0.4728-5.8325-0.7128-14.7727-1.84-14.7727-1.84-29.6427-2.0929z" />  <path d="M122.7216 419.8529c0 8.3356 0 16.6711 0 25.2592 6.2498 0 12.4995 0 18.9386 0 0-8.3355 0-16.671 0-25.2592-6.2497 0-12.4994 0-18.9386 0z" />  <path d="M104.1343 438.3475c0 2.0206 0 4.0413 0 6.1232 4.9724 0 9.9447 0 15.0678 0 0-2.0207 0-4.0413 0-6.1232-4.9724 0-9.9448 0-15.0678 0z" />  <path d="M102.2343 427.573c0 2.0206 0 4.0413 0 6.1232 5.6622 0 11.3243 0 17.1581 0 0-2.0207 0-4.0413 0-6.1232-5.6622 0-11.3243 0-17.1581 0z" />  <path d="M98.9987 417.0999c0 2.0206 0 4.0413 0 6.1232 6.8162 0 13.6323 0 20.6551 0 0-2.0207 0-4.0413 0-6.1232-6.8162 0-13.6323 0-20.6551 0z" />  <path d="M96.8954 406.5538c0 2.0206 0 4.0413 0 6.1232 7.5763 0 15.1525 0 22.9584 0 0-2.0207 0-4.0413 0-6.1232-7.5763 0-15.1524 0-22.9584 0z" />  <path d="M92.0695 395.7076c0 2.0206 0 4.0413 0 6.1232 9.2006 0 18.401 0 27.8804 0 0-2.0207 0-4.0413 0-6.1232-9.2005 0-18.4009 0-27.8804 0z" />  <path transform="matrix(1, 0, 0, -1, -141.761414, 274.980525)" d="M264.5863 183.286c0 8.3356 0 16.6711 0 25.2592 6.2498 0 12.4995 0 18.9386 0 0-8.3355 0-16.671 0-25.2592-6.2497 0-12.4994 0-18.9386 0z" />  <path transform="matrix(1, 0, 0, -1, -141.761414, 274.980525)" d="M245.999 201.7806c0 2.0206 0 4.0413 0 6.1232 4.9724 0 9.9447 0 15.0678 0 0-2.0207 0-4.0413 0-6.1232-4.9724 0-9.9448 0-15.0678 0z" />  <path transform="matrix(1, 0, 0, -1, -141.761414, 274.980525)" d="M244.099 191.0061c0 2.0206 0 4.0413 0 6.1232 5.6622 0 11.3243 0 17.1581 0 0-2.0207 0-4.0413 0-6.1232-5.6622 0-11.3243 0-17.1581 0z" />  <path transform="matrix(1, 0, 0, -1, -141.761414, 274.980525)" d="M240.8634 180.533c0 2.0206 0 4.0413 0 6.1232 6.8162 0 13.6323 0 20.6551 0 0-2.0207 0-4.0413 0-6.1232-6.8162 0-13.6323 0-20.6551 0z" />  <path transform="matrix(1, 0, 0, -1, -141.761414, 274.980525)" d="M238.7601 169.9869c0 2.0206 0 4.0413 0 6.1232 7.5763 0 15.1525 0 22.9584 0 0-2.0207 0-4.0413 0-6.1232-7.5763 0-15.1524 0-22.9584 0z" />  <path transform="matrix(1, 0, 0, -1, -141.761414, 274.980525)" d="M233.9342 159.1407c0 2.0206 0 4.0413 0 6.1232 9.2006 0 18.401 0 27.8804 0 0-2.0207 0-4.0413 0-6.1232-9.2005 0-18.4009 0-27.8804 0z" />  <path fill="#eff1e5" d="M69.5072 209.4653c-5.6579 7.6785-11.3157 15.3569-17.1449 23.2681 0 0.8082 0 1.6165 0 2.4492 42.4336 0.4042 84.8672 0.8083 128.5867 1.2247 0.6062 2.4248 0.6062 2.4248 1.2247 4.8985 2.4248 1.2124 4.8495 2.4248 7.3478 3.6739 1.2124 2.4248 2.4248 4.8496 3.6739 7.3478-0.4041 3.6372-0.8083 7.2744-1.2246 11.0218-1.9867 2.094-4.0341 4.1313-6.1232 6.1232-1.8186 0.6061-1.8186 0.6061-3.6739 1.2246-0.4041 1.6165-0.8083 3.233-1.2247 4.8985-42.4336 0.4042-84.8672 0.8083-128.5867 1.2247 1.8519 4.6298 3.03 7.2479 5.9031 11.0073 0.6551 0.8643 1.3103 1.7286 1.9852 2.6191 0.6804 0.8833 1.3608 1.7665 2.0618 2.6765 0.6899 0.907 1.3798 1.8139 2.0905 2.7483 1.6952 2.2268 3.3989 4.4471 5.1043 6.6661 7.6784 0 15.3569 0 23.2681 0 0.4041-2.4248 0.8082-4.8495 1.2246-7.3478 17.3776-0.4041 34.7552-0.8082 52.6593-1.2246 0.4042-3.2331 0.8083-6.4661 1.2247-9.7971 1.2124-1.2124 1.2124-1.2124 2.4492-2.4493 1.6117-0.1049 3.2234-0.2097 4.8839-0.3178 6.0187-0.3923 12.0372-0.788 18.0556-1.1846 2.5976-0.1707 5.1951-0.3405 7.7928-0.5094 3.7485-0.244 7.4968-0.4911 11.245-0.7388 1.7228-0.1111 1.7228-0.1111 3.4805-0.2244 6.9189-0.461 13.7861-1.1092 20.6726-1.9235-3.9865-3.3031-7.759-5.8801-12.2464-8.5725 0-8.0826 0-16.1652 0-24.4927 4.0413-2.4248 8.0826-4.8496 12.2464-7.3478 0-0.4041 0-0.8083 0-1.2247-22.0373-1.7228-44.0804-3.3467-66.1304-4.8985-1.2123-1.2124-1.2123-1.2124-2.4492-2.4493-0.6062-4.8495-0.6062-4.8495-1.2247-9.7971-17.3775-0.4041-34.7551-0.8082-52.6593-1.2246-0.6062-3.6372-0.6062-3.6372-1.2246-7.3478-7.6785 0-15.357 0-23.2681 0z" />  <path fill="#aaa192" d="M52.3623 242.5305c0 8.8908 0 17.7817 0 26.942 38.7964 0 77.5929 0 117.565 0-1.6165-2.4248-3.233-4.8496-4.8985-7.3479-0.9185-4.1331-0.9185-4.1331-1.2247-7.3478 1.8399-4.4324 3.4553-8.2444 6.1232-12.2463-38.7964 0-77.5929 0-117.565 0z" />  <path fill="#94a3b8" d="M218.9128 242.5305c-2.8289 1.6165-5.6579 3.233-8.5725 4.8985 0 5.6578 0 11.3156 0 17.1449 4.2434 2.4248 4.2434 2.4248 8.5725 4.8986 16.1957-0.8096 32.309-2.2073 48.4496-3.7505 2.4421-0.2307 4.8842-0.4612 7.3263-0.6912 5.9011-0.5567 11.8018-1.1178 17.7022-1.6815 0-4.8496 0-9.6991 0-14.6957-9.283-0.8763-18.5664-1.7482-27.8503-2.6161-3.1574-0.2957-6.3146-0.5927-9.4718-0.8909-4.5412-0.4288-9.0829-0.8532-13.6246-1.2767-1.4086-0.1339-2.8172-0.2679-4.2685-0.4059-1.3234-0.1226-2.6469-0.2451-4.0104-0.3714-1.1585-0.1088-2.317-0.2176-3.5105-0.3297-3.5909-0.2459-7.1439-0.2714-10.742-0.2324z" />  <path fill="#eff1e5" d="M270.3475 238.8566c0 0.4041 0 0.8082 0 1.2246 9.6991 0.8082 19.3982 1.6165 29.3912 2.4493 0 8.8908 0 17.7817 0 26.942-14.5486 1.2123-14.5486 1.2123-29.3912 2.4492 0 0.4042 0 0.8083 0 1.2247 16.3511 0.2761 32.5771-0.5945 48.8945-1.5643 2.7952-0.1623 5.5904-0.3241 8.3857-0.4854 5.8226-0.3374 11.6449-0.6784 17.4671-1.0224 7.433-0.4391 14.8664-0.8713 22.2999-1.3011 5.7587-0.3332 11.5171-0.6689 17.2755-1.0055 2.7404-0.1601 5.4808-0.3197 8.2213-0.4789 3.8343-0.2233 7.6684-0.4496 11.5025-0.6767 1.1117-0.0643 2.2234-0.1286 3.3688-0.1949 7.6867-0.4597 15.347-1.1075 23.012-1.8433 1.2124-1.2124 2.4248-2.4248 3.6739-3.6739 0-3.233 0-6.4661 0-9.7971-1.2124-1.2124-2.4248-2.4248-3.6739-3.6739-36.1777-2.3329-72.3562-4.6654-108.5461-6.802-2.6639-0.1579-5.3278-0.3177-7.9915-0.4796-14.6515-0.8882-29.2085-1.5308-43.8897-1.2908z" />  <path fill="#d0cbbe" d="M32.7681 309.8854c0 4.8496 0 9.6992 0 14.6957 19.8024 0 39.6047 0 60.0072 0 0-4.8496 0-9.6991 0-14.6957-19.8024 0-39.6048 0-60.0072 0z" />  <path fill="#d0cbbe" d="M32.7681 187.4218c0 4.8496 0 9.6992 0 14.6957 19.8024 0 39.6047 0 60.0072 0 0-4.8496 0-9.6991 0-14.6957-19.8024 0-39.6048 0-60.0072 0z" />  <path fill="#d0cbbe" d="M111.1448 178.8494c0 10.5074 0 21.0147 0 31.8405 12.9321 0 25.8643 0 39.1883 0 0-10.5074 0-21.0147 0-31.8405-12.9321 0-25.8643 0-39.1883 0z" />  <path fill="#d0cbbe" d="M100.1231 178.8494c0 10.5074 0 21.0147 0 31.8405 1.2124 0 2.4247 0 3.6739 0 0-10.5074 0-21.0147 0-31.8405-1.2124 0-2.4248 0-3.6739 0z" />  <path d="M16.8478 187.4218c0 4.8496 0 9.6992 0 14.6957 2.4248 0 4.8496 0 7.3478 0 0-4.8496 0-9.6991 0-14.6957-2.4247 0-4.8495 0-7.3478 0z" />  <path d="M16.8478 309.8854c0 4.8496 0 9.6992 0 14.6957 2.4248 0 4.8496 0 7.3478 0 0-4.8496 0-9.6991 0-14.6957-2.4247 0-4.8495 0-7.3478 0z" />  <path fill="#d0cbbe" d="M100.1231 301.313c0 10.5074 0 21.0147 0 31.8405 1.2124 0 2.4247 0 3.6739 0 0-10.5073 0-21.0147 0-31.8405-1.2124 0-2.4248 0-3.6739 0z" />  <path fill="#d0cbbe" d="M111.1448 301.313c0 10.5074 0 21.0147 0 31.8405 12.9321 0 25.8643 0 39.1883 0 0-10.5073 0-21.0147 0-31.8405-12.9321 0-25.8643 0-39.1883 0z" />  <path fill="#d0cbbe" d="M157.681 301.313c0 10.5074 0 21.0147 0 31.8405 2.4247 0 4.8495 0 7.3478 0 0-10.5073 0-21.0147 0-31.8405-2.4248 0-4.8496 0-7.3478 0z" />  <path fill="#d0cbbe" d="M95.2245 456.8418c0 2.0206 0 4.0413 0 6.1232 22.2272 0 44.4543 0 67.355 0 0-2.0207 0-4.0413 0-6.1232-22.2271 0-44.4543 0-67.355 0z" />  <path fill="#d0cbbe" d="M169.9273 451.9432c0 5.6578 0 11.3157 0 17.1449 3.6372 0 7.2744 0 11.0217 0 0-5.6578 0-11.3156 0-17.1449-3.6371 0-7.2743 0-11.0217 0z" />  <path fill="#d0cbbe" d="M157.681 178.8494c0 10.5074 0 21.0147 0 31.8405 2.4247 0 4.8495 0 7.3478 0 0-10.5074 0-21.0147 0-31.8405-2.4248 0-4.8496 0-7.3478 0z" />  <path fill="#d0cbbe" d="M95.2245 49.038c0 2.0206 0 4.0413 0 6.1231 22.2272 0 44.4543 0 67.355 0 0-2.0206 0-4.0413 0-6.1231-22.2271 0-44.4543 0-67.355 0z" />  <path fill="#d0cbbe" d="M169.9273 42.9148c0 5.6578 0 11.3156 0 17.1449 3.6372 0 7.2744 0 11.0217 0 0-5.6578 0-11.3156 0-17.1449-3.6371 0-7.2743 0-11.0217 0z" />  <path transform="rotate(-3.4 320.743642 274.85532)" d="M220.7355 275.4806c0 8.3356 0 16.6711 0 5.5063 6.2498 0 192.8112 0.1778 199.2503 0.1778 0 11.4174 0 3.0819 0-5.5063-6.2497 0-12.4994 0-199.2503-0.1778z" />  <path transform="rotate(3.8 1447.576725 232.957883)" d="M222.3885 304.9342c0 8.3356 0 16.6711 0 5.5063 6.2498 0 192.8112 0.1778 199.2503 0.1778 0 11.4174 0 3.0819 0-5.5063-6.2497 0-12.4994 0-199.2503-0.1778z" />  <path d="M140.9032 180.4087c2.0206 0 4.0413 0 6.1232 0 0 9.2006 0 18.401 0 27.8804-2.0207 0-4.0413 0-6.1232 0 0-9.2005 0-18.4009 0-27.8804z" />  <path d="M141.014 303.561c2.0206 0 4.0413 0 6.1232 0 0 9.2006 0 18.401 0 27.8804-2.0207 0-4.0413 0-6.1232 0 0-9.2005 0-18.4009 0-27.8804z" /></svg>