<svg viewBox="0 0 32 32" fill="#6b7280" width="32" height="32" version="1.1" xmlns="http://www.w3.org/2000/svg" xmlns:xlink="http://www.w3.org/1999/xlink">
    <path d="M15.172 16l8.485 8.485-2.828 2.828-8.485-8.485-2.828 2.828-2.828-2.828L9.515 16 6.687 13.172l2.828-2.828 2.828 2.828 8.485-8.485 2.828 2.828z" />
    <polygon transform="rotate(-45.7 14.260199 11.441043)" points="30.2916 13.012516 30.2916 13.836153 29.879781 13.836153 29.879781 14.247971 29.467963 14.247971 29.467963 14.659789 28.644327 14.659789 28.644327 15.071607 27.82069 15.071607 27.82069 15.483425 27.408872 15.483425 27.408872 15.895244 26.585236 15.895244 26.585236 16.307062 25.7616 16.307062 25.7616 16.71888 25.349781 16.71888 25.349781 17.130698 24.526145 17.130698 24.526145 17.542516 23.702509 17.542516 23.702509 17.954334 22.467054 17.954334 22.467054 17.542516 22.055236 17.542516 22.055236 9.306153 22.467054 9.306153 22.467054 8.894334 23.702509 8.894334 23.702509 9.306153 24.526145 9.306153 24.526145 9.717971 25.349781 9.717971 25.349781 10.129789 25.7616 10.129789 25.7616 10.541607 26.585236 10.541607 26.585236 10.953425 27.408872 10.953425 27.408872 11.365244 27.82069 11.365244 27.82069 11.777062 28.644327 11.777062 28.644327 12.18888 29.467963 12.18888 29.467963 12.600698 29.879781 12.600698 29.879781 13.012516 30.2916 13.012516" />
    <polygon transform="rotate(44.1 17.056651 17.806178)" points="32.823945 19.677668 32.823945 20.501304 32.412126 20.501304 32.412126 20.913122 32.000308 20.913122 32.000308 21.32494 31.176672 21.32494 31.176672 21.736758 30.353035 21.736758 30.353035 22.148577 29.941217 22.148577 29.941217 22.560395 29.117581 22.560395 29.117581 22.972213 28.293945 22.972213 28.293945 23.384031 27.882126 23.384031 27.882126 23.795849 27.05849 23.795849 27.05849 24.207668 26.234854 24.207668 26.234854 24.619486 24.999399 24.619486 24.999399 24.207668 24.587581 24.207668 24.587581 15.971304 24.999399 15.971304 24.999399 15.559486 26.234854 15.559486 26.234854 15.971304 27.05849 15.971304 27.05849 16.383122 27.882126 16.383122 27.882126 16.79494 28.293945 16.79494 28.293945 17.206758 29.117581 17.206758 29.117581 17.618577 29.941217 17.618577 29.941217 18.030395 30.353035 18.030395 30.353035 18.442213 31.176672 18.442213 31.176672 18.854031 32.000308 18.854031 32.000308 19.265849 32.412126 19.265849 32.412126 19.677668 32.823945 19.677668" />
</svg>