<svg id="repeat_single_pixel_refresh_solid1_pixel_refresh_solid_Refresh" viewBox="0 0 24 24" fill="#6b7280" width="32" height="32" xmlns="http://www.w3.org/2000/svg" xmlns:xlink="http://www.w3.org/1999/xlink">
    <polygon points="23.85 14.154545 23.85 15.231818 22.772727 15.231818 22.772727 17.386364 21.695455 17.386364 21.695455 19.540909 20.618182 19.540909 20.618182 20.618182 19.540909 20.618182 19.540909 21.695455 17.386364 21.695455 17.386364 22.772727 15.231818 22.772727 15.231818 23.85 8.768182 23.85 8.768182 22.772727 6.613636 22.772727 6.613636 21.695455 4.459091 21.695455 4.459091 20.618182 2.304545 20.618182 2.304545 21.695455 1.227273 21.695455 1.227273 22.772727 0.15 22.772727 0.15 14.154545 8.768182 14.154545 8.768182 15.231818 7.690909 15.231818 7.690909 16.309091 6.613636 16.309091 6.613636 18.463636 7.690909 18.463636 7.690909 19.540909 9.845455 19.540909 9.845455 20.618182 14.154545 20.618182 14.154545 19.540909 16.309091 19.540909 16.309091 18.463636 17.386364 18.463636 17.386364 17.386364 18.463636 17.386364 18.463636 15.231818 19.540909 15.231818 19.540909 14.154545 23.85 14.154545" />
    <polygon points="23.85 1.227273 23.85 9.845455 15.231818 9.845455 15.231818 8.768182 16.309091 8.768182 16.309091 7.690909 17.386364 7.690909 17.386364 5.536364 16.309091 5.536364 16.309091 4.459091 14.154545 4.459091 14.154545 3.381818 9.845455 3.381818 9.845455 4.459091 7.690909 4.459091 7.690909 5.536364 6.613636 5.536364 6.613636 6.613636 5.536364 6.613636 5.536364 8.768182 4.459091 8.768182 4.459091 9.845455 0.15 9.845455 0.15 8.768182 1.227273 8.768182 1.227273 6.613636 2.304545 6.613636 2.304545 4.459091 3.381818 4.459091 3.381818 3.381818 4.459091 3.381818 4.459091 2.304545 6.613636 2.304545 6.613636 1.227273 8.768182 1.227273 8.768182 0.15 15.231818 0.15 15.231818 1.227273 17.386364 1.227273 17.386364 2.304545 19.540909 2.304545 19.540909 3.381818 21.695455 3.381818 21.695455 2.304545 22.772727 2.304545 22.772727 1.227273 23.85 1.227273" />
    <polygon transform="translate(0.027814 0.193138)" points="11.457561 16.550159 11.457561 5.523852 11.821347 5.523852 11.821347 5.160066 12.284563 5.160066 12.284563 5.523852 12.648349 5.523852 12.648349 16.550159 12.284563 16.550159 12.284563 16.913945 11.821347 16.913945 11.821347 16.550159" />
    <polygon transform="rotate(41.5 11.575572 7.601281)" points="10.251858 9.744131 10.251858 5.653826 10.615644 5.653826 10.615644 5.29004 11.07886 5.29004 11.07886 5.653826 11.442646 5.653826 11.442646 9.744131 11.07886 9.744131 11.07886 10.107917 10.615644 10.107917 10.615644 9.744131" />
    <polygon points="9.117632 16.214769 15.142248 16.214769 15.142248 16.578555 15.506034 16.578555 15.506034 17.041771 15.142248 17.041771 15.142248 17.405557 9.117632 17.405557 9.117632 17.041771 8.753846 17.041771 8.753846 16.578555 9.117632 16.578555" />
</svg>