<svg viewBox="0 0 24 24" fill="#fafafa" width="33" height="33" xmlns="http://www.w3.org/2000/svg" xmlns:xlink="http://www.w3.org/1999/xlink"><polygon points="23 10.9 23 13.1 21.9 13.1 21.9 14.2 20.8 14.2 20.8 15.3 18.6 15.3 18.6 16.4 16.4 16.4 16.4 17.5 15.3 17.5 15.3 18.6 13.1 18.6 13.1 19.7 10.9 19.7 10.9 20.8 9.8 20.8 9.8 21.9 7.6 21.9 7.6 23 5.4 23 5.4 24.1 2.1 24.1 2.1 23 1 23 1 1 2.1 1 2.1 -0.1 5.4 -0.1 5.4 1 7.6 1 7.6 2.1 9.8 2.1 9.8 3.2 10.9 3.2 10.9 4.3 13.1 4.3 13.1 5.4 15.3 5.4 15.3 6.5 16.4 6.5 16.4 7.6 18.6 7.6 18.6 8.7 20.8 8.7 20.8 9.8 21.9 9.8 21.9 10.9 23 10.9" /></svg>