<svg id="repeat_off_pixel_refresh_solid1_pixel_refresh_solid_Refresh" viewBox="0 0 24 24" fill="#6b7280" width="32" height="32" xmlns="http://www.w3.org/2000/svg" xmlns:xlink="http://www.w3.org/1999/xlink">
    <polygon points="24 14.181818 24 15.272727 22.909091 15.272727 22.909091 17.454545 21.818182 17.454545 21.818182 19.636364 20.727273 19.636364 20.727273 20.727273 19.636364 20.727273 19.636364 21.818182 17.454545 21.818182 17.454545 22.909091 15.272727 22.909091 15.272727 24 8.727273 24 8.727273 22.909091 6.545455 22.909091 6.545455 21.818182 4.363636 21.818182 4.363636 20.727273 2.181818 20.727273 2.181818 21.818182 1.090909 21.818182 1.090909 22.909091 0 22.909091 0 14.181818 8.727273 14.181818 8.727273 15.272727 7.636364 15.272727 7.636364 16.363636 6.545455 16.363636 6.545455 18.545455 7.636364 18.545455 7.636364 19.636364 9.818182 19.636364 9.818182 20.727273 14.181818 20.727273 14.181818 19.636364 16.363636 19.636364 16.363636 18.545455 17.454545 18.545455 17.454545 17.454545 18.545455 17.454545 18.545455 15.272727 19.636364 15.272727 19.636364 14.181818 24 14.181818" />
    <polygon points="24 1.090909 24 9.818182 15.272727 9.818182 15.272727 8.727273 16.363636 8.727273 16.363636 7.636364 17.454545 7.636364 17.454545 5.454545 16.363636 5.454545 16.363636 4.363636 14.181818 4.363636 14.181818 3.272727 9.818182 3.272727 9.818182 4.363636 7.636364 4.363636 7.636364 5.454545 6.545455 5.454545 6.545455 6.545455 5.454545 6.545455 5.454545 8.727273 4.363636 8.727273 4.363636 9.818182 0 9.818182 0 8.727273 1.090909 8.727273 1.090909 6.545455 2.181818 6.545455 2.181818 4.363636 3.272727 4.363636 3.272727 3.272727 4.363636 3.272727 4.363636 2.181818 6.545455 2.181818 6.545455 1.090909 8.727273 1.090909 8.727273 0 15.272727 0 15.272727 1.090909 17.454545 1.090909 17.454545 2.181818 19.636364 2.181818 19.636364 3.272727 21.818182 3.272727 21.818182 2.181818 22.909091 2.181818 22.909091 1.090909 24 1.090909" />
    <polygon transform="rotate(-45 12.3 12)" points="13.689615 -3.217928 13.689615 27.09194 12.689615 27.09194 12.689615 28.09194 11.416295 28.09194 11.416295 27.09194 10.416295 27.09194 10.416295 -3.217928 11.416295 -3.217928 11.416295 -4.217928 12.689615 -4.217928 12.689615 -3.217928" />
</svg>