<svg viewBox="0 0 512 512" fill="#294cbd" width="200" height="200" version="1.1" xmlns="http://www.w3.org/2000/svg" xmlns:xlink="http://www.w3.org/1999/xlink">    <path fill="#fafafa" d="M270.2915 132.4694c-12.5987 0-30.9086 0.903-43.5756-0.3961-15.4495-1.5846-43.2931 6.7673-52.3209-3.6403-6.19-7.1361-3.528-19.9183-3.528-29.3993 0-10.5478 5.8061-26.6647 13.0657-36.6812 6.9114-9.5362 14.9124-16.5327 25.7492-24.5609 14.2583-7.8106 28.5044-12.2803 42.7833-13.8649 14.7142 1.5846 28.4146 1.9282 39.3344 7.2896 11.3213 5.5585 21.6713 12.9136 29.9903 22.4211 7.7803 8.8915 11.4882 18.6185 16.638 29.7105 3.5893 7.7309 6.6826 26.7453 4.7019 36.6488-2.3405 11.7026-11.9118 14.3021-22.9245 14.0573-17.8263-0.3961-32.2444-1.5846-49.9138-1.5846z" />    <path fill="#fafafa" d="M169.5618 155.5596c0 66.6653 0 133.3307 0 202.0162 57.047 0 114.0939 0 172.8696 0 0-66.6653 0-133.3307 0-202.0162-57.047 0-114.0939 0-172.8696 0z" />    <path fill="currentColor" transform="translate(282.890625 26.675781)" d="M1.9618-16.7276c12.5527 3.8773 24.001 9.5013 34.4558 17.5172 3.71 3.0907 7.2387 6.3245 10.7308 9.6577 0.969 0.8486 0.969 0.8486 1.9576 1.7144 7.6762 6.9962 13.6632 16.4464 18.2507 25.712 5.1863 11.5674 9.4379 24.5526 9.935 37.3015 0.0378 2.9482 0.0408 5.8945 0.032 8.8429 14e-4 1.6923 14e-4 1.6923 28e-4 3.4188 17e-4 3.7731-42e-4 7.546-0.01 11.319-3e-4 2.7076-2e-4 5.4152 4e-4 8.1227 3e-4 5.8254-28e-4 11.6509-88e-4 17.4763-87e-4 8.4225-0.0115 16.845-0.0129 25.2675-23e-4 13.666-95e-4 27.3321-0.0196 40.9981-99e-4 13.2727-0.0175 26.5454-0.022 39.8181-3e-4 0.8186-6e-4 1.6372-9e-4 2.4806-14e-4 4.1067-27e-4 8.2134-41e-4 12.3201-0.0111 34.0516-0.0301 68.1031-0.054 102.1547-0.7082 0.7082-1.4164 1.4165-2.1461 2.1462-4.6035 0.3541-9.207 0.7082-13.95 1.073-0.6875 1.115-1.375 2.2299-2.0833 3.3786-0.9374 1.5119-1.875 3.0237-2.8127 4.5354-0.4488 0.729-0.8977 1.458-1.3602 2.209-3.7957 6.1075-7.8437 11.8592-11.9862 17.7771-16.9976 0-33.9951 0-51.5078 0 0 3.8953 0 7.7905 0 11.8039 3.8953 0 7.7906 0 11.8039 0 3.2192 4.2923 3.2192 4.2923 4.2913 8.057 0.3203 1.495 0.6273 2.9929 0.9232 4.4929 0.1647 0.8022 0.3294 1.6043 0.4991 2.4307 0.3447 1.6963 0.6834 3.3938 1.0167 5.0924 0.5076 2.5687 1.0434 5.1304 1.5819 7.6929 3.0364 14.9119 3.0364 14.9119 1.7788 22.751-0.143 0.6811-0.286 1.3622-0.4333 2.0639-0.1895 1.043-0.379 2.086-0.5743 3.1606-0.5239 2.1657-1.0479 4.3314-1.5718 6.4971-1.4165 1.0624-2.833 2.1247-4.2924 3.2193-21.9552 0-43.9103 0-66.5308 0-1.4165-1.0624-2.833-2.1247-4.2924-3.2193-0.5802-2.2749-1.1336-4.5567-1.6766-6.8409-0.4669-1.9047-0.4669-1.9047-0.9432-3.8479-1.724-9.6992 1.2329-19.8912 3.1286-29.3929 0.4334-2.1871 0.849-4.3772 1.2643-6.5679 0.277-1.4044 0.555-2.8086 0.8342-4.2126 0.246-1.2579 0.4921-2.5158 0.7456-3.8119 0.9395-3.2721 0.9395-3.2721 4.1587-7.5644 3.8953 0 7.7905 0 11.8039 0 0-3.8953 0-7.7906 0-11.8039-16.9976 0-33.9952 0-51.5078 0-4.6266-6.6094-9.1277-13.1348-13.3464-19.9861-0.478-0.7705-0.9559-1.541-1.4483-2.3348-1.152-1.858-2.3002-3.7183-3.4477-5.5792-4.6035-0.3541-9.207-0.7082-13.95-1.073-0.7082-0.7083-1.4164-1.4165-2.1461-2.1462-0.0982-34.8041-0.174-69.6081-0.2192-104.4123-54e-4-4.1177-0.011-8.2354-0.0166-12.3531-12e-4-0.8197-23e-4-1.6394-34e-4-2.4839-0.0187-13.2372-0.0525-26.4743-0.092-39.7115-0.0403-13.6029-0.064-27.2058-0.0727-40.8088-59e-4-8.3802-0.0243-16.7601-0.0594-25.1402-0.0255-6.4478-0.028-12.8954-0.0222-19.3432-12e-4-2.629-96e-4-5.2581-0.0262-7.887-0.1088-18.1653 1.4803-34.127 7.6879-51.273 5.452-12.8083 13.1826-23.5391 22.87-33.5337 0.5643-0.6432 1.1287-1.2865 1.7102-1.9492 7.1298-7.8391 16.7019-13.7117 26.0808-18.498 23.0088-11.0529 50.441-13.5531 75.1072-6.7277zM-33.3325-7.7951c-0.3541 4.2494-0.7082 8.4988-1.0731 12.877-13.8105 0.3541-27.621 0.7082-41.85 1.0731-13.0903 10.0694-23.0268 18.732-31.3037 32.7289-3.3431 6.4003-5.9986 13.0472-8.4002 19.8519 0 0.3541 0 0.7083 0 1.0731 15.2269 0 30.4539 0 46.1423 0 0 8.4988 0 16.9976 0 25.7539-0.3541 0.3541-0.7082 0.7082-1.073 1.0731-15.9353 0.3541-31.8705 0.7082-48.2886 1.073 0 2.1247 0 4.2494 0 6.4385 60.908 0 121.8159 0 184.5696 0 0-2.1247 0-4.2494 0-6.4385-6.3741-0.3541-12.7482-0.7082-19.3154-1.073 0-8.4988 0-16.9976 0-25.7539 4.9576-0.3541 9.9152-0.7083 15.0231-1.0731-0.5583-5.9186-2.0606-10.4188-4.7618-15.6938-0.3793-0.7443-0.7586-1.4887-1.1493-2.2556C49.1823 30.47 41.3547 21.2589 31.7397 12.7234c-2.953-2.372-6.1206-4.4674-9.2721-6.5684C1.7518 5.6238 1.7518 5.6238-19.3825 5.0819c-0.5311-6.3741-0.5311-6.3741-1.073-12.877-4.2494 0-8.4988 0-12.877 0zM-48.2382-5.5483c-0.7608 0.2421-1.5216 0.4841-2.3055 0.7335-0.7829 0.256-1.5658 0.5119-2.3725 0.7755-0.7995 0.2559-1.599 0.5118-2.4228 0.7755-1.9663 0.6302-3.9301 1.268-5.8935 1.9072 0 0.3541 0 0.7082 0 1.0731 7.0823 0 14.1646 0 21.4616 0 0-2.1247 0-4.2494 0-6.4385-3.499 0-5.2987 0.1516-8.4673 1.1737zM-14.0171-6.722c0 2.1247 0 4.2494 0 6.4385 7.4365 0 14.8729 0 22.5347 0C4.9711-2.6478 1.9468-3.5504-2.1461-4.71c-1.3155-0.379-2.631-0.758-3.9863-1.1485-3.6721-1.0307-3.6721-1.0307-7.8847-0.8635zM-117.0326 66.2474c-2.2865 9.6084-2.2865 9.6084-2.1462 15.0231 14.5188 0 29.0375 0 43.9963 0 0-4.9576 0-9.9153 0-15.0231-13.8106 0-27.6211 0-41.8501 0zM51.4407 66.2474c0 4.9576 0 9.9152 0 15.0231 4.6036 0 9.2071 0 13.9501 0-0.155-2.0805-0.3099-4.1609-0.4695-6.3044-0.0871-1.1702-0.1743-2.3404-0.2641-3.5462-0.1571-2.9698-0.1571-2.9698-1.4126-5.1725-3.8953 0-7.7905 0-11.8039 0zM-119.1788 105.9513c0 1.0623 0 2.1247 0 3.2192 60.908 0 121.8159 0 184.5696 0 0-1.0623 0-2.1247 0-3.2192-60.908 0-121.8159 0-184.5696 0zM-119.1788 122.0475c0 71.1773 0 142.3546 0 215.6888 60.908 0 121.8159 0 184.5696 0 0-71.1773 0-142.3546 0-215.6888-60.908 0-121.8159 0-184.5696 0zM-99.8634 349.5402c1.7516 4.379 3.4965 7.6991 6.0361 11.6026 0.6778 1.0472 1.3556 2.0943 2.0539 3.1732 0.5174 0.7898 1.0347 1.5796 1.5678 2.3934 3.5411 0 7.0823 0 10.7307 0-1.7727-6.1241-4.6089-11.5168-7.5115-17.1692-4.2494 0-8.4988 0-12.877 0zM-73.0364 349.5402c1.4832 4.4497 2.8605 8.1118 4.963 12.2062 1.2615 2.4567 1.2615 2.4567 2.5486 4.963 6.7282 0 13.4564 0 20.3885 0-2.6559-8.4988-2.6559-8.4988-5.3654-17.1692-7.4365 0-14.8729 0-22.5347 0zM-37.6248 349.5402c0.4869 2.0361 0.9738 4.0723 1.4755 6.1702 0.2739 1.1453 0.5478 2.2907 0.83 3.4707 0.8805 3.5045 0.8805 3.5045 3.0599 7.5283 3.5412 0 7.0823 0 10.7308 0 2.7523-5.8799 3.902-10.5841 5.3654-17.1692-7.0823 0-14.1647 0-21.4616 0zM-3.2863 349.5402c-1.7706 5.6658-3.5411 11.3317-5.3654 17.1692 6.7282 0 13.4564 0 20.3885 0 1.2394-2.4345 2.4788-4.8691 3.7558-7.3774 0.3922-0.7648 0.7843-1.5295 1.1884-2.3175 0.8879-1.7602 1.7287-3.5439 2.5674-5.3282 0-0.7082 0-1.4164 0-2.1461-7.4365 0-14.8729 0-22.5347 0zM33.1984 349.5402c-1.2572 2.4566-2.5082 4.9159-3.7558 7.3774-0.3582 0.6985-0.7165 1.3971-1.0856 2.1168-0.9228 1.8268-1.7996 3.6766-2.6701 5.5289 0 0.7082 0 1.4164 0 2.1461 3.5411 0 7.0823 0 10.7307 0 3.1871-4.9576 6.3741-9.9152 9.6578-15.0231 0-0.7082 0-1.4164 0-2.1461-4.2494 0-8.4988 0-12.877 0zM-33.3325 378.5133c0 3.8953 0 7.7905 0 11.8039 4.2494 0 8.4988 0 12.877 0 0-3.8953 0-7.7906 0-11.8039-4.2494 0-8.4988 0-12.877 0zM-48.3556 402.121c-1.6534 4.9601-2.8788 9.5246-3.8899 14.6207-0.2794 1.3861-0.5588 2.7721-0.8467 4.2001-0.7482 3.7914-0.7482 3.7914-0.6288 8.0062 17.7058 0 35.4116 0 53.654 0-0.7005-6.3041-1.4737-12.1511-2.7498-18.3094-0.1487-0.7242-0.2974-1.4483-0.4506-2.1944-0.3601-1.7508-0.7255-3.5006-1.0919-5.2501-0.5312-0.5312-0.5312-0.5312-1.0731-1.0731-14.1647 0-28.3293 0-42.9232 0zM-53.721 440.7519c0 0.7082 0 1.4164 0 2.1461 17.7058 0 35.4116 0 53.654 0 0-0.7082 0-1.4165 0-2.1461-17.7058 0-35.4116 0-53.654 0z" />    <path fill="#dadada" transform="translate(107 144)" d="M-10.8921-8.1537c15.9352 0 31.8704 0 48.2885 0 1.4165 1.0624 2.833 2.1247 4.2923 3.2192 0 89.2373 0 178.4745 0 270.4159-0.7082 1.0623-1.4164 2.1247-2.1461 3.2192-0.7082 0-1.4165 0-2.1462 0 0 1.4165 0 2.8329 0 4.2923 3.1871 0 6.3741 0 9.6577 0 1.0624 1.0624 2.1247 2.1247 3.2193 3.2193 1.5408 7.9204 3.0675 15.8434 4.5847 23.7683 0.5172 2.6931 1.0377 5.3856 1.5614 8.0774 0.7542 3.8796 1.4968 7.7611 2.2373 11.6433 0.2347 1.1942 0.4695 2.3884 0.7113 3.6187 1.2465 6.6026 1.9984 12.7025 1.6361 19.4232-0.7983 2.9647-1.8514 5.7087-3.0851 8.5175-0.2891 0.7062-0.5782 1.4123-0.8761 2.1399-0.7709 1.8369-1.6194 3.6408-2.4773 5.4387-0.7082 0.7083-1.4165 1.4165-2.1462 2.1462-25.8504 0-51.7009 0-78.3347 0-2.3826-3.9709-4.374-7.5775-6.1702-11.8039-0.7221-1.6267-0.7221-1.6267-1.4587-3.2863-1.0025-3.4174-1.0591-6.4547-0.8761-10.0056 1.1625-11.707 3.6611-23.2556 5.8894-34.7954 0.461-2.4178 0.9214-4.8357 1.3811-7.2538 1.1189-5.8776 2.2464-11.7535 3.3806-17.6282 1.0624-1.0624 2.1247-2.1247 3.2193-3.2193 3.187 0 6.3741 0 9.6577 0 0-1.4164 0-2.8329 0-4.2923-1.0624-0.3541-2.1247-0.7082-3.2192-1.0731-0.3542-0.7082-0.7083-1.4164-1.0731-2.1461-0.0976-1.9508-0.1262-3.9052-0.1218-5.8585 0-1.2244 1e-4-2.4488 2e-4-3.7103 55e-4-1.3269 0.0111-2.6537 0.0168-4.0208 15e-4-1.3545 3e-3-2.7091 46e-4-4.1048 5e-3-3.6023 0.0146-7.2046 0.0265-10.807 0.011-3.6755 0.0159-7.351 0.0213-11.0265 0.0118-7.2125 0.0298-14.4251 0.0524-21.6376 2.1247-1.0624 2.1247-1.0624 4.2923-2.1462-0.3541-27.621-0.7082-55.2421-1.0731-83.7001-1.0623-1.0624-2.1247-2.1247-3.2192-3.2192 0-39.661 0-79.322 0-120.1849 1.4164-1.0623 2.8329-2.1247 4.2923-3.2192zM-3.3806 4.7232c0 33.6411 0 67.2821 0 101.9425 10.9776 0 21.9552 0 33.2655 0 0-33.641 0-67.282 0-101.9425-10.9776 0-21.9552 0-33.2655 0zM1.9848 118.4696c0 27.2669 0 54.5339 0 82.6271 9.207 0 18.4141 0 27.9001 0 0-27.267 0-54.5339 0-82.6271-9.207 0-18.4141 0-27.9001 0zM-3.3806 212.9005c0 14.5188 0 29.0375 0 43.9963 10.9776 0 21.9552 0 33.2655 0 0-14.5188 0-29.0376 0-43.9963-10.9776 0-21.9552 0-33.2655 0zM1.9848 268.7006c0 1.4165 0 2.8329 0 4.2923 7.4365 0 14.8729 0 22.5347 0 0-1.4164 0-2.8329 0-4.2923-7.4364 0-14.8729 0-22.5347 0zM-13.0383 284.7968c-1.4164 7.5692-2.8329 15.1385-4.2923 22.9371-0.4482 2.3894-0.8963 4.7788-1.3581 7.2406-0.3523 1.8871-0.7044 3.7743-1.0563 5.6615-0.1854 0.9853-0.3707 1.9706-0.5617 2.9858-0.1743 0.9365-0.3486 1.8731-0.5282 2.838-0.1525 0.815-0.305 1.6299-0.4621 2.4696-0.3832 2.0235-0.3832 2.0235-0.3259 4.1559 23.0175 0 46.0351 0 69.7501 0-2.7777-16.1108-5.5718-32.22-8.5846-48.2885-17.3517 0-34.7034 0-52.5809 0zM-19.4767 344.8892c0.3541 1.4165 0.7082 2.8329 1.073 4.2923 20.8929 0 41.7857 0 63.3117 0 0.3541-1.4164 0.7082-2.8329 1.0731-4.2923-21.6011 0-43.2022 0-65.4578 0z" />    <path fill="#dadada" transform="translate(360 144)" d="M7.5968-8.1537c15.9352 0 31.8705 0 48.2886 0 1.4164 1.0624 2.8329 2.1247 4.2923 3.2192 0 39.661 0 79.322 0 120.1849-1.0624 1.0623-2.1247 2.1247-3.2193 3.2192-0.3541 27.621-0.7082 55.2421-1.073 83.7001 2.1247 1.0624 2.1247 1.0624 4.2923 2.1462 0 20.1846 0 40.3692 0 61.1655-0.7083 1.0623-1.4165 2.1247-2.1462 3.2192-0.7082 0-1.4165 0-2.1461 0 0 1.4165 0 2.8329 0 4.2923 3.187 0 6.374 0 9.6577 0 1.0623 1.0624 2.1247 2.1247 3.2192 3.2193 1.5378 8.1131 3.0649 16.2282 4.5847 24.3447 0.518 2.7596 1.0385 5.5188 1.5614 8.2775 0.7522 3.9704 1.4956 7.9424 2.2373 11.9147 0.2348 1.2288 0.4695 2.4575 0.7113 3.7235 1.0768 5.8117 2.062 11.2847 1.6361 17.1974-0.557 2.3948-0.557 2.3948-1.333 4.4139-0.2808 0.7407-0.5616 1.4814-0.8509 2.2446-0.2974 0.7463-0.5948 1.4926-0.9012 2.2614-0.2891 0.7671-0.5782 1.5341-0.8761 2.3243-0.7716 1.9968-1.6198 3.9636-2.4773 5.925-0.7082 0.7083-1.4164 1.4165-2.1461 2.1462-25.8505 0-51.701 0-78.3348 0-2.3237-3.8729-4.2975-7.4364-6.1031-11.5356-0.469-1.0347-0.9379-2.0694-1.421-3.1354-1.3333-4.4899-1.3549-8.5993-1.0605-13.2291 0.6185-4.4947 1.4724-8.9329 2.3473-13.3841 0.2382-1.2487 0.4764-2.4974 0.7218-3.7839 0.7571-3.959 1.5265-7.9156 2.2963-11.8721 0.5178-2.6959 1.0348-5.3918 1.5509-8.088 1.2622-6.5835 2.5344-13.165 3.8145-19.745 1.0623-1.0624 2.1247-2.1247 3.2192-3.2193 3.187 0 6.3741 0 9.6577 0 0-1.4164 0-2.8329 0-4.2923-1.0623-0.3541-2.1247-0.7082-3.2192-1.0731-0.3541-0.7082-0.7083-1.4164-1.0731-2.1461-0.0995-1.4931-0.1328-2.9909-0.132-4.4873-22e-4-0.9462-43e-4-1.8925-65e-4-2.8674 47e-4-1.5689 47e-4-1.5689 95e-4-3.1694-1e-3-1.1061-19e-4-2.2122-28e-4-3.3518-18e-4-3.7304 41e-4-7.4607 0.01-11.1911 3e-4-2.6645 1e-4-5.3289-5e-4-7.9934-2e-4-5.7488 28e-4-11.4976 88e-4-17.2464 88e-4-8.3119 0.0116-16.6238 0.0129-24.9357 24e-4-13.4845 95e-4-26.969 0.0196-40.4535 99e-4-13.1012 0.0175-26.2024 0.0221-39.3036 4e-4-1.2108 4e-4-1.2108 8e-4-2.446 14e-4-4.0492 28e-4-8.0984 41e-4-12.1476 0.0111-33.6076 0.0301-67.2151 0.054-100.8227 1.4165-1.0623 2.8329-2.1247 4.2923-3.2192zM15.1084 4.7232c0 33.6411 0 67.2821 0 101.9425 10.9776 0 21.9552 0 33.2654 0 0-33.641 0-67.282 0-101.9425-10.9776 0-21.9552 0-33.2654 0zM15.1084 118.4696c0 27.2669 0 54.5339 0 82.6271 9.207 0 18.414 0 27.9 0 0-27.267 0-54.5339 0-82.6271-9.207 0-18.414 0-27.9 0zM15.1084 212.9005c0 14.5188 0 29.0375 0 43.9963 10.9776 0 21.9552 0 33.2654 0 0-14.5188 0-29.0376 0-43.9963-10.9776 0-21.9552 0-33.2654 0zM20.4738 268.7006c0 1.4165 0 2.8329 0 4.2923 7.4364 0 14.8728 0 22.5346 0 0-1.4164 0-2.8329 0-4.2923-7.4364 0-14.8729 0-22.5346 0zM5.4507 284.7968c-1.4165 7.5692-2.833 15.1385-4.2924 22.9371-0.4481 2.3894-0.8963 4.7788-1.3581 7.2406-0.3522 1.8871-0.7043 3.7743-1.0563 5.6615-0.1853 0.9853-0.3707 1.9706-0.5617 2.9858-0.1743 0.9365-0.3486 1.8731-0.5281 2.838-0.1525 0.815-0.305 1.6299-0.4622 2.4696-0.3831 2.0235-0.3831 2.0235-0.3259 4.1559 23.0176 0 46.0351 0 69.7501 0-2.7777-16.1108-5.5717-32.22-8.5846-48.2885-17.3517 0-34.7034 0-52.5808 0zM-0.9878 344.8892c0.3541 1.4165 0.7082 2.8329 1.0731 4.2923 20.8928 0 41.7856 0 63.3116 0 0.3541-1.4164 0.7082-2.8329 1.0731-4.2923-21.6011 0-43.2022 0-65.4578 0z" />    <path transform="translate(236 222)" d="M-1.465-2.4536c14.1647 0 28.3293 0 42.9232 0 0.5312 0.5312 0.5312 0.5312 1.0731 1.0731 0 28.3293 0 56.6586 0 85.8463-0.3541 0.3541-0.7083 0.7083-1.0731 1.0731-14.1646 0-28.3293 0-42.9232 0-0.3541-0.3541-0.7082-0.7082-1.073-1.0731 0-28.3293 0-56.6585 0-85.8463 0.3541-0.3541 0.7082-0.7082 1.073-1.0731zM3.9004 3.9849c0 24.7881 0 49.5763 0 75.1155 10.6235 0 21.247 0 32.1924 0 0-24.7881 0-49.5762 0-75.1155-10.6235 0-21.247 0-32.1924 0z" />    <path transform="translate(196 202)" d="M-4.3881-5.0151c42.4939 0 84.9878 0 128.7694 0 0.5312 0.5311 0.5312 0.5311 1.0731 1.0731 0 2.8329 0 5.6658 0 8.5846-0.3541 0.3541-0.7082 0.7082-1.0731 1.0731-42.4939 0-84.9878 0-128.7694 0-0.3541-0.3542-0.7082-0.7083-1.0731-1.0731 0-2.8329 0-5.6659 0-8.5846 0.3541-0.3542 0.7083-0.7083 1.0731-1.0731z" />    <path transform="translate(197 182)" d="M-4.315-6.4767c41.7857 0 83.5713 0 126.6233 0 1.0623 1.0623 1.0623 1.0623 2.1461 2.1462 0 2.4788 0 4.9576 0 7.5115-0.3541 0.3541-0.7082 0.7082-1.0731 1.0731-42.4939 0-84.9878 0-128.7694 0C-5.7422 3.9-6.0963 3.5459-6.4612 3.181c0-2.4788 0-4.9576 0-7.5115 0.7083-0.7083 1.4165-1.4165 2.1462-2.1462z" />    <path transform="translate(196 163)" d="M-4.3881-7.8652c42.4939 0 84.9878 0 128.7694 0 0.5312 0.5312 0.5312 0.5312 1.0731 1.0731 0 2.4788 0 4.9576 0 7.5115-0.7082 0.7083-1.4164 1.4165-2.1461 2.1462-41.7857 0-83.5714 0-126.6233 0-0.7083-0.7082-1.4165-1.4165-2.1462-2.1462 0-2.4788 0-4.9576 0-7.5115 0.3541-0.3541 0.7083-0.7083 1.0731-1.0731z" />    <path fill="currentColor" transform="translate(234 57)" d="M-1.6111-14.5115c15.5811 0 31.1622 0 47.2155 0 2.0456 6.1369 3.883 11.9269 5.2144 18.1962 0.1648 0.7621 0.3295 1.5243 0.4992 2.3095 0.3417 1.5908 0.6806 3.1822 1.0167 4.7742 0.5162 2.4345 1.0486 4.8651 1.5818 7.296 0.3321 1.5556 0.6633 3.1114 0.9935 4.6674 0.1597 0.7222 0.3195 1.4443 0.484 2.1883 0.6036 2.9191 0.9958 5.3155 0.4937 8.2729-0.2065 0.5469-0.4129 1.0937-0.6256 1.6571-0.3542 0.3541-0.7083 0.7082-1.0731 1.0731-21.6011 0-43.2022 0-65.4578 0-1.0731-5.3654-1.0731-5.3654-0.8355-7.6809 0.2609-1.1545 0.2609-1.1545 0.5271-2.3324 0.2902-1.3206 0.2902-1.3206 0.5862-2.6679 0.2168-0.9347 0.4336-1.8694 0.6569-2.8324 0.2159-0.9689 0.4318-1.9379 0.6542-2.9362 0.6899-3.0854 1.3946-6.1672 2.0998-9.2491 0.4711-2.0949 0.9413-4.1901 1.4105-6.2855 1.1505-5.1283 2.3144-10.2535 3.4854-15.3773 0.3541-0.3541 0.7082-0.7082 1.0731-1.073zM2.6812-8.0731C1.4418-2.2744 0.2024 3.5242-1.0746 9.4986c-0.3921 1.8292-0.7843 3.6584-1.1883 5.543-0.3083 1.447-0.6164 2.894-0.9243 4.3411-0.1622 0.7536-0.3244 1.5072-0.4915 2.2836-0.8547 3.8752-0.8547 3.8752-1.1516 7.8184 17.7058 0 35.4116 0 53.6539 0-1.2615-6.3077-1.2615-6.3077-2.5486-12.7428-2.4815-12.4075-2.4815-12.4075-4.963-24.815-12.7481 0-25.4963 0-38.6308 0z" />    <path transform="translate(225 112)" d="M-2.2688-10.4922c21.9552 0 43.9104 0 66.5309 0 0.5311 0.5312 0.5311 0.5312 1.073 1.0731 0 3.187 0 6.3741 0 9.6577-0.7082 0.7082-1.4164 1.4164-2.1461 2.1461-21.247 0-42.4939 0-64.3847 0-0.7083-0.7082-1.4165-1.4164-2.1462-2.1461 0-3.1871 0-6.3741 0-9.6577 0.3541-0.3542 0.7082-0.7083 1.0731-1.0731z" />    <path transform="translate(176 313)" d="M-5.8497 4.1966c10.2694 0 20.5387 0 31.1193 0 0.7082 1.0624 1.4165 2.1247 2.1462 3.2192 0.0264 5.3095 0.0459 10.619 0.0589 15.9286 54e-4 1.8069 0.0127 3.6139 0.022 5.4209 0.013 2.5943 0.0191 5.1886 0.0239 7.783 55e-4 0.8104 0.011 1.6209 0.0167 2.4559 3e-4 1.9902-0.0559 3.9803-0.1215 5.9694-0.5312 1.0624-0.5312 1.0624-1.0731 2.1462-10.9776 0-21.9552 0-33.2655 0-0.3541-0.3542-0.7082-0.7083-1.073-1.0731 0-13.1023 0-26.2046 0-39.7039 0.7082-0.7083 1.4164-1.4165 2.1461-2.1462zM-1.5574 10.6351c0 9.9152 0 19.8305 0 30.0462 7.0824 0 14.1647 0 21.4616 0 0-9.9153 0-19.8305 0-30.0462-7.0823 0-14.1646 0-21.4616 0z" />    <path transform="translate(260 311)" d="M0.2889 4.0505c2.9889 0.8823 5.7109 1.9876 8.5847 3.2192 6.6577 7.174 6.6577 7.174 9.0541 11.1332 0.9809 4.5778 1.1646 8.8957 0.6036 13.5476-0.9584 3.254-2.2867 5.8519-4.2923 8.5846-3.0057 3.2052-6.2233 5.6725-9.9931 7.914-4.5985 1.0694-8.9261 1.2362-13.6147 0.6707-3.2539-0.9584-5.8518-2.2868-8.5846-4.2924-3.2051-3.0056-5.6725-6.2232-7.914-9.993-1.0694-4.5985-1.2361-8.9261-0.6706-13.6147 0.9585-3.2544 2.2905-5.849 4.2923-8.5846 2.2981-2.504 4.6821-4.5563 7.5115-6.4385 4.8681-2.2787 9.7043-2.8283 15.0231-2.1461zM-6.1495 10.4889c-2.6909 0.9497-5.0415 1.826-7.5116 3.2193-2.0768 2.0202-3.642 4.0883-5.3654 6.4384-0.3541 3.1871-0.7082 6.3741-1.0731 9.6577 1.2134 3.0584 1.2134 3.0584 3.2193 6.4385 2.0358 2.0048 4.1498 3.6362 6.4384 5.3654 3.1871 0.3541 6.3741 0.7082 9.6578 1.0731 3.0584-1.2134 3.0584-1.2134 6.4384-3.2192 2.0048-2.0359 3.6362-4.1499 5.3654-6.4385 0.3541-3.1871 0.7083-6.3741 1.0731-9.6577-1.2134-3.0584-1.2134-3.0584-3.2192-6.4385-2.0359-2.0048-4.1499-3.6362-6.4385-5.3654-2.8329-0.3541-5.6659-0.7082-8.5846-1.0731z" />    <path d="M236.6812 48.9269c-1.2394 5.7987-2.4788 11.5973-3.7558 17.5717-0.3921 1.8292-0.7843 3.6584-1.1883 5.543-0.3083 1.447-0.6164 2.894-0.9243 4.3411-0.1622 0.7536-0.3244 1.5072-0.4915 2.2836-0.8547 3.8752-0.8547 3.8752-1.1516 7.8184 17.7058 0 35.4116 0 53.6539 0-1.2615-6.3077-1.2615-6.3077-2.5486-12.7428-2.4815-12.4075-2.4815-12.4075-4.963-24.815-12.7481 0-25.4963 0-38.6308 0z" />    <path fill="#000" transform="translate(263.74865 68.15081)" d="M0.5813-13.7077c5.2312 6.1702 5.2312 6.1702 6.4384 8.5846 0.2005 3.0073 0.3297 5.6172 0 8.5847-1.6096 3.7558-1.6096 3.7558-3.2192 6.4385-2.1247 1.4164-4.2494 2.8329-6.4385 4.2923-3.5411 0-7.0823 0-10.7308 0-3.018-1.8109-3.018-1.8109-6.4384-4.2923-2.0121-2.951-2.0121-2.951-3.2193-5.3654 0-3.1871 0-6.3741 0-9.6578 1.9204-3.0863 3.7079-5.8917 6.3714-8.3834 2.2132-1.2743 2.2132-1.2743 4.5606-2.1461 4.4258-0.2951 8.414 0.8215 12.6758 1.9449z" />    <path fill="currentColor" transform="translate(304 100)" d="M3.5044-11.3692C5.9832-10.6609 8.462-9.9527 11.016-9.223c1.4164 1.7706 2.8329 3.5412 4.2923 5.3654 0 2.4788 0 4.9576 0 7.5115-2.1247 3.1871-2.1247 3.1871-4.2923 6.4385-0.7083 0.3541-1.4165 0.7082-2.1462 1.0731-2.8677 0.144-5.7115 0.0463-8.5846 0-1.7706-1.0624-3.5412-2.1247-5.3654-3.2192-1.0731-1.7438-1.0731-1.7438-2.1462-4.2924-0.1341-3.4875-0.1341-3.4875 0-6.4384 1.4165-2.1247 2.8329-4.2494 4.2923-6.4385 2.1247-0.7082 4.2494-1.4165 6.4385-2.1462zM1.3582-3.8576C0.65-2.087-0.0582-0.3164-0.7879 1.5078 0.2744 2.5701 1.3368 3.6325 2.4313 4.727 4.2019 4.3729 5.9725 4.0188 7.7967 3.6539 8.1508 1.8834 8.5049 0.1128 8.8698-1.7115 8.1616-2.4197 7.4533-3.1279 6.7236-3.8576c-1.7705 0-3.5411 0-5.3654 0z" />    <path fill="#35323b" transform="translate(190 263)" d="M-4.8266 0.5427c2.5475-0.0764 5.0972-0.0903 7.6457-0.0671 1.375 97e-4 2.7499 0.0194 4.1666 0.0293 1.0596 0.0125 2.1191 0.0249 3.2108 0.0378 1.0624 1.0623 2.1247 2.1247 3.2193 3.2192-0.3542 1.0624-0.7083 2.1247-1.0731 3.2192-1.0624 0.5312-1.0624 0.5312-2.1462 1.0731C7.649 8.1306 5.0994 8.1445 2.5508 8.1213 1.1759 8.1116-0.1991 8.1019-1.6157 8.092-3.2051 8.0733-3.2051 8.0733-4.8266 8.0542-5.8889 7.346-6.9513 6.6378-8.0458 5.9081c0.3541-1.4165 0.7082-2.833 1.0731-4.2923 0.7082-0.3542 1.4164-0.7083 2.1461-1.0731z" />    <path fill="#35323b" transform="translate(189 275)" d="M-4.8997 1.4196c5.6659 0 11.3318 0 17.1693 0 0.7082 1.4165 1.4165 2.8329 2.1462 4.2923-0.3542 0.7083-0.7083 1.4165-1.0731 2.1462-6.3741 0-12.7482 0-19.3154 0-0.3541-1.4165-0.7083-2.8329-1.0731-4.2923 0.7082-0.7083 1.4165-1.4165 2.1461-2.1462z" />    <path fill="#35323b" transform="translate(188 252)" d="M-4.9727-0.2612c6.3741 0 12.7481 0 19.3154 0 0.3541 1.4165 0.7082 2.8329 1.0731 4.2923-0.7083 0.7083-1.4165 1.4165-2.1462 2.1462-5.6659 0-11.3317 0-17.1693 0-0.7082-0.7083-1.4164-1.4165-2.1461-2.1462 0.3541-1.4164 0.7082-2.8329 1.0731-4.2923z" />    <path fill="#35323b" transform="translate(189 298)" d="M-4.8997 3.1004c5.6659 0 11.3318 0 17.1693 0 0.7082 1.4165 1.4165 2.833 2.1462 4.2923-0.3542 0.7083-0.7083 1.4165-1.0731 2.1462-6.3741 0-12.7482 0-19.3154 0C-6.3268 8.1224-6.681 6.706-7.0458 5.2466c0.7082-0.7082 1.4165-1.4165 2.1461-2.1462z" />    <path fill="#35323b" transform="translate(188 287)" d="M-4.9727 2.2966c6.3741 0 12.7481 0 19.3154 0 0.3541 1.0623 0.7082 2.1247 1.0731 3.2192-1.0624 1.5935-1.0624 1.5935-2.1462 3.2192-5.6659 0-11.3317 0-17.1693 0-0.7082-0.7082-1.4164-1.4164-2.1461-2.1461 0.3541-1.4165 0.7082-2.8329 1.0731-4.2923z" />    <path d="M165.858 92.9232c-2.2865 9.6084-2.2865 9.6084-2.1462 15.0231 14.5188 0 29.0375 0 43.9963 0 0-4.9576 0-9.9153 0-15.0231-13.8106 0-27.6211 0-41.8501 0z" />    <path d="M334.3313 92.9232c0 4.9576 0 9.9152 0 15.0231 4.6036 0 9.2071 0 13.9501 0-0.155-2.0805-0.3099-4.1609-0.4695-6.3044-0.0871-1.1702-0.1743-2.3404-0.2641-3.5462-0.1571-2.9698-0.1571-2.9698-1.4126-5.1725-3.8953 0-7.7905 0-11.8039 0z" />    <path d="M234.6524 21.1275c-0.7608 0.2421-1.5216 0.4841-2.3055 0.7335-0.7829 0.256-1.5658 0.5119-2.3725 0.7755-0.7995 0.2559-1.599 0.5118-2.4228 0.7755-1.9663 0.6302-3.9301 1.268-5.8935 1.9072 0 0.3541 0 0.7082 0 1.0731 7.0823 0 14.1646 0 21.4616 0 0-2.1247 0-4.2494 0-6.4385-3.499 0-5.2987 0.1516-8.4673 1.1737z" />    <path d="M268.8735 19.9538c0 2.1247 0 4.2494 0 6.4385 7.4365 0 14.8729 0 22.5347 0-3.5465-2.3643-6.5708-3.2669-10.6637-4.4265-1.3155-0.379-2.631-0.758-3.9863-1.1485-3.6721-1.0307-3.6721-1.0307-7.8847-0.8635z" />    <path fill="#374151" d="M108.9848 262.4696c0 27.2669 0 54.5339 0 82.6271 9.207 0 18.4141 0 27.9001 0 0-27.267 0-54.5339 0-82.6271-9.207 0-18.4141 0-27.9001 0z" />    <path fill="#374151" d="M375.1084 262.4696c0 27.2669 0 54.5339 0 82.6271 9.207 0 18.414 0 27.9 0 0-27.267 0-54.5339 0-82.6271-9.207 0-18.414 0-27.9 0z" />    <path fill="#374151" d="M183.0272 376.216c1.7516 4.379 3.4965 7.6991 6.0361 11.6026 0.6778 1.0472 1.3556 2.0943 2.0539 3.1732 0.5174 0.7898 1.0347 1.5796 1.5678 2.3934 3.5411 0 7.0823 0 10.7307 0-1.7727-6.1241-4.6089-11.5168-7.5115-17.1692-4.2494 0-8.4988 0-12.877 0z" />    <path fill="#374151" d="M209.8542 376.216c1.4832 4.4497 2.8605 8.1118 4.963 12.2062 1.2615 2.4567 1.2615 2.4567 2.5486 4.963 6.7282 0 13.4564 0 20.3885 0-2.6559-8.4988-2.6559-8.4988-5.3654-17.1692-7.4365 0-14.8729 0-22.5347 0z" />    <path fill="#374151" d="M245.2658 376.216c0.4869 2.0361 0.9738 4.0723 1.4755 6.1702 0.2739 1.1453 0.5478 2.2907 0.83 3.4707 0.8805 3.5045 0.8805 3.5045 3.0599 7.5283 3.5412 0 7.0823 0 10.7308 0 2.7523-5.8799 3.902-10.5841 5.3654-17.1692-7.0823 0-14.1647 0-21.4616 0z" />    <path fill="#374151" d="M279.6043 376.216c-1.7706 5.6658-3.5411 11.3317-5.3654 17.1692 6.7282 0 13.4564 0 20.3885 0 1.2394-2.4345 2.4788-4.8691 3.7558-7.3774 0.3922-0.7648 0.7843-1.5295 1.1884-2.3175 0.8879-1.7602 1.7287-3.5439 2.5674-5.3282 0-0.7082 0-1.4164 0-2.1461-7.4365 0-14.8729 0-22.5347 0z" />    <path fill="#374151" d="M316.089 376.216c-1.2572 2.4566-2.5082 4.9159-3.7558 7.3774-0.3582 0.6985-0.7165 1.3971-1.0856 2.1168-0.9228 1.8268-1.7996 3.6766-2.6701 5.5289 0 0.7082 0 1.4164 0 2.1461 3.5411 0 7.0823 0 10.7307 0 3.1871-4.9576 6.3741-9.9152 9.6578-15.0231 0-0.7082 0-1.4164 0-2.1461-4.2494 0-8.4988 0-12.877 0z" />    <path d="M87.5233 488.8892c0.3541 1.4165 0.7082 2.8329 1.073 4.2923 20.8929 0 41.7857 0 63.3117 0 0.3541-1.4164 0.7082-2.8329 1.0731-4.2923-21.6011 0-43.2022 0-65.4578 0z" />    <path d="M359.0122 488.8892c0.3541 1.4165 0.7082 2.8329 1.0731 4.2923 20.8928 0 41.7856 0 63.3116 0 0.3541-1.4164 0.7082-2.8329 1.0731-4.2923-21.6011 0-43.2022 0-65.4578 0z" />    <path d="M229.1696 467.4277c0 0.7082 0 1.4164 0 2.1461 17.7058 0 35.4116 0 53.654 0 0-0.7082 0-1.4165 0-2.1461-17.7058 0-35.4116 0-53.654 0z" />    <path fill="#374151" d="M249.5581 405.1891c0 3.8953 0 7.7905 0 11.8039 4.2494 0 8.4988 0 12.877 0 0-3.8953 0-7.7906 0-11.8039-4.2494 0-8.4988 0-12.877 0z" />    <path fill="#565165" d="M108.9848 412.7006c0 1.4165 0 2.8329 0 4.2923 7.4365 0 14.8729 0 22.5347 0 0-1.4164 0-2.8329 0-4.2923-7.4364 0-14.8729 0-22.5347 0z" />    <path fill="#565165" d="M380.4738 412.7006c0 1.4165 0 2.8329 0 4.2923 7.4364 0 14.8728 0 22.5346 0 0-1.4164 0-2.8329 0-4.2923-7.4364 0-14.8729 0-22.5346 0z" />    <path fill="#dadada" transform="translate(236 222)" d="M4.8207 4.3321c10.0161 0 20.0322 0 30.3518 0 0.3756 0.4544 0.3756 0.4544 0.7588 0.918 0 24.2346 0 48.4692 0 73.4382-0.2504 0.3029-0.5009 0.6059-0.7588 0.918-10.016 0-20.0322 0-30.3518 0-0.2504-0.3029-0.5007-0.6059-0.7587-0.918 0-24.2346 0-48.4692 0-73.4382 0.2504-0.3029 0.5008-0.6058 0.7587-0.918zM8.6147 9.84c0 21.2053 0 42.4106 0 64.2584 7.5121 0 15.0241 0 22.7638 0 0-21.2053 0-42.4105 0-64.2584-7.512 0-15.0241 0-22.7638 0z" />    <path fill="currentColor" transform="translate(304 100)" d="M3.5044-11.3692C5.9832-10.6609 8.462-9.9527 11.016-9.223c1.4164 1.7706 2.8329 3.5412 4.2923 5.3654 0 2.4788 0 4.9576 0 7.5115-2.1247 3.1871-2.1247 3.1871-4.2923 6.4385-0.7083 0.3541-1.4165 0.7082-2.1462 1.0731-2.8677 0.144-5.7115 0.0463-8.5846 0-1.7706-1.0624-3.5412-2.1247-5.3654-3.2192-1.0731-1.7438-1.0731-1.7438-2.1462-4.2924-0.1341-3.4875-0.1341-3.4875 0-6.4384 1.4165-2.1247 2.8329-4.2494 4.2923-6.4385 2.1247-0.7082 4.2494-1.4165 6.4385-2.1462zM1.3582-3.8576C0.65-2.087-0.0582-0.3164-0.7879 1.5078 0.2744 2.5701 1.3368 3.6325 2.4313 4.727 4.2019 4.3729 5.9725 4.0188 7.7967 3.6539 8.1508 1.8834 8.5049 0.1128 8.8698-1.7115 8.1616-2.4197 7.4533-3.1279 6.7236-3.8576c-1.7705 0-3.5411 0-5.3654 0z" />    <path d="M305.3582 96.1424c-0.7082 1.7706-1.4164 3.5412-2.1461 5.3654 1.0623 1.0623 2.1247 2.1247 3.2192 3.2192 1.7706-0.3541 3.5412-0.7082 5.3654-1.0731 0.3541-1.7705 0.7082-3.5411 1.0731-5.3654-0.7082-0.7082-1.4165-1.4164-2.1462-2.1461-1.7705 0-3.5411 0-5.3654 0z" />    <path fill="#bd2929" d="M229.35 103.6829c-0.7082 1.7706-1.4164 3.5412-2.1461 5.3654 1.0623 1.0623 2.1247 2.1247 3.2192 3.2192 1.7706-0.3541 3.5412-0.7082 5.3654-1.0731 0.3541-1.7705 0.7082-3.5411 1.0731-5.3654-0.7082-0.7082-1.4165-1.4164-2.1462-2.1461-1.7705 0-3.5411 0-5.3654 0z" />    <path fill="#fafafa" d="M107.7194 153.1457c0 28.5311-0.1475 64.5592-0.1475 93.9549 8.2716 0 16.5432 0 25.0655 0 0.1475-36.0282 0.1475-64.5592 0.1475-93.9549-8.2716 0-16.5432 0-25.0655 0z" />    <path fill="#fafafa" d="M107.0694 361.4634c0 11.5072 0 23.0145 0 34.8705 8.7006 0 17.4012 0 26.3655 0 0-11.5072 0-23.0145 0-34.8705-8.7006 0-17.4012 0-26.3655 0z" />    <path fill="#fafafa" d="M98.0287 432.5338c-1.1971 6.3977-2.3944 12.7954-3.6279 19.3869-0.3788 2.0196-0.7576 4.0392-1.1479 6.1199-0.2977 1.5951-0.5953 3.1902-0.8928 4.7852-0.1568 0.8329-0.3134 1.6657-0.4747 2.5238-0.1474 0.7915-0.2947 1.5832-0.4465 2.3987-0.1289 0.6888-0.2578 1.3776-0.3906 2.0874-0.3239 1.7103-0.3239 1.7103-0.2754 3.5126 19.4548 0 38.9098 0 58.9543 0-2.3477-13.6172-4.7095-27.2331-7.2559-40.8145-14.666 0-29.3321 0-44.4426 0z" />    <path fill="#fafafa" d="M378.5084 361.3973c0 11.5509 0 23.1018 0 35.0027 8.7336 0 17.4672 0 26.4654 0 0-11.5509 0-23.1018 0-35.0027-8.7336 0-17.4672 0-26.4654 0z" />    <path fill="#fafafa" d="M369.4425 432.4646c-1.2014 6.4193-2.4027 12.8388-3.6404 19.4527-0.38 2.0264-0.7602 4.0528-1.1518 6.1407-0.2987 1.6003-0.5973 3.2009-0.8958 4.8014-0.1572 0.8357-0.3145 1.6712-0.4764 2.5322-0.1478 0.7943-0.2957 1.5886-0.4479 2.4069-0.1293 0.6912-0.2587 1.3823-0.392 2.0945-0.3248 1.7161-0.3248 1.7161-0.2764 3.5245 19.521 0 39.0419 0 59.1543 0-2.3558-13.6634-4.7253-27.3254-7.2805-40.9529-14.7158 0-29.4316 0-44.5931 0z" />    <path fill="#fafafa" d="M238.6449 431.369c-1.3363 4.009-2.3268 7.6981-3.144 11.817-0.2257 1.1203-0.4516 2.2405-0.6843 3.3947-0.6047 3.0643-0.6047 3.0643-0.5082 6.4709 14.3105 0 28.621 0 43.3652 0-0.5662-5.0953-1.1911-9.821-2.2225-14.7983-0.1202-0.5854-0.2403-1.1706-0.3642-1.7737-0.2911-1.415-0.5864-2.8293-0.8825-4.2433-0.4293-0.4294-0.4293-0.4294-0.8673-0.8673-11.4485 0-22.8968 0-34.6922 0z" />    <path fill="#374151" d="M253.8505 321.4889c-2.6909 0.9497-5.0415 1.826-7.5116 3.2193-2.0768 2.0202-3.642 4.0883-5.3654 6.4384-0.3541 3.1871-0.7082 6.3741-1.0731 9.6577 1.2134 3.0584 1.2134 3.0584 3.2193 6.4385 2.0358 2.0048 4.1498 3.6362 6.4384 5.3654 3.1871 0.3541 6.3741 0.7082 9.6578 1.0731 3.0584-1.2134 3.0584-1.2134 6.4384-3.2192 2.0048-2.0359 3.6362-4.1499 5.3654-6.4385 0.3541-3.1871 0.7083-6.3741 1.0731-9.6577-1.2134-3.0584-1.2134-3.0584-3.2192-6.4385-2.0359-2.0048-4.1499-3.6362-6.4385-5.3654-2.8329-0.3541-5.6659-0.7082-8.5846-1.0731z" />    <path fill="#374151" d="M244.6147 231.84c0 21.2053 0 42.4106 0 64.2584 7.5121 0 15.0241 0 22.7638 0 0-21.2053 0-42.4105 0-64.2584-7.512 0-15.0241 0-22.7638 0z" />    <path fill="#374151" d="M174.4426 323.6351c0 9.9152 0 19.8305 0 30.0462 7.0824 0 14.1647 0 21.4616 0 0-9.9153 0-19.8305 0-30.0462-7.0823 0-14.1646 0-21.4616 0z" />    <path fill="#fafafa" d="M378.9796 153.05c0 28.5311-0.1475 64.5592-0.1475 93.9549 8.2716 0 16.5432 0 25.0655 0 0.1475-36.0282 0.1475-64.5592 0.1475-93.9549-8.2716 0-16.5432 0-25.0655 0z" />    <polygon points="163.201571 132.401818 347.987342 132.998291 348.195189 139.225004 163.409418 138.628531" /></svg>