<svg viewBox="0 0 512 512" fill="#010101" width="200" height="200" version="1.1" xmlns="http://www.w3.org/2000/svg" xmlns:xlink="http://www.w3.org/1999/xlink">
    <path fill="#f9f9f9" transform="translate(376.763672 21.963379)" d="M0 0c10.903 5.0539 20.2203 11.0373 27.9397 20.3479 10.3562 12.9887 16.7806 28.3647 20.4177 44.5012 2.4907 11.9755 3.5505 23.8962 4.0203 36.1138 0.3223 6.6412 1.2537 11.7038 3.9856 17.7554 1.4342 3.8084 1.3065 7.4295 1.123 11.4433-0.0825 2.5988-0.165 5.1975-0.25 7.875 9.9 0.495 9.9 0.495 20 1 3.9817 4.9772 5.4575 8.0459 7 14 0.8453 3.9203 1.5345 7.8561 2.1875 11.8125 0.1773 1.0229 0.3545 2.0458 0.5371 3.0996 0.6984 4.1174 1.2754 7.8988 1.2754 12.0879 1.98 0.33 3.96 0.66 6 1 0.99 1.32 1.98 2.64 3 4 0.027 2.1041 0.0464 4.2083 0.0625 6.3125 0.0116 1.1718 0.0232 2.3435 0.0352 3.5508-0.0977 3.1367-0.0977 3.1367-1.0977 6.1367-2.906 1.2567-4.796 2-8 2-0.6957 10.9984-1.36 21.9983-2 33 0.8959 0.4228 1.7918 0.8456 2.7149 1.2813 4.9724 2.6015 8.9794 6.1493 13.2851 9.7187 1.1069 0.8739 2.215 1.7463 3.3242 2.6172 5.8678 4.676 11.0164 9.0376 14.5313 15.8125 0.3777 0.8482 0.7554 1.6964 1.1445 2.5703 0.4087 0.8895 0.8173 1.7789 1.2383 2.6953 3.1548 7.9575 3.6022 15.8103 2.9893 24.2622-0.9253 8.3055-4.2182 16.1812-8.3487 23.3863-2.8294 4-6.3475 7.1552-9.8828 10.5273-8.6733 8.6904-14.9426 19.9267-21.2622 30.3674-3.2349 5.2296-6.9397 9.8746-11.0681 14.4266-2.9521 3.2872-5.1195 6.1845-6.6658 10.3349-0.617 4.0042-0.9169 8.0263-1.25 12.0625-1.9895 19.6905-8.3736 37.0988-18.75 53.9375-5.3709 8.3107-11.5579 15.6842-20 21-14.0705 7.6921-28.9603 12.0021-45 13-18.807 0.8337-39.4403 0.3787-57.1201-6.8691-8.9664-3.9932-17.5758-8.4958-24.3174-15.7559-1.4541-2.2103-2.1778-3.7783-2.5625-6.375-1.2375-0.1444-2.475-0.2887-3.75-0.4375-2.0981-0.2448-4.0755-0.5144-6.1133-1.0762-2.2326-0.5081-4.1782-0.6003-6.4648-0.5839-1.1988 48e-4-1.1988 48e-4-2.4219 97e-4-0.825 84e-4-1.65 0.0168-2.5 0.0254-0.8404 45e-4-1.6809 9e-3-2.5468 0.0137-2.0678 0.0117-4.1355 0.0297-6.2032 0.0488-0.2436 0.5492-0.4872 1.0983-0.7383 1.6641-3.5742 6.6173-9.246 13.2898-15.1406 18-11.2632 7.0939-24.263 9.93-37.3086 11.5234-19.8939 2.0703-42.7281 3.492-61.8125-3.1875-0.9126-0.2771-1.8253-0.5543-2.7656-0.8398-9.1323-3.1159-17.6144-9.4159-24.5469-16.0352-12.1581-12.9482-20.6822-28.7792-25.9917-45.6387-2.7999-10.0049-3.9223-20.5844-4.2895-30.9433-0.5317-3.328-1.7049-5.6338-3.4063-8.543-1.5931-1.9811-3.2447-3.9159-4.9375-5.8125-10.2466-11.7872-22.0653-26.1959-27.0625-41.1875-0.825-0.3094-1.65-0.6187-2.5-0.9375-4.0102-2.0383-6.7268-5.0769-9.6093-8.4765-3.099-4.2387-5.0785-8.6781-6.8907-13.586-0.4795-1.2433-0.4795-1.2433-0.9687-2.5117-2.8286-8.5513-2.7368-17.5863-2.0313-26.4883 0.9964-6.8756 4.0041-12.4085 7.8555-18.1328 7.0595-9.4383 14.9165-17.0978 25.1797-23.0469 1.9648-0.8203 1.9648-0.8203 5.9648-0.8203-0.0909-0.8168-0.1817-1.6335-0.2754-2.4751-0.4115-3.7162-0.8181-7.433-1.2246-11.1499-0.1431-1.2852-0.2861-2.5704-0.4336-3.8945-0.1353-1.244-0.2707-2.4879-0.4101-3.7695-0.1257-1.1417-0.2514-2.2833-0.3809-3.4595-0.2628-3.1029-0.3248-6.1394-0.2754-9.2515-1.65-0.33-3.3-0.66-5-1-1.32-1.32-2.64-2.64-4-4 0-3.96 0-7.92 0-12 0.99-1.65 1.98-3.3 3-5 2.97-0.99 2.97-0.99 6-2 0.1358-0.8366 0.2715-1.6732 0.4114-2.5351 0.5135-3.1397 1.0344-6.278 1.5601-9.4156 0.2249-1.3514 0.4469-2.7033 0.666-4.0556 1.1866-7.3144 2.3986-14.1793 5.3625-20.9937 2.3858-1.8921 4.0718-3.0239 7-4 4.6697-0.1359 9.3274-0.0428 14 0 0.99-5.94 1.98-11.88 3-18 0.66 0 1.32 0 2 0 0.1096-1.0815 0.2192-2.163 0.3321-3.2773 0.5371-5.243 1.0994-10.4831 1.6679-15.7227 0.1072-0.995 0.2143-1.99 0.3247-3.0151 2.6943-24.6959 5.4536-49.6513 18.5796-71.3115 2.8619-4.3706 6.3663-8.0438 10.0957-11.6734 0.5775-0.6097 1.155-1.2194 1.75-1.8476 9.8024-9.6055 24.2763-15.1658 37.0664-19.5274C-154.7147-26.6963-64.4312-28.548 0 0z" />
    <path fill="#2b2b2b" transform="translate(376.763672 21.963379)" d="M0 0c10.903 5.0539 20.2203 11.0373 27.9397 20.3479 10.3562 12.9887 16.7806 28.3647 20.4177 44.5012 2.4907 11.9755 3.5505 23.8962 4.0203 36.1138 0.3223 6.6412 1.2537 11.7038 3.9856 17.7554 1.4342 3.8084 1.3065 7.4295 1.123 11.4433-0.0825 2.5988-0.165 5.1975-0.25 7.875 9.9 0.495 9.9 0.495 20 1 3.9817 4.9772 5.4575 8.0459 7 14 0.8453 3.9203 1.5345 7.8561 2.1875 11.8125 0.1773 1.0229 0.3545 2.0458 0.5371 3.0996 0.6984 4.1174 1.2754 7.8988 1.2754 12.0879 1.98 0.33 3.96 0.66 6 1 0.99 1.32 1.98 2.64 3 4 0.027 2.1041 0.0464 4.2083 0.0625 6.3125 0.0116 1.1718 0.0232 2.3435 0.0352 3.5508-0.0977 3.1367-0.0977 3.1367-1.0977 6.1367-2.906 1.2567-4.796 2-8 2-0.6957 10.9984-1.36 21.9983-2 33 0.8959 0.4228 1.7918 0.8456 2.7149 1.2813 4.9724 2.6015 8.9794 6.1493 13.2851 9.7187 1.1069 0.8739 2.215 1.7463 3.3242 2.6172 5.8678 4.676 11.0164 9.0376 14.5313 15.8125 0.3777 0.8482 0.7554 1.6964 1.1445 2.5703 0.4087 0.8895 0.8173 1.7789 1.2383 2.6953 3.1548 7.9575 3.6022 15.8103 2.9893 24.2622-0.9253 8.3055-4.2182 16.1812-8.3487 23.3863-2.8294 4-6.3475 7.1552-9.8828 10.5273-8.6733 8.6904-14.9426 19.9267-21.2622 30.3674-3.2349 5.2296-6.9397 9.8746-11.0681 14.4266-2.9521 3.2872-5.1195 6.1845-6.6658 10.3349-0.617 4.0042-0.9169 8.0263-1.25 12.0625-1.9895 19.6905-8.3736 37.0988-18.75 53.9375-5.3709 8.3107-11.5579 15.6842-20 21-14.0705 7.6921-28.9603 12.0021-45 13-18.807 0.8337-39.4403 0.3787-57.1201-6.8691-8.9664-3.9932-17.5758-8.4958-24.3174-15.7559-1.4541-2.2103-2.1778-3.7783-2.5625-6.375-1.2375-0.1444-2.475-0.2887-3.75-0.4375-2.0981-0.2448-4.0755-0.5144-6.1133-1.0762-2.2326-0.5081-4.1782-0.6003-6.4648-0.5839-1.1988 48e-4-1.1988 48e-4-2.4219 97e-4-0.825 84e-4-1.65 0.0168-2.5 0.0254-0.8404 45e-4-1.6809 9e-3-2.5468 0.0137-2.0678 0.0117-4.1355 0.0297-6.2032 0.0488 0-2.31 0-4.62 0-7-2.31 0.66-4.62 1.32-7 2-0.66 0.99-1.32 1.98-2 3-0.6779-2.3514-1.3424-4.7054-2-7.0625-0.1908-0.6568-0.3815-1.3135-0.5781-1.9902-1.2178-4.4147-1.6141-8.3267-1.4219-12.9473 0.33-0.33 0.66-0.66 1-1-1.65-0.66-3.3-1.32-5-2-4.3686-10.7057-8.6766-21.2712-8-33 2.31-0.33 4.62-0.66 7-1 0-6.6 0-13.2 0-20 1.32-0.99 2.64-1.98 4-3 1.98 0 3.96 0 6 0-0.2281-0.5917-0.4563-1.1833-0.6914-1.7929-2.3772-6.5347-2.3772-6.5347-1.9961-10.2696 0.2269-0.6394 0.4538-1.2787 0.6875-1.9375 2.31-1.98 4.62-3.96 7-6 2.97 0 5.94 0 9 0 1.98 2.31 3.96 4.62 6 7 2.3486-0.6018 2.3486-0.6018 5-2 1.8627-1.8928 3.3858-3.8784 5-6 2.31 0 4.62 0 7 0 2.64 1.98 5.28 3.96 8 6 0.6875 2.4375 0.6875 2.4375 1 6-0.7741 3.0916-1.8342 6.0361-3 9 2.64 0 5.28 0 8 0 0.66 0.66 1.32 1.32 2 2 0 6.27 0 12.54 0 19 1.65 0.66 3.3 1.32 5 2 1.8125 1.625 1.8125 1.625 3 3-0.7699 5.2699-2.0306 10.3546-3.375 15.5-0.2088 0.8289-0.4176 1.6578-0.6328 2.5117-1.2124 4.6502-2.6422 8.7557-4.9922 12.9883-1.65 0.33-3.3 0.66-5 1 0.66 0.66 1.32 1.32 2 2-0.8825 7.5648-0.8825 7.5648-1.5312 9.9688-0.5355 2.3204-0.5662 4.4029-0.5313 6.7812 91e-4 0.7992 0.0181 1.5985 0.0274 2.4219 0.0116 0.6033 0.0232 1.2066 0.0351 1.8281 2.7246 4.506 5.5383 8.0845 10 11 10.425 5.8651 22.158 8.1612 34 9 4.3854 0.1419 8.767 0.1859 13.1546 0.1853 2.0118 22e-4 4.0231 0.0204 6.0349 0.0393 15.7289 0.0232 30.9505-2.0478 45.2441-8.8613 7.404-4.1133 12.7196-8.4774 17.7071-15.2852 10.4338-15.0927 17.7153-32.9885 20.8593-51.0781 0.2423-4.0183 0.2311-8.0375 0.25-12.0625 0.0207-1.0693 0.0413-2.1385 0.0625-3.2402 0.0534-11.0446-2.5265-20.8385-6.9258-30.9317-2.4892-4.9645-5.4176-9.0993-9.6623-12.6914-10.1216-7.7062-22.5959-10.737-34.6001-14.2514-9.3178-2.7453-17.8085-5.6329-26.1243-10.8228-0.33-0.66-0.66-1.32-1-2-0.8566-0.2765-0.8566-0.2765-1.7304-0.5586-15.0721-5.3914-27.1739-17.0614-39.1446-27.3164-0.593-0.5067-1.1861-1.0135-1.7971-1.5356-2.8777-2.4644-5.7338-4.9457-8.5466-7.4839-7.9321-7.0738-16.3101-12.3097-25.7813-17.1055-0.8946-0.4769-1.7892-0.9539-2.7109-1.4453-4.6475-2.2079-9.1003-2.9713-14.2266-3.3047-9.0977 0.2671-16.8736 3.5075-24.9238 7.5869-8.7809 4.7754-15.9385 11.6817-23.1934 18.4561-17.5119 16.2462-17.5119 16.2462-28.5078 19.582-1.4751 0.3907-2.953 0.7717-4.4375 1.125-0.99 1.65-1.98 3.3-3 5-0.6033 0.254-1.2065 0.5079-1.8281 0.7696-5.9286 2.5261-5.9286 2.5261-11.1719 6.2304-0.66 0-1.32 0-2 0 2.0215-4.2747 4.6228-7.7019 8-11 1.7715-1.3396 3.5658-2.6494 5.375-3.9375 5.4486-3.9589 10.1907-8.3512 14.9375-13.125 0.6573-0.6605 1.3145-1.3211 1.9917-2.0017 3.7889-3.8611 7.4001-7.8386 10.9387-11.9292 3.0049-3.4316 6.1319-6.7473 9.2571-10.0691 0.6252-0.6684 1.2504-1.3367 1.8946-2.0254 6.4927-6.9162 12.823-13.4441 20.6054-18.9121 0.7348-0.5285 1.4696-1.057 2.2266-1.6015 4.6615-3.2519 9.1336-6.296 14.7734-7.3985 7.0751-0.649 13.9381-0.699 20.75 1.5 9.9158 4.2036 17.7283 11.621 25.4688 18.9102 2.2711 2.1148 4.5796 4.1131 6.9687 6.0898 2.9956 2.5951 5.4015 5.388 7.8516 8.5 5.0242 6.201 10.4921 11.8842 16.1484 17.5 0.5019 0.5007 1.0037 1.0014 1.5208 1.5173 9.6225 9.5787 19.3064 18.4158 31.2917 24.9827 0.661 0.3659 1.322 0.7317 2.003 1.1087 2.1173 1.1641 4.2434 2.3105 6.372 3.4538 0.7039 0.3861 1.4077 0.7722 2.1328 1.1699 5.0146 2.6858 10.0464 4.6319 15.4922 6.2676 0.0825-0.6729 0.165-1.3458 0.25-2.039 0.9671-3.8179 2.7867-6.9613 4.75-10.336 0.3987-0.7004 0.7973-1.4009 1.208-2.1225 2.0077-3.5059 4.0667-6.9709 6.2139-10.3931 5.4698-8.7389 10.2719-17.3655 12.0156-27.7031 0.1704-3.1091-0.1739-5.5963-1.1367-8.5547-1.4853-3.3718-3.0588-5.5978-5.625-8.2891-4.8673-3.8992-11.0279-5.3833-16.8633-7.3125-27.5929-9.448-50.2757-23.6292-73.3867-41.208-21.3881-16.9297-21.3881-16.9297-46.4258-27.042-8.6007-0.6131-16.9197-0.8121-25.1875 1.9375-11.8525 4.8805-22.0529 11.9796-31.9726 19.9844-22.6083 18.23-46.8593 36.2538-74.8399 45.0781-1.98-0.66-3.96-1.32-6-2 2-2 2-2 4.9571-3.1211 0.6074-0.2074 1.2149-0.4147 1.8408-0.6284 15.7343-5.3732 30.7689-13.4855 44.2021-23.2505 0.6874-0.4987 1.3748-0.9974 2.083-1.5112 7.0779-5.1469 14.1306-10.3286 21.0616-15.6724 13.0508-10.0362 26.8351-20.2072 42.8554-24.8164 7.6755-1.5554 15.516-1.8005 23.2383-0.4219 14.618 4.005 26.4269 12.7175 38.2002 21.9097 22.0212 17.071 48.1291 36.856 75.4248 44.0747 3.2236 0.6601 5.8642 0.8697 9.1367 0.4375 3.0019-1.1793 4.6242-1.9666 7-4 5.0506-5.6353 7.76-11.4754 10.052-18.625 1.63-5.803 2.6734-11.6899 3.698-17.625 0.2205-1.2336 0.4409-2.4672 0.668-3.7383 0.5353-3.0025 1.0625-6.0063 1.582-9.0117 1.7021 2.6698 2.1016 4.6783 2.5784 7.8631 0.1601 1.5539 0.3119 3.1088 0.4568 4.6643 0.0836 0.8259 0.1671 1.6518 0.2533 2.5028 0.2654 2.6351 0.5202 5.2711 0.774 7.9073 0.2593 2.6325 0.5208 5.2647 0.7848 7.8966 0.1635 1.6358 0.3239 3.2719 0.4809 4.9083 0.3754 3.8155 0.9061 7.498 1.6718 11.2576 0.0681 2.7808 0.0948 5.5337 0.0625 8.3125-45e-4 0.7406-9e-3 1.4812-0.0136 2.2442-0.0118 1.8145-0.0297 3.6289-0.0489 5.4433-0.4215 0.4989-0.843 0.9978-1.2773 1.5117-1.8639 2.4428-3.3697 4.722-4.7227 7.4883-0.7722 4.3419-0.9864 8.5947-1 13 1.32-0.33 2.64-0.66 4-1 0.0619-0.6806 0.1238-1.3612 0.1875-2.0625 0.9265-3.3495 2.3741-5.2509 4.5586-7.8984 1.7967-2.9217 2.4983-5.6956 3.2539-9.0391 0.1881-2.7746 0.2862-5.4185 0.25-8.1875-72e-4-0.748-0.0144-1.496-0.0219-2.2666-0.0838-4.6307-0.3552-9.1558-0.9296-13.75-1.8851-15.3359-1.7465-30.8006-1.8994-46.2278-0.0406-3.9095-0.0914-7.8189-0.1413-11.7282-0.0956-7.6132-0.1803-15.2265-0.2578-22.8399-1.2276-0.0786-1.2276-0.0786-2.4799-0.1587-7.0511-0.4903-13.9202-1.264-20.8677-2.5483-1.9079-0.341-3.8158-0.682-5.7237-1.023-0.9774-0.177-1.9549-0.3541-2.962-0.5365-5.1687-0.9316-10.3434-1.8283-15.5175-2.7296-11.0012-1.9193-11.0012-1.9193-15.5131-2.7387-59.0013-10.5827-127.0149-9.1443-186.5601-2.628-2.95 0.317-5.894 0.5768-8.8525 0.7964-14.8815 1.1544-29.5753 3.9757-44.2711 6.5058-23.0759 3.9556-23.0759 3.9556-27.2524 3.0606-4.4539-1.7733-8.7346-3.8153-13-6 0.99-6.435 0.99-6.435 2-13 0.66 0 1.32 0 2 0 0.1096-1.0815 0.2192-2.163 0.3321-3.2773 0.5371-5.243 1.0994-10.4831 1.6679-15.7227 0.1608-1.4925 0.1608-1.4925 0.3247-3.0151 2.6943-24.6959 5.4536-49.6513 18.5796-71.3115 2.8619-4.3706 6.3663-8.0438 10.0957-11.6734 0.5775-0.6097 1.155-1.2194 1.75-1.8476 9.8024-9.6055 24.2763-15.1658 37.0664-19.5274C-154.7147-26.6963-64.4312-28.548 0 0z" />
    <path fill="#fafafa" transform="translate(267 272)" d="M0 0c4.3118 1.1652 8.0597 2.9151 12 5 1.1099 0.5582 2.2198 1.1163 3.3633 1.6914C24.6491 11.639 32.2591 17.9227 40 25 54.354 38.1077 69.7643 51.7277 88 59c0 0.66 0 1.32 0 2 0.7133 0.2815 1.4267 0.563 2.1616 0.853 1.825 0.7375 3.6415 1.4966 5.4463 2.2823 7.7697 3.3677 15.6498 5.8567 23.7671 8.2397 23.9215 7.2036 23.9215 7.2036 32.5625 14.6875 6.0181 6.7494 9.8411 16.3563 12.5547 24.875 2.95 11.9817 2.9804 26.2438 0.6367 38.332-3.8402 16.4138-10.7032 33.5876-21.0039 46.9805-6.4885 7.7203-13.1239 12.9158-22.332 17.1758C102.9969 222.5676 82.0768 221.7563 62 221c-12.0195-0.9053-23.7563-3.2832-34.3125-9.3125C23.7491 209.0781 20.7709 205.8064 18 202c-1-2-1-2-1.168-3.918-0.0437-5.086 0.6608-9.1835 2.168-14.082 0.1693-2.7924 0.1693-2.7924 0-5-0.66-0.99-1.32-1.98-2-3 1.98 0 3.96 0 6 0 2.1195-6.0237 3.9738-12.1177 5.75-18.25 0.2349-0.7804 0.4697-1.5607 0.7117-2.3647 0.9722-3.4163 1.5994-5.8674 1.1789-9.4322-0.2114-0.6445-0.4228-1.289-0.6406-1.9531-2.97-1.98-2.97-1.98-6-4-0.33-6.27-0.66-12.54-1-19-0.33-0.33-0.66-0.66-1-1-2.64-0.33-5.28-0.66-8-1 0.6083-4.3446 1.2617-8.6755 2-13-2.5778-2.6475-4.9165-4.9443-8-7-2.31 0-4.62 0-7 0-1.98 2.31-3.96 4.62-6 7-1.32 0.33-2.64 0.66-4 1-1.98-2.31-3.96-4.62-6-7-2.97 0-5.94 0-9 0-2.31 1.98-4.62 3.96-7 6 0.6083 4.3446 1.2617 8.6755 2 13-2.64 0.66-5.28 1.32-8 2-0.33 0.33-0.66 0.66-1 1-0.33 6.6-0.66 13.2-1 20-2.31 0.33-4.62 0.66-7 1 1.8109 11.204 3.8764 22.7528 9 33 1.65 0.33 3.3 0.66 5 1-0.33 0.66-0.66 1.32-1 2-0.5035 5.79 0.8364 10.6736 2.4414 16.2305C-30 198-30 198-30.2031 200.0898-32.0551 204.5291-35.4796 207.8172-39 211c-10.7577 7.156-23.7836 9.7253-36.3801 11.5942-5.8109 0.6514-11.6082 0.7403-17.4485 0.7215-2.0382-32e-4-4.0748 0.0204-6.1128 0.0456-14.0741 0.0681-27.1678-2.4635-40.0586-8.3613-8.5375-4.212-16.2864-10.0928-22.2476-17.5635C-172.2035 182.5586-177.3878 165.922-181 148c-0.3036-1.5005-0.3036-1.5005-0.6133-3.0312-1.538-11.8069-1.1029-23.9335 2.3594-35.3477 2.7294-7.8822 5.822-14.4819 11.6289-20.5586 5.4677-5.3142 11.7296-9.0275 18.9403-11.4315 0.7429-0.2366 1.4857-0.4732 2.2511-0.7169 0.7966-0.2649 1.5931-0.5298 2.4138-0.8027 2.5243-0.8388 5.0526-1.6641 7.5823-2.4864C-116.8903 67.2595-97.3155 59.8909-81 47c0.7966-0.8018 1.5933-1.6036 2.4141-2.4297 2.7017-2.6854 5.5234-4.8704 8.5859-7.1328 4.7565-3.5715 9.1824-7.3482 13.5-11.4375 9.6334-9.0587 19.3092-16.5969 31.5-22 1.2104-0.6187 1.2104-0.6187 2.4453-1.25C-15.2468-0.7231-7.9677-0.9428 0 0z" />
    <path fill="#fbfbfb" transform="translate(262.5625 15.6875)" d="M0 0c1.8516-54e-4 1.8516-54e-4 3.7406-0.0109 20.4059-0.0318 40.8277 0.4611 60.8844 4.5734 1.6184 0.3242 1.6184 0.3242 3.2695 0.655 19.0726 3.9523 39.73 9.3665 55.4532 21.4075 1.0344 0.8353 1.0344 0.8353 2.0898 1.6875 1.019 0.7425 1.019 0.7425 2.0586 1.5 7.6346 5.9529 12.3491 14.3974 16.668 22.8984 9.3091 21.2439 12.7299 47.5607 12.2734 70.6016-5.3537 0.1965-10.0925-0.5557-15.3125-1.75-14.2589-3.0022-28.6917-4.5121-43.17-5.9871-2.5119-0.2623-5.0212-0.5426-7.5307-0.8274C58.845 111.2111 27.363 110.9562-4.375 111c-1.5568 17e-4-1.5568 17e-4-3.1451 34e-4-7.0416 91e-4-14.083 0.0349-21.1244 0.0708-1.3545 54e-4-1.3545 54e-4-2.7364 0.0109-10.0469 0.0454-20.0757 0.2462-30.114 0.6798-0.9183 0.0383-1.8366 0.0766-2.7827 0.1161-5.4518 0.2567-10.6496 0.9135-16.0076 1.9667-4.5631 0.6472-9.112 0.7498-13.7148 0.9023-10.2397 0.3581-20.1972 1.5772-30.3062 3.2026-3.0392 0.4848-6.0857 0.9174-9.1313 1.3599-5.8599 0.898-11.6373 2.1272-17.4219 3.4141-4.2843 0.6779-8.3783 0.7079-12.7031 0.5859-0.7934-23.2741 2.1381-46.5526 10.6875-68.3125 4.2469-9.3104 10.1377-17.9834 17.5625-25.0625 14.354-11.7854 32.8849-18.3359 50.75-22.625 7.6114-1.7018 15.2785-2.9192 23-4 1.0628-0.1524 2.1257-0.3049 3.2207-0.4619C-38.9342 0.2124-19.5587 0.0229 0 0z" />
    <path fill="#fbfbfb" transform="translate(271.320313 194.628906)" d="M0 0c17.615 5.2375 32.3912 18.2489 46.707 29.2227 10.6206 8.1113 21.3751 15.5039 32.9727 22.1484 0.6265 0.3667 1.253 0.7335 1.8984 1.1113 12.211 7.1144 25.3651 12.0064 38.7539 16.4434 10.0202 3.3845 10.0202 3.3845 13.8164 6.418 2.4124 2.6446 4.1569 5.3924 5.9688 8.4648 0.8879 4.0447 1.1575 7.4833 0.5625 11.5625-3.015 12.3163-9.7903 22.9033-16.3496 33.5952-3.2831 5.3609-6.4347 10.5106-8.6504 16.4048-5.2573-0.5551-9.1483-2.3323-13.75-4.75-1.4281-0.7388-2.8565-1.4771-4.2852-2.2148-0.6846-0.3557-1.3693-0.7113-2.0747-1.0777-2.3222-1.1764-4.6997-2.2118-7.0776-3.27-6.1175-3.0433-11.0718-7.6773-16.1336-12.1973-1.1603-1.0299-2.3304-2.0488-3.5083-3.0586-5.6117-4.8219-10.8793-9.9493-16.1081-15.1816-0.8895-0.8882-1.7791-1.7763-2.6956-2.6914-5.1088-5.147-9.7934-10.3431-14.2536-16.0547-8.6915-10.298-20.8581-21.4418-33.1758-27.0664-6.2532-2.5085-12.2673-2.9298-18.9844-2.7695-6.0443 0.5076-10.7532 2.2534-15.9531 5.332-3.8744 2.786-7.4457 5.8198-11 9-0.709 0.6007-1.418 1.2014-2.1484 1.8203-7.2381 6.1509-13.7679 12.9075-19.9935 20.0676-5.4475 6.192-11.1811 12.1315-16.8581 18.1121-0.4844 0.5145-0.9687 1.029-1.4678 1.5591-5.3782 5.6939-11.0292 10.553-17.3799 15.1401-1.7256 1.2595-3.4396 2.5387-5.0852 3.9011-6.0896 4.9972-12.547 8.4347-19.6296 11.8372-1.1041 0.5408-2.2082 1.0815-3.3457 1.6387-2.6929 1.3173-5.39 2.6249-8.0918 3.9238-2.7383-3.2985-5.0653-6.6049-7.207-10.3164-0.5872-1.0126-1.1744-2.0251-1.7793-3.0684-0.6027-1.0486-1.2053-2.0973-1.8262-3.1777-0.8866-1.5324-0.8866-1.5324-1.791-3.0957-1.1953-2.066-2.3881-4.1335-3.5784-6.2024-1.2413-2.1434-2.495-4.2797-3.7593-6.4097-0.6227-1.0503-1.2454-2.1007-1.8869-3.1828-0.5624-0.9414-1.1247-1.8827-1.7041-2.8526-2.9862-5.4815-4.5647-11.0923-4.9053-17.3193 0.1335-3.1538 0.7279-5.673 2-8.5625 1.9833-3.5004 4.3631-6.0233 7.5195-8.5 5.0453-3.4526 9.7791-5.3042 15.7254-6.7407 30.6675-7.9973 56.2467-27.8803 80.6027-47.2867 10.602-8.3999 21.8822-16.2425 34.8516-20.4726C-16.7592-1.6202-8.3376-1.5792 0 0z" />
    <path fill="#272727" transform="translate(82 156)" d="M0 0c3.7603 0.5811 6.5304 1.652 9.8125 3.5625 0.7902 0.455 1.5804 0.9101 2.3945 1.3789C12.7987 5.2907 13.3904 5.6401 14 6c-0.66 0.33-1.32 0.66-2 1-1.1536 3.4607-1.0969 6.0959-1.0625 9.7461 88e-4 1.3951 0.0174 2.7902 0.0259 4.1853 93e-4 1.1018 93e-4 1.1018 0.0188 2.2258 0.1526 19.5924 0.2776 39.301-2.0447 58.7803-0.7978 6.7151-1.1825 13.3616-1.25 20.125-0.0175 0.8449-0.035 1.6898-0.053 2.5603C7.64 110.8077 8.7381 116.2369 11 122c1.7265 3.3393 1.7265 3.3393 3.6875 6.125 0.6226 0.9307 1.2452 1.8614 1.8867 2.8203C17.28 131.9624 17.28 131.9624 18 133c0.66 0.33 1.32 0.66 2 1 0-3.96 0-7.92 0-12-0.99-1.65-1.98-3.3-3-5 0-0.66 0-1.32 0-2-0.66 0-1.32 0-2 0-1.5114-3.0648-2.024-5.3421-2.2656-8.7852-53e-4-1.4257 2e-4-2.8516 0.0156-4.2773-0.0116-1.0316-0.0116-1.0316-0.0234-2.084 0.0156-4.2943 0.485-8.3239 1.2578-12.5488 1.3986-7.8666 1.4334-15.708 1.582-23.6777C15.7194 57.7348 15.9864 52.5618 18 47c0.66 0 1.32 0 2 0 0.1702 0.9346 0.3403 1.8691 0.5156 2.832 0.6576 3.5838 1.3366 7.1633 2.0225 10.7417 0.31 1.6284 0.6153 3.2576 0.916 4.8877C25.868 79.396 25.868 79.396 32 92c4.4278 5.2225 9.6732 8.4796 15.875 11.25 1.3726 0.5889 2.7468 1.1742 4.125 1.75-1.3086 1.4453-1.3086 1.4453-3 3-1.6299 0.4657-3.2614 0.9265-4.9023 1.3516-4.9227 1.5217-9.8936 3.7006-13.7774 7.1328-1.8386 2.1106-3.2541 4.399-4.6328 6.8281C24.6561 127.3443 24.5528 130.8658 25 135c2.341 9.8271 7.2134 18.1434 12.375 26.6875 0.751 1.2657 1.501 2.532 2.25 3.7988C43.5629 172.1172 47.6246 178.6464 52 185c3.6517-1.7887 7.2994-3.5854 10.9436-5.3894 1.2395-0.6122 2.48-1.2223 3.7217-1.8301 1.7876-0.8755 3.5709-1.7595 5.3542-2.6438 1.0736-0.5289 2.1471-1.0578 3.2532-1.6028C77.6473 172.1984 79.236 171.0423 81 169c0.66 0.33 1.32 0.66 2 1-1.32 1.65-2.64 3.3-4 5 0.7837-0.5569 1.5675-1.1138 2.375-1.6875 4.3026-2.8857 8.967-5.0663 13.625-7.3125 0.66-1.32 1.32-2.64 2-4 4.455-0.99 4.455-0.99 9-2-1.178 2.4795-2.373 4.4903-4.522 6.2373-1.8989 1.2729-3.8267 2.4673-5.7905 3.6377-0.7164 0.4342-1.4328 0.8683-2.1709 1.3157-13.932 8.3354-28.1287 13.7666-43.4985 18.7824C33.8484 194.7875 33.8484 194.7875 20 204c-0.7193 0.6768-1.4386 1.3535-2.1797 2.0508C12.6531 211.3789 9.4179 217.0027 7 224c-3.6903 11.8447-4.2062 24.3302-2.6748 36.6069 2.7919 18.0322 8.3926 35.0207 18.5811 50.2408 5.5288 7.3303 12.1904 13.3795 20.1953 17.9062 16.3885 7.955 32.3525 9.568 50.2766 9.5652 15.4024-0.0881 30.7023-1.8726 44.989-7.9714 6.5253-3.3402 11.2141-7.5482 15.6328-13.3477 0.66 0 1.32 0 2 0 0.33-1.32 0.66-2.64 1-4 2.31-0.33 4.62-0.66 7-1 0 2.97 0 5.94 0 9-13.7585 16.7395-13.7585 16.7395-20 20-19.2678 8.7938-39.6865 10.2427-60.625 10.3125-0.7535 26e-4-1.5069 52e-4-2.2832 79e-4C69.9068 351.3246 59.6471 350.7265 49 347c-0.9127-0.2771-1.8253-0.5543-2.7656-0.8398-9.1323-3.1159-17.6144-9.416-24.5469-16.0352-12.1581-12.9482-20.6823-28.7793-25.9917-45.6387-2.7999-10.0049-3.9223-20.5844-4.2895-30.9433-0.5317-3.328-1.7049-5.6339-3.4063-8.543-1.5931-1.9811-3.2447-3.9159-4.9375-5.8125C-27.1842 227.4003-39.0028 212.9916-44 198c-0.825-0.3094-1.65-0.6188-2.5-0.9375-4.0102-2.0383-6.7268-5.0769-9.6094-8.4766-3.0989-4.2386-5.0785-8.678-6.8906-13.5859-0.3197-0.8289-0.6394-1.6577-0.9687-2.5117C-66.7974 163.9369-66.7055 154.902-66 146c0.9963-6.8757 4.0041-12.4085 7.8555-18.1328 7.0594-9.4384 14.9165-17.0978 25.1797-23.0469C-31 104-31 104-27 104c-0.0909-0.8168-0.1818-1.6336-0.2754-2.4751-0.4116-3.7163-0.8181-7.4331-1.2246-11.1499-0.1431-1.2852-0.2862-2.5704-0.4336-3.8945-0.203-1.8659-0.203-1.8659-0.4102-3.7696-0.1256-1.1416-0.2513-2.2832-0.3808-3.4594C-29.9874 76.1486-30.0495 73.1121-30 70c-1.65-0.33-3.3-0.66-5-1-1.32-1.32-2.64-2.64-4-4 0-3.96 0-7.92 0-12 0.99-1.65 1.98-3.3 3-5 1.98-0.66 3.96-1.32 6-2 0.1358-0.8366 0.2715-1.6732 0.4114-2.5352 0.5135-3.1396 1.0343-6.2779 1.56-9.4155 0.2249-1.3514 0.447-2.7033 0.6661-4.0556C-26.1759 22.6793-24.9639 15.8144-22 9c2.3857-1.8921 4.0718-3.0239 7-4 2.3949-0.0697 4.7917-0.0845 7.1875-0.0625 1.2723 9e-3 2.5446 0.018 3.8555 0.0273C-2.4933 4.9822-2.4933 4.9822-1 5c0.33-1.65 0.66-3.3 1-5z" />
    <path fill="#151515" transform="translate(376.763672 21.963379)" d="M0 0c10.903 5.0539 20.2203 11.0373 27.9397 20.3479 10.3562 12.9887 16.7806 28.3647 20.4177 44.5012 2.4907 11.9755 3.5505 23.8962 4.0203 36.1138 0.3234 6.6643 1.1633 12.0126 4.0188 18.0767 0.8398 1.997 0.8398 1.997 0.8398 4.997-1.5299 1.237-3.0599 2.474-4.5898 3.711-1.5428 1.2557-1.5428 1.2557-2.4102 3.289-1.65-0.33-3.3-0.66-5-1-0.33 1.32-0.66 2.64-1 4-6.27 0-12.54 0-19 0-0.99-0.66-1.98-1.32-3-2-2.845-0.4097-5.6416-0.7423-8.5-1-2.8584-0.2577-5.6549-0.5903-8.5-1-0.99-0.66-1.98-1.32-3-2-0.99 0.33-1.98 0.66-3 1-7.6532 0.4708-15.2389 0.0287-22.8544-0.7126-14.9016-1.4339-29.7208-1.5974-44.6807-1.5882-2.0117-29e-4-4.0233-58e-4-6.035-94e-4-6.3104-0.0109-12.6207-0.0116-18.9311-55e-4-5.6807 54e-4-11.3613-16e-4-17.042-0.0205-30.4216-0.0987-60.7024-0.0377-91.0072 2.9947-3.8459 0.3808-7.6936 0.6959-11.5472 0.9855-13.9802 1.1274-27.8411 3.918-41.65 6.2954-23.0759 3.9556-23.0759 3.9556-27.2524 3.0606-4.4539-1.7733-8.7346-3.8153-13-6 0.99-6.435 0.99-6.435 2-13 0.66 0 1.32 0 2 0 0.1096-1.0815 0.2192-2.163 0.3321-3.2773 0.5371-5.243 1.0994-10.4831 1.6679-15.7227 0.1608-1.4925 0.1608-1.4925 0.3247-3.0151 2.6943-24.6959 5.4536-49.6513 18.5796-71.3115 2.8619-4.3706 6.3663-8.0438 10.0957-11.6734 0.5775-0.6097 1.155-1.2194 1.75-1.8476 9.8024-9.6055 24.2763-15.1658 37.0664-19.5274C-154.7147-26.6963-64.4312-28.548 0 0zM-175.7637-2.9634c-1.558 0.2088-1.558 0.2088-3.1474 0.4219-21.806 3.0029-44.9354 8.5317-63.4698 20.9219-8.501 6.0246-15.3419 13.2473-20.5351 22.3125-8.2664 15.2293-11.6059 31.3064-13.8477 48.3437-0.1327 0.9204-0.2655 1.8408-0.4023 2.7891-1.0456 8.3364-0.6799 16.8259-0.5977 25.2109 5.6302 0.1588 10.7201-0.1448 16.25-1.375 5.6721-1.2117 11.3338-2.2557 17.0742-3.0898 2.7993-0.4076 5.5902-0.8401 8.3829-1.2891 10.2504-1.6057 20.3227-2.5591 30.6931-2.9026 4.6248-0.1651 9.0465-0.4485 13.5998-1.3435 5.3482-1.0507 10.6359-1.3209 16.0677-1.5476 0.9699-0.0419 1.9398-0.0838 2.9392-0.1269 9.9698-0.4053 19.9341-0.524 29.9111-0.5638 0.946-48e-4 1.892-96e-4 2.8667-0.0146 7.1342-0.0358 14.2685-0.0519 21.4028-0.0596 1.0473-14e-4 2.0945-29e-4 3.1735-44e-4 31.5482-0.0351 62.7641 0.477 94.1449 4.0384 2.5025 0.2795 5.0062 0.5409 7.5112 0.7961 14.4293 1.4704 28.8316 3.0238 42.9924 6.2637 4.4847 1.0212 8.4274 1.3862 12.9905 1.2187 0.2433-8.1797-0.6619-16.1435-1.6875-24.25-0.0889-0.7066-0.1779-1.4133-0.2696-2.1413-2.4592-19.2557-5.7548-38.2034-16.1054-54.9446-5.8525-8.298-12.7453-14.8348-21.6328-19.7852-4.0247-2.1338-8.1359-4.0448-12.3047-5.8789-0.9291-0.4116-0.9291-0.4116-1.8769-0.8315C-30.4705 1.0639-51.4369-2.8927-71.7637-4.9634c-0.9059-0.0942-1.8117-0.1885-2.7451-0.2856-13.0054-1.1356-26.086-0.9574-39.1299-0.9644-1.9415-15e-4-1.9415-15e-4-3.9222-3e-3-19.5852 0.0103-38.7915 0.4995-58.2028 3.253z" />
    <path fill="#181818" transform="translate(271.375 350.25)" d="M0 0c5.1783 1.773 9.0596 4.3411 13.125 8 5.6666 6.2332 9.7414 12.6689 13.25 20.3125 0.6318 1.3452 0.6318 1.3452 1.2764 2.7175 2.299 4.9377 4.4991 9.9106 6.6299 14.9231 0.4347 1.0202 0.8694 2.0404 1.3173 3.0916 0.8283 1.9583 1.646 3.9212 2.4512 5.8891 2.4992 5.9418 5.4452 10.8614 9.5752 15.8162 0 0.66 0 1.32 0 2 5.94-0.495 5.94-0.495 12-1 2.31-1.65 4.62-3.3 7-5 0.66 0 1.32 0 2 0 0.2062-0.5775 0.4125-1.155 0.625-1.75 1.375-2.25 1.375-2.25 3.75-4.3125 5.3443-3.3059 11.8183-4.4703 17.9805-5.2266 6.4141-0.257 12.5871 1.2844 18.6445 3.2891 4.6502 2.369 8.0626 5.6918 11.3867 9.6719 2.8753 4.1492 4.48 8.4263 5.6133 13.3281 0.6704 4.886 0.4701 9.1819-0.7656 13.9609-1.7135 5.0726-3.599 9.0401-7.2344 13.0391-0.7089 1.3114-1.3946 2.6378-2 4-0.825 0.3713-1.65 0.7425-2.5 1.125-2.8017 1.5009-4.681 2.8152-7.0625 4.8125-5.8722 4.5484-13.0006 6.0971-20.1484 7.6523-14.5398 1.8132-29.1224 0.9341-43.0743-3.4687-5.7722-2.0808-10.71-4.9304-15.2148-9.1211-2.1953-2.9742-3.219-5.4353-4-9-0.6274-6.2744 0.4616-11.304 2.3125-17.25 0.2129-0.6855 0.4257-1.3709 0.645-2.0771 1.2723-3.8822 2.7902-7.2647 5.0425-10.6729 1.4374-0.0271 2.8749-0.0465 4.3125-0.0625 1.2008-0.0174 1.2008-0.0174 2.4258-0.0352C41.625 74.75 41.625 74.75 44.625 75.75c-0.7657-1.137-0.7657-1.137-1.5469-2.2969-5.5017-8.5082-9.6073-17.3613-13.5156-26.7031-7.4405-18.9151-7.4405-18.9151-19.0117-35.418-4.074-3.3468-8.8103-5.5737-13.8086-7.1914-6.0579-1.1177-12.8292-1.2751-18.7891 0.3281-2.2298 0.9535-4.2546 2.0264-6.3281 3.2813-0.6123 0.3274-1.2246 0.6548-1.8555 0.9922-3.8346 2.3194-6.1683 5.1685-8.6445 8.8828-5.0472 8.4345-8.9285 17.4091-12.7656 26.4375-0.3914 0.9206-0.7828 1.8411-1.1861 2.7896-0.7607 1.7979-1.516 3.5983-2.2646 5.4013-3.5613 8.4697-7.7959 16.1272-13.2837 23.4966 3.96 0 7.92 0 12 0 4.1158 8.5654 7.9424 17.0651 8.4375 26.6875-0.1341 3.1301-0.7396 5.6314-2 8.5-1.9513 3.403-4.1751 6.0036-7.2539 8.4336-7.9365 5.0118-16.9389 7.5464-26.1211 9.0039-14.8936 1.354-28.5002 0.3728-42.5508-4.9453-5.1449-2.345-8.9963-4.8092-12.7617-9.0547-0.9376-1.1921-1.8631-2.3946-2.75-3.625 0-0.66 0-1.32 0-2-1.32-0.33-2.64-0.66-4-1-0.6509-1.2474-1.2955-2.498-1.9375-3.75-0.5395-1.0441-0.5395-1.0441-1.0898-2.1094-2.6085-5.7406-2.4424-11.8805-2.3125-18.082 0.1976-3.543 0.8789-6.3795 2.4023-9.6211 2.688-4.475 5.7588-8.2854 9.9375-11.4375 5.1733-3.0315 10.3312-5.7835 16.3711-6.2734 6.6235-0.237 12.6673-0.1851 18.9414 2.2109 5.4249 2.5755 9.8328 6.1078 14.3125 10.0742 2.176 1.8217 3.7146 3.0572 6.375 3.9883 3.2794 0.2414 3.2794 0.2414 6.75 0.125 1.7557-0.0271 1.7557-0.0271 3.5469-0.0547 1.338-0.0348 1.338-0.0348 2.7031-0.0703 0.2565-0.8443 0.513-1.6887 0.7773-2.5586 1.3072-3.6792 2.9823-7.0535 4.7852-10.5039 3.2967-6.4281 6.2079-12.9637 9-19.625 4.9524-11.6868 9.785-22.5993 18.6758-31.9258 4.9218-4.2535 10.5737-7.0616 16.7617-9.0195C-12.9573-2.0611-6.2689-1.7477 0 0z" />
    <path fill="#161616" transform="translate(268 370)" d="M0 0c2.31 0 4.62 0 7 0 2.64 1.98 5.28 3.96 8 6 0.6875 2.4375 0.6875 2.4375 1 6-0.7742 3.0916-1.8342 6.0361-3 9 2.64 0 5.28 0 8 0 0.99 0.99 0.99 0.99 2 2 0 6.27 0 12.54 0 19 1.65 0.66 3.3 1.32 5 2 1.8125 1.625 1.8125 1.625 3 3-0.77 5.2699-2.0306 10.3545-3.375 15.5-0.2088 0.8289-0.4177 1.6577-0.6328 2.5117C25.7797 69.6619 24.3499 73.7674 22 78c-1.65 0.33-3.3 0.66-5 1 0.66 0.66 1.32 1.32 2 2-0.6203 6.5753-2.149 12.6669-4 19-2.31 0-4.62 0-7 0 0 2.31 0 4.62 0 7-7.5808-0.8844-7.5808-0.8844-9.8633-1.5137-2.2326-0.5081-4.1782-0.6003-6.4648-0.584-1.1989 49e-4-1.1989 49e-4-2.4219 98e-4-0.825 84e-4-1.65 0.0168-2.5 0.0254-0.8405 45e-4-1.6809 9e-3-2.5469 0.0137-2.0677 0.0117-4.1354 0.0297-6.2031 0.0488 0-2.31 0-4.62 0-7-3.465 0.99-3.465 0.99-7 2-0.66 0.99-1.32 1.98-2 3-0.6779-2.3514-1.3424-4.7054-2-7.0625-0.1908-0.6568-0.3816-1.3136-0.5781-1.9902C-34.796 89.5326-35.1923 85.6206-35 81c0.495-0.495 0.495-0.495 1-1-1.65-0.66-3.3-1.32-5-2-4.3686-10.7057-8.6767-21.2713-8-33 3.465-0.495 3.465-0.495 7-1 0-6.6 0-13.2 0-20 1.32-0.99 2.64-1.98 4-3 1.98 0 3.96 0 6 0-0.2282-0.5917-0.4563-1.1834-0.6914-1.793-2.3772-6.5346-2.3772-6.5346-1.9961-10.2695C-32.3472 7.9784-32.3472 7.9784-32 7c2.31-1.98 4.62-3.96 7-6 2.97 0 5.94 0 9 0 1.98 2.31 3.96 4.62 6 7 2.3486-0.6018 2.3486-0.6018 5-2 1.8626-1.8928 3.3857-3.8784 5-6z" />
    <path fill="#272727" transform="translate(265.625 2.8125)" d="M0 0c0.962 6e-4 1.924 12e-4 2.9152 18e-4 38.5291 0.0655 77.4767 4.0553 112.5555 21.2106 10.7175 5.5039 18.8737 12.0149 26.1834 21.5876 10.9487 15.0305 16.2064 32.3536 19.466 50.4485 1.5449 9.0306 2.423 17.9011 2.3174 27.064-45e-4 0.7657-9e-3 1.5314-0.0137 2.3203-0.0115 1.8516-0.0295 3.7032-0.0488 5.5547-1.65 0.99-3.3 1.98-5 3-1.65-0.33-3.3-0.66-5-1-1.0438-5.7103-1.9475-11.4149-2.625-17.1797-2.3946-20.2741-5.5147-40.5811-16.4727-58.1914-5.6426-7.9714-11.9819-13.9598-20.5312-18.6836C90.7038 23.938 65.2171 17.82 39.375 15.1875c-0.9059-0.0943-1.8118-0.1885-2.7451-0.2856C23.6245 13.7663 10.5438 13.9445-2.5 13.9375c-1.9415-15e-4-1.9415-15e-4-3.9223-31e-4-19.5851 0.0104-38.7914 0.4996-58.2027 3.2531-1.0387 0.1392-2.0773 0.2784-3.1475 0.4219-21.8712 3.0119-44.8095 8.6119-63.4697 20.8867-8.7757 6.1413-14.8948 13.7674-20.3125 22.9687-12.3334 23.1053-13.534 49.0916-15.0703 74.7227 1.65 0 3.3 0 5 0-0.99 0.99-0.99 0.99-2 2-1.32-0.33-2.64-0.66-4-1-0.33-0.99-0.66-1.98-1-3-1.1138-0.4022-1.1138-0.4022-2.25-0.8125-2.6267-1.1342-4.5092-2.4399-6.75-4.1875 0.3514-25.0748 3.8307-51.8173 14.9375-74.5 2.8637-5.5812 5.8605-10.8049 10.0625-15.5 0.62-0.7232 1.2401-1.4463 1.8789-2.1914 9.4332-10.2671 22.3467-15.8554 35.1016-20.9297C-79.0661 2.0874-38.7833-0.0454 0 0z" />
    <path fill="#161616" transform="translate(162 407)" d="M0 0c7.114 1.7077 12.3824 5.0866 18 9.6875 0.8663 0.767 1.7325 1.534 2.625 2.3242C22.7962 13.8294 24.3596 15.0367 27 16c2.2413 0.2869 4.4944 0.4897 6.75 0.625 1.1705 0.0748 2.3409 0.1495 3.5469 0.2266C38.1889 16.9005 39.0809 16.9495 40 17c0 0.66 0 1.32 0 2 4.29 0 8.58 0 13 0 4.1158 8.5654 7.9424 17.0651 8.4375 26.6875-0.1341 3.1301-0.7396 5.6314-2 8.5-1.9513 3.403-4.1751 6.0036-7.2539 8.4336-7.9365 5.0118-16.9389 7.5464-26.1211 9.0039-14.8936 1.354-28.5002 0.3728-42.5508-4.9453-5.1449-2.345-8.9963-4.8092-12.7617-9.0547-0.9376-1.1921-1.8631-2.3946-2.75-3.625 0-0.66 0-1.32 0-2-1.32-0.33-2.64-0.66-4-1-0.6509-1.2474-1.2955-2.498-1.9375-3.75-0.3596-0.6961-0.7193-1.3922-1.0898-2.1094-2.6085-5.7406-2.4424-11.8805-2.3125-18.082 0.1976-3.543 0.8789-6.3795 2.4023-9.6211C-36.2495 12.9625-33.1787 9.1521-29 6c9.5082-5.5718 18.1107-7.1379 29-6z" />
    <path fill="#161616" transform="translate(240.443115 163.012939)" d="M0 0c0.5138 0.3257 1.0275 0.6515 1.5569 0.9871 1 1.6875 1 1.6875 2 4 0.125 2.75 0.125 2.75 0 5-6.3951 7.5142-14.4326 11.4224-23 16-15.9358 8.5771-31.11 18.153-46.2305 28.0898-1.0271 0.6739-2.0543 1.3479-3.1125 2.0422-1.9678 1.2934-3.9326 2.5912-5.8941 3.8941-5.9958 3.9493-11.9093 7.6893-18.7629 9.9739-1.728 0.068-3.4584 0.0849-5.1875 0.0625-1.3516-0.0136-1.3516-0.0136-2.7305-0.0274-0.6871-0.0116-1.3741-0.0232-2.082-0.0351-3.4264-2.0267-5.6445-3.5382-8.0899-6.7149-7.1484-12.4683-11.8855-26.238-14.9101-40.2851-0.1953-3.4063-0.1953-3.4063-0.125-6.5 0.018-1.0416 0.0361-2.0832 0.0547-3.1563 0.0348-1.1601 0.0348-1.1601 0.0703-2.3437 1.32-1.32 2.64-2.64 4-4 18.7176-1.5187 37.44-2.9727 56.1649-4.3983 5.3199-0.4061 10.6389-0.8224 15.9575-1.2458 3.5769-0.2838 7.1542-0.5627 10.7316-0.8408 1.6912-0.1327 3.3822-0.2674 5.073-0.4045C-5.4419-2.2563-5.4419-2.2563 0 0z" />
    <path fill="#191919" transform="translate(278 163)" d="M0 0c16.1534-0.3473 31.9794-0.034 48.0564 1.5817 15.395 1.5348 30.801 2.1588 46.26 2.6834C103.6948 4.6008 112.7993 5.004 122 7c1.98 1.98 1.98 1.98 4 4 0.9494 11.9418-1.73 22.3443-5.9253 33.4492-0.9666 2.4307-1.9744 4.8373-3.0122 7.2383-0.3113 0.7299-0.6226 1.4597-0.9434 2.2117C113.8289 58.9443 110.9663 63.1108 107 67c-3.2218 2.125-5.4357 2.924-9.25 3.4375-7.0412-0.8215-13.0889-3.8581-19.0195-7.6523-1.8529-1.2331-3.7004-2.4743-5.543-3.7227-2.0379-1.352-4.077-2.7022-6.1172-4.0508-1.018-0.675-2.0361-1.35-3.0849-2.0454-14.6476-9.6476-29.7556-18.2379-45.2237-26.4912-4.0375-2.1565-8.0644-4.3301-12.0742-6.5376-0.6456-0.3458-1.2912-0.6916-1.9563-1.0479-2.5303-1.4019-4.6115-2.7631-6.6062-4.8701C-3.7056 10.7333-3.6898 7.7219-4 4c0.99 0 1.98 0 3 0 0.33-1.32 0.66-2.64 1-4z" />
    <path fill="#191919" transform="translate(269.027344 249.621094)" d="M0 0c11.2243 3.6233 19.768 11.8574 28.1836 19.7813 2.315 2.156 4.6712 4.2004 7.1016 6.2226 4.2037 3.6221 7.4395 7.8989 10.6875 12.375-0.33 1.65-0.66 3.3-1 5-1.32 0.33-2.64 0.66-4 1-0.33-0.99-0.66-1.98-1-3 0.99 0 1.98 0 3 0 0-0.66 0-1.32 0-2-1.32-0.66-2.64-1.32-4-2-0.33-0.99-0.66-1.98-1-3-0.99 0.66-1.98 1.32-3 2-1.65 0-3.3 0-5 0-1.98-1.98-3.96-3.96-6-6 0-1.32 0-2.64 0-4-0.8869-0.2887-1.7738-0.5775-2.6875-0.875-3.3125-1.125-3.3125-1.125-5.5899-2.2187-3.4398-1.145-5.9951-0.8799-9.5976-0.5313-5.2226 0.4911-10.1233 0.5236-15.375 0.1875-8.2296-0.0518-14.9202 2.6095-22.2969 6.1016-9.7704 4.9511-17.5663 12.2133-25.5078 19.6289-17.5119 16.2462-17.5119 16.2462-28.5078 19.582-1.4751 0.3907-2.953 0.7717-4.4375 1.125-0.99 1.65-1.98 3.3-3 5-0.6033 0.254-1.2066 0.5079-1.8282 0.7695-5.9286 2.5262-5.9286 2.5262-11.1718 6.2305-0.66 0-1.32 0-2 0 2.0214-4.2747 4.6227-7.7019 8-11 1.7714-1.3397 3.5657-2.6494 5.375-3.9375 5.4485-3.9589 10.1907-8.3512 14.9375-13.125 0.6572-0.6606 1.3145-1.3211 1.9917-2.0017 3.7888-3.8611 7.4001-7.8387 10.9387-11.9292 3.0049-3.4316 6.1318-6.7473 9.2571-10.0691 0.6252-0.6684 1.2503-1.3368 1.8945-2.0254 6.4928-6.9162 12.823-13.4441 20.6055-18.9121 0.7347-0.5285 1.4695-1.057 2.2265-1.6016C-22.3864-0.4877-12.7928-2.6246 0 0z" />
    <path fill="#f9f9f9" transform="translate(467 298)" d="M0 0c1.32 0.33 2.64 0.66 4 1 3.0859 3.2527 5.268 6.0801 6.8125 10.3125C12.1696 16.0001 12.662 20.153 12 25 7.5818 45.5904-5.4664 64.0258-17.6602 80.7813-20.8331 85.1461-23.9179 89.5708-27 94c-1.485 0.495-1.485 0.495-3 1-2.4699-5.8643-4.7158-11.8057-6.8125-17.8125-0.6594-1.8659-0.6594-1.8659-1.332-3.7695C-39 70-39 70-38.7202 67.5901c0.7854-2.8245 1.8806-4.9373 3.3882-7.4495 0.5566-0.9385 1.1132-1.877 1.6867-2.844 0.6048-1.0054 1.2097-2.0107 1.8328-3.0466 1.2806-2.159 2.5592-4.3192 3.8359-6.4805 0.9876-1.6713 0.9876-1.6713 1.9952-3.3764 3.1773-5.4411 6.2354-10.9471 9.2939-16.4556C-2.5652 2.5652-2.5652 2.5652 0 0z" />
    <path fill="#f9f9f9" transform="translate(49 299)" d="M0 0c1.32 0.33 2.64 0.66 4 1 0.4847 0.981 0.9694 1.962 1.4688 2.9727C7.626 8.3252 9.8109 12.6635 12 17c0.3097 0.6189 0.6194 1.2378 0.9385 1.8755 7.4094 14.7326 16.4834 28.5976 25.8686 42.1387 1.1975 1.9935 1.884 3.7352 2.4429 5.9858 0.4029 6.8974-3.0412 13.751-5.5063 20.0562C34.7414 89.6759 33.8616 92.3312 33 95c-5.8941-3.2058-9.0917-7.6474-13-13-2.9969-4.2636-5.8658-8.6082-8.6958-12.9839-0.8771-1.3558-1.7583-2.709-2.6436-4.0596C3.1953 56.6046-1.6988 48.4791-5 39c-0.2256-0.64-0.4512-1.28-0.6836-1.9395-0.73-2.0972-1.4344-4.2013-2.1289-6.3105-0.2195-0.6497-0.4391-1.2994-0.6653-1.9687C-9.9957 23.9533-10.3178 19.9978-10 15c1.0627-3.9126 2.7701-7.4948 5.3438-10.6445C-3.4916 3.1807-2.2512 2.0821-1 1c0.33-0.33 0.66-0.66 1-1z" />
    <path fill="#f9f9f9" transform="translate(71 170)" d="M0 0c5.61 0 11.22 0 17 0 1.2968 3.8903 1.1621 7.5892 1.168 11.6445 41e-4 0.8694 83e-4 1.7387 0.0125 2.6344 98e-4 2.8446 97e-4 5.689 7e-3 8.5336 1e-4 1.4519 1e-4 1.4519 2e-4 2.933C18.1677 48.1499 17.6024 70.8409 14 93c-0.33 0.66-0.66 1.32-1 2-3.96 0-7.92 0-12 0-1.65-1.65-3.3-3.3-5-5-0.3192-1.3109-0.6299-2.6239-0.9375-3.9375-0.261-1.0963-0.261-1.0963-0.5273-2.2148-1.8576-9.8845-1.8965-19.8857-1.9727-29.9102-72e-4-0.8493-0.0143-1.6987-0.0217-2.5738C-7.5355 34.0501-4.994 17.8132-1 1c0.33-0.33 0.66-0.66 1-1z" />
    <path fill="#f9f9f9" transform="translate(433 168)" d="M0 0c3.3 0 6.6 0 10 0 1.65 1.32 3.3 2.64 5 4 8.1337 21.5868 7.6573 48.2597 5.7407 71.0884-0.6912 5.8844-1.4583 11.5808-4.3462 16.8296C15.9343 92.605 15.4741 93.2921 15 94c-4.3336 1.5854-8.4327 2.3972-13 3-5.5803-22.5445-5.2947-46.0493-5.125-69.125 0.0101-2.4349 0.0192-4.8698 0.0273-7.3047C-3.076 14.7134-3.0429 8.8567-3 3c0.99-0.99 1.98-1.98 3-3z" />
    <path fill="#f9f9f9" transform="translate(84 274)" d="M0 0c0.99 0.33 1.98 0.66 3 1 0.5195 0.9526 1.039 1.9052 1.5742 2.8867 0.704 1.2672 1.4085 2.5341 2.1133 3.8008 0.3397 0.6258 0.6793 1.2517 1.0293 1.8965C10.0309 13.7148 12.6203 16.6465 16 20c1.6974 2.3783 3.1896 4.8676 4.6875 7.375 2.9815 4.9006 6.0233 9.7227 9.2791 14.446C34.7661 48.8008 39.3178 55.8988 42 64c0.1484 3.3711 0.1484 3.3711 0 6-4.1774 1.5914-7.5316 2.2128-12 2-5.1529-6.2732-9.4109-12.7731-13.4375-19.8125-7.0102-13.167-7.0102-13.167-16.1836-24.7227C-1 26-1 26-1.8086 23.9844-2.0161 23.247-2.2237 22.5097-2.4375 21.75-3.7762 17.3992-5.6133 13.868-8 10c0.33-1.65 0.66-3.3 1-5 2.31-1.65 4.62-3.3 7-5z" />
    <path fill="#f9f9f9" transform="translate(433 273)" d="M0 0c3.1513 1.8383 6.1196 3.7597 9 6-0.4995 5.7971-2.1329 10.0229-4.875 15.125-0.4213 0.7933-0.8426 1.5867-1.2766 2.4041C-17.2386 60.2386-17.2386 60.2386-29 72c-7.3846-0.7385-7.3846-0.7385-10.5-2.0625-0.7425-0.4641-0.7425-0.4641-1.5-0.9375 0.4988-5.4522 1.948-9.6705 4.5625-14.5 0.5698-1.069 0.5698-1.069 1.1511-2.1597 4.8885-8.8527 10.8401-17.0069 16.7122-25.2231 2.1017-2.9492 4.07-5.8682 5.8047-9.0469C-11.0867 15.1504-9.3975 13.3206-7 11c1.1131-1.697 2.1764-3.4278 3.1875-5.1875C-1.0694 1.0694-1.0694 1.0694 0 0z" />
    <path fill="#f8f8f8" transform="translate(58 266)" d="M0 0c8.1548-0.4334 15.1768 0.7063 23 3-0.33 1.32-0.66 2.64-1 4-7.4183 6.0767-14.991 11.7675-23.0508 16.9688-6.653 4.3082-12.7839 8.3258-17.2578 14.9765-1.8166 3.4069-2.6201 6.4472-3.0703 10.2852-0.2624 7.6266 0.9813 14.0403 3.5039 21.2226C-17 73-17 73-17 75c-1.32-0.66-2.64-1.32-4-2-4.385-7.3315-7.5708-14.5399-9-23-0.5034-6.8445-0.2161-13.1196 2.0313-19.6328C-24.7181 22.424-20.2296 15.926-14 10-9.497 6.4149-4.7862 3.1908 0 0z" />
    <path fill="#f8f8f8" transform="translate(458 265)" d="M0 0c8.398 3.6585 15.8927 9.872 22.3242 16.3359 3.5577 4.2755 6.29 8.8873 8.0156 14.1836 1.745 9.1999 1.7378 19.1143-0.1054 28.293C28.5882 64.0385 26.54 68.7962 23 73c-1.3114 0.7088-2.6427 1.3836-4 2 0.3609-1.2671 0.7219-2.5343 1.0938-3.8398 0.4693-1.6991 0.938-3.3983 1.4062-5.0977 0.2385-0.8308 0.477-1.6616 0.7227-2.5176C23.7415 57.9685 24.6144 52.7834 24 47c-0.7088-2.7673-0.7088-2.7673-2-5.0625-0.3712-0.7541-0.7425-1.5082-1.125-2.2852C14.7085 30.9294 6.17 25.5143-2.6875 19.875c-2.4071-1.5332-4.8053-3.0791-7.1992-4.6328-1.0541-0.6718-2.1081-1.3435-3.1941-2.0357C-16.3518 10.734-18.4987 8.23-21 5c0.66-0.66 1.32-1.32 2-2C-5.662-0.6794-5.662-0.6794 0 0z" />
    <path fill="#353535" transform="translate(271.375 350.25)" d="M0 0c5.1783 1.773 9.0596 4.3411 13.125 8 5.6666 6.2332 9.7414 12.6689 13.25 20.3125 0.6318 1.3452 0.6318 1.3452 1.2764 2.7175 2.299 4.9377 4.4991 9.9106 6.6299 14.9231 0.4347 1.0202 0.8694 2.0404 1.3173 3.0916 0.8283 1.9583 1.646 3.9212 2.4512 5.8891 2.4992 5.9418 5.4452 10.8614 9.5752 15.8162 0 0.66 0 1.32 0 2 3.3 0 6.6 0 10 0 0 0.33 0 0.66 0 1-3.3 0-6.6 0-10 0-0.495 1.98-0.495 1.98-1 4-1.32 0-2.64 0-4 0 0-0.66 0-1.32 0-2 0.66 0 1.32 0 2 0-0.7657-1.137-0.7657-1.137-1.5469-2.2969-5.5017-8.5082-9.6073-17.3613-13.5156-26.7031-7.4405-18.9151-7.4405-18.9151-19.0117-35.418-4.074-3.3468-8.8103-5.5737-13.8086-7.1914-6.0579-1.1177-12.8292-1.2751-18.7891 0.3281-2.2298 0.9535-4.2546 2.0264-6.3281 3.2813-0.6123 0.3274-1.2246 0.6548-1.8555 0.9922-3.8346 2.3194-6.1683 5.1685-8.6445 8.8828-5.0472 8.4345-8.9285 17.4091-12.7656 26.4375-0.3914 0.9206-0.7828 1.8411-1.1861 2.7896-0.7607 1.7979-1.516 3.5983-2.2646 5.4013-3.5613 8.4697-7.7959 16.1272-13.2837 23.4966-0.33-0.66-0.66-1.32-1-2-0.66-0.33-1.32-0.66-2-1 0.66 0 1.32 0 2 0 0.2565-0.8443 0.513-1.6887 0.7773-2.5586 1.3072-3.6792 2.9823-7.0535 4.7852-10.5039 3.2967-6.4281 6.2079-12.9637 9-19.625 4.9524-11.6868 9.785-22.5993 18.6758-31.9258 4.9218-4.2535 10.5737-7.0616 16.7617-9.0195C-12.9573-2.0611-6.2689-1.7477 0 0z" />
    <path fill="#2e2e2e" transform="translate(416 204)" d="M0 0c1.5276 2.7639 2.2963 4.9873 2.5942 8.126 0.08 0.8005 0.1599 1.601 0.2423 2.4258 0.0771 0.8543 0.1543 1.7086 0.2338 2.5888 0.086 0.8822 0.1719 1.7644 0.2605 2.6733 0.2722 2.8114 0.5333 5.6237 0.7942 8.4361 0.1829 1.9089 0.3665 3.8178 0.5508 5.7266C5.1255 34.6503 5.5654 39.3248 6 44c-1.32-0.99-2.64-1.98-4-3-3.3043 1.398-5.7044 3.4282-8.4062 5.7578C-8.7448 48.5805-11.3092 49.7827-14 51c-0.99-0.33-1.98-0.66-3-1 0.5311-0.6548 1.0622-1.3097 1.6094-1.9844 0.7064-0.9126 1.4128-1.8253 2.1406-2.7656 0.6961-0.8817 1.3922-1.7634 2.1094-2.6719C-5.3865 33.918-3.9814 22.7792-2.25 12.75c0.2204-1.2336 0.4409-2.4673 0.668-3.7383C-1.0467 6.0091-0.5195 3.0054 0 0z" />
    <path fill="#efefef" transform="translate(119 174)" d="M0 0c0.99 0.33 1.98 0.66 3 1 0.2004 0.8856 0.4009 1.7712 0.6074 2.6836 4.7679 21.9255 4.7679 21.9255 13.7285 42.3555C18.9857 48.9746 20.0426 51.7798 21 55c-3.1578-1.3636-5.618-2.618-8.0625-5.0625-4.5605-6.9144-7.4992-14.1797-10.125-22-0.3749-1.1151-0.3749-1.1151-0.7573-2.2527C-0.6606 17.3475-2.279 9.7871-2 1c0.66-0.33 1.32-0.66 2-1z" />
    <path fill="#f4f4f4" transform="translate(397 174)" d="M0 0c1.32 0.66 2.64 1.32 4 2 0.2662 5.8244-0.6742 10.8696-2.125 16.5-0.2252 0.8757-0.4504 1.7514-0.6824 2.6536-4.8849 18.3723-4.8849 18.3723-10.3528 25.7683C-11.0335 49.0497-12.9318 51.063-15 53c-2.475 0.495-2.475 0.495-5 1 0.4254-0.6987 0.8508-1.3973 1.2891-2.1172C-12.225 40.9545-8.5055 30.5991-5.563 18.2935c0.8537-3.4779 1.8278-6.913 2.813-10.356 0.3145-1.1047 0.6291-2.2095 0.9531-3.3477C-1 2-1 2 0 0z" />
    <path fill="#000" transform="translate(94 326)" d="M0 0c1.32 0.33 2.64 0.66 4 1 0.99 1.65 1.98 3.3 3 5-0.33 1.32-0.66 2.64-1 4-5.28 2.97-10.56 5.94-16 9-1.32-0.33-2.64-0.66-4-1-1.0523-1.973-2.0479-3.9768-3-6 0-0.99 0-1.98 0-3 2.269-1.3158 4.54-2.6278 6.8125-3.9375 0.6426-0.3732 1.2852-0.7464 1.9473-1.1309C-5.5168 2.3653-2.9889 0.9963 0 0z" />
    <path transform="translate(422 324)" d="M0 0c2.608 1.2635 5.2112 2.5354 7.8125 3.8125 0.738 0.3564 1.476 0.7129 2.2363 1.0801 1.0683 0.5269 1.0683 0.5269 2.1582 1.0644 0.6546 0.3195 1.3092 0.6389 1.9837 0.968C16.1162 8.069 17.4884 9.3574 19 11c-1.0588 3.4031-2.009 6.0135-4 9-5.3125-1.2858-9.3701-3.157-13.9375-6.125-0.5885-0.3725-1.1769-0.7451-1.7832-1.1289C-2.152 11.8384-3.5767 10.9203-5 10-3.8441 6.0879-2.6447 3.1255 0 0z" />
    <path transform="translate(428 313)" d="M0 0c5.0298 0.3869 8.5976 2.1707 12.875 4.6563C15.4124 6.2608 17.7366 8.0287 20 10c-1.0588 3.4031-2.009 6.0135-4 9-4.7655-1.3761-8.7249-3.4678-12.875-6.125-0.593-0.3725-1.1859-0.7451-1.7969-1.1289C-0.1181 10.8364-1.5596 9.919-3 9c0.6145-3.3382 1.3456-6.0221 3-9z" />
    <path fill="#000" transform="translate(87 314)" d="M0 0c1.32 0.33 2.64 0.66 4 1 0.66 1.65 1.32 3.3 2 5-0.33 1.32-0.66 2.64-1 4-5.61 2.97-11.22 5.94-17 9-2.8333-2.8333-3.7191-4.3545-5-8 5.2292-5.0724 10.1622-8.4516 17-11z" />
    <path transform="translate(80 302)" d="M0 0c1.32 0.33 2.64 0.66 4 1 0.66 1.98 1.32 3.96 2 6-4.8787 4.4635-9.8473 8.4297-16 11-1.32 0-2.64 0-4 0-1.2566-2.906-2-4.796-2-8 5.2262-3.5552 10.4681-6.9398 16-10z" />
    <path fill="#000" transform="translate(436 301)" d="M0 0c6.5551 2.4764 12.1671 6.1501 18 10 0 1.65 0 3.3 0 5-0.99 0.99-1.98 1.98-3 3-4.2195-0.5754-7.0577-2.0178-10.625-4.3125-0.941-0.5943-1.882-1.1885-2.8516-1.8008C-0.8698 10.0973-2.3686 8.4799-4 6c1.32-1.98 2.64-3.96 4-6z" />
    <path transform="translate(414 337)" d="M0 0c4.9144 1.4365 9.0024 3.5416 13.375 6.125 0.6407 0.3725 1.2813 0.7451 1.9414 1.1289C16.8805 8.1643 18.4407 9.0815 20 10c-0.66 1.98-1.32 3.96-2 6-0.99 0.66-1.98 1.32-3 2-2.0659-1.0768-4.1276-2.1617-6.1875-3.25-1.1486-0.6033-2.2971-1.2066-3.4805-1.8281C2.2827 11.163-0.3249 9.2771-3 7c0.33-1.65 0.66-3.3 1-5 0.66-0.66 1.32-1.32 2-2z" />
    <path fill="#000" transform="translate(102 338)" d="M0 0c1.32 0.33 2.64 0.66 4 1 0.66 1.65 1.32 3.3 2 5-6.1123 4.6292-12.0028 8.8315-19 12-0.99-0.99-1.98-1.98-3-3-0.33-1.32-0.66-2.64-1-4 5.242-4.9002 10.4784-8.0344 17-11z" />
    <path transform="translate(74 293)" d="M0 0c1.32 0 2.64 0 4 0 0.66 1.98 1.32 3.96 2 6-5.61 3.3-11.22 6.6-17 10-1.32-0.33-2.64-0.66-4-1-0.33-1.65-0.66-3.3-1-5 2.2909-1.4804 4.5827-2.9594 6.875-4.4375 0.651-0.4209 1.302-0.8418 1.9727-1.2754C-2.2266 1.1133-2.2266 1.1133 0 0z" />
    <path transform="translate(441 292)" d="M0 0c7.433 1.8852 12.9343 5.3779 19 10-0.99 1.98-1.98 3.96-3 6-2.608-1.2635-5.2112-2.5354-7.8125-3.8125-0.738-0.3564-1.476-0.7129-2.2363-1.0801-0.7122-0.3512-1.4244-0.7025-2.1582-1.0644-0.6546-0.3195-1.3092-0.6389-1.9837-0.968C-0.1162 7.931-1.4884 6.6426-3 5c0.99-1.65 1.98-3.3 3-5z" />
    <path transform="translate(74 285)" d="M0 0c0.33 1.32 0.66 2.64 1 4-5.5287 3.9602-11.0216 7.7509-17 11-0.99-0.33-1.98-0.66-3-1 0.33-1.65 0.66-3.3 1-5 1.3898-1.1324 2.7871-2.2556 4.1875-3.375 0.7773-0.6265 1.5546-1.253 2.3555-1.8984C-7.5115 0.954-4.8473 0 0 0z" />
    <path transform="translate(445 284)" d="M0 0c3.6629 0.3465 5.994 0.9966 9.2109 2.8477 1.0442 0.7309 2.0883 1.4618 3.1641 2.2148 1.0596 0.7335 2.1192 1.467 3.2109 2.2227C16.3826 7.8511 17.1792 8.417 18 9c0 1.98 0 3.96 0 6-4.7655-1.3761-8.7249-3.4678-12.875-6.125-0.593-0.3725-1.1859-0.7451-1.7969-1.1289C1.8819 6.8364 0.4404 5.919-1 5c0.33-1.65 0.66-3.3 1-5z" />
    <path fill="#040404" transform="translate(409 347)" d="M0 0c12.6697 6.1503 12.6697 6.1503 18 10-0.33 1.32-0.66 2.64-1 4-3.9991-1.3566-6.5499-3.1257-9.625-6C4.9573 5.7556 2.7534 3.8356 0 2 0 1.34 0 0.68 0 0z" />
    <path fill="#040404" transform="translate(107 349)" d="M0 0c0.66 0.33 1.32 0.66 2 1-0.5685 0.4357-1.137 0.8714-1.7227 1.3203C-4.6049 6.0859-9.3537 9.9469-14 14c-0.66-1.32-1.32-2.64-2-4 4.7751-4.2812 10.3616-7.0376 16-10z" />
    <path fill="#313131" transform="translate(90 372)" d="M0 0c0.66 0.33 1.32 0.66 2 1-0.6219 1.7511-1.2477 3.5008-1.875 5.25-0.348 0.9745-0.6961 1.9491-1.0547 2.9531C-1.8327 11.5629-2.8208 13.7691-4 16c-0.66-0.33-1.32-0.66-2-1 0.5311-5.311 2.3807-9.4272 5-14 0.33-0.33 0.66-0.66 1-1z" />
    <path fill="#3c3c3c" transform="translate(87 380)" d="M0 0c0.33 1.32 0.66 2.64 1 4-0.66 1.32-1.32 2.64-2 4-0.66-0.33-1.32-0.66-2-1 0.33-1.98 0.66-3.96 1-6 0.66-0.33 1.32-0.66 2-1z" />
    <path fill="#2e2e2e" transform="translate(121 263)" d="M0 0c1.32 0.33 2.64 0.66 4 1-0.33 0.66-0.66 1.32-1 2-1.98 0.66-3.96 1.32-6 2 1.875-3.875 1.875-3.875 3-5z" />
</svg>